<?xml version="1.0" encoding="utf-8"?>
<svg viewBox="0 0 390 54" xmlns="http://www.w3.org/2000/svg">
  <defs>
    <style>.cls-1{fill:#606060;}.cls-2{fill:#bb0e3d;}.cls-3{fill:#fff;}</style>
  </defs>
  <g>
    <path class="cls-1" d="M 75 27 L 60 0 L 5.77 0 C 2.576 0 -0.011 2.596 0 5.79 L 0 5.79 L 0 48.22 C -0.006 51.407 2.573 53.994 5.76 54 L 60 54 Z"/>
    <path class="cls-2" d="M 73.5 2.82 C 72.441 1.071 70.545 0.001 68.5 0 L 64 0 L 79.2 27 L 64 54 L 68.5 54 C 70.542 53.997 72.436 52.933 73.5 51.19 L 86.98 27 Z"/>
    <rect class="cls-3" x="32" y="15" width="4" height="24"/>
    <polygon class="cls-3" points="24 15 24 32.6 13 15 9 15 9 39 13 39 13 21.41 24 39 28 39 28 15 24 15"/>
    <polygon class="cls-3" points="55 15 55 25 44 25 44 15 40 15 40 39 44 39 44 29 55 29 55 39 59 39 59 15 55 15"/>
  </g>
  <g>
    <path class="cls-2" d="M 99.5 11.287 L 101.949 11.287 L 101.949 22.285 L 99.5 22.285 Z"/>
    <path class="cls-2" d="M 112.332 11.287 L 114.781 11.287 L 114.781 22.285 L 112.332 22.285 L 107.106 15.343 L 107.106 22.285 L 104.657 22.285 L 104.657 11.287 L 106.947 11.287 L 112.332 18.318 Z"/>
    <path class="cls-2" d="M 120.047 13.479 C 119.818 13.67 119.687 13.954 119.69 14.252 C 119.689 14.564 119.855 14.852 120.126 15.006 C 120.754 15.318 121.421 15.545 122.109 15.68 C 122.998 15.861 123.828 16.255 124.529 16.831 C 125.133 17.414 125.449 18.234 125.392 19.072 C 125.42 20 125.012 20.887 124.291 21.471 C 123.459 22.114 122.425 22.437 121.376 22.384 C 119.62 22.38 117.938 21.69 116.685 20.46 L 118.143 18.665 C 119.013 19.563 120.179 20.117 121.425 20.222 C 121.8 20.241 122.172 20.14 122.486 19.934 C 122.737 19.754 122.882 19.46 122.873 19.151 C 122.881 18.833 122.723 18.532 122.457 18.358 C 121.953 18.077 121.407 17.879 120.84 17.773 C 119.832 17.587 118.877 17.181 118.044 16.583 C 117.407 15.999 117.078 15.153 117.151 14.292 C 117.105 13.351 117.528 12.447 118.282 11.882 C 119.094 11.297 120.078 11.001 121.078 11.039 C 121.828 11.043 122.572 11.171 123.28 11.416 C 123.979 11.647 124.627 12.007 125.193 12.477 L 123.954 14.272 C 123.113 13.587 122.064 13.205 120.979 13.191 C 120.645 13.181 120.318 13.282 120.047 13.479 Z"/>
    <path class="cls-2" d="M 132.095 13.409 L 132.095 22.285 L 129.646 22.285 L 129.646 13.409 L 126.542 13.409 L 126.542 11.287 L 135.209 11.287 L 135.209 13.409 Z"/>
    <path class="cls-2" d="M 136.944 11.287 L 139.394 11.287 L 139.394 22.285 L 136.944 22.285 Z"/>
    <path class="cls-2" d="M 146.742 13.409 L 146.742 22.285 L 144.292 22.285 L 144.292 13.409 L 141.179 13.409 L 141.179 11.287 L 149.846 11.287 L 149.846 13.409 Z"/>
    <path class="cls-2" d="M 154.546 19.429 C 155.402 20.449 156.973 20.449 157.828 19.429 C 158.264 18.825 158.478 18.089 158.433 17.346 L 158.433 11.287 L 160.853 11.287 L 160.853 17.425 C 160.945 18.779 160.466 20.109 159.534 21.095 C 157.609 22.808 154.706 22.808 152.781 21.095 C 151.843 20.116 151.361 18.788 151.452 17.435 L 151.452 11.287 L 153.911 11.287 L 153.911 17.326 C 153.867 18.08 154.092 18.826 154.546 19.429 Z"/>
    <path class="cls-2" d="M 168.072 13.409 L 168.072 22.285 L 165.623 22.285 L 165.623 13.409 L 162.519 13.409 L 162.519 11.287 L 171.186 11.287 L 171.186 13.409 Z"/>
    <path class="cls-2" d="M 181.905 20.747 C 179.609 22.932 176.001 22.932 173.705 20.747 C 171.498 18.505 171.498 14.908 173.705 12.666 C 176.001 10.481 179.609 10.481 181.905 12.666 C 184.128 14.901 184.128 18.512 181.905 20.747 Z M 181.072 16.712 C 181.092 15.788 180.755 14.893 180.13 14.213 C 178.9 12.823 176.73 12.823 175.499 14.213 C 174.268 15.636 174.268 17.748 175.499 19.171 C 176.736 20.547 178.894 20.547 180.13 19.171 C 180.745 18.5 181.082 17.621 181.072 16.712 Z"/>
    <path class="cls-2" d="M 197.464 11.287 L 199.914 11.287 L 199.914 22.285 L 197.464 22.285 L 192.228 15.343 L 192.228 22.285 L 189.789 22.285 L 189.789 11.287 L 192.08 11.287 L 197.464 18.318 Z"/>
    <path class="cls-2" d="M 210.435 22.285 L 209.443 19.915 L 204.852 19.915 L 203.86 22.285 L 201.252 22.285 L 205.992 11.307 L 208.362 11.307 L 213.033 22.285 Z M 207.123 14.57 L 205.744 17.763 L 208.452 17.763 Z"/>
    <path class="cls-2" d="M 219.36 20.093 C 220.524 20.125 221.632 19.593 222.335 18.665 L 223.862 20.301 C 221.667 22.88 217.766 23.11 215.284 20.807 C 213.084 18.547 213.084 14.945 215.284 12.685 C 216.374 11.613 217.851 11.027 219.38 11.059 C 221.118 11.033 222.776 11.787 223.901 13.112 L 222.374 14.837 C 221.712 13.918 220.651 13.37 219.518 13.36 C 218.644 13.34 217.797 13.664 217.158 14.262 C 216.487 14.887 216.125 15.775 216.167 16.692 C 216.124 17.603 216.458 18.492 217.089 19.151 C 217.681 19.768 218.505 20.11 219.36 20.093 Z"/>
    <path class="cls-2" d="M 225.795 11.287 L 228.284 11.287 L 228.284 22.285 L 225.835 22.285 Z"/>
    <path class="cls-2" d="M 240.184 20.747 C 237.888 22.926 234.289 22.926 231.993 20.747 C 229.771 18.512 229.771 14.901 231.993 12.666 C 234.289 10.487 237.888 10.487 240.184 12.666 C 242.406 14.901 242.406 18.512 240.184 20.747 Z M 239.351 16.712 C 239.363 15.78 239.007 14.882 238.36 14.213 C 237.129 12.823 234.959 12.823 233.729 14.213 C 232.497 15.636 232.497 17.748 233.729 19.171 C 234.965 20.547 237.123 20.547 238.36 19.171 C 238.993 18.509 239.345 17.628 239.341 16.712 Z"/>
    <path class="cls-2" d="M 251.588 11.287 L 254.067 11.287 L 254.067 22.285 L 251.588 22.285 L 246.362 15.343 L 246.362 22.285 L 243.913 22.285 L 243.913 11.287 L 246.203 11.287 L 251.588 18.318 Z"/>
    <path class="cls-2" d="M 264.559 22.285 L 263.567 19.915 L 258.966 19.915 L 257.974 22.285 L 255.366 22.285 L 260.017 11.287 L 262.387 11.287 L 267.167 22.285 Z M 261.247 14.57 L 259.858 17.763 L 262.605 17.763 Z"/>
    <path class="cls-2" d="M 268.436 22.285 L 268.436 11.287 L 270.925 11.287 L 270.925 20.083 L 275.606 20.083 L 275.606 22.285 Z"/>
    <path class="cls-2" d="M 289.875 12.725 C 290.951 13.756 291.526 15.203 291.452 16.692 C 291.528 18.196 290.971 19.664 289.915 20.738 C 288.625 21.851 286.945 22.407 285.244 22.285 L 281.496 22.285 L 281.496 11.287 L 285.373 11.287 C 287.002 11.176 288.612 11.691 289.875 12.725 Z M 288.08 19.25 C 288.72 18.594 289.048 17.695 288.983 16.781 C 289.042 15.862 288.715 14.959 288.08 14.292 C 287.305 13.655 286.314 13.342 285.314 13.419 L 283.945 13.419 L 283.945 20.093 L 285.502 20.093 C 286.438 20.156 287.362 19.855 288.08 19.25 Z"/>
    <path class="cls-2" d="M 301.477 11.287 L 301.477 13.469 L 296.014 13.469 L 296.014 15.73 L 300.972 15.73 L 300.972 17.822 L 296.014 17.822 L 296.014 20.093 L 301.666 20.093 L 301.666 22.285 L 293.574 22.285 L 293.574 11.287 Z"/>
    <path class="cls-2" d="M 303.838 22.285 L 303.838 11.287 L 306.287 11.287 L 306.287 20.083 L 310.958 20.083 L 310.958 22.285 Z"/>
    <path class="cls-2" d="M 321.935 20.093 C 323.098 20.122 324.205 19.59 324.91 18.665 L 326.457 20.301 C 324.262 22.88 320.361 23.11 317.879 20.807 C 316.785 19.75 316.188 18.281 316.233 16.761 C 316.198 15.228 316.806 13.75 317.909 12.685 C 318.996 11.614 320.469 11.027 321.995 11.059 C 323.734 11.029 325.394 11.783 326.516 13.112 L 324.999 14.837 C 324.328 13.907 323.251 13.357 322.104 13.36 C 321.23 13.342 320.383 13.666 319.743 14.262 C 319.072 14.887 318.71 15.775 318.752 16.692 C 318.707 17.605 319.045 18.496 319.684 19.151 C 320.27 19.765 321.086 20.107 321.935 20.093 Z"/>
    <path class="cls-2" d="M 336.205 22.285 L 335.213 19.915 L 330.612 19.915 L 329.62 22.285 L 327.022 22.285 L 331.762 11.307 L 334.132 11.307 L 338.813 22.285 Z M 332.893 14.57 L 331.514 17.763 L 334.261 17.763 Z M 333.884 10.177 L 331.643 10.177 L 333.626 7.4 L 336.066 8.392 Z"/>
    <path class="cls-2" d="M 347.757 11.287 L 350.256 11.287 L 350.256 22.285 L 347.807 22.285 L 342.531 15.343 L 342.531 22.285 L 340.082 22.285 L 340.082 11.287 L 342.373 11.287 L 347.757 18.318 Z"/>
    <path class="cls-2" d="M 357.951 20.093 C 359.116 20.125 360.223 19.593 360.926 18.665 L 362.473 20.301 C 360.278 22.886 356.369 23.117 353.886 20.807 C 351.68 18.549 351.68 14.943 353.886 12.685 C 354.971 11.612 356.445 11.025 357.971 11.059 C 359.71 11.033 361.368 11.787 362.493 13.112 L 360.966 14.837 C 360.306 13.921 359.249 13.373 358.12 13.36 C 357.245 13.34 356.398 13.664 355.76 14.262 C 355.089 14.887 354.727 15.775 354.768 16.692 C 354.726 17.603 355.06 18.492 355.69 19.151 C 356.28 19.766 357.1 20.107 357.951 20.093 Z"/>
    <path class="cls-2" d="M 372.31 11.287 L 372.31 13.469 L 366.846 13.469 L 366.846 15.73 L 371.805 15.73 L 371.805 17.822 L 366.846 17.822 L 366.846 20.093 L 372.489 20.093 L 372.489 22.285 L 364.397 22.285 L 364.397 11.287 Z"/>
    <path class="cls-2" d="M 383.565 14.927 C 383.742 16.408 382.881 17.817 381.483 18.338 L 384.26 22.304 L 381.285 22.304 L 378.855 18.804 L 377.159 18.804 L 377.159 22.285 L 374.71 22.285 L 374.71 11.287 L 378.865 11.287 C 380.142 11.174 381.423 11.477 382.514 12.15 C 383.283 12.858 383.673 13.887 383.565 14.927 Z M 380.591 16.236 C 380.92 15.886 381.085 15.414 381.047 14.936 C 381.102 14.478 380.923 14.024 380.571 13.727 C 380.066 13.459 379.495 13.341 378.925 13.39 L 377.09 13.39 L 377.09 16.642 L 378.875 16.642 C 379.486 16.712 380.103 16.568 380.62 16.236 Z"/>
  </g>
  <g>
    <path class="cls-1" d="M 103.433 45.317 C 100.97 44.013 99.45 41.434 99.503 38.647 C 99.467 37.263 99.813 35.897 100.503 34.697 C 101.197 33.542 102.193 32.599 103.383 31.967 C 105.751 30.775 108.519 30.665 110.973 31.667 C 112.017 32.085 112.944 32.751 113.673 33.607 L 111.473 35.607 C 110.536 34.485 109.134 33.857 107.673 33.907 C 106.818 33.892 105.974 34.098 105.223 34.507 C 104.514 34.895 103.931 35.478 103.543 36.187 C 102.731 37.723 102.731 39.561 103.543 41.097 C 103.931 41.806 104.514 42.389 105.223 42.777 C 105.974 43.186 106.818 43.392 107.673 43.377 C 109.116 43.396 110.487 42.75 111.393 41.627 L 113.593 43.627 C 112.893 44.495 111.994 45.181 110.973 45.627 C 109.868 46.088 108.68 46.316 107.483 46.297 C 106.073 46.309 104.682 45.973 103.433 45.317 Z"/>
    <path class="cls-1" d="M 124.273 35.757 C 125.281 36.754 125.8 38.143 125.693 39.557 L 125.693 46.047 L 122.603 46.047 L 122.603 44.627 C 121.983 45.687 120.823 46.217 119.133 46.217 C 118.352 46.236 117.577 46.082 116.863 45.767 C 116.266 45.511 115.755 45.087 115.393 44.547 C 115.051 44.017 114.874 43.398 114.883 42.767 C 114.852 41.793 115.295 40.864 116.073 40.277 C 117.174 39.587 118.467 39.268 119.763 39.367 L 122.393 39.367 C 122.434 38.743 122.192 38.133 121.733 37.707 C 121.163 37.267 120.45 37.057 119.733 37.117 C 119.128 37.119 118.527 37.217 117.953 37.407 C 117.415 37.573 116.91 37.834 116.463 38.177 L 115.273 35.877 C 115.954 35.418 116.708 35.08 117.503 34.877 C 118.376 34.636 119.277 34.515 120.183 34.517 C 121.653 34.408 123.111 34.85 124.273 35.757 Z M 121.463 43.607 C 121.898 43.339 122.226 42.929 122.393 42.447 L 122.393 41.287 L 120.123 41.287 C 118.773 41.287 118.123 41.727 118.123 42.617 C 118.115 43.012 118.302 43.386 118.623 43.617 C 119.029 43.882 119.509 44.011 119.993 43.987 C 120.508 43.994 121.016 43.862 121.463 43.607 Z"/>
    <path class="cls-1" d="M 138.603 35.767 C 139.54 36.789 140.011 38.154 139.903 39.537 L 139.903 46.047 L 136.603 46.047 L 136.603 40.047 C 136.652 39.331 136.442 38.622 136.013 38.047 C 135.567 37.588 134.942 37.346 134.303 37.387 C 133.556 37.343 132.827 37.624 132.303 38.157 C 131.764 38.793 131.498 39.616 131.563 40.447 L 131.563 46.077 L 128.263 46.077 L 128.263 34.667 L 131.413 34.667 L 131.413 35.997 C 131.865 35.508 132.422 35.128 133.043 34.887 C 133.721 34.622 134.445 34.489 135.173 34.497 C 136.441 34.438 137.679 34.896 138.603 35.767 Z"/>
    <path class="cls-1" d="M 144.843 45.487 C 140.909 43.458 140.648 37.931 144.372 35.539 C 144.525 35.441 144.682 35.35 144.843 35.267 C 145.856 34.756 146.978 34.498 148.113 34.517 C 149.207 34.493 150.288 34.752 151.253 35.267 C 152.124 35.747 152.81 36.504 153.203 37.417 L 150.673 38.767 C 150.197 37.797 149.203 37.189 148.123 37.207 C 147.325 37.181 146.551 37.485 145.983 38.047 C 145.399 38.67 145.092 39.504 145.133 40.357 C 145.091 41.208 145.398 42.038 145.983 42.657 C 146.547 43.226 147.323 43.534 148.123 43.507 C 149.205 43.532 150.203 42.922 150.673 41.947 L 153.233 43.337 C 152.824 44.25 152.129 45.005 151.253 45.487 C 150.289 46.006 149.208 46.268 148.113 46.247 C 146.977 46.263 145.855 46.002 144.843 45.487 Z"/>
    <path class="cls-1" d="M 166.043 41.287 L 157.433 41.287 C 157.57 41.965 157.965 42.563 158.533 42.957 C 159.171 43.382 159.927 43.596 160.693 43.567 C 161.231 43.579 161.767 43.491 162.273 43.307 C 162.751 43.115 163.186 42.829 163.553 42.467 L 165.303 44.377 C 164.092 45.658 162.372 46.333 160.613 46.217 C 159.433 46.241 158.264 45.984 157.203 45.467 C 156.257 45.006 155.465 44.28 154.923 43.377 C 154.378 42.472 154.098 41.433 154.113 40.377 C 154.102 39.323 154.378 38.286 154.913 37.377 C 155.425 36.488 156.177 35.76 157.083 35.277 C 158.037 34.771 159.103 34.513 160.183 34.527 C 161.227 34.517 162.257 34.764 163.183 35.247 C 164.072 35.716 164.808 36.431 165.303 37.307 C 165.833 38.26 166.099 39.337 166.073 40.427 C 166.073 40.427 166.083 40.737 166.043 41.287 Z M 158.323 37.627 C 157.802 38.067 157.469 38.69 157.393 39.367 L 163.003 39.367 C 162.823 37.972 161.609 36.944 160.203 36.997 C 159.521 36.977 158.855 37.2 158.323 37.627 Z"/>
    <path class="cls-1" d="M 172.753 34.917 C 173.49 34.622 174.279 34.475 175.073 34.487 L 175.073 37.537 L 174.333 37.487 C 173.515 37.439 172.713 37.728 172.113 38.287 C 171.529 38.936 171.236 39.796 171.303 40.667 L 171.303 46.037 L 168.003 46.037 L 168.003 34.667 L 171.153 34.667 L 171.153 36.167 C 171.562 35.612 172.115 35.18 172.753 34.917 Z"/>
    <path class="cls-1" d="M 196.813 46.047 L 196.813 37.167 L 192.433 44.487 L 190.893 44.487 L 186.553 37.367 L 186.553 46.057 L 183.343 46.057 L 183.343 31.237 L 186.173 31.237 L 191.673 40.487 L 197.133 31.287 L 199.943 31.287 L 199.943 46.097 Z"/>
    <path class="cls-1" d="M 205.293 45.487 C 204.369 45.013 203.596 44.289 203.063 43.397 C 201.991 41.541 201.991 39.253 203.063 37.397 C 203.596 36.505 204.369 35.781 205.293 35.307 C 207.323 34.307 209.703 34.307 211.733 35.307 C 212.65 35.787 213.418 36.51 213.953 37.397 C 215.005 39.259 215.005 41.535 213.953 43.397 C 213.418 44.284 212.65 45.007 211.733 45.487 C 209.703 46.487 207.323 46.487 205.293 45.487 Z M 210.603 42.667 C 211.684 41.332 211.684 39.422 210.603 38.087 C 209.439 36.957 207.587 36.957 206.423 38.087 C 205.331 39.418 205.331 41.336 206.423 42.667 C 207.587 43.797 209.439 43.797 210.603 42.667 Z"/>
    <path class="cls-1" d="M 219.143 45.487 C 215.209 43.408 215.002 37.85 218.769 35.483 C 218.891 35.406 219.016 35.334 219.143 35.267 C 220.139 34.745 221.249 34.478 222.373 34.487 C 223.489 34.468 224.591 34.726 225.583 35.237 C 229.517 37.333 229.706 42.901 225.925 45.26 C 225.813 45.329 225.699 45.395 225.583 45.457 C 224.591 45.968 223.489 46.226 222.373 46.207 C 221.254 46.235 220.145 45.988 219.143 45.487 Z M 224.453 42.667 C 225.534 41.332 225.534 39.422 224.453 38.087 C 223.916 37.513 223.158 37.2 222.373 37.227 C 221.582 37.199 220.817 37.513 220.273 38.087 C 219.181 39.418 219.181 41.336 220.273 42.667 C 220.817 43.241 221.582 43.555 222.373 43.527 C 223.161 43.549 223.92 43.228 224.453 42.647 Z"/>
    <path class="cls-1" d="M 240.833 35.767 C 241.774 36.787 242.249 38.153 242.143 39.537 L 242.143 46.047 L 238.843 46.047 L 238.843 40.047 C 238.889 39.33 238.676 38.62 238.243 38.047 C 237.799 37.584 237.173 37.342 236.533 37.387 C 235.787 37.347 235.059 37.627 234.533 38.157 C 233.998 38.795 233.732 39.616 233.793 40.447 L 233.793 46.077 L 230.493 46.077 L 230.493 34.667 L 233.673 34.667 L 233.673 35.997 C 234.119 35.506 234.674 35.126 235.293 34.887 C 235.975 34.621 236.701 34.488 237.433 34.497 C 238.692 34.441 239.919 34.9 240.833 35.767 Z"/>
    <path class="cls-1" d="M 246.173 45.867 C 245.413 45.693 244.687 45.396 244.023 44.987 L 245.123 42.617 C 245.693 42.973 246.313 43.243 246.963 43.417 C 247.649 43.612 248.359 43.713 249.073 43.717 C 250.473 43.717 251.173 43.377 251.173 42.717 C 251.166 42.377 250.926 42.087 250.593 42.017 C 250.024 41.836 249.437 41.715 248.843 41.657 C 248.062 41.551 247.29 41.387 246.533 41.167 C 245.931 40.978 245.389 40.633 244.963 40.167 C 244.483 39.616 244.242 38.896 244.293 38.167 C 244.283 37.478 244.505 36.805 244.923 36.257 C 245.394 35.659 246.025 35.208 246.743 34.957 C 247.645 34.626 248.602 34.466 249.563 34.487 C 250.371 34.488 251.175 34.578 251.963 34.757 C 252.665 34.891 253.34 35.137 253.963 35.487 L 252.863 37.827 C 251.861 37.267 250.731 36.978 249.583 36.987 C 249.037 36.956 248.492 37.055 247.993 37.277 C 247.686 37.409 247.481 37.704 247.463 38.037 C 247.457 38.386 247.694 38.693 248.033 38.777 C 248.625 38.972 249.235 39.109 249.853 39.187 C 250.625 39.305 251.39 39.469 252.143 39.677 C 252.737 39.865 253.269 40.211 253.683 40.677 C 254.149 41.212 254.386 41.909 254.343 42.617 C 254.339 43.298 254.102 43.958 253.673 44.487 C 253.191 45.082 252.549 45.526 251.823 45.767 C 250.899 46.094 249.923 46.25 248.943 46.227 C 248.008 46.222 247.078 46.101 246.173 45.867 Z"/>
    <path class="cls-1" d="M 266.673 35.767 C 267.603 36.793 268.073 38.156 267.973 39.537 L 267.973 46.047 L 264.673 46.047 L 264.673 40.047 C 264.722 39.331 264.512 38.622 264.083 38.047 C 263.634 37.586 263.005 37.345 262.363 37.387 C 261.616 37.342 260.886 37.622 260.363 38.157 C 259.824 38.793 259.558 39.616 259.623 40.447 L 259.623 46.077 L 256.323 46.077 L 256.323 30.357 L 259.673 30.357 L 259.673 35.857 C 260.119 35.411 260.659 35.069 261.253 34.857 C 261.894 34.624 262.571 34.505 263.253 34.507 C 264.516 34.448 265.75 34.902 266.673 35.767 Z"/>
    <path class="cls-1" d="M 272.983 45.487 C 272.056 45.013 271.28 44.289 270.743 43.397 C 269.691 41.535 269.691 39.259 270.743 37.397 C 271.28 36.505 272.056 35.781 272.983 35.307 C 275.013 34.307 277.393 34.307 279.423 35.307 C 280.344 35.767 281.121 36.468 281.673 37.337 C 282.725 39.199 282.725 41.475 281.673 43.337 C 281.139 44.25 280.359 44.995 279.423 45.487 C 277.393 46.487 275.013 46.487 272.983 45.487 Z M 278.283 42.667 C 279.375 41.336 279.375 39.418 278.283 38.087 C 277.748 37.511 276.988 37.197 276.203 37.227 C 275.415 37.201 274.654 37.514 274.113 38.087 C 273.005 39.413 273.005 41.341 274.113 42.667 C 274.654 43.24 275.415 43.553 276.203 43.527 C 276.992 43.552 277.752 43.23 278.283 42.647 Z"/>
    <path class="cls-1" d="M 291.983 45.487 C 291.622 45.743 291.214 45.927 290.783 46.027 C 290.296 46.149 289.795 46.21 289.293 46.207 C 288.157 46.289 287.033 45.931 286.153 45.207 C 285.382 44.405 284.98 43.318 285.043 42.207 L 285.043 37.487 L 283.293 37.487 L 283.293 34.917 L 285.043 34.917 L 285.043 32.147 L 288.343 32.147 L 288.343 34.917 L 291.173 34.917 L 291.173 37.487 L 288.343 37.487 L 288.343 42.087 C 288.316 42.491 288.448 42.89 288.713 43.197 C 288.977 43.462 289.339 43.607 289.713 43.597 C 290.192 43.607 290.66 43.455 291.043 43.167 Z"/>
    <path class="cls-1" d="M 312.913 39.687 C 313.407 40.358 313.66 41.175 313.633 42.007 C 313.691 43.203 313.118 44.341 312.123 45.007 C 310.786 45.773 309.25 46.121 307.713 46.007 L 300.063 46.007 L 300.063 31.237 L 307.293 31.237 C 308.746 31.134 310.196 31.483 311.443 32.237 C 312.377 32.862 312.925 33.923 312.893 35.047 C 312.926 36.433 312.143 37.709 310.893 38.307 C 311.694 38.545 312.4 39.027 312.913 39.687 Z M 303.463 33.827 L 303.463 37.307 L 306.873 37.307 C 307.542 37.352 308.21 37.199 308.793 36.867 C 309.229 36.578 309.48 36.08 309.453 35.557 C 309.483 35.037 309.231 34.54 308.793 34.257 C 308.207 33.933 307.541 33.784 306.873 33.827 Z M 309.463 43.017 C 309.925 42.72 310.189 42.195 310.153 41.647 C 310.153 40.417 309.243 39.807 307.423 39.807 L 303.423 39.807 L 303.423 43.487 L 307.423 43.487 C 308.147 43.534 308.87 43.371 309.503 43.017 Z"/>
    <path class="cls-1" d="M 316.073 32.557 C 315.312 31.846 315.312 30.638 316.073 29.927 C 316.95 29.225 318.196 29.225 319.073 29.927 C 319.443 30.244 319.652 30.71 319.643 31.197 C 319.658 31.714 319.45 32.213 319.073 32.567 C 318.67 32.933 318.137 33.124 317.593 33.097 C 317.035 33.125 316.488 32.931 316.073 32.557 Z M 315.903 34.667 L 319.203 34.667 L 319.203 46.047 L 315.903 46.047 Z"/>
    <path class="cls-1" d="M 324.363 45.487 C 323.437 45.015 322.664 44.291 322.133 43.397 C 321.061 41.541 321.061 39.253 322.133 37.397 C 322.664 36.503 323.437 35.779 324.363 35.307 C 326.393 34.307 328.773 34.307 330.803 35.307 C 331.72 35.787 332.488 36.51 333.023 37.397 C 334.075 39.259 334.075 41.535 333.023 43.397 C 332.488 44.284 331.72 45.007 330.803 45.487 C 328.773 46.487 326.393 46.487 324.363 45.487 Z M 329.663 42.667 C 330.755 41.336 330.755 39.418 329.663 38.087 C 329.128 37.511 328.368 37.197 327.583 37.227 C 326.795 37.201 326.034 37.514 325.493 38.087 C 324.385 39.413 324.385 41.341 325.493 42.667 C 326.034 43.24 326.795 43.553 327.583 43.527 C 328.375 43.555 329.139 43.233 329.673 42.647 Z"/>
    <path class="cls-1" d="M 345.533 35.227 C 346.371 35.697 347.063 36.389 347.533 37.227 C 348.52 39.162 348.52 41.452 347.533 43.387 C 347.063 44.225 346.371 44.917 345.533 45.387 C 344.651 45.873 343.66 46.125 342.653 46.117 C 341.295 46.202 339.974 45.656 339.073 44.637 L 339.073 45.947 L 335.923 45.947 L 335.923 30.357 L 339.223 30.357 L 339.223 35.877 C 340.109 34.924 341.374 34.415 342.673 34.487 C 343.674 34.486 344.658 34.741 345.533 35.227 Z M 344.163 42.647 C 345.244 41.312 345.244 39.402 344.163 38.067 C 343 36.943 341.156 36.943 339.993 38.067 C 338.912 39.402 338.912 41.312 339.993 42.647 C 341.156 43.771 343 43.771 344.163 42.647 Z"/>
    <path class="cls-1" d="M 358.973 35.757 C 359.985 36.752 360.504 38.143 360.393 39.557 L 360.393 46.047 L 357.303 46.047 L 357.303 44.627 C 356.683 45.687 355.523 46.217 353.833 46.217 C 353.052 46.236 352.277 46.082 351.563 45.767 C 350.966 45.511 350.455 45.087 350.093 44.547 C 349.751 44.017 349.574 43.398 349.583 42.767 C 349.544 41.789 349.993 40.855 350.783 40.277 C 351.882 39.582 353.177 39.262 354.473 39.367 L 357.093 39.367 C 357.134 38.743 356.892 38.133 356.433 37.707 C 355.865 37.265 355.15 37.054 354.433 37.117 C 353.825 37.118 353.22 37.216 352.643 37.407 C 352.105 37.573 351.6 37.834 351.153 38.177 L 349.963 35.877 C 350.646 35.416 351.404 35.078 352.203 34.877 C 353.072 34.636 353.971 34.515 354.873 34.517 C 356.347 34.403 357.809 34.846 358.973 35.757 Z M 356.163 43.607 C 356.603 43.345 356.933 42.933 357.093 42.447 L 357.093 41.287 L 354.833 41.287 C 353.473 41.287 352.833 41.727 352.833 42.617 C 352.821 43.011 353.004 43.385 353.323 43.617 C 353.729 43.882 354.209 44.011 354.693 43.987 C 355.208 43.994 355.716 43.862 356.163 43.607 Z"/>
    <path class="cls-1" d="M 373.203 35.767 C 374.14 36.789 374.611 38.154 374.503 39.537 L 374.503 46.047 L 371.203 46.047 L 371.203 40.047 C 371.252 39.331 371.042 38.622 370.613 38.047 C 370.168 37.586 369.542 37.345 368.903 37.387 C 368.157 37.346 367.429 37.626 366.903 38.157 C 366.368 38.795 366.102 39.616 366.163 40.447 L 366.163 46.077 L 362.863 46.077 L 362.863 34.667 L 366.013 34.667 L 366.013 35.997 C 366.473 35.504 367.042 35.124 367.673 34.887 C 368.355 34.621 369.081 34.488 369.813 34.497 C 371.068 34.446 372.29 34.904 373.203 35.767 Z"/>
    <path class="cls-1" d="M 381.873 41.587 L 380.283 43.147 L 380.283 46.047 L 376.983 46.047 L 376.983 30.357 L 380.283 30.357 L 380.283 39.237 L 385.103 34.667 L 389.043 34.667 L 384.303 39.487 L 389.463 46.047 L 385.463 46.047 Z"/>
  </g>
</svg>