<?xml version="1.0" encoding="utf-8"?>
<svg enable-background="new 0 0 568.1 54" height="496.552" viewBox="0 0 800 496.552" width="800" xmlns="http://www.w3.org/2000/svg">
  <path d="M 675.862 25.747 C 665.747 10.115 648.276 0 629.885 0 L 588.506 0 L 728.276 248.276 L 588.506 496.552 L 629.885 496.552 C 649.195 496.552 666.667 486.437 675.862 470.805 L 800 248.276 Z"/>
  <path d="M 551.724 0 L 53.333 0 C 23.908 0 0 23.908 0 53.333 L 0 443.218 C 0 472.644 23.908 496.552 53.333 496.552 L 551.724 496.552 L 689.655 248.276 Z M 257.471 358.621 L 220.69 358.621 L 119.54 196.782 L 119.54 358.621 L 82.759 358.621 L 82.759 137.931 L 119.54 137.931 L 220.69 299.77 L 220.69 137.931 L 257.471 137.931 Z M 331.034 358.621 L 294.253 358.621 L 294.253 137.931 L 331.034 137.931 Z M 542.529 358.621 L 505.747 358.621 L 505.747 266.667 L 404.598 266.667 L 404.598 358.621 L 367.816 358.621 L 367.816 137.931 L 404.598 137.931 L 404.598 229.885 L 505.747 229.885 L 505.747 137.931 L 542.529 137.931 Z"/>
</svg>