<?xml version="1.0" encoding="utf-8"?>
<svg id="Layer_1" data-name="Layer 1" viewBox="0 0 390 54" xmlns="http://www.w3.org/2000/svg">
  <defs>
    <style>.cls-1{fill:#606060;}.cls-2{fill:#bb0e3d;}.cls-3{fill:#fff;}</style>
  </defs>
  <g>
    <title>NIH arrow</title>
    <path class="cls-1" d="M 75 27 L 60 0 L 5.77 0 C 2.578 0.006 -0.006 2.598 0 5.79 L 0 48.22 C -0.006 51.411 2.579 54 5.77 54 L 60 54 Z"/>
    <path class="cls-2" d="M 73.5 2.82 C 72.439 1.072 70.544 0.003 68.5 0 L 64 0 L 79.2 27 L 64 54 L 68.48 54 C 70.523 54.001 72.418 52.935 73.48 51.19 L 86.98 27 Z"/>
    <g>
      <title>NIH</title>
      <rect class="cls-3" x="32" y="15" width="4" height="24"/>
      <polygon class="cls-3" points="24 15 24 32.6 13 15 9 15 9 39 13 39 13 21.41 24 39 28 39 28 15 24 15"/>
      <polygon class="cls-3" points="55 15 55 25 44 25 44 15 40 15 40 39 44 39 44 29 55 29 55 39 59 39 59 15 55 15"/>
    </g>
  </g>
  <g>
    <title>National Cancer Institute</title>
    <path class="cls-2" d="M 107.37 7.69 L 109.88 7.69 L 109.88 18.94 L 107.37 18.94 L 102.01 11.94 L 102.01 18.94 L 99.5 18.94 L 99.5 7.69 L 101.85 7.69 L 107.37 14.93 Z"/>
    <path class="cls-2" d="M 120.67 18.94 L 119.67 16.47 L 114.95 16.47 L 113.95 18.9 L 111.28 18.9 L 116.14 7.65 L 118.57 7.65 L 123.43 18.9 Z M 117.28 11.04 L 115.86 14.31 L 118.67 14.31 Z"/>
    <path class="cls-2" d="M 128.58 9.86 L 128.58 18.94 L 126.07 18.94 L 126.07 9.86 L 122.89 9.86 L 122.89 7.69 L 131.77 7.69 L 131.77 9.86 Z"/>
    <path class="cls-2" d="M 133.6 7.69 L 136.11 7.69 L 136.11 18.94 L 133.6 18.94 Z"/>
    <path class="cls-2" d="M 148.34 17.39 C 145.978 19.605 142.302 19.605 139.94 17.39 C 137.672 15.092 137.672 11.398 139.94 9.1 C 142.298 6.875 145.982 6.875 148.34 9.1 C 150.619 11.393 150.619 15.097 148.34 17.39 Z M 147.49 13.25 C 147.505 12.299 147.146 11.379 146.49 10.69 C 145.232 9.264 143.008 9.264 141.75 10.69 C 140.455 12.151 140.455 14.349 141.75 15.81 C 143.02 17.21 145.22 17.21 146.49 15.81 C 147.148 15.122 147.507 14.202 147.49 13.25 Z"/>
    <path class="cls-2" d="M 160.04 7.69 L 162.55 7.69 L 162.55 18.94 L 160.04 18.94 L 154.68 11.94 L 154.68 18.94 L 152.17 18.94 L 152.17 7.69 L 154.52 7.69 L 160.04 14.93 Z"/>
    <path class="cls-2" d="M 173.33 18.94 L 172.33 16.51 L 167.57 16.51 L 166.52 18.94 L 163.85 18.94 L 168.67 7.69 L 171.1 7.69 L 175.96 18.94 Z M 169.94 11.04 L 168.52 14.31 L 171.34 14.31 Z"/>
    <path class="cls-2" d="M 177.31 18.94 L 177.31 7.69 L 179.82 7.69 L 179.82 16.69 L 184.61 16.69 L 184.61 18.93 Z"/>
    <path class="cls-2" d="M 195.86 16.72 C 197.035 16.736 198.148 16.194 198.86 15.26 L 200.47 16.91 C 198.244 19.593 194.218 19.85 191.67 17.47 C 189.435 15.147 189.435 11.473 191.67 9.15 C 192.794 8.028 194.332 7.42 195.92 7.47 C 197.703 7.449 199.404 8.222 200.56 9.58 L 199 11.35 C 198.295 10.404 197.179 9.854 196 9.87 C 195.1 9.851 194.228 10.185 193.57 10.8 C 192.891 11.446 192.526 12.354 192.57 13.29 C 192.528 14.225 192.871 15.136 193.52 15.81 C 194.14 16.426 194.987 16.755 195.86 16.72 Z"/>
    <path class="cls-2" d="M 210.41 18.94 L 209.36 16.47 L 204.67 16.47 L 203.67 18.9 L 201 18.9 L 205.86 7.65 L 208.29 7.65 L 213.15 18.9 Z M 207.01 11.04 L 205.6 14.31 L 208.41 14.31 Z"/>
    <path class="cls-2" d="M 222.25 7.69 L 224.76 7.69 L 224.76 18.94 L 222.25 18.94 L 216.89 11.94 L 216.89 18.94 L 214.38 18.94 L 214.38 7.69 L 216.73 7.69 L 222.25 14.93 Z"/>
    <path class="cls-2" d="M 232.67 16.72 C 233.845 16.736 234.958 16.194 235.67 15.26 L 237.28 16.91 C 235.036 19.57 231.022 19.807 228.48 17.43 C 226.213 15.12 226.213 11.42 228.48 9.11 C 229.618 7.995 231.168 7.401 232.76 7.47 C 234.54 7.452 236.236 8.225 237.39 9.58 L 235.83 11.35 C 235.126 10.403 234.01 9.852 232.83 9.87 C 231.933 9.853 231.065 10.186 230.41 10.8 C 229.731 11.446 229.366 12.354 229.41 13.29 C 229.368 14.225 229.711 15.136 230.36 15.81 C 230.972 16.418 231.808 16.747 232.67 16.72 Z"/>
    <path class="cls-2" d="M 247.42 7.69 L 247.42 9.93 L 241.82 9.93 L 241.82 12.25 L 246.82 12.25 L 246.82 14.39 L 241.82 14.39 L 241.82 16.72 L 247.59 16.72 L 247.59 18.94 L 239.31 18.94 L 239.31 7.69 Z"/>
    <path class="cls-2" d="M 258.95 11.47 C 259.128 12.988 258.243 14.43 256.81 14.96 L 259.66 18.96 L 256.57 18.96 L 254.08 15.37 L 252.34 15.37 L 252.34 18.96 L 249.83 18.96 L 249.83 7.69 L 254.1 7.69 C 255.41 7.578 256.721 7.89 257.84 8.58 C 258.648 9.312 259.061 10.385 258.95 11.47 Z M 255.95 12.8 C 256.291 12.445 256.462 11.96 256.42 11.47 C 256.473 11.001 256.289 10.536 255.93 10.23 C 255.412 9.954 254.824 9.836 254.24 9.89 L 252.36 9.89 L 252.36 13.22 L 254.2 13.22 C 254.812 13.269 255.423 13.106 255.93 12.76 Z"/>
    <path class="cls-2" d="M 265.78 7.69 L 268.29 7.69 L 268.29 18.94 L 265.78 18.94 Z"/>
    <path class="cls-2" d="M 278.92 7.69 L 281.43 7.69 L 281.43 18.94 L 278.92 18.94 L 273.57 11.94 L 273.57 18.94 L 271.06 18.94 L 271.06 7.69 L 273.4 7.69 L 278.92 14.93 Z"/>
    <path class="cls-2" d="M 286.83 9.94 C 286.596 10.135 286.463 10.426 286.47 10.73 C 286.472 11.049 286.638 11.344 286.91 11.51 C 287.561 11.825 288.25 12.054 288.96 12.19 C 289.869 12.379 290.72 12.784 291.44 13.37 C 292.059 13.969 292.385 14.81 292.33 15.67 C 292.363 16.625 291.94 17.538 291.19 18.13 C 290.336 18.795 289.271 19.128 288.19 19.07 C 286.387 19.058 284.66 18.34 283.38 17.07 L 284.87 15.24 C 285.767 16.156 286.963 16.72 288.24 16.83 C 288.623 16.853 289.003 16.747 289.32 16.53 C 289.862 16.13 289.862 15.32 289.32 14.92 C 288.804 14.629 288.243 14.426 287.66 14.32 C 286.626 14.129 285.646 13.712 284.79 13.1 C 284.139 12.5 283.803 11.632 283.88 10.75 C 283.83 9.787 284.261 8.862 285.03 8.28 C 285.863 7.679 286.873 7.373 287.9 7.41 C 288.67 7.414 289.434 7.545 290.16 7.8 C 290.891 8.035 291.57 8.409 292.16 8.9 L 290.89 10.73 C 290.039 10.041 288.985 9.652 287.89 9.62 C 287.509 9.588 287.13 9.702 286.83 9.94 Z"/>
    <path class="cls-2" d="M 299.13 9.86 L 299.13 18.94 L 296.67 18.94 L 296.67 9.86 L 293.49 9.86 L 293.49 7.69 L 302.37 7.69 L 302.37 9.86 Z"/>
    <path class="cls-2" d="M 304.16 7.69 L 306.67 7.69 L 306.67 18.94 L 304.16 18.94 Z"/>
    <path class="cls-2" d="M 314.2 9.86 L 314.2 18.94 L 311.67 18.94 L 311.67 9.86 L 308.48 9.86 L 308.48 7.69 L 317.36 7.69 L 317.36 9.86 Z"/>
    <path class="cls-2" d="M 322.19 16.04 C 322.597 16.554 323.225 16.844 323.88 16.82 C 324.534 16.851 325.161 16.559 325.56 16.04 C 326.008 15.42 326.227 14.664 326.18 13.9 L 326.18 7.69 L 328.67 7.69 L 328.67 13.98 C 328.762 15.366 328.273 16.729 327.32 17.74 C 325.346 19.493 322.374 19.493 320.4 17.74 C 319.446 16.733 318.953 15.375 319.04 13.99 L 319.04 7.69 L 321.55 7.69 L 321.55 13.9 C 321.509 14.666 321.735 15.422 322.19 16.04 Z"/>
    <path class="cls-2" d="M 336.06 9.86 L 336.06 18.94 L 333.55 18.94 L 333.55 9.86 L 330.37 9.86 L 330.37 7.69 L 339.25 7.69 L 339.25 9.86 Z"/>
    <path class="cls-2" d="M 349.19 7.69 L 349.19 9.93 L 343.59 9.93 L 343.59 12.25 L 348.59 12.25 L 348.59 14.39 L 343.59 14.39 L 343.59 16.72 L 349.37 16.72 L 349.37 18.94 L 341.08 18.94 L 341.08 7.69 Z"/>
  </g>
  <g>
    <title>Cancer  Moonshot Biobank</title>
    <path class="cls-1" d="M 103.43 45.3 C 100.967 43.996 99.447 41.417 99.5 38.63 C 99.464 37.246 99.81 35.88 100.5 34.68 C 101.194 33.525 102.19 32.582 103.38 31.95 C 105.748 30.758 108.516 30.648 110.97 31.65 C 112.014 32.068 112.941 32.734 113.67 33.59 L 111.47 35.59 C 110.533 34.468 109.131 33.84 107.67 33.89 C 106.815 33.875 105.971 34.081 105.22 34.49 C 104.511 34.878 103.928 35.461 103.54 36.17 C 102.728 37.706 102.728 39.544 103.54 41.08 C 103.928 41.789 104.511 42.372 105.22 42.76 C 105.971 43.169 106.815 43.375 107.67 43.36 C 109.113 43.379 110.484 42.733 111.39 41.61 L 113.59 43.61 C 112.89 44.478 111.991 45.164 110.97 45.61 C 109.865 46.071 108.677 46.299 107.48 46.28 C 106.07 46.292 104.679 45.956 103.43 45.3 Z"/>
    <path class="cls-1" d="M 124.27 35.74 C 125.278 36.737 125.797 38.126 125.69 39.54 L 125.69 46.03 L 122.6 46.03 L 122.6 44.61 C 121.98 45.67 120.82 46.2 119.13 46.2 C 118.349 46.219 117.574 46.065 116.86 45.75 C 116.263 45.494 115.752 45.07 115.39 44.53 C 115.048 44 114.871 43.381 114.88 42.75 C 114.849 41.776 115.292 40.847 116.07 40.26 C 117.171 39.57 118.464 39.251 119.76 39.35 L 122.39 39.35 C 122.431 38.726 122.189 38.116 121.73 37.69 C 121.16 37.25 120.447 37.04 119.73 37.1 C 119.125 37.102 118.524 37.2 117.95 37.39 C 117.412 37.556 116.907 37.817 116.46 38.16 L 115.27 35.86 C 115.951 35.401 116.705 35.063 117.5 34.86 C 118.373 34.619 119.274 34.498 120.18 34.5 C 121.65 34.391 123.108 34.833 124.27 35.74 Z M 121.46 43.59 C 121.895 43.322 122.223 42.912 122.39 42.43 L 122.39 41.27 L 120.12 41.27 C 118.77 41.27 118.12 41.71 118.12 42.6 C 118.112 42.995 118.299 43.369 118.62 43.6 C 119.026 43.865 119.506 43.994 119.99 43.97 C 120.505 43.977 121.013 43.845 121.46 43.59 Z"/>
    <path class="cls-1" d="M 138.6 35.75 C 139.537 36.772 140.008 38.137 139.9 39.52 L 139.9 46.03 L 136.6 46.03 L 136.6 40.03 C 136.649 39.314 136.439 38.605 136.01 38.03 C 135.564 37.571 134.939 37.329 134.3 37.37 C 133.553 37.326 132.824 37.607 132.3 38.14 C 131.761 38.776 131.495 39.599 131.56 40.43 L 131.56 46.06 L 128.26 46.06 L 128.26 34.65 L 131.41 34.65 L 131.41 35.98 C 131.862 35.491 132.419 35.111 133.04 34.87 C 133.718 34.605 134.442 34.472 135.17 34.48 C 136.438 34.421 137.676 34.879 138.6 35.75 Z"/>
    <path class="cls-1" d="M 144.84 45.47 C 140.906 43.441 140.645 37.914 144.369 35.522 C 144.522 35.424 144.679 35.333 144.84 35.25 C 145.853 34.739 146.975 34.481 148.11 34.5 C 149.204 34.476 150.285 34.735 151.25 35.25 C 152.121 35.73 152.807 36.487 153.2 37.4 L 150.67 38.75 C 150.194 37.78 149.2 37.172 148.12 37.19 C 147.322 37.164 146.548 37.468 145.98 38.03 C 145.396 38.653 145.089 39.487 145.13 40.34 C 145.088 41.191 145.395 42.021 145.98 42.64 C 146.544 43.209 147.32 43.517 148.12 43.49 C 149.202 43.515 150.2 42.905 150.67 41.93 L 153.23 43.32 C 152.821 44.233 152.126 44.988 151.25 45.47 C 150.286 45.989 149.205 46.251 148.11 46.23 C 146.974 46.246 145.852 45.985 144.84 45.47 Z"/>
    <path class="cls-1" d="M 166.04 41.27 L 157.43 41.27 C 157.567 41.948 157.962 42.546 158.53 42.94 C 159.168 43.365 159.924 43.579 160.69 43.55 C 161.228 43.562 161.764 43.474 162.27 43.29 C 162.748 43.098 163.183 42.812 163.55 42.45 L 165.3 44.36 C 164.089 45.641 162.369 46.316 160.61 46.2 C 159.43 46.224 158.261 45.967 157.2 45.45 C 156.254 44.989 155.462 44.263 154.92 43.36 C 154.375 42.455 154.095 41.416 154.11 40.36 C 154.099 39.306 154.375 38.269 154.91 37.36 C 155.422 36.471 156.174 35.743 157.08 35.26 C 158.034 34.754 159.1 34.496 160.18 34.51 C 161.224 34.5 162.254 34.747 163.18 35.23 C 164.069 35.699 164.805 36.414 165.3 37.29 C 165.83 38.243 166.096 39.32 166.07 40.41 C 166.07 40.41 166.08 40.72 166.04 41.27 Z M 158.32 37.61 C 157.799 38.05 157.466 38.673 157.39 39.35 L 163 39.35 C 162.82 37.955 161.606 36.927 160.2 36.98 C 159.518 36.96 158.852 37.183 158.32 37.61 Z"/>
    <path class="cls-1" d="M 172.75 34.9 C 173.487 34.605 174.276 34.458 175.07 34.47 L 175.07 37.52 L 174.33 37.47 C 173.512 37.422 172.71 37.711 172.11 38.27 C 171.526 38.919 171.233 39.779 171.3 40.65 L 171.3 46.02 L 168 46.02 L 168 34.65 L 171.15 34.65 L 171.15 36.15 C 171.559 35.595 172.112 35.163 172.75 34.9 Z"/>
    <path class="cls-1" d="M 196.81 46.03 L 196.81 37.15 L 192.43 44.47 L 190.89 44.47 L 186.55 37.35 L 186.55 46.04 L 183.34 46.04 L 183.34 31.22 L 186.17 31.22 L 191.67 40.47 L 197.13 31.27 L 199.94 31.27 L 199.94 46.08 Z"/>
    <path class="cls-1" d="M 205.29 45.47 C 204.366 44.996 203.593 44.272 203.06 43.38 C 201.988 41.524 201.988 39.236 203.06 37.38 C 203.593 36.488 204.366 35.764 205.29 35.29 C 207.32 34.29 209.7 34.29 211.73 35.29 C 212.647 35.77 213.415 36.493 213.95 37.38 C 215.002 39.242 215.002 41.518 213.95 43.38 C 213.415 44.267 212.647 44.99 211.73 45.47 C 209.7 46.47 207.32 46.47 205.29 45.47 Z M 210.6 42.65 C 211.681 41.315 211.681 39.405 210.6 38.07 C 209.436 36.94 207.584 36.94 206.42 38.07 C 205.328 39.401 205.328 41.319 206.42 42.65 C 207.584 43.78 209.436 43.78 210.6 42.65 Z"/>
    <path class="cls-1" d="M 219.14 45.47 C 215.206 43.391 214.999 37.833 218.766 35.466 C 218.888 35.389 219.013 35.317 219.14 35.25 C 220.136 34.728 221.246 34.461 222.37 34.47 C 223.486 34.451 224.588 34.709 225.58 35.22 C 229.514 37.316 229.703 42.884 225.922 45.243 C 225.81 45.312 225.696 45.378 225.58 45.44 C 224.588 45.951 223.486 46.209 222.37 46.19 C 221.251 46.218 220.142 45.971 219.14 45.47 Z M 224.45 42.65 C 225.531 41.315 225.531 39.405 224.45 38.07 C 223.913 37.496 223.155 37.183 222.37 37.21 C 221.579 37.182 220.814 37.496 220.27 38.07 C 219.178 39.401 219.178 41.319 220.27 42.65 C 220.814 43.224 221.579 43.538 222.37 43.51 C 223.158 43.532 223.917 43.211 224.45 42.63 Z"/>
    <path class="cls-1" d="M 240.83 35.75 C 241.771 36.77 242.246 38.136 242.14 39.52 L 242.14 46.03 L 238.84 46.03 L 238.84 40.03 C 238.886 39.313 238.673 38.603 238.24 38.03 C 237.796 37.567 237.17 37.325 236.53 37.37 C 235.784 37.33 235.056 37.61 234.53 38.14 C 233.995 38.778 233.729 39.599 233.79 40.43 L 233.79 46.06 L 230.49 46.06 L 230.49 34.65 L 233.67 34.65 L 233.67 35.98 C 234.116 35.489 234.671 35.109 235.29 34.87 C 235.972 34.604 236.698 34.471 237.43 34.48 C 238.689 34.424 239.916 34.883 240.83 35.75 Z"/>
    <path class="cls-1" d="M 246.17 45.85 C 245.41 45.676 244.684 45.379 244.02 44.97 L 245.12 42.6 C 245.69 42.956 246.31 43.226 246.96 43.4 C 247.646 43.595 248.356 43.696 249.07 43.7 C 250.47 43.7 251.17 43.36 251.17 42.7 C 251.163 42.36 250.923 42.07 250.59 42 C 250.021 41.819 249.434 41.698 248.84 41.64 C 248.059 41.534 247.287 41.37 246.53 41.15 C 245.928 40.961 245.386 40.616 244.96 40.15 C 244.48 39.599 244.239 38.879 244.29 38.15 C 244.28 37.461 244.502 36.788 244.92 36.24 C 245.391 35.642 246.022 35.191 246.74 34.94 C 247.642 34.609 248.599 34.449 249.56 34.47 C 250.368 34.471 251.172 34.561 251.96 34.74 C 252.662 34.874 253.337 35.12 253.96 35.47 L 252.86 37.81 C 251.858 37.25 250.728 36.961 249.58 36.97 C 249.034 36.939 248.489 37.038 247.99 37.26 C 247.683 37.392 247.478 37.687 247.46 38.02 C 247.454 38.369 247.691 38.676 248.03 38.76 C 248.622 38.955 249.232 39.092 249.85 39.17 C 250.622 39.288 251.387 39.452 252.14 39.66 C 252.734 39.848 253.266 40.194 253.68 40.66 C 254.146 41.195 254.383 41.892 254.34 42.6 C 254.336 43.281 254.099 43.941 253.67 44.47 C 253.188 45.065 252.546 45.509 251.82 45.75 C 250.896 46.077 249.92 46.233 248.94 46.21 C 248.005 46.205 247.075 46.084 246.17 45.85 Z"/>
    <path class="cls-1" d="M 266.67 35.75 C 267.6 36.776 268.07 38.139 267.97 39.52 L 267.97 46.03 L 264.67 46.03 L 264.67 40.03 C 264.719 39.314 264.509 38.605 264.08 38.03 C 263.631 37.569 263.002 37.328 262.36 37.37 C 261.613 37.325 260.883 37.605 260.36 38.14 C 259.821 38.776 259.555 39.599 259.62 40.43 L 259.62 46.06 L 256.32 46.06 L 256.32 30.34 L 259.67 30.34 L 259.67 35.84 C 260.116 35.394 260.656 35.052 261.25 34.84 C 261.891 34.607 262.568 34.488 263.25 34.49 C 264.513 34.431 265.747 34.885 266.67 35.75 Z"/>
    <path class="cls-1" d="M 272.98 45.47 C 272.053 44.996 271.277 44.272 270.74 43.38 C 269.688 41.518 269.688 39.242 270.74 37.38 C 271.277 36.488 272.053 35.764 272.98 35.29 C 275.01 34.29 277.39 34.29 279.42 35.29 C 280.341 35.75 281.118 36.451 281.67 37.32 C 282.722 39.182 282.722 41.458 281.67 43.32 C 281.136 44.233 280.356 44.978 279.42 45.47 C 277.39 46.47 275.01 46.47 272.98 45.47 Z M 278.28 42.65 C 279.372 41.319 279.372 39.401 278.28 38.07 C 277.745 37.494 276.985 37.18 276.2 37.21 C 275.412 37.184 274.651 37.497 274.11 38.07 C 273.002 39.396 273.002 41.324 274.11 42.65 C 274.651 43.223 275.412 43.536 276.2 43.51 C 276.989 43.535 277.749 43.213 278.28 42.63 Z"/>
    <path class="cls-1" d="M 291.98 45.47 C 291.619 45.726 291.211 45.91 290.78 46.01 C 290.293 46.132 289.792 46.193 289.29 46.19 C 288.154 46.272 287.03 45.914 286.15 45.19 C 285.379 44.388 284.977 43.301 285.04 42.19 L 285.04 37.47 L 283.29 37.47 L 283.29 34.9 L 285.04 34.9 L 285.04 32.13 L 288.34 32.13 L 288.34 34.9 L 291.17 34.9 L 291.17 37.47 L 288.34 37.47 L 288.34 42.07 C 288.313 42.474 288.445 42.873 288.71 43.18 C 288.974 43.445 289.336 43.59 289.71 43.58 C 290.189 43.59 290.657 43.438 291.04 43.15 Z"/>
    <path class="cls-1" d="M 312.91 39.67 C 313.404 40.341 313.657 41.158 313.63 41.99 C 313.688 43.186 313.115 44.324 312.12 44.99 C 310.783 45.756 309.247 46.104 307.71 45.99 L 300.06 45.99 L 300.06 31.22 L 307.29 31.22 C 308.743 31.117 310.193 31.466 311.44 32.22 C 312.374 32.845 312.922 33.906 312.89 35.03 C 312.923 36.416 312.14 37.692 310.89 38.29 C 311.691 38.528 312.397 39.01 312.91 39.67 Z M 303.46 33.81 L 303.46 37.29 L 306.87 37.29 C 307.539 37.335 308.207 37.182 308.79 36.85 C 309.226 36.561 309.477 36.063 309.45 35.54 C 309.48 35.02 309.228 34.523 308.79 34.24 C 308.204 33.916 307.538 33.767 306.87 33.81 Z M 309.46 43 C 309.922 42.703 310.186 42.178 310.15 41.63 C 310.15 40.4 309.24 39.79 307.42 39.79 L 303.42 39.79 L 303.42 43.47 L 307.42 43.47 C 308.144 43.517 308.867 43.354 309.5 43 Z"/>
    <path class="cls-1" d="M 316.07 32.54 C 315.309 31.829 315.309 30.621 316.07 29.91 C 316.947 29.208 318.193 29.208 319.07 29.91 C 319.44 30.227 319.649 30.693 319.64 31.18 C 319.655 31.697 319.447 32.196 319.07 32.55 C 318.667 32.916 318.134 33.107 317.59 33.08 C 317.032 33.108 316.485 32.914 316.07 32.54 Z M 315.9 34.65 L 319.2 34.65 L 319.2 46.03 L 315.9 46.03 Z"/>
    <path class="cls-1" d="M 324.36 45.47 C 323.434 44.998 322.661 44.274 322.13 43.38 C 321.058 41.524 321.058 39.236 322.13 37.38 C 322.661 36.486 323.434 35.762 324.36 35.29 C 326.39 34.29 328.77 34.29 330.8 35.29 C 331.717 35.77 332.485 36.493 333.02 37.38 C 334.072 39.242 334.072 41.518 333.02 43.38 C 332.485 44.267 331.717 44.99 330.8 45.47 C 328.77 46.47 326.39 46.47 324.36 45.47 Z M 329.66 42.65 C 330.752 41.319 330.752 39.401 329.66 38.07 C 329.125 37.494 328.365 37.18 327.58 37.21 C 326.792 37.184 326.031 37.497 325.49 38.07 C 324.382 39.396 324.382 41.324 325.49 42.65 C 326.031 43.223 326.792 43.536 327.58 43.51 C 328.372 43.538 329.136 43.216 329.67 42.63 Z"/>
    <path class="cls-1" d="M 345.53 35.21 C 346.368 35.68 347.06 36.372 347.53 37.21 C 348.517 39.145 348.517 41.435 347.53 43.37 C 347.06 44.208 346.368 44.9 345.53 45.37 C 344.648 45.856 343.657 46.108 342.65 46.1 C 341.292 46.185 339.971 45.639 339.07 44.62 L 339.07 45.93 L 335.92 45.93 L 335.92 30.34 L 339.22 30.34 L 339.22 35.86 C 340.106 34.907 341.371 34.398 342.67 34.47 C 343.671 34.469 344.655 34.724 345.53 35.21 Z M 344.16 42.63 C 345.241 41.295 345.241 39.385 344.16 38.05 C 342.997 36.926 341.153 36.926 339.99 38.05 C 338.909 39.385 338.909 41.295 339.99 42.63 C 341.153 43.754 342.997 43.754 344.16 42.63 Z"/>
    <path class="cls-1" d="M 358.97 35.74 C 359.982 36.735 360.501 38.126 360.39 39.54 L 360.39 46.03 L 357.3 46.03 L 357.3 44.61 C 356.68 45.67 355.52 46.2 353.83 46.2 C 353.049 46.219 352.274 46.065 351.56 45.75 C 350.963 45.494 350.452 45.07 350.09 44.53 C 349.748 44 349.571 43.381 349.58 42.75 C 349.541 41.772 349.99 40.838 350.78 40.26 C 351.879 39.565 353.174 39.245 354.47 39.35 L 357.09 39.35 C 357.131 38.726 356.889 38.116 356.43 37.69 C 355.862 37.248 355.147 37.037 354.43 37.1 C 353.822 37.101 353.217 37.199 352.64 37.39 C 352.102 37.556 351.597 37.817 351.15 38.16 L 349.96 35.86 C 350.643 35.399 351.401 35.061 352.2 34.86 C 353.069 34.619 353.968 34.498 354.87 34.5 C 356.344 34.386 357.806 34.829 358.97 35.74 Z M 356.16 43.59 C 356.6 43.328 356.93 42.916 357.09 42.43 L 357.09 41.27 L 354.83 41.27 C 353.47 41.27 352.83 41.71 352.83 42.6 C 352.818 42.994 353.001 43.368 353.32 43.6 C 353.726 43.865 354.206 43.994 354.69 43.97 C 355.205 43.977 355.713 43.845 356.16 43.59 Z"/>
    <path class="cls-1" d="M 373.2 35.75 C 374.137 36.772 374.608 38.137 374.5 39.52 L 374.5 46.03 L 371.2 46.03 L 371.2 40.03 C 371.249 39.314 371.039 38.605 370.61 38.03 C 370.165 37.569 369.539 37.328 368.9 37.37 C 368.154 37.329 367.426 37.609 366.9 38.14 C 366.365 38.778 366.099 39.599 366.16 40.43 L 366.16 46.06 L 362.86 46.06 L 362.86 34.65 L 366.01 34.65 L 366.01 35.98 C 366.47 35.487 367.039 35.107 367.67 34.87 C 368.352 34.604 369.078 34.471 369.81 34.48 C 371.065 34.429 372.287 34.887 373.2 35.75 Z"/>
    <path class="cls-1" d="M 381.87 41.57 L 380.28 43.13 L 380.28 46.03 L 376.98 46.03 L 376.98 30.34 L 380.28 30.34 L 380.28 39.22 L 385.1 34.65 L 389.04 34.65 L 384.3 39.47 L 389.46 46.03 L 385.46 46.03 Z"/>
  </g>
</svg>