<?xml version="1.0" encoding="utf-8"?>
<svg id="Layer_1" data-name="Layer 1" viewBox="0 0 390 54" xmlns="http://www.w3.org/2000/svg">
  <defs>
    <style>.cls-1{fill:#606060;}.cls-2{fill:#bb0e3d;}.cls-3{fill:#fff;}</style>
  </defs>
  <g>
    <title>NIH arrow</title>
    <path class="cls-1" d="M 75 27 L 60 0 L 5.77 0 C 2.578 0.006 -0.006 2.598 0 5.79 L 0 48.22 C -0.006 51.411 2.579 54 5.77 54 L 60 54 Z"/>
    <path class="cls-2" d="M 73.5 2.82 C 72.439 1.072 70.544 0.003 68.5 0 L 64 0 L 79.2 27 L 64 54 L 68.48 54 C 70.523 54.001 72.418 52.935 73.48 51.19 L 86.98 27 Z"/>
    <g>
      <title>NIH</title>
      <rect class="cls-3" x="32" y="15" width="4" height="24"/>
      <polygon class="cls-3" points="24 15 24 32.6 13 15 9 15 9 39 13 39 13 21.41 24 39 28 39 28 15 24 15"/>
      <polygon class="cls-3" points="55 15 55 25 44 25 44 15 40 15 40 39 44 39 44 29 55 29 55 39 59 39 59 15 55 15"/>
    </g>
  </g>
  <g>
    <path class="cls-2" d="M 108.249 7.722 L 111.039 7.722 L 111.039 20.228 L 108.249 20.228 L 102.29 12.446 L 102.29 20.228 L 99.5 20.228 L 99.5 7.722 L 102.112 7.722 L 108.249 15.77 Z"/>
    <path class="cls-2" d="M 123.034 20.228 L 121.923 17.482 L 116.676 17.482 L 115.564 20.184 L 112.596 20.184 L 117.998 7.677 L 120.7 7.677 L 126.103 20.184 Z M 119.266 11.446 L 117.687 15.081 L 120.811 15.081 Z"/>
    <path class="cls-2" d="M 131.828 10.134 L 131.828 20.228 L 129.037 20.228 L 129.037 10.134 L 125.502 10.134 L 125.502 7.722 L 135.374 7.722 L 135.374 10.134 Z"/>
    <path class="cls-2" d="M 137.408 7.722 L 140.199 7.722 L 140.199 20.228 L 137.408 20.228 Z"/>
    <path class="cls-2" d="M 153.795 18.505 C 151.169 20.967 147.082 20.967 144.457 18.505 C 141.935 15.95 141.935 11.844 144.457 9.289 C 147.078 6.816 151.173 6.816 153.795 9.289 C 156.328 11.838 156.328 15.956 153.795 18.505 Z M 152.85 13.903 C 152.866 12.845 152.467 11.823 151.738 11.057 C 150.34 9.471 147.867 9.471 146.469 11.057 C 145.029 12.681 145.029 15.124 146.469 16.748 C 147.881 18.305 150.326 18.305 151.738 16.748 C 152.47 15.984 152.869 14.961 152.85 13.903 Z"/>
    <path class="cls-2" d="M 166.801 7.722 L 169.592 7.722 L 169.592 20.228 L 166.801 20.228 L 160.843 12.446 L 160.843 20.228 L 158.052 20.228 L 158.052 7.722 L 160.665 7.722 L 166.801 15.77 Z"/>
    <path class="cls-2" d="M 181.576 20.228 L 180.464 17.527 L 175.172 17.527 L 174.005 20.228 L 171.037 20.228 L 176.395 7.722 L 179.097 7.722 L 184.499 20.228 Z M 177.807 11.446 L 176.228 15.081 L 179.363 15.081 Z"/>
    <path class="cls-2" d="M 186 20.228 L 186 7.722 L 188.79 7.722 L 188.79 17.727 L 194.115 17.727 L 194.115 20.217 Z"/>
    <path class="cls-2" d="M 206.622 17.76 C 207.928 17.778 209.165 17.175 209.957 16.137 L 211.747 17.971 C 209.272 20.954 204.797 21.24 201.964 18.594 C 199.479 16.011 199.479 11.927 201.964 9.345 C 203.213 8.097 204.923 7.421 206.689 7.477 C 208.671 7.454 210.562 8.313 211.847 9.823 L 210.113 11.79 C 209.329 10.739 208.088 10.127 206.778 10.145 C 205.777 10.124 204.808 10.495 204.076 11.179 C 203.321 11.897 202.916 12.907 202.964 13.947 C 202.918 14.986 203.299 15.999 204.021 16.748 C 204.71 17.433 205.651 17.799 206.622 17.76 Z"/>
    <path class="cls-2" d="M 222.797 20.228 L 221.63 17.482 L 216.416 17.482 L 215.304 20.184 L 212.336 20.184 L 217.739 7.677 L 220.44 7.677 L 225.843 20.184 Z M 219.017 11.446 L 217.45 15.081 L 220.574 15.081 Z"/>
    <path class="cls-2" d="M 235.959 7.722 L 238.75 7.722 L 238.75 20.228 L 235.959 20.228 L 230.001 12.446 L 230.001 20.228 L 227.21 20.228 L 227.21 7.722 L 229.823 7.722 L 235.959 15.77 Z"/>
    <path class="cls-2" d="M 247.543 17.76 C 248.849 17.778 250.087 17.175 250.878 16.137 L 252.668 17.971 C 250.173 20.928 245.711 21.192 242.885 18.549 C 240.365 15.981 240.365 11.868 242.885 9.3 C 244.15 8.061 245.873 7.4 247.643 7.477 C 249.622 7.457 251.507 8.316 252.79 9.823 L 251.056 11.79 C 250.273 10.738 249.033 10.125 247.721 10.145 C 246.724 10.126 245.759 10.496 245.031 11.179 C 244.276 11.897 243.87 12.907 243.919 13.947 C 243.872 14.986 244.254 15.999 244.975 16.748 C 245.655 17.424 246.585 17.79 247.543 17.76 Z"/>
    <path class="cls-2" d="M 263.94 7.722 L 263.94 10.212 L 257.715 10.212 L 257.715 12.791 L 263.273 12.791 L 263.273 15.17 L 257.715 15.17 L 257.715 17.76 L 264.129 17.76 L 264.129 20.228 L 254.925 20.228 L 254.925 7.722 Z"/>
    <path class="cls-2" d="M 276.758 11.924 C 276.956 13.611 275.972 15.214 274.379 15.804 L 277.547 20.25 L 274.112 20.25 L 271.344 16.259 L 269.41 16.259 L 269.41 20.25 L 266.619 20.25 L 266.619 7.722 L 271.366 7.722 C 272.823 7.597 274.28 7.944 275.524 8.711 C 276.422 9.525 276.881 10.718 276.758 11.924 Z M 273.423 13.402 C 273.802 13.008 273.992 12.468 273.945 11.924 C 274.004 11.402 273.8 10.885 273.401 10.545 C 272.825 10.238 272.171 10.107 271.522 10.167 L 269.432 10.167 L 269.432 13.869 L 271.478 13.869 C 272.158 13.924 272.837 13.742 273.401 13.358 Z"/>
    <path class="cls-2" d="M 284.351 7.722 L 287.141 7.722 L 287.141 20.228 L 284.351 20.228 Z"/>
    <path class="cls-2" d="M 298.958 7.722 L 301.749 7.722 L 301.749 20.228 L 298.958 20.228 L 293.011 12.446 L 293.011 20.228 L 290.221 20.228 L 290.221 7.722 L 292.822 7.722 L 298.958 15.77 Z"/>
    <path class="cls-2" d="M 307.752 10.223 C 307.492 10.44 307.344 10.763 307.352 11.101 C 307.354 11.456 307.538 11.784 307.841 11.968 C 308.564 12.318 309.33 12.573 310.12 12.724 C 311.13 12.934 312.076 13.385 312.877 14.036 C 313.565 14.702 313.927 15.637 313.866 16.593 C 313.903 17.655 313.432 18.669 312.599 19.328 C 311.649 20.067 310.465 20.437 309.264 20.373 C 307.259 20.359 305.339 19.561 303.916 18.149 L 305.573 16.115 C 306.57 17.133 307.9 17.76 309.319 17.882 C 309.745 17.908 310.167 17.79 310.52 17.549 C 311.122 17.104 311.122 16.204 310.52 15.759 C 309.946 15.436 309.323 15.21 308.674 15.092 C 307.525 14.88 306.436 14.416 305.484 13.736 C 304.76 13.069 304.387 12.104 304.472 11.123 C 304.417 10.053 304.896 9.025 305.751 8.378 C 306.677 7.709 307.8 7.369 308.941 7.41 C 309.797 7.415 310.647 7.56 311.454 7.844 C 312.266 8.105 313.021 8.521 313.677 9.067 L 312.265 11.101 C 311.319 10.335 310.147 9.903 308.93 9.867 C 308.507 9.832 308.085 9.958 307.752 10.223 Z"/>
    <path class="cls-2" d="M 321.425 10.134 L 321.425 20.228 L 318.691 20.228 L 318.691 10.134 L 315.156 10.134 L 315.156 7.722 L 325.027 7.722 L 325.027 10.134 Z"/>
    <path class="cls-2" d="M 327.017 7.722 L 329.808 7.722 L 329.808 20.228 L 327.017 20.228 Z"/>
    <path class="cls-2" d="M 338.179 10.134 L 338.179 20.228 L 335.366 20.228 L 335.366 10.134 L 331.82 10.134 L 331.82 7.722 L 341.691 7.722 L 341.691 10.134 Z"/>
    <path class="cls-2" d="M 347.061 17.004 C 347.513 17.576 348.212 17.898 348.94 17.871 C 349.667 17.906 350.364 17.581 350.807 17.004 C 351.305 16.315 351.549 15.474 351.497 14.625 L 351.497 7.722 L 354.265 7.722 L 354.265 14.714 C 354.367 16.255 353.823 17.77 352.764 18.894 C 350.569 20.843 347.265 20.843 345.071 18.894 C 344.01 17.775 343.462 16.265 343.559 14.725 L 343.559 7.722 L 346.349 7.722 L 346.349 14.625 C 346.304 15.477 346.555 16.317 347.061 17.004 Z"/>
    <path class="cls-2" d="M 362.48 10.134 L 362.48 20.228 L 359.69 20.228 L 359.69 10.134 L 356.155 10.134 L 356.155 7.722 L 366.026 7.722 L 366.026 10.134 Z"/>
    <path class="cls-2" d="M 377.076 7.722 L 377.076 10.212 L 370.851 10.212 L 370.851 12.791 L 376.409 12.791 L 376.409 15.17 L 370.851 15.17 L 370.851 17.76 L 377.277 17.76 L 377.277 20.228 L 368.061 20.228 L 368.061 7.722 Z"/>
  </g>
  <g>
    <title>Cancer  Moonshot Biobank</title>
    <path class="cls-1" d="M 103.43 45.3 C 100.967 43.996 99.447 41.417 99.5 38.63 C 99.464 37.246 99.81 35.88 100.5 34.68 C 101.194 33.525 102.19 32.582 103.38 31.95 C 105.748 30.758 108.516 30.648 110.97 31.65 C 112.014 32.068 112.941 32.734 113.67 33.59 L 111.47 35.59 C 110.533 34.468 109.131 33.84 107.67 33.89 C 106.815 33.875 105.971 34.081 105.22 34.49 C 104.511 34.878 103.928 35.461 103.54 36.17 C 102.728 37.706 102.728 39.544 103.54 41.08 C 103.928 41.789 104.511 42.372 105.22 42.76 C 105.971 43.169 106.815 43.375 107.67 43.36 C 109.113 43.379 110.484 42.733 111.39 41.61 L 113.59 43.61 C 112.89 44.478 111.991 45.164 110.97 45.61 C 109.865 46.071 108.677 46.299 107.48 46.28 C 106.07 46.292 104.679 45.956 103.43 45.3 Z"/>
    <path class="cls-1" d="M 124.27 35.74 C 125.278 36.737 125.797 38.126 125.69 39.54 L 125.69 46.03 L 122.6 46.03 L 122.6 44.61 C 121.98 45.67 120.82 46.2 119.13 46.2 C 118.349 46.219 117.574 46.065 116.86 45.75 C 116.263 45.494 115.752 45.07 115.39 44.53 C 115.048 44 114.871 43.381 114.88 42.75 C 114.849 41.776 115.292 40.847 116.07 40.26 C 117.171 39.57 118.464 39.251 119.76 39.35 L 122.39 39.35 C 122.431 38.726 122.189 38.116 121.73 37.69 C 121.16 37.25 120.447 37.04 119.73 37.1 C 119.125 37.102 118.524 37.2 117.95 37.39 C 117.412 37.556 116.907 37.817 116.46 38.16 L 115.27 35.86 C 115.951 35.401 116.705 35.063 117.5 34.86 C 118.373 34.619 119.274 34.498 120.18 34.5 C 121.65 34.391 123.108 34.833 124.27 35.74 Z M 121.46 43.59 C 121.895 43.322 122.223 42.912 122.39 42.43 L 122.39 41.27 L 120.12 41.27 C 118.77 41.27 118.12 41.71 118.12 42.6 C 118.112 42.995 118.299 43.369 118.62 43.6 C 119.026 43.865 119.506 43.994 119.99 43.97 C 120.505 43.977 121.013 43.845 121.46 43.59 Z"/>
    <path class="cls-1" d="M 138.6 35.75 C 139.537 36.772 140.008 38.137 139.9 39.52 L 139.9 46.03 L 136.6 46.03 L 136.6 40.03 C 136.649 39.314 136.439 38.605 136.01 38.03 C 135.564 37.571 134.939 37.329 134.3 37.37 C 133.553 37.326 132.824 37.607 132.3 38.14 C 131.761 38.776 131.495 39.599 131.56 40.43 L 131.56 46.06 L 128.26 46.06 L 128.26 34.65 L 131.41 34.65 L 131.41 35.98 C 131.862 35.491 132.419 35.111 133.04 34.87 C 133.718 34.605 134.442 34.472 135.17 34.48 C 136.438 34.421 137.676 34.879 138.6 35.75 Z"/>
    <path class="cls-1" d="M 144.84 45.47 C 140.906 43.441 140.645 37.914 144.369 35.522 C 144.522 35.424 144.679 35.333 144.84 35.25 C 145.853 34.739 146.975 34.481 148.11 34.5 C 149.204 34.476 150.285 34.735 151.25 35.25 C 152.121 35.73 152.807 36.487 153.2 37.4 L 150.67 38.75 C 150.194 37.78 149.2 37.172 148.12 37.19 C 147.322 37.164 146.548 37.468 145.98 38.03 C 145.396 38.653 145.089 39.487 145.13 40.34 C 145.088 41.191 145.395 42.021 145.98 42.64 C 146.544 43.209 147.32 43.517 148.12 43.49 C 149.202 43.515 150.2 42.905 150.67 41.93 L 153.23 43.32 C 152.821 44.233 152.126 44.988 151.25 45.47 C 150.286 45.989 149.205 46.251 148.11 46.23 C 146.974 46.246 145.852 45.985 144.84 45.47 Z"/>
    <path class="cls-1" d="M 166.04 41.27 L 157.43 41.27 C 157.567 41.948 157.962 42.546 158.53 42.94 C 159.168 43.365 159.924 43.579 160.69 43.55 C 161.228 43.562 161.764 43.474 162.27 43.29 C 162.748 43.098 163.183 42.812 163.55 42.45 L 165.3 44.36 C 164.089 45.641 162.369 46.316 160.61 46.2 C 159.43 46.224 158.261 45.967 157.2 45.45 C 156.254 44.989 155.462 44.263 154.92 43.36 C 154.375 42.455 154.095 41.416 154.11 40.36 C 154.099 39.306 154.375 38.269 154.91 37.36 C 155.422 36.471 156.174 35.743 157.08 35.26 C 158.034 34.754 159.1 34.496 160.18 34.51 C 161.224 34.5 162.254 34.747 163.18 35.23 C 164.069 35.699 164.805 36.414 165.3 37.29 C 165.83 38.243 166.096 39.32 166.07 40.41 C 166.07 40.41 166.08 40.72 166.04 41.27 Z M 158.32 37.61 C 157.799 38.05 157.466 38.673 157.39 39.35 L 163 39.35 C 162.82 37.955 161.606 36.927 160.2 36.98 C 159.518 36.96 158.852 37.183 158.32 37.61 Z"/>
    <path class="cls-1" d="M 172.75 34.9 C 173.487 34.605 174.276 34.458 175.07 34.47 L 175.07 37.52 L 174.33 37.47 C 173.512 37.422 172.71 37.711 172.11 38.27 C 171.526 38.919 171.233 39.779 171.3 40.65 L 171.3 46.02 L 168 46.02 L 168 34.65 L 171.15 34.65 L 171.15 36.15 C 171.559 35.595 172.112 35.163 172.75 34.9 Z"/>
    <path class="cls-1" d="M 196.81 46.03 L 196.81 37.15 L 192.43 44.47 L 190.89 44.47 L 186.55 37.35 L 186.55 46.04 L 183.34 46.04 L 183.34 31.22 L 186.17 31.22 L 191.67 40.47 L 197.13 31.27 L 199.94 31.27 L 199.94 46.08 Z"/>
    <path class="cls-1" d="M 205.29 45.47 C 204.366 44.996 203.593 44.272 203.06 43.38 C 201.988 41.524 201.988 39.236 203.06 37.38 C 203.593 36.488 204.366 35.764 205.29 35.29 C 207.32 34.29 209.7 34.29 211.73 35.29 C 212.647 35.77 213.415 36.493 213.95 37.38 C 215.002 39.242 215.002 41.518 213.95 43.38 C 213.415 44.267 212.647 44.99 211.73 45.47 C 209.7 46.47 207.32 46.47 205.29 45.47 Z M 210.6 42.65 C 211.681 41.315 211.681 39.405 210.6 38.07 C 209.436 36.94 207.584 36.94 206.42 38.07 C 205.328 39.401 205.328 41.319 206.42 42.65 C 207.584 43.78 209.436 43.78 210.6 42.65 Z"/>
    <path class="cls-1" d="M 219.14 45.47 C 215.206 43.391 214.999 37.833 218.766 35.466 C 218.888 35.389 219.013 35.317 219.14 35.25 C 220.136 34.728 221.246 34.461 222.37 34.47 C 223.486 34.451 224.588 34.709 225.58 35.22 C 229.514 37.316 229.703 42.884 225.922 45.243 C 225.81 45.312 225.696 45.378 225.58 45.44 C 224.588 45.951 223.486 46.209 222.37 46.19 C 221.251 46.218 220.142 45.971 219.14 45.47 Z M 224.45 42.65 C 225.531 41.315 225.531 39.405 224.45 38.07 C 223.913 37.496 223.155 37.183 222.37 37.21 C 221.579 37.182 220.814 37.496 220.27 38.07 C 219.178 39.401 219.178 41.319 220.27 42.65 C 220.814 43.224 221.579 43.538 222.37 43.51 C 223.158 43.532 223.917 43.211 224.45 42.63 Z"/>
    <path class="cls-1" d="M 240.83 35.75 C 241.771 36.77 242.246 38.136 242.14 39.52 L 242.14 46.03 L 238.84 46.03 L 238.84 40.03 C 238.886 39.313 238.673 38.603 238.24 38.03 C 237.796 37.567 237.17 37.325 236.53 37.37 C 235.784 37.33 235.056 37.61 234.53 38.14 C 233.995 38.778 233.729 39.599 233.79 40.43 L 233.79 46.06 L 230.49 46.06 L 230.49 34.65 L 233.67 34.65 L 233.67 35.98 C 234.116 35.489 234.671 35.109 235.29 34.87 C 235.972 34.604 236.698 34.471 237.43 34.48 C 238.689 34.424 239.916 34.883 240.83 35.75 Z"/>
    <path class="cls-1" d="M 246.17 45.85 C 245.41 45.676 244.684 45.379 244.02 44.97 L 245.12 42.6 C 245.69 42.956 246.31 43.226 246.96 43.4 C 247.646 43.595 248.356 43.696 249.07 43.7 C 250.47 43.7 251.17 43.36 251.17 42.7 C 251.163 42.36 250.923 42.07 250.59 42 C 250.021 41.819 249.434 41.698 248.84 41.64 C 248.059 41.534 247.287 41.37 246.53 41.15 C 245.928 40.961 245.386 40.616 244.96 40.15 C 244.48 39.599 244.239 38.879 244.29 38.15 C 244.28 37.461 244.502 36.788 244.92 36.24 C 245.391 35.642 246.022 35.191 246.74 34.94 C 247.642 34.609 248.599 34.449 249.56 34.47 C 250.368 34.471 251.172 34.561 251.96 34.74 C 252.662 34.874 253.337 35.12 253.96 35.47 L 252.86 37.81 C 251.858 37.25 250.728 36.961 249.58 36.97 C 249.034 36.939 248.489 37.038 247.99 37.26 C 247.683 37.392 247.478 37.687 247.46 38.02 C 247.454 38.369 247.691 38.676 248.03 38.76 C 248.622 38.955 249.232 39.092 249.85 39.17 C 250.622 39.288 251.387 39.452 252.14 39.66 C 252.734 39.848 253.266 40.194 253.68 40.66 C 254.146 41.195 254.383 41.892 254.34 42.6 C 254.336 43.281 254.099 43.941 253.67 44.47 C 253.188 45.065 252.546 45.509 251.82 45.75 C 250.896 46.077 249.92 46.233 248.94 46.21 C 248.005 46.205 247.075 46.084 246.17 45.85 Z"/>
    <path class="cls-1" d="M 266.67 35.75 C 267.6 36.776 268.07 38.139 267.97 39.52 L 267.97 46.03 L 264.67 46.03 L 264.67 40.03 C 264.719 39.314 264.509 38.605 264.08 38.03 C 263.631 37.569 263.002 37.328 262.36 37.37 C 261.613 37.325 260.883 37.605 260.36 38.14 C 259.821 38.776 259.555 39.599 259.62 40.43 L 259.62 46.06 L 256.32 46.06 L 256.32 30.34 L 259.67 30.34 L 259.67 35.84 C 260.116 35.394 260.656 35.052 261.25 34.84 C 261.891 34.607 262.568 34.488 263.25 34.49 C 264.513 34.431 265.747 34.885 266.67 35.75 Z"/>
    <path class="cls-1" d="M 272.98 45.47 C 272.053 44.996 271.277 44.272 270.74 43.38 C 269.688 41.518 269.688 39.242 270.74 37.38 C 271.277 36.488 272.053 35.764 272.98 35.29 C 275.01 34.29 277.39 34.29 279.42 35.29 C 280.341 35.75 281.118 36.451 281.67 37.32 C 282.722 39.182 282.722 41.458 281.67 43.32 C 281.136 44.233 280.356 44.978 279.42 45.47 C 277.39 46.47 275.01 46.47 272.98 45.47 Z M 278.28 42.65 C 279.372 41.319 279.372 39.401 278.28 38.07 C 277.745 37.494 276.985 37.18 276.2 37.21 C 275.412 37.184 274.651 37.497 274.11 38.07 C 273.002 39.396 273.002 41.324 274.11 42.65 C 274.651 43.223 275.412 43.536 276.2 43.51 C 276.989 43.535 277.749 43.213 278.28 42.63 Z"/>
    <path class="cls-1" d="M 291.98 45.47 C 291.619 45.726 291.211 45.91 290.78 46.01 C 290.293 46.132 289.792 46.193 289.29 46.19 C 288.154 46.272 287.03 45.914 286.15 45.19 C 285.379 44.388 284.977 43.301 285.04 42.19 L 285.04 37.47 L 283.29 37.47 L 283.29 34.9 L 285.04 34.9 L 285.04 32.13 L 288.34 32.13 L 288.34 34.9 L 291.17 34.9 L 291.17 37.47 L 288.34 37.47 L 288.34 42.07 C 288.313 42.474 288.445 42.873 288.71 43.18 C 288.974 43.445 289.336 43.59 289.71 43.58 C 290.189 43.59 290.657 43.438 291.04 43.15 Z"/>
    <path class="cls-1" d="M 312.91 39.67 C 313.404 40.341 313.657 41.158 313.63 41.99 C 313.688 43.186 313.115 44.324 312.12 44.99 C 310.783 45.756 309.247 46.104 307.71 45.99 L 300.06 45.99 L 300.06 31.22 L 307.29 31.22 C 308.743 31.117 310.193 31.466 311.44 32.22 C 312.374 32.845 312.922 33.906 312.89 35.03 C 312.923 36.416 312.14 37.692 310.89 38.29 C 311.691 38.528 312.397 39.01 312.91 39.67 Z M 303.46 33.81 L 303.46 37.29 L 306.87 37.29 C 307.539 37.335 308.207 37.182 308.79 36.85 C 309.226 36.561 309.477 36.063 309.45 35.54 C 309.48 35.02 309.228 34.523 308.79 34.24 C 308.204 33.916 307.538 33.767 306.87 33.81 Z M 309.46 43 C 309.922 42.703 310.186 42.178 310.15 41.63 C 310.15 40.4 309.24 39.79 307.42 39.79 L 303.42 39.79 L 303.42 43.47 L 307.42 43.47 C 308.144 43.517 308.867 43.354 309.5 43 Z"/>
    <path class="cls-1" d="M 316.07 32.54 C 315.309 31.829 315.309 30.621 316.07 29.91 C 316.947 29.208 318.193 29.208 319.07 29.91 C 319.44 30.227 319.649 30.693 319.64 31.18 C 319.655 31.697 319.447 32.196 319.07 32.55 C 318.667 32.916 318.134 33.107 317.59 33.08 C 317.032 33.108 316.485 32.914 316.07 32.54 Z M 315.9 34.65 L 319.2 34.65 L 319.2 46.03 L 315.9 46.03 Z"/>
    <path class="cls-1" d="M 324.36 45.47 C 323.434 44.998 322.661 44.274 322.13 43.38 C 321.058 41.524 321.058 39.236 322.13 37.38 C 322.661 36.486 323.434 35.762 324.36 35.29 C 326.39 34.29 328.77 34.29 330.8 35.29 C 331.717 35.77 332.485 36.493 333.02 37.38 C 334.072 39.242 334.072 41.518 333.02 43.38 C 332.485 44.267 331.717 44.99 330.8 45.47 C 328.77 46.47 326.39 46.47 324.36 45.47 Z M 329.66 42.65 C 330.752 41.319 330.752 39.401 329.66 38.07 C 329.125 37.494 328.365 37.18 327.58 37.21 C 326.792 37.184 326.031 37.497 325.49 38.07 C 324.382 39.396 324.382 41.324 325.49 42.65 C 326.031 43.223 326.792 43.536 327.58 43.51 C 328.372 43.538 329.136 43.216 329.67 42.63 Z"/>
    <path class="cls-1" d="M 345.53 35.21 C 346.368 35.68 347.06 36.372 347.53 37.21 C 348.517 39.145 348.517 41.435 347.53 43.37 C 347.06 44.208 346.368 44.9 345.53 45.37 C 344.648 45.856 343.657 46.108 342.65 46.1 C 341.292 46.185 339.971 45.639 339.07 44.62 L 339.07 45.93 L 335.92 45.93 L 335.92 30.34 L 339.22 30.34 L 339.22 35.86 C 340.106 34.907 341.371 34.398 342.67 34.47 C 343.671 34.469 344.655 34.724 345.53 35.21 Z M 344.16 42.63 C 345.241 41.295 345.241 39.385 344.16 38.05 C 342.997 36.926 341.153 36.926 339.99 38.05 C 338.909 39.385 338.909 41.295 339.99 42.63 C 341.153 43.754 342.997 43.754 344.16 42.63 Z"/>
    <path class="cls-1" d="M 358.97 35.74 C 359.982 36.735 360.501 38.126 360.39 39.54 L 360.39 46.03 L 357.3 46.03 L 357.3 44.61 C 356.68 45.67 355.52 46.2 353.83 46.2 C 353.049 46.219 352.274 46.065 351.56 45.75 C 350.963 45.494 350.452 45.07 350.09 44.53 C 349.748 44 349.571 43.381 349.58 42.75 C 349.541 41.772 349.99 40.838 350.78 40.26 C 351.879 39.565 353.174 39.245 354.47 39.35 L 357.09 39.35 C 357.131 38.726 356.889 38.116 356.43 37.69 C 355.862 37.248 355.147 37.037 354.43 37.1 C 353.822 37.101 353.217 37.199 352.64 37.39 C 352.102 37.556 351.597 37.817 351.15 38.16 L 349.96 35.86 C 350.643 35.399 351.401 35.061 352.2 34.86 C 353.069 34.619 353.968 34.498 354.87 34.5 C 356.344 34.386 357.806 34.829 358.97 35.74 Z M 356.16 43.59 C 356.6 43.328 356.93 42.916 357.09 42.43 L 357.09 41.27 L 354.83 41.27 C 353.47 41.27 352.83 41.71 352.83 42.6 C 352.818 42.994 353.001 43.368 353.32 43.6 C 353.726 43.865 354.206 43.994 354.69 43.97 C 355.205 43.977 355.713 43.845 356.16 43.59 Z"/>
    <path class="cls-1" d="M 373.2 35.75 C 374.137 36.772 374.608 38.137 374.5 39.52 L 374.5 46.03 L 371.2 46.03 L 371.2 40.03 C 371.249 39.314 371.039 38.605 370.61 38.03 C 370.165 37.569 369.539 37.328 368.9 37.37 C 368.154 37.329 367.426 37.609 366.9 38.14 C 366.365 38.778 366.099 39.599 366.16 40.43 L 366.16 46.06 L 362.86 46.06 L 362.86 34.65 L 366.01 34.65 L 366.01 35.98 C 366.47 35.487 367.039 35.107 367.67 34.87 C 368.352 34.604 369.078 34.471 369.81 34.48 C 371.065 34.429 372.287 34.887 373.2 35.75 Z"/>
    <path class="cls-1" d="M 381.87 41.57 L 380.28 43.13 L 380.28 46.03 L 376.98 46.03 L 376.98 30.34 L 380.28 30.34 L 380.28 39.22 L 385.1 34.65 L 389.04 34.65 L 384.3 39.47 L 389.46 46.03 L 385.46 46.03 Z"/>
  </g>
</svg>