<?xml version="1.0" encoding="utf-8"?>
<svg viewBox="8.5 22.3 432.93 54" xmlns="http://www.w3.org/2000/svg">
  <defs>
    <style>.cls-1{fill:#606060;}.cls-2{fill:#bb0e3d;}.cls-3{fill:#fff;}</style>
  </defs>
  <path class="cls-1" d="M83.5,49.3l-15-27H14.27A5.77,5.77,0,0,0,8.5,28.09h0V70.52a5.77,5.77,0,0,0,5.76,5.78H68.5Z"/>
  <path class="cls-2" d="M82,25.12a5.85,5.85,0,0,0-5-2.82H72.5l15.2,27-15.2,27H77a5.87,5.87,0,0,0,5-2.81L95.48,49.3Z"/>
  <rect class="cls-3" x="40.5" y="37.3" width="4" height="24"/>
  <polygon class="cls-3" points="32.5 37.3 32.5 54.9 21.5 37.3 17.5 37.3 17.5 61.3 21.5 61.3 21.5 43.71 32.5 61.3 36.5 61.3 36.5 37.3 32.5 37.3"/>
  <polygon class="cls-3" points="63.5 37.3 63.5 47.3 52.5 47.3 52.5 37.3 48.5 37.3 48.5 61.3 52.5 61.3 52.5 51.3 63.5 51.3 63.5 61.3 67.5 61.3 67.5 37.3 63.5 37.3"/>
  <path class="cls-2" d="M108.13,34.91h2.47V46h-2.47Z"/>
  <path class="cls-2" d="M121.07,34.91h2.47V46h-2.47L115.8,39V46h-2.47V34.91h2.31L121.07,42Z"/>
  <path class="cls-2" d="M128.85,37.12a1,1,0,0,0-.36.78.87.87,0,0,0,.44.76,7.92,7.92,0,0,0,2,.68,5.61,5.61,0,0,1,2.44,1.16,2.87,2.87,0,0,1,.87,2.26,3,3,0,0,1-1.11,2.42,4.44,4.44,0,0,1-2.94.92,6.77,6.77,0,0,1-4.73-1.94l1.47-1.81a5.22,5.22,0,0,0,3.31,1.57,1.79,1.79,0,0,0,1.07-.29.94.94,0,0,0,.39-.79.93.93,0,0,0-.42-.8,5.39,5.39,0,0,0-1.63-.59,7,7,0,0,1-2.82-1.2,2.81,2.81,0,0,1-.9-2.31,2.86,2.86,0,0,1,1.14-2.43,4.52,4.52,0,0,1,2.82-.85,6.91,6.91,0,0,1,2.22.38,5.93,5.93,0,0,1,1.93,1.07l-1.25,1.81a4.85,4.85,0,0,0-3-1.09A1.52,1.52,0,0,0,128.85,37.12Z"/>
  <path class="cls-2" d="M141,37.05V46h-2.47V37.05h-3.13V34.91h8.74v2.14Z"/>
  <path class="cls-2" d="M145.89,34.91h2.47V46h-2.47Z"/>
  <path class="cls-2" d="M155.77,37.05V46H153.3V37.05h-3.14V34.91h8.74v2.14Z"/>
  <path class="cls-2" d="M163.64,43.12a2.16,2.16,0,0,0,3.31,0,3.26,3.26,0,0,0,.61-2.1V34.91H170V41.1a4.9,4.9,0,0,1-1.33,3.7,5.12,5.12,0,0,1-6.81,0,4.86,4.86,0,0,1-1.34-3.69V34.91H163V41A3.21,3.21,0,0,0,163.64,43.12Z"/>
  <path class="cls-2" d="M177.28,37.05V46h-2.47V37.05h-3.13V34.91h8.74v2.14Z"/>
  <path class="cls-2" d="M191.23,44.45a6,6,0,0,1-8.27,0,5.81,5.81,0,0,1,0-8.15,6,6,0,0,1,8.27,0,5.78,5.78,0,0,1,0,8.15Zm-.84-4.07a3.61,3.61,0,0,0-.95-2.52,3.12,3.12,0,0,0-4.67,0,3.82,3.82,0,0,0,0,5,3.14,3.14,0,0,0,4.67,0A3.61,3.61,0,0,0,190.39,40.38Z"/>
  <path class="cls-2" d="M206.92,34.91h2.47V46h-2.47L201.64,39V46h-2.46V34.91h2.31L206.92,42Z"/>
  <path class="cls-2" d="M220,46l-1-2.39h-4.63l-1,2.39h-2.63l4.78-11.07h2.39L222.62,46Zm-3.34-7.78-1.39,3.22H218Z"/>
  <path class="cls-2" d="M229,43.79a3.64,3.64,0,0,0,3-1.44L233.54,44a6,6,0,0,1-8.65.51,5.87,5.87,0,0,1,0-8.19,5.72,5.72,0,0,1,4.13-1.64,5.87,5.87,0,0,1,4.56,2.07l-1.54,1.74A3.59,3.59,0,0,0,229.16,37a3.37,3.37,0,0,0-2.38.91,3.15,3.15,0,0,0-1,2.45,3.36,3.36,0,0,0,.93,2.48A3.09,3.09,0,0,0,229,43.79Z"/>
  <path class="cls-2" d="M235.49,34.91H238V46h-2.47Z"/>
  <path class="cls-2" d="M250,44.45a6,6,0,0,1-8.26,0,5.78,5.78,0,0,1,0-8.15,6,6,0,0,1,8.26,0,5.78,5.78,0,0,1,0,8.15Zm-.84-4.07a3.56,3.56,0,0,0-1-2.52,3.12,3.12,0,0,0-4.67,0,3.82,3.82,0,0,0,0,5,3.14,3.14,0,0,0,4.67,0A3.56,3.56,0,0,0,249.15,40.38Z"/>
  <path class="cls-2" d="M261.5,34.91H264V46H261.5L256.23,39V46h-2.47V34.91h2.31L261.5,42Z"/>
  <path class="cls-2" d="M274.58,46l-1-2.39h-4.64l-1,2.39h-2.63L270,34.91h2.39L277.21,46Zm-3.34-7.78-1.4,3.22h2.77Z"/>
  <path class="cls-2" d="M278.49,46V34.91H281v8.87h4.72V46Z"/>
  <path class="cls-2" d="M300.11,36.36a5.18,5.18,0,0,1,1.59,4,5.43,5.43,0,0,1-1.55,4.08A6.49,6.49,0,0,1,295.44,46h-3.78V34.91h3.91A6.47,6.47,0,0,1,300.11,36.36Zm-1.81,6.58a3.24,3.24,0,0,0,.91-2.49,3.33,3.33,0,0,0-.91-2.51,3.92,3.92,0,0,0-2.79-.88h-1.38v6.73h1.57A3.65,3.65,0,0,0,298.3,42.94Z"/>
  <path class="cls-2" d="M311.81,34.91v2.2H306.3v2.28h5V41.5h-5v2.29H312V46h-8.16V34.91Z"/>
  <path class="cls-2" d="M314.19,46V34.91h2.47v8.87h4.71V46Z"/>
  <path class="cls-2" d="M332.44,43.79a3.66,3.66,0,0,0,3-1.44L337,44a6,6,0,0,1-8.65.51,5.45,5.45,0,0,1-1.66-4.08,5.54,5.54,0,0,1,1.69-4.11,5.7,5.7,0,0,1,4.12-1.64,5.84,5.84,0,0,1,4.56,2.07l-1.53,1.74A3.59,3.59,0,0,0,332.61,37a3.39,3.39,0,0,0-2.38.91,3.15,3.15,0,0,0-1,2.45,3.32,3.32,0,0,0,.94,2.48A3.07,3.07,0,0,0,332.44,43.79Z"/>
  <path class="cls-2" d="M346.83,46l-1-2.39h-4.64l-1,2.39h-2.62l4.78-11.07h2.39L349.46,46Zm-3.34-7.78-1.39,3.22h2.77Zm1-4.43h-2.26l2-2.8,2.46,1Z"/>
  <path class="cls-2" d="M358.48,34.91H361V46h-2.47L353.21,39V46h-2.47V34.91h2.31L358.48,42Z"/>
  <path class="cls-2" d="M368.76,43.79a3.64,3.64,0,0,0,3-1.44L373.32,44a6,6,0,0,1-8.66.51,5.86,5.86,0,0,1,0-8.19,5.68,5.68,0,0,1,4.12-1.64,5.87,5.87,0,0,1,4.56,2.07l-1.54,1.74A3.59,3.59,0,0,0,368.93,37a3.37,3.37,0,0,0-2.38.91,3.15,3.15,0,0,0-1,2.45,3.36,3.36,0,0,0,.93,2.48A3.09,3.09,0,0,0,368.76,43.79Z"/>
  <path class="cls-2" d="M383.24,34.91v2.2h-5.51v2.28h5V41.5h-5v2.29h5.69V46h-8.16V34.91Z"/>
  <path class="cls-2" d="M394.59,38.58a3.26,3.26,0,0,1-2.1,3.44l2.8,4h-3l-2.45-3.53h-1.71V46h-2.47V34.91h4.19a6,6,0,0,1,3.68.87A3.34,3.34,0,0,1,394.59,38.58Zm-3,1.32a1.71,1.71,0,0,0,.46-1.31,1.38,1.38,0,0,0-.48-1.22,3,3,0,0,0-1.66-.34h-1.85v3.28h1.8A2.7,2.7,0,0,0,391.62,39.9Z"/>
  <path class="cls-1" d="M118.79,61.91a3.17,3.17,0,0,1,.63,2,3,3,0,0,1-1.31,2.59,6.73,6.73,0,0,1-3.82.91h-6.62V54.6h6.26a6.08,6.08,0,0,1,3.59.9,2.82,2.82,0,0,1,1.26,2.43,3.14,3.14,0,0,1-.45,1.67,3.23,3.23,0,0,1-1.25,1.15A3.34,3.34,0,0,1,118.79,61.91Zm-8.17-5.08v3h2.94a3.06,3.06,0,0,0,1.67-.38,1.31,1.31,0,0,0,.56-1.14,1.26,1.26,0,0,0-.56-1.12,3.06,3.06,0,0,0-1.67-.38Zm5.22,8a1.31,1.31,0,0,0,.59-1.19c0-1.06-.78-1.59-2.36-1.59h-3.45v3.17h3.45A3.27,3.27,0,0,0,115.84,64.79Z"/>
  <path class="cls-1" d="M121.28,55.74a1.5,1.5,0,0,1-.49-1.14,1.46,1.46,0,0,1,.49-1.13,1.8,1.8,0,0,1,1.28-.46,1.86,1.86,0,0,1,1.28.44,1.41,1.41,0,0,1,.5,1.1,1.56,1.56,0,0,1-.5,1.18,1.78,1.78,0,0,1-1.28.46A1.84,1.84,0,0,1,121.28,55.74Zm-.14,1.82H124v9.85h-2.85Z"/>
  <path class="cls-1" d="M128.24,66.9a4.85,4.85,0,0,1-1.93-1.8,5.3,5.3,0,0,1,0-5.23,4.85,4.85,0,0,1,1.93-1.8,5.86,5.86,0,0,1,2.79-.65,5.74,5.74,0,0,1,2.78.65,4.76,4.76,0,0,1,1.92,1.8,5.23,5.23,0,0,1,0,5.23,4.76,4.76,0,0,1-1.92,1.8,5.74,5.74,0,0,1-2.78.65A5.86,5.86,0,0,1,128.24,66.9Zm4.59-2.43a2.74,2.74,0,0,0,.71-2,2.78,2.78,0,0,0-.71-2,2.39,2.39,0,0,0-1.8-.74,2.43,2.43,0,0,0-1.81.74,2.78,2.78,0,0,0-.71,2,2.74,2.74,0,0,0,.71,2,2.43,2.43,0,0,0,1.81.74A2.39,2.39,0,0,0,132.83,64.47Z"/>
  <path class="cls-1" d="M146.13,58.05a4.56,4.56,0,0,1,1.77,1.77,5.87,5.87,0,0,1,0,5.33,4.56,4.56,0,0,1-1.77,1.77,5,5,0,0,1-2.49.63,3.74,3.74,0,0,1-3.09-1.28v1.14h-2.73V53.83h2.85v4.78a3.79,3.79,0,0,1,3-1.19A5,5,0,0,1,146.13,58.05Zm-1.19,6.42a2.74,2.74,0,0,0,.71-2,2.78,2.78,0,0,0-.71-2,2.56,2.56,0,0,0-3.6,0,2.78,2.78,0,0,0-.7,2,2.74,2.74,0,0,0,.7,2,2.56,2.56,0,0,0,3.6,0Z"/>
  <path class="cls-1" d="M157.58,58.51a4.18,4.18,0,0,1,1.22,3.28v5.62h-2.67V66.18a3.18,3.18,0,0,1-3,1.37,4.62,4.62,0,0,1-2-.38,3,3,0,0,1-1.27-1.06,2.8,2.8,0,0,1-.44-1.54,2.58,2.58,0,0,1,1-2.16,5.29,5.29,0,0,1,3.19-.78H156a1.82,1.82,0,0,0-.57-1.44,2.47,2.47,0,0,0-1.7-.5,5.12,5.12,0,0,0-1.55.24,4.37,4.37,0,0,0-1.29.67l-1-2a6.24,6.24,0,0,1,1.93-.88,8.52,8.52,0,0,1,2.31-.31A5.12,5.12,0,0,1,157.58,58.51Zm-2.44,6.78a1.82,1.82,0,0,0,.81-1v-1h-2c-1.17,0-1.76.39-1.76,1.15a1,1,0,0,0,.43.87,1.9,1.9,0,0,0,1.18.32A2.43,2.43,0,0,0,155.14,65.29Z"/>
  <path class="cls-1" d="M169.92,58.52A4.33,4.33,0,0,1,171,61.77v5.64h-2.85v-5.2a2.54,2.54,0,0,0-.52-1.75,1.88,1.88,0,0,0-1.48-.57,2.26,2.26,0,0,0-1.72.67,2.77,2.77,0,0,0-.64,2v4.87H161V57.56h2.72v1.16a3.69,3.69,0,0,1,1.41-1,4.84,4.84,0,0,1,1.85-.34A4,4,0,0,1,169.92,58.52Z"/>
  <path class="cls-1" d="M174.82,66.9a4.81,4.81,0,0,1-2-1.8,5.23,5.23,0,0,1,0-5.23,4.81,4.81,0,0,1,2-1.8,6,6,0,0,1,2.82-.65,5.4,5.4,0,0,1,2.72.65,3.78,3.78,0,0,1,1.69,1.86l-2.21,1.18a2.42,2.42,0,0,0-2.21-1.35,2.49,2.49,0,0,0-1.85.73,3.09,3.09,0,0,0,0,4,2.49,2.49,0,0,0,1.85.73,2.4,2.4,0,0,0,2.21-1.35l2.21,1.21a3.82,3.82,0,0,1-1.69,1.82,5.4,5.4,0,0,1-2.72.66A6,6,0,0,1,174.82,66.9Z"/>
  <path class="cls-1" d="M185.28,66.9a4.79,4.79,0,0,1-1.93-1.8,5.3,5.3,0,0,1,0-5.23,4.79,4.79,0,0,1,1.93-1.8,6.29,6.29,0,0,1,5.57,0,4.76,4.76,0,0,1,1.92,1.8,5.23,5.23,0,0,1,0,5.23,4.76,4.76,0,0,1-1.92,1.8,6.29,6.29,0,0,1-5.57,0Zm4.59-2.43a2.74,2.74,0,0,0,.71-2,2.78,2.78,0,0,0-.71-2,2.39,2.39,0,0,0-1.8-.74,2.43,2.43,0,0,0-1.81.74,2.74,2.74,0,0,0-.71,2,2.7,2.7,0,0,0,.71,2,2.43,2.43,0,0,0,1.81.74A2.39,2.39,0,0,0,189.87,64.47Z"/>
  <path class="cls-1" d="M210.21,53.83V67.41h-2.73V66.27a3.74,3.74,0,0,1-3.07,1.28,5.06,5.06,0,0,1-2.52-.62,4.35,4.35,0,0,1-1.76-1.77,5.91,5.91,0,0,1,0-5.35A4.47,4.47,0,0,1,201.89,58a5.17,5.17,0,0,1,2.52-.62,3.72,3.72,0,0,1,2.94,1.19V53.83Zm-3.52,10.64a2.71,2.71,0,0,0,.72-2,2.75,2.75,0,0,0-.72-2,2.38,2.38,0,0,0-1.79-.74,2.41,2.41,0,0,0-1.81.74,2.74,2.74,0,0,0-.71,2,2.7,2.7,0,0,0,.71,2,2.41,2.41,0,0,0,1.81.74A2.38,2.38,0,0,0,206.69,64.47Z"/>
  <path class="cls-1" d="M222.13,63.29h-7.44a2.33,2.33,0,0,0,.95,1.45,3.17,3.17,0,0,0,1.86.53,3.86,3.86,0,0,0,1.37-.23,3.46,3.46,0,0,0,1.1-.73L221.49,66a5.09,5.09,0,0,1-4.06,1.59,6.3,6.3,0,0,1-2.94-.65,4.68,4.68,0,0,1-2-1.8,5.25,5.25,0,0,1,0-5.22,4.77,4.77,0,0,1,1.89-1.81,5.43,5.43,0,0,1,2.68-.65,5.53,5.53,0,0,1,2.61.62,4.57,4.57,0,0,1,1.84,1.78,5.3,5.3,0,0,1,.67,2.7S222.17,62.81,222.13,63.29Zm-6.67-3.16a2.32,2.32,0,0,0-.81,1.5h4.85a2.34,2.34,0,0,0-2.42-2.05A2.43,2.43,0,0,0,215.46,60.13Z"/>
  <path class="cls-1" d="M240.76,67.41l0-7.69L237,66.05h-1.34l-3.75-6.16v7.52H229.1V54.6h2.45l4.8,8,4.72-8h2.43l0,12.81Z"/>
  <path class="cls-1" d="M246.33,55.74a1.5,1.5,0,0,1-.49-1.14,1.46,1.46,0,0,1,.49-1.13,1.8,1.8,0,0,1,1.29-.46,1.88,1.88,0,0,1,1.28.44,1.43,1.43,0,0,1,.49,1.1,1.59,1.59,0,0,1-.49,1.18,1.8,1.8,0,0,1-1.28.46A1.84,1.84,0,0,1,246.33,55.74Zm-.14,1.82H249v9.85h-2.85Z"/>
  <path class="cls-1" d="M252.43,67.25a6.09,6.09,0,0,1-1.87-.76l.95-2a6.14,6.14,0,0,0,1.59.69,6.52,6.52,0,0,0,1.83.26c1.21,0,1.81-.29,1.81-.89a.64.64,0,0,0-.49-.61,7.88,7.88,0,0,0-1.52-.31,14.1,14.1,0,0,1-2-.42,3.15,3.15,0,0,1-1.37-.84,2.4,2.4,0,0,1-.57-1.72,2.68,2.68,0,0,1,.54-1.65,3.42,3.42,0,0,1,1.57-1.13,6.67,6.67,0,0,1,2.44-.4,9.75,9.75,0,0,1,2.08.23,5.67,5.67,0,0,1,1.71.63l-.95,2a5.67,5.67,0,0,0-2.84-.73,2.91,2.91,0,0,0-1.37.25.76.76,0,0,0-.46.66.65.65,0,0,0,.5.64,8.85,8.85,0,0,0,1.57.35,16.71,16.71,0,0,1,2,.43,3,3,0,0,1,1.33.83,2.37,2.37,0,0,1,.57,1.69,2.56,2.56,0,0,1-.55,1.62,3.49,3.49,0,0,1-1.6,1.11,7.17,7.17,0,0,1-2.5.39A9.55,9.55,0,0,1,252.43,67.25Z"/>
  <path class="cls-1" d="M261.19,55.74a1.5,1.5,0,0,1-.49-1.14,1.46,1.46,0,0,1,.49-1.13,1.8,1.8,0,0,1,1.28-.46,1.88,1.88,0,0,1,1.28.44,1.4,1.4,0,0,1,.49,1.1,1.55,1.55,0,0,1-.49,1.18,1.8,1.8,0,0,1-1.28.46A1.84,1.84,0,0,1,261.19,55.74ZM261,57.56h2.86v9.85H261Z"/>
  <path class="cls-1" d="M268.22,66.9a4.85,4.85,0,0,1-1.93-1.8,5.3,5.3,0,0,1,0-5.23,4.85,4.85,0,0,1,1.93-1.8,5.83,5.83,0,0,1,2.79-.65,5.74,5.74,0,0,1,2.78.65,4.76,4.76,0,0,1,1.92,1.8,5.23,5.23,0,0,1,0,5.23,4.76,4.76,0,0,1-1.92,1.8,5.74,5.74,0,0,1-2.78.65A5.83,5.83,0,0,1,268.22,66.9Zm4.59-2.43a2.74,2.74,0,0,0,.71-2,2.78,2.78,0,0,0-.71-2,2.39,2.39,0,0,0-1.8-.74,2.43,2.43,0,0,0-1.81.74,2.78,2.78,0,0,0-.71,2,2.74,2.74,0,0,0,.71,2,2.43,2.43,0,0,0,1.81.74A2.39,2.39,0,0,0,272.81,64.47Zm-1-10.8h3.07l-3.31,2.63h-2.23Z"/>
  <path class="cls-1" d="M286.94,58.52a4.33,4.33,0,0,1,1.12,3.25v5.64h-2.85v-5.2a2.59,2.59,0,0,0-.51-1.75,1.91,1.91,0,0,0-1.49-.57,2.22,2.22,0,0,0-1.71.67,2.73,2.73,0,0,0-.65,2v4.87H278V57.56h2.73v1.16a3.58,3.58,0,0,1,1.4-1,4.87,4.87,0,0,1,1.85-.34A4,4,0,0,1,286.94,58.52Z"/>
  <path class="cls-1" d="M297.38,66.9a4.87,4.87,0,0,1-2-1.8,5.23,5.23,0,0,1,0-5.23,4.87,4.87,0,0,1,2-1.8,6,6,0,0,1,2.83-.65,5.38,5.38,0,0,1,2.71.65,3.84,3.84,0,0,1,1.7,1.86l-2.22,1.18a2.42,2.42,0,0,0-2.21-1.35,2.51,2.51,0,0,0-1.85.73,3.09,3.09,0,0,0,0,4,2.51,2.51,0,0,0,1.85.73,2.39,2.39,0,0,0,2.21-1.35l2.22,1.21a3.89,3.89,0,0,1-1.7,1.82,5.39,5.39,0,0,1-2.71.66A6,6,0,0,1,297.38,66.9Z"/>
  <path class="cls-1" d="M307.85,66.9a4.73,4.73,0,0,1-1.93-1.8,5.23,5.23,0,0,1,0-5.23,4.73,4.73,0,0,1,1.93-1.8,6.29,6.29,0,0,1,5.57,0,4.89,4.89,0,0,1,1.92,1.8,5.3,5.3,0,0,1,0,5.23,4.89,4.89,0,0,1-1.92,1.8,6.29,6.29,0,0,1-5.57,0Zm4.59-2.43a2.74,2.74,0,0,0,.7-2,2.78,2.78,0,0,0-.7-2,2.57,2.57,0,0,0-3.61,0,2.75,2.75,0,0,0-.72,2,2.71,2.71,0,0,0,.72,2,2.57,2.57,0,0,0,3.61,0Z"/>
  <path class="cls-1" d="M326.27,58.52a4.33,4.33,0,0,1,1.12,3.25v5.64h-2.85v-5.2a2.59,2.59,0,0,0-.51-1.75,1.91,1.91,0,0,0-1.49-.57,2.22,2.22,0,0,0-1.71.67,2.73,2.73,0,0,0-.65,2v4.87h-2.85V57.56h2.73v1.16a3.58,3.58,0,0,1,1.4-1,4.87,4.87,0,0,1,1.85-.34A4,4,0,0,1,326.27,58.52Z"/>
  <path class="cls-1" d="M336,66.93a3,3,0,0,1-1,.47,5.43,5.43,0,0,1-1.29.15,3.87,3.87,0,0,1-2.72-.89A3.45,3.45,0,0,1,330,64V60h-1.52v-2.2H330V55.39h2.86v2.39h2.45V60h-2.45v4a1.33,1.33,0,0,0,.32,1,1.19,1.19,0,0,0,.9.33,1.84,1.84,0,0,0,1.15-.36Z"/>
  <path class="cls-1" d="M341.5,57.78a5.22,5.22,0,0,1,2-.36v2.63l-.64,0a2.63,2.63,0,0,0-1.92.68,2.76,2.76,0,0,0-.7,2.06v4.65H337.4V57.56h2.72v1.3A3.31,3.31,0,0,1,341.5,57.78Z"/>
  <path class="cls-1" d="M352.45,58.51a4.15,4.15,0,0,1,1.23,3.28v5.62H351V66.18a3.18,3.18,0,0,1-3,1.37,4.62,4.62,0,0,1-2-.38,3,3,0,0,1-1.27-1.06,2.8,2.8,0,0,1-.44-1.54,2.58,2.58,0,0,1,1-2.16,5.27,5.27,0,0,1,3.19-.78h2.27a1.82,1.82,0,0,0-.57-1.44,2.48,2.48,0,0,0-1.7-.5,5.12,5.12,0,0,0-1.55.24,4.37,4.37,0,0,0-1.29.67l-1-2a6.13,6.13,0,0,1,1.93-.88,8.52,8.52,0,0,1,2.31-.31A5.07,5.07,0,0,1,352.45,58.51ZM350,65.29a1.82,1.82,0,0,0,.81-1v-1h-2c-1.17,0-1.76.39-1.76,1.15a1,1,0,0,0,.43.87,1.9,1.9,0,0,0,1.18.32A2.45,2.45,0,0,0,350,65.29Z"/>
  <path class="cls-1" d="M365.63,63.29h-7.45a2.33,2.33,0,0,0,.95,1.45,3.18,3.18,0,0,0,1.87.53,3.84,3.84,0,0,0,1.36-.23,3.5,3.5,0,0,0,1.11-.73L365,66a5.13,5.13,0,0,1-4.07,1.59A6.3,6.3,0,0,1,358,66.9a4.74,4.74,0,0,1-2-1.8,5,5,0,0,1-.69-2.61,5.08,5.08,0,0,1,.68-2.61,4.77,4.77,0,0,1,1.89-1.81,5.45,5.45,0,0,1,2.68-.65,5.53,5.53,0,0,1,2.61.62A4.57,4.57,0,0,1,365,59.82a5.3,5.3,0,0,1,.67,2.7S365.66,62.81,365.63,63.29ZM359,60.13a2.32,2.32,0,0,0-.81,1.5H363a2.51,2.51,0,0,0-4-1.5Z"/>
  <path class="cls-1" d="M367.22,53.83h2.85V67.41h-2.85Z"/>
  <path class="cls-1" d="M380.32,66.78a6.4,6.4,0,0,1-2.48-2.36,6.86,6.86,0,0,1,0-6.83,6.4,6.4,0,0,1,2.48-2.36,7.92,7.92,0,0,1,6.57-.26,6,6,0,0,1,2.26,1.68l-1.9,1.76a4.1,4.1,0,0,0-3.22-1.5,4.24,4.24,0,0,0-2.12.52,3.7,3.7,0,0,0-1.46,1.45,4.6,4.6,0,0,0,0,4.25,3.7,3.7,0,0,0,1.46,1.45,4.24,4.24,0,0,0,2.12.52,4.06,4.06,0,0,0,3.22-1.52l1.9,1.76a6,6,0,0,1-2.27,1.7,7.9,7.9,0,0,1-6.56-.26Z"/>
  <path class="cls-1" d="M398.17,58.51a4.14,4.14,0,0,1,1.22,3.28v5.62h-2.67V66.18a3.15,3.15,0,0,1-3,1.37,4.57,4.57,0,0,1-2-.38,2.92,2.92,0,0,1-1.27-1.06,2.72,2.72,0,0,1-.44-1.54,2.57,2.57,0,0,1,1-2.16,5.29,5.29,0,0,1,3.19-.78h2.27a1.82,1.82,0,0,0-.57-1.44,2.47,2.47,0,0,0-1.7-.5,5.05,5.05,0,0,0-1.54.24,4.13,4.13,0,0,0-1.29.67l-1-2a6.24,6.24,0,0,1,1.93-.88,8.54,8.54,0,0,1,2.32-.31A5.11,5.11,0,0,1,398.17,58.51Zm-2.43,6.78a1.85,1.85,0,0,0,.8-1v-1h-2c-1.17,0-1.75.39-1.75,1.15a1,1,0,0,0,.43.87,1.88,1.88,0,0,0,1.18.32A2.47,2.47,0,0,0,395.74,65.29Zm0-11.62h3.08l-3.31,2.63h-2.24Z"/>
  <path class="cls-1" d="M410.4,58.52a4.33,4.33,0,0,1,1.12,3.25v5.64h-2.85v-5.2a2.59,2.59,0,0,0-.51-1.75,1.91,1.91,0,0,0-1.49-.57,2.22,2.22,0,0,0-1.71.67,2.73,2.73,0,0,0-.65,2v4.87h-2.85V57.56h2.73v1.16a3.58,3.58,0,0,1,1.4-1,4.87,4.87,0,0,1,1.85-.34A4,4,0,0,1,410.4,58.52Z"/>
  <path class="cls-1" d="M415.61,66.9a5,5,0,0,1,0-8.83,6,6,0,0,1,2.83-.65,5.38,5.38,0,0,1,2.71.65,3.84,3.84,0,0,1,1.7,1.86l-2.22,1.18a2.42,2.42,0,0,0-2.21-1.35,2.51,2.51,0,0,0-1.85.73,3.09,3.09,0,0,0,0,4,2.51,2.51,0,0,0,1.85.73,2.4,2.4,0,0,0,2.21-1.35l2.22,1.21a3.89,3.89,0,0,1-1.7,1.82,5.39,5.39,0,0,1-2.71.66A6,6,0,0,1,415.61,66.9Z"/>
  <path class="cls-1" d="M433.77,63.29h-7.45a2.37,2.37,0,0,0,.95,1.45,3.18,3.18,0,0,0,1.87.53A3.8,3.8,0,0,0,430.5,65a3.39,3.39,0,0,0,1.11-.73L433.13,66a5.11,5.11,0,0,1-4.06,1.59,6.34,6.34,0,0,1-2.95-.65,4.8,4.8,0,0,1-2-1.8,5.28,5.28,0,0,1,0-5.22A4.68,4.68,0,0,1,426,58.07a5.45,5.45,0,0,1,2.68-.65,5.57,5.57,0,0,1,2.62.62,4.54,4.54,0,0,1,1.83,1.78,5.3,5.3,0,0,1,.67,2.7S433.8,62.81,433.77,63.29Zm-6.68-3.16a2.27,2.27,0,0,0-.8,1.5h4.84a2.34,2.34,0,0,0-.8-1.5,2.66,2.66,0,0,0-3.24,0Z"/>
  <path class="cls-1" d="M439.43,57.78a5.21,5.21,0,0,1,2-.36v2.63l-.64,0a2.63,2.63,0,0,0-1.92.68,2.8,2.8,0,0,0-.69,2.06v4.65h-2.86V57.56h2.73v1.3A3.25,3.25,0,0,1,439.43,57.78Z"/>
</svg>