<?xml version="1.0" encoding="utf-8"?>
<svg viewBox="0 0 318.68 42" xmlns="http://www.w3.org/2000/svg">
  <path d="M 15.05 1.53 L 19 1.53 L 19 19 L 15.1 19 L 6.73 8.05 L 6.73 19 L 2.83 19 L 2.83 1.53 L 6.48 1.53 L 15.05 12.78 L 15.05 1.53 Z M 34.3 19 L 30.78 19 L 30.78 17.38 C 29.942 18.524 28.608 19.2 27.19 19.2 C 25.887 19.255 24.609 18.827 23.6 18 C 22.633 17.183 22.098 15.965 22.15 14.7 C 22.075 13.481 22.644 12.312 23.65 11.62 C 24.884 10.881 26.314 10.532 27.75 10.62 L 30.55 10.62 L 30.55 10.55 C 30.55 9.11 29.79 8.4 28.28 8.4 C 27.573 8.407 26.873 8.535 26.21 8.78 C 25.551 9.014 24.933 9.352 24.38 9.78 L 22.7 7.25 C 24.455 5.97 26.578 5.296 28.75 5.33 C 30.184 5.264 31.597 5.695 32.75 6.55 C 33.85 7.526 34.425 8.965 34.3 10.43 L 34.3 19 Z M 30.53 13.88 L 30.53 13.23 L 28.18 13.23 C 26.68 13.23 25.93 13.69 25.93 14.62 C 25.908 15.059 26.107 15.479 26.46 15.74 C 26.921 16.024 27.46 16.157 28 16.12 C 28.641 16.133 29.265 15.916 29.76 15.51 C 30.261 15.12 30.547 14.515 30.53 13.88 Z M 42.05 8.25 L 42.05 14.25 C 42.023 14.69 42.167 15.123 42.45 15.46 C 42.687 15.739 43.034 15.899 43.4 15.9 C 44.103 15.903 44.766 15.568 45.18 15 L 46.58 17.62 C 45.601 18.608 44.28 19.181 42.89 19.22 C 40.25 19.315 38.107 17.106 38.28 14.47 L 38.28 8.25 L 36.7 8.25 L 36.7 5.55 L 38.28 5.55 L 38.28 1.55 L 42.05 1.55 L 42.05 5.55 L 45.3 5.55 L 45.3 8.25 L 42.05 8.25 Z M 52.33 19 L 48.58 19 L 48.58 5.55 L 52.33 5.55 L 52.33 19 Z M 48.88 3.85 C 48.466 3.433 48.239 2.867 48.25 2.28 C 48.237 1.691 48.469 1.122 48.89 0.71 C 49.76 -0.122 51.13 -0.122 52 0.71 C 52.421 1.122 52.653 1.691 52.64 2.28 C 52.652 2.866 52.42 3.431 52 3.84 C 51.59 4.259 51.026 4.49 50.44 4.48 C 49.853 4.492 49.286 4.265 48.87 3.85 L 48.88 3.85 Z M 58.88 12.28 C 58.827 13.273 59.16 14.247 59.81 15 C 61.11 16.386 63.31 16.386 64.61 15 C 65.257 14.261 65.594 13.301 65.55 12.32 C 65.594 11.333 65.257 10.367 64.61 9.62 C 63.316 8.221 61.104 8.221 59.81 9.62 C 59.17 10.37 58.838 11.335 58.88 12.32 L 58.88 12.28 Z M 69.33 12.28 C 69.377 14.127 68.652 15.91 67.33 17.2 C 64.465 19.869 60.025 19.869 57.16 17.2 C 55.838 15.91 55.113 14.127 55.16 12.28 C 55.115 10.428 55.839 8.639 57.16 7.34 C 60.021 4.661 64.469 4.661 67.33 7.34 C 68.651 8.639 69.375 10.428 69.33 12.28 Z M 75.85 11.5 L 75.85 19 L 72.1 19 L 72.1 5.55 L 75.85 5.55 L 75.85 7.05 C 76.831 5.968 78.219 5.344 79.68 5.33 C 81.026 5.302 82.32 5.847 83.24 6.83 C 84.234 7.918 84.752 9.358 84.68 10.83 L 84.68 19 L 80.93 19 L 80.93 11.4 C 80.93 9.33 80.17 8.3 78.65 8.3 C 77.9 8.284 77.177 8.577 76.65 9.11 C 76.051 9.756 75.747 10.621 75.81 11.5 L 75.85 11.5 Z M 99.5 19 L 96 19 L 96 17.38 C 95.162 18.524 93.828 19.2 92.41 19.2 C 91.1 19.26 89.814 18.832 88.8 18 C 87.833 17.183 87.298 15.965 87.35 14.7 C 87.275 13.481 87.844 12.312 88.85 11.62 C 90.084 10.881 91.514 10.532 92.95 10.62 L 95.75 10.62 L 95.75 10.55 C 95.75 9.11 94.99 8.4 93.48 8.4 C 92.773 8.407 92.073 8.535 91.41 8.78 C 90.751 9.014 90.133 9.352 89.58 9.78 L 87.9 7.25 C 89.641 5.98 91.745 5.307 93.9 5.33 C 95.334 5.264 96.747 5.695 97.9 6.55 C 99 7.526 99.575 8.965 99.45 10.43 L 99.45 19 L 99.5 19 Z M 95.73 13.88 L 95.73 13.23 L 93.38 13.23 C 91.88 13.23 91.13 13.69 91.13 14.62 C 91.108 15.059 91.307 15.479 91.66 15.74 C 92.121 16.024 92.66 16.157 93.2 16.12 C 93.854 16.142 94.494 15.926 95 15.51 C 95.501 15.12 95.787 14.515 95.77 13.88 L 95.73 13.88 Z M 106.73 19 L 102.98 19 L 102.98 0.45 L 106.73 0.45 L 106.73 19 Z M 125.28 15.55 C 127.121 15.585 128.868 14.738 129.98 13.27 L 132.48 15.85 C 128.993 19.982 122.755 20.347 118.81 16.65 C 117.076 14.964 116.129 12.628 116.2 10.21 C 116.138 7.772 117.103 5.421 118.86 3.73 C 120.59 2.013 122.943 1.071 125.38 1.12 C 128.149 1.083 130.791 2.286 132.58 4.4 L 130.1 7.15 C 129.02 5.695 127.312 4.84 125.5 4.85 C 124.107 4.821 122.757 5.338 121.74 6.29 C 120.681 7.291 120.111 8.704 120.18 10.16 C 120.114 11.613 120.645 13.029 121.65 14.08 C 122.59 15.042 123.885 15.574 125.23 15.55 L 125.28 15.55 Z M 146.4 19 L 142.88 19 L 142.88 17.38 C 142.042 18.524 140.708 19.2 139.29 19.2 C 137.987 19.255 136.709 18.827 135.7 18 C 134.733 17.183 134.198 15.965 134.25 14.7 C 134.175 13.481 134.744 12.312 135.75 11.62 C 136.984 10.881 138.414 10.532 139.85 10.62 L 142.65 10.62 L 142.65 10.55 C 142.65 9.11 141.89 8.4 140.38 8.4 C 139.673 8.407 138.973 8.535 138.31 8.78 C 137.651 9.014 137.033 9.352 136.48 9.78 L 134.8 7.25 C 136.541 5.98 138.645 5.307 140.8 5.33 C 142.234 5.264 143.647 5.695 144.8 6.55 C 145.9 7.526 146.475 8.965 146.35 10.43 L 146.35 19 L 146.4 19 Z M 142.63 13.88 L 142.63 13.23 L 140.28 13.23 C 138.78 13.23 138.03 13.69 138.03 14.62 C 138.008 15.059 138.207 15.479 138.56 15.74 C 139.021 16.024 139.56 16.157 140.1 16.12 C 140.741 16.133 141.365 15.916 141.86 15.51 C 142.361 15.12 142.647 14.515 142.63 13.88 Z M 153.63 11.5 L 153.63 19 L 149.88 19 L 149.88 5.55 L 153.63 5.55 L 153.63 7.05 C 154.607 5.968 155.992 5.345 157.45 5.33 C 158.793 5.301 160.085 5.847 161 6.83 C 161.994 7.918 162.512 9.358 162.44 10.83 L 162.44 19 L 158.69 19 L 158.69 11.4 C 158.69 9.33 157.93 8.3 156.42 8.3 C 155.671 8.286 154.948 8.579 154.42 9.11 C 153.828 9.759 153.528 10.623 153.59 11.5 L 153.63 11.5 Z M 172.3 15.88 C 173.642 15.807 174.874 15.112 175.63 14 L 177.85 16.5 C 176.439 18.149 174.399 19.129 172.23 19.2 C 170.341 19.246 168.507 18.562 167.11 17.29 C 165.719 16.008 164.959 14.181 165.03 12.29 C 164.971 10.395 165.741 8.569 167.14 7.29 C 168.495 6.025 170.287 5.333 172.14 5.36 C 173.15 5.368 174.148 5.572 175.08 5.96 C 176.067 6.347 176.96 6.94 177.7 7.7 L 175.75 10.25 C 175.321 9.731 174.777 9.32 174.16 9.05 C 173.578 8.775 172.944 8.629 172.3 8.62 C 171.356 8.615 170.447 8.973 169.76 9.62 C 169.034 10.313 168.647 11.288 168.7 12.29 C 168.647 13.292 169.034 14.267 169.76 14.96 C 170.432 15.598 171.323 15.956 172.25 15.96 L 172.3 15.88 Z M 192 17.05 C 190.575 18.446 188.655 19.219 186.66 19.2 C 184.79 19.265 182.97 18.585 181.6 17.31 C 180.24 15.987 179.512 14.145 179.6 12.25 C 179.515 10.373 180.244 8.551 181.6 7.25 C 184.285 4.834 188.335 4.749 191.12 7.05 C 192.435 8.207 193.149 9.901 193.06 11.65 L 193.06 13.65 L 183.26 13.65 C 183.38 14.383 183.796 15.034 184.41 15.45 C 185.048 15.915 185.82 16.161 186.61 16.15 C 187.833 16.191 189.016 15.707 189.86 14.82 L 191.96 17.1 L 192 17.05 Z M 189.3 10.93 C 189.266 10.216 188.941 9.547 188.4 9.08 C 187.871 8.638 187.199 8.407 186.51 8.43 C 185.788 8.431 185.087 8.667 184.51 9.1 C 183.904 9.527 183.51 10.193 183.43 10.93 L 189.3 10.93 Z M 202.88 8.85 C 201.897 8.786 200.95 9.236 200.38 10.04 C 199.788 10.977 199.498 12.073 199.55 13.18 L 199.55 19 L 195.8 19 L 195.8 5.55 L 199.55 5.55 L 199.55 7.33 C 200.062 6.756 200.676 6.281 201.36 5.93 C 202.04 5.553 202.802 5.347 203.58 5.33 L 203.58 8.85 L 202.88 8.85 Z M 213.05 1.53 L 217 1.53 L 217 19 L 213.1 19 L 213.1 1.53 L 213.05 1.53 Z M 224.5 11.53 L 224.5 19 L 220.75 19 L 220.75 5.55 L 224.5 5.55 L 224.5 7.05 C 225.481 5.968 226.869 5.344 228.33 5.33 C 229.676 5.302 230.97 5.847 231.89 6.83 C 232.884 7.918 233.402 9.358 233.33 10.83 L 233.33 19 L 229.58 19 L 229.58 11.4 C 229.58 9.33 228.82 8.3 227.3 8.3 C 226.55 8.284 225.827 8.577 225.3 9.11 C 224.701 9.756 224.397 10.621 224.46 11.5 L 224.5 11.53 Z M 246.85 14.86 C 246.879 16.077 246.339 17.238 245.39 18 C 244.334 18.827 243.02 19.252 241.68 19.2 C 240.614 19.189 239.558 19.007 238.55 18.66 C 237.49 18.311 236.502 17.776 235.63 17.08 L 237.28 14.73 C 238.543 15.761 240.119 16.333 241.75 16.35 C 242.154 16.372 242.555 16.271 242.9 16.06 C 243.168 15.901 243.331 15.612 243.33 15.3 C 243.295 14.928 243.073 14.6 242.74 14.43 C 242.296 14.143 241.815 13.917 241.31 13.76 L 240.52 13.51 C 240.02 13.34 239.63 13.2 239.34 13.08 C 238.875 12.872 238.427 12.628 238 12.35 C 237.011 11.768 236.426 10.686 236.48 9.54 C 236.47 8.357 237.028 7.242 237.98 6.54 C 239.1 5.722 240.465 5.31 241.85 5.37 C 243.559 5.409 245.216 5.967 246.6 6.97 L 245.2 9.47 C 244.189 8.718 242.97 8.299 241.71 8.27 C 240.56 8.27 239.98 8.58 239.98 9.22 C 239.986 9.578 240.201 9.899 240.53 10.04 C 241.027 10.289 241.546 10.493 242.08 10.65 L 243.25 11.03 L 244.16 11.35 C 244.607 11.538 245.039 11.762 245.45 12.02 C 246.412 12.635 246.951 13.733 246.85 14.87 L 246.85 14.86 Z M 254.1 8.28 L 254.1 14.28 C 254.073 14.72 254.217 15.153 254.5 15.49 C 254.737 15.769 255.084 15.929 255.45 15.93 C 256.163 15.922 256.827 15.567 257.23 14.98 L 258.63 17.6 C 257.651 18.588 256.33 19.161 254.94 19.2 C 252.3 19.295 250.157 17.086 250.33 14.45 L 250.33 8.25 L 248.75 8.25 L 248.75 5.55 L 250.33 5.55 L 250.33 1.55 L 254.1 1.55 L 254.1 5.55 L 257.35 5.55 L 257.35 8.25 L 254.1 8.28 Z M 264.38 19 L 260.63 19 L 260.63 5.55 L 264.38 5.55 L 264.38 19 Z M 260.93 3.85 C 260.516 3.433 260.289 2.867 260.3 2.28 C 260.287 1.691 260.519 1.122 260.94 0.71 C 261.811 -0.128 263.189 -0.128 264.06 0.71 C 264.481 1.122 264.713 1.691 264.7 2.28 C 264.712 2.866 264.48 3.431 264.06 3.84 C 263.65 4.259 263.086 4.49 262.5 4.48 C 261.913 4.492 261.346 4.265 260.93 3.85 Z M 272.4 8.25 L 272.4 14.25 C 272.373 14.69 272.517 15.123 272.8 15.46 C 273.037 15.739 273.384 15.899 273.75 15.9 C 274.463 15.892 275.127 15.537 275.53 14.95 L 276.93 17.57 C 275.951 18.558 274.63 19.131 273.24 19.17 C 270.6 19.265 268.457 17.056 268.63 14.42 L 268.63 8.25 L 267.05 8.25 L 267.05 5.55 L 268.63 5.55 L 268.63 1.55 L 272.4 1.55 L 272.4 5.55 L 275.65 5.55 L 275.65 8.25 L 272.4 8.25 Z M 287.6 12.8 L 287.6 5.55 L 291.38 5.55 L 291.38 19 L 287.6 19 L 287.6 17.23 C 286.821 18.474 285.457 19.23 283.99 19.23 C 282.619 19.271 281.287 18.772 280.28 17.84 C 279.213 16.749 278.666 15.252 278.78 13.73 L 278.78 5.55 L 282.55 5.55 L 282.55 12.88 C 282.55 14.94 283.31 15.98 284.83 15.98 C 285.564 15.983 286.269 15.687 286.78 15.16 C 287.365 14.519 287.661 13.666 287.6 12.8 L 287.6 12.8 Z M 299.4 8.25 L 299.4 14.25 C 299.373 14.69 299.517 15.123 299.8 15.46 C 300.037 15.739 300.384 15.899 300.75 15.9 C 301.463 15.892 302.127 15.537 302.53 14.95 L 303.93 17.57 C 302.951 18.558 301.63 19.131 300.24 19.17 C 297.6 19.265 295.457 17.056 295.63 14.42 L 295.63 8.25 L 294.05 8.25 L 294.05 5.55 L 295.63 5.55 L 295.63 1.55 L 299.4 1.55 L 299.4 5.55 L 302.65 5.55 L 302.65 8.25 L 299.4 8.25 Z M 317.58 17.05 C 316.154 18.444 314.234 19.217 312.24 19.2 C 310.37 19.265 308.55 18.585 307.18 17.31 C 305.817 15.989 305.088 14.146 305.18 12.25 C 305.099 10.374 305.827 8.553 307.18 7.25 C 309.869 4.832 313.922 4.747 316.71 7.05 C 318.021 8.21 318.734 9.902 318.65 11.65 L 318.65 13.65 L 308.85 13.65 C 308.979 14.366 309.394 14.998 310 15.4 C 310.638 15.865 311.41 16.111 312.2 16.1 C 313.423 16.139 314.605 15.656 315.45 14.77 L 317.55 17.05 L 317.58 17.05 Z M 314.88 10.93 L 309 10.93 C 309.077 10.194 309.467 9.528 310.07 9.1 C 310.648 8.67 311.349 8.435 312.07 8.43 C 312.758 8.409 313.43 8.64 313.96 9.08 C 313.96 9.08 314.817 10.218 314.86 10.93 L 314.88 10.93 Z" style="fill: rgb(255, 255, 255); fill-rule: evenodd;"/>
  <path d="m8.45 41h-2.26v-1a2.84 2.84 0 0 1 -2.29 1.12 3.4 3.4 0 0 1 -2.3-.79 2.63 2.63 0 0 1 -.93-2.11 2.24 2.24 0 0 1 1-2 4.67 4.67 0 0 1 2.63-.65h1.75v-.05c0-.92-.49-1.38-1.46-1.38a4.14 4.14 0 0 0 -1.32.25 4.31 4.31 0 0 0 -1.17.61l-1.1-1.52a6.39 6.39 0 0 1 3.9-1.24 4.05 4.05 0 0 1 2.56.76 3 3 0 0 1 1 2.48v5.52zm-2.45-3.28v-.42h-1.47q-1.44 0-1.44.9a.82.82 0 0 0 .34.71 1.72 1.72 0 0 0 1 .25 1.69 1.69 0 0 0 1.12-.4 1.26 1.26 0 0 0 .49-1zm7.38-3.6v3.88a1.13 1.13 0 0 0 .25.78.83.83 0 0 0 .61.28 1.38 1.38 0 0 0 1.14-.61l.89 1.68a3.45 3.45 0 0 1 -2.36 1 2.86 2.86 0 0 1 -2.95-3v-4h-.96v-1.74h1v-2.58h2.42v2.58h2.08v1.73zm11.26 0v3.88a1.13 1.13 0 0 0 .26.78.81.81 0 0 0 .61.28 1.38 1.38 0 0 0 1.13-.61l.9 1.68a3.49 3.49 0 0 1 -2.36 1 2.85 2.85 0 0 1 -2.95-3v-4h-1v-1.74h1v-2.58h2.41v2.58h2.08v1.73zm6.58 2.24v4.64h-2.4v-11.88h2.4v4.23a3.34 3.34 0 0 1 2.44-1.11 3.05 3.05 0 0 1 2.28 1 3.53 3.53 0 0 1 .93 2.56v5.2h-2.37v-4.71c0-1.32-.49-2-1.46-2a1.75 1.75 0 0 0 -1.26.52 2 2 0 0 0 -.53 1.53zm15.28 3.39a4.8 4.8 0 0 1 -3.42 1.37 4.57 4.57 0 0 1 -3.24-1.2 4.27 4.27 0 0 1 -1.28-3.24 4.19 4.19 0 0 1 1.31-3.24 4.64 4.64 0 0 1 6.13-.12 3.66 3.66 0 0 1 1.24 2.94v1.28h-6.24a1.69 1.69 0 0 0 .74 1.15 2.32 2.32 0 0 0 1.4.45 2.73 2.73 0 0 0 2.08-.85l1.35 1.46zm-1.7-3.92a1.72 1.72 0 0 0 -.58-1.19 1.84 1.84 0 0 0 -1.2-.41 2.17 2.17 0 0 0 -1.31.43 1.7 1.7 0 0 0 -.71 1.17zm16.45-6h2.49v11.17h-2.49l-5.33-7v7h-2.5v-11.19h2.34l5.49 7.19v-7.2zm12.32 11.17h-2.26v-1a2.84 2.84 0 0 1 -2.31 1.12 3.4 3.4 0 0 1 -2.3-.79 2.63 2.63 0 0 1 -.93-2.11 2.24 2.24 0 0 1 1-2 4.67 4.67 0 0 1 2.63-.65h1.79v-.05c0-.92-.49-1.38-1.46-1.38a4.14 4.14 0 0 0 -1.32.25 4.31 4.31 0 0 0 -1.17.62l-1.08-1.55a6.39 6.39 0 0 1 3.84-1.22 4.05 4.05 0 0 1 2.56.79 3 3 0 0 1 1 2.48v5.49zm-2.42-3.28v-.42h-1.5q-1.44 0-1.44.9a.82.82 0 0 0 .34.71 1.72 1.72 0 0 0 1 .25 1.69 1.69 0 0 0 1.12-.4 1.26 1.26 0 0 0 .49-1zm7.38-3.6v3.88a1.13 1.13 0 0 0 .25.78.83.83 0 0 0 .61.28 1.38 1.38 0 0 0 1.14-.61l.89 1.68a3.45 3.45 0 0 1 -2.36 1 2.86 2.86 0 0 1 -3-3v-4h-1v-1.74h1v-2.58h2.42v2.58h2.08v1.73zm6.57 6.88h-2.4v-8.61h2.4zm-2.2-9.7a1.39 1.39 0 0 1 -.4-1 1.36 1.36 0 0 1 .4-1 1.39 1.39 0 0 1 1-.41 1.36 1.36 0 0 1 1 .41 1.34 1.34 0 0 1 .41 1 1.32 1.32 0 0 1 -.41 1 1.44 1.44 0 0 1 -2 0zm6.4 5.39a2.45 2.45 0 0 0 .6 1.72 2.09 2.09 0 0 0 3.07 0 2.45 2.45 0 0 0 .6-1.72 2.51 2.51 0 0 0 -.57-1.69 2.09 2.09 0 0 0 -3.07 0 2.51 2.51 0 0 0 -.6 1.73zm6.68 0a4.25 4.25 0 0 1 -1.29 3.15 4.78 4.78 0 0 1 -6.51 0 4.48 4.48 0 0 1 0-6.31 4.75 4.75 0 0 1 6.51 0 4.29 4.29 0 0 1 1.31 3.16zm4.18-.49v4.8h-2.4v-8.61h2.4v1a3.36 3.36 0 0 1 2.45-1.11 3.05 3.05 0 0 1 2.28 1 3.57 3.57 0 0 1 .92 2.56v5.16h-2.4v-4.87c0-1.32-.49-2-1.46-2a1.71 1.71 0 0 0 -1.25.52 2 2 0 0 0 -.54 1.53zm15.14 4.8h-2.3v-1a2.84 2.84 0 0 1 -2.3 1.16 3.39 3.39 0 0 1 -2.29-.79 2.63 2.63 0 0 1 -.93-2.11 2.24 2.24 0 0 1 1-2 4.64 4.64 0 0 1 2.62-.65h1.8v-.05c0-.92-.49-1.38-1.46-1.38a4 4 0 0 0 -1.32.25 4.37 4.37 0 0 0 -1.18.62l-1.07-1.55a6.36 6.36 0 0 1 3.87-1.24 4 4 0 0 1 2.56.79 3 3 0 0 1 1 2.48zm-2.42-3.28v-.42h-1.5q-1.44 0-1.44.9a.82.82 0 0 0 .34.71 1.9 1.9 0 0 0 2.11-.15 1.26 1.26 0 0 0 .49-1zm7 3.28h-2.4v-11.88h2.4zm6.73-11.19h2.5v11.19h-2.5zm7.39 6.39v4.8h-2.4v-8.61h2.4v1a3.36 3.36 0 0 1 2.45-1.11 3 3 0 0 1 2.28 1 3.57 3.57 0 0 1 .92 2.56v5.16h-2.4v-4.87c0-1.32-.49-2-1.46-2a1.72 1.72 0 0 0 -1.25.52 2 2 0 0 0 -.54 1.55zm14.31 2.12a2.53 2.53 0 0 1 -.94 2 3.63 3.63 0 0 1 -2.38.76 6.36 6.36 0 0 1 -2-.34 6 6 0 0 1 -1.87-1l1.06-1.5a4.6 4.6 0 0 0 2.86 1 1.33 1.33 0 0 0 .74-.18.58.58 0 0 0 .27-.49.71.71 0 0 0 -.38-.56 3.65 3.65 0 0 0 -.86-.41l-.22-.07a11 11 0 0 1 -1.09-.39 5.72 5.72 0 0 1 -.86-.46 2 2 0 0 1 -1-1.8 2.36 2.36 0 0 1 1-1.94 3.84 3.84 0 0 1 2.48-.76 5.46 5.46 0 0 1 3 1l-.9 1.6a4 4 0 0 0 -2.22-.68c-.74 0-1.11.2-1.11.61a.58.58 0 0 0 .35.53 6 6 0 0 0 .79.32l1.07.35.47.17a5.84 5.84 0 0 1 .82.42 2 2 0 0 1 .9 1.82zm4.64-4.2v3.88a1.13 1.13 0 0 0 .25.78.83.83 0 0 0 .61.28 1.38 1.38 0 0 0 1.14-.61l.89 1.68a3.45 3.45 0 0 1 -2.36 1 2.86 2.86 0 0 1 -3-3v-4h-1v-1.74h1v-2.58h2.42v2.58h2.1v1.73zm6.52 6.88h-2.4v-8.61h2.4zm-2.21-9.7a1.43 1.43 0 0 1 -.4-1 1.4 1.4 0 0 1 1.41-1.41 1.36 1.36 0 0 1 1 .41 1.37 1.37 0 0 1 .41 1 1.4 1.4 0 0 1 -1.41 1.41 1.4 1.4 0 0 1 -1-.4zm7.35 2.82v3.88a1.13 1.13 0 0 0 .25.78.83.83 0 0 0 .61.28 1.38 1.38 0 0 0 1.14-.61l.89 1.68a3.45 3.45 0 0 1 -2.36 1 2.86 2.86 0 0 1 -2.95-3v-4h-1v-1.74h1v-2.58h2.42v2.58h2.08v1.73zm9.73 2.88v-4.61h2.41v8.61h-2.41v-1.14a2.73 2.73 0 0 1 -2.34 1.26 3.36 3.36 0 0 1 -2.37-.88 3.43 3.43 0 0 1 -1-2.64v-5.21h2.41v4.69c0 1.32.49 2 1.46 2a1.71 1.71 0 0 0 1.25-.52 2 2 0 0 0 .53-1.51zm7.55-2.91v3.91a1.13 1.13 0 0 0 .25.78.83.83 0 0 0 .61.28 1.38 1.38 0 0 0 1.14-.61l.89 1.68a3.45 3.45 0 0 1 -2.36 1 2.86 2.86 0 0 1 -2.95-3v-4h-1v-1.74h1v-2.58h2.42v2.58h2.11v1.73zm11.63 5.63a4.8 4.8 0 0 1 -3.42 1.37 4.57 4.57 0 0 1 -3.24-1.2 4.27 4.27 0 0 1 -1.28-3.24 4.19 4.19 0 0 1 1.31-3.24 4.64 4.64 0 0 1 6.09-.12 3.66 3.66 0 0 1 1.24 2.94v1.28h-6.22a1.72 1.72 0 0 0 .74 1.15 2.33 2.33 0 0 0 1.41.45 2.76 2.76 0 0 0 2.08-.85l1.34 1.46zm-1.73-3.92a1.71 1.71 0 0 0 -.57-1.19 1.86 1.86 0 0 0 -1.21-.41 2.17 2.17 0 0 0 -1.31.43 1.65 1.65 0 0 0 -.68 1.17zm10.64 2.49a2.52 2.52 0 0 1 -.93 2 3.65 3.65 0 0 1 -2.38.76 6.32 6.32 0 0 1 -2-.34 5.86 5.86 0 0 1 -1.87-1l1.05-1.5a4.63 4.63 0 0 0 2.87 1 1.29 1.29 0 0 0 .73-.18.57.57 0 0 0 .28-.49.71.71 0 0 0 -.38-.56 4.08 4.08 0 0 0 -.86-.41l-.23-.07c-.47-.15-.84-.28-1.09-.39a5.67 5.67 0 0 1 -.85-.46 2 2 0 0 1 -1-1.8 2.36 2.36 0 0 1 1-1.94 3.86 3.86 0 0 1 2.48-.76 5.42 5.42 0 0 1 3 1l-.89 1.6a4 4 0 0 0 -2.24-.77c-.74 0-1.11.2-1.11.61a.6.6 0 0 0 .35.53 6.58 6.58 0 0 0 .79.32l1.08.35.46.17a5.88 5.88 0 0 1 .83.42 2 2 0 0 1 .89 1.82zm8-1.63a2.45 2.45 0 0 0 .6 1.72 2.09 2.09 0 0 0 3.07 0 2.45 2.45 0 0 0 .6-1.72 2.51 2.51 0 0 0 -.6-1.73 2.09 2.09 0 0 0 -3.1.07 2.51 2.51 0 0 0 -.6 1.73zm6.68 0a4.25 4.25 0 0 1 -1.29 3.15 4.78 4.78 0 0 1 -6.51 0 4.48 4.48 0 0 1 0-6.31 4.75 4.75 0 0 1 6.51 0 4.29 4.29 0 0 1 1.29 3.16zm4.5-4.8v.58h2.08v1.76h-2.09v6.8h-2.42v-6.8h-1v-1.73h1v-.53a2.9 2.9 0 0 1 3-3.06 3.32 3.32 0 0 1 2.31 1l-.86 1.62a1.55 1.55 0 0 0 -1.17-.61.78.78 0 0 0 -.61.27 1.09 1.09 0 0 0 -.24.77zm15-2.08h2.49v11.22h-2.49v-4.4h-4.45v4.4h-2.5v-11.19h2.5v4.67h4.45v-4.67zm12.39 9.97a4.8 4.8 0 0 1 -3.42 1.37 4.57 4.57 0 0 1 -3.24-1.2 4.27 4.27 0 0 1 -1.28-3.24 4.19 4.19 0 0 1 1.31-3.24 4.64 4.64 0 0 1 6.09-.12 3.66 3.66 0 0 1 1.24 2.94v1.28h-6.27a1.72 1.72 0 0 0 .74 1.15 2.33 2.33 0 0 0 1.41.45 2.76 2.76 0 0 0 2.08-.85zm-1.73-3.92a1.71 1.71 0 0 0 -.57-1.19 1.86 1.86 0 0 0 -1.21-.41 2.17 2.17 0 0 0 -1.31.43 1.65 1.65 0 0 0 -.68 1.17zm11.51 5.17h-2.25v-1a2.86 2.86 0 0 1 -2.3 1.16 3.38 3.38 0 0 1 -2.29-.79 2.63 2.63 0 0 1 -.93-2.11 2.24 2.24 0 0 1 1-2 4.64 4.64 0 0 1 2.62-.65h1.79v-.05c0-.92-.48-1.38-1.45-1.38a4 4 0 0 0 -1.32.25 4.23 4.23 0 0 0 -1.18.62l-1.07-1.55a6.36 6.36 0 0 1 3.87-1.24 4 4 0 0 1 2.56.79 3 3 0 0 1 1 2.48v5.47zm-2.41-3.28v-.42h-1.51q-1.44 0-1.44.9a.83.83 0 0 0 .35.71 1.9 1.9 0 0 0 2.11-.15 1.26 1.26 0 0 0 .49-1zm7 3.28h-2.37v-11.88h2.4v11.88zm5.13-6.88v3.88a1.13 1.13 0 0 0 .26.78.81.81 0 0 0 .61.28 1.38 1.38 0 0 0 1.13-.61l.9 1.68a3.49 3.49 0 0 1 -2.36 1 2.85 2.85 0 0 1 -2.95-3v-4h-1v-1.74h1v-2.58h2.41v2.58h2.08v1.73zm6.58 2.24v4.64h-2.4v-11.88h2.4v4.23a3.34 3.34 0 0 1 2.44-1.11 3.05 3.05 0 0 1 2.28 1 3.53 3.53 0 0 1 .93 2.56v5.2h-2.4v-4.71c0-1.32-.49-2-1.46-2a1.75 1.75 0 0 0 -1.26.52 2 2 0 0 0 -.53 1.53z" style="fill: rgb(255, 255, 255);"/>
</svg>