<svg id="Layer_1" data-name="Layer 1" xmlns="http://www.w3.org/2000/svg" viewBox="0 0 565.83 54"><defs><style>.cls-1{fill:#fff;}</style></defs><title>NCI_54px Logo WHITE</title><path class="cls-1" d="M137.67,39.16h4.68v21h-4.68L127.68,47V60.13H123v-21h4.38l10.29,13.5Z" transform="translate(-23 -23)"/><path class="cls-1" d="M162.45,60.13,160.5,55.6h-8.79l-2,4.53h-5l9.06-21h4.53l9.06,21ZM156.12,45.4l-2.64,6.09h5.25Z" transform="translate(-23 -23)"/><path class="cls-1" d="M177.21,43.21V60.13h-4.68V43.21h-5.95V39.16h16.57v4.05Z" transform="translate(-23 -23)"/><path class="cls-1" d="M186.56,39.16h4.68v21h-4.68Z" transform="translate(-23 -23)"/><path class="cls-1" d="M214,57.23a11.41,11.41,0,0,1-15.66,0,10.35,10.35,0,0,1-3.18-7.72,10.37,10.37,0,0,1,3.18-7.73,11.44,11.44,0,0,1,15.66,0,10.37,10.37,0,0,1,3.18,7.73A10.35,10.35,0,0,1,214,57.23Zm-1.59-7.71a6.85,6.85,0,0,0-1.8-4.78,5.93,5.93,0,0,0-8.85,0,7.23,7.23,0,0,0,0,9.55,6,6,0,0,0,8.85,0A6.81,6.81,0,0,0,212.45,49.52Z" transform="translate(-23 -23)"/><path class="cls-1" d="M235.85,39.16h4.68v21h-4.68L225.86,47V60.13h-4.68v-21h4.38l10.29,13.5Z" transform="translate(-23 -23)"/><path class="cls-1" d="M260.63,60.13l-1.95-4.53h-8.79l-1.95,4.53h-5l9.06-21h4.53l9.06,21ZM254.3,45.4l-2.64,6.09h5.25Z" transform="translate(-23 -23)"/><path class="cls-1" d="M268,60.13v-21h4.68V56h8.94v4.17Z" transform="translate(-23 -23)"/><path class="cls-1" d="M302.63,56a6.91,6.91,0,0,0,5.64-2.73l3,3.09a11.31,11.31,0,0,1-16.39,1,10.36,10.36,0,0,1-3.14-7.73,10.43,10.43,0,0,1,3.2-7.78,10.75,10.75,0,0,1,7.81-3.12,11.08,11.08,0,0,1,8.64,3.93l-2.91,3.3A6.82,6.82,0,0,0,303,43.15a6.42,6.42,0,0,0-4.51,1.72,6,6,0,0,0-1.88,4.65,6.36,6.36,0,0,0,1.77,4.7A5.84,5.84,0,0,0,302.63,56Z" transform="translate(-23 -23)"/><path class="cls-1" d="M329.75,60.13,327.8,55.6H319l-1.95,4.53h-5l9.06-21h4.53l9.06,21ZM323.42,45.4l-2.64,6.09H326Z" transform="translate(-23 -23)"/><path class="cls-1" d="M351.83,39.16h4.68v21h-4.68L341.84,47V60.13h-4.68v-21h4.38l10.29,13.5Z" transform="translate(-23 -23)"/><path class="cls-1" d="M371.3,56a6.91,6.91,0,0,0,5.64-2.73l3,3.09a11.31,11.31,0,0,1-16.39,1,10.36,10.36,0,0,1-3.14-7.73,10.43,10.43,0,0,1,3.2-7.78,10.75,10.75,0,0,1,7.81-3.12,11.08,11.08,0,0,1,8.64,3.93l-2.91,3.3a6.82,6.82,0,0,0-5.52-2.76,6.42,6.42,0,0,0-4.51,1.72,6,6,0,0,0-1.88,4.65,6.36,6.36,0,0,0,1.77,4.7A5.84,5.84,0,0,0,371.3,56Z" transform="translate(-23 -23)"/><path class="cls-1" d="M398.75,39.16v4.17H388.31v4.32h9.39v4h-9.39V56h10.77v4.14H383.63v-21Z" transform="translate(-23 -23)"/><path class="cls-1" d="M420.26,46.12q0,5-4,6.51l5.31,7.5h-5.76l-4.65-6.69h-3.24v6.69h-4.68v-21h7.95q4.89,0,7,1.65T420.26,46.12Zm-5.64,2.49a3.18,3.18,0,0,0,.87-2.48,2.64,2.64,0,0,0-.9-2.32,5.76,5.76,0,0,0-3.15-.63h-3.51v6.21h3.42A5,5,0,0,0,414.62,48.61Z" transform="translate(-23 -23)"/><path class="cls-1" d="M433,39.16h4.68v21H433Z" transform="translate(-23 -23)"/><path class="cls-1" d="M457.49,39.16h4.68v21h-4.68L447.5,47V60.13h-4.68v-21h4.38l10.29,13.5Z" transform="translate(-23 -23)"/><path class="cls-1" d="M472.24,43.34a1.81,1.81,0,0,0-.68,1.47,1.67,1.67,0,0,0,.83,1.46,15.15,15.15,0,0,0,3.81,1.27,10.7,10.7,0,0,1,4.63,2.21A5.45,5.45,0,0,1,482.48,54a5.65,5.65,0,0,1-2.11,4.57,8.45,8.45,0,0,1-5.57,1.76,12.88,12.88,0,0,1-9-3.69l2.79-3.42q3.39,3,6.27,3a3.31,3.31,0,0,0,2-.56,1.78,1.78,0,0,0,.73-1.5,1.75,1.75,0,0,0-.78-1.5,10.2,10.2,0,0,0-3.09-1.12,13.41,13.41,0,0,1-5.35-2.27,5.35,5.35,0,0,1-1.7-4.38,5.42,5.42,0,0,1,2.15-4.6,8.62,8.62,0,0,1,5.35-1.62,12.88,12.88,0,0,1,4.2.72,11.25,11.25,0,0,1,3.66,2l-2.37,3.42a9.23,9.23,0,0,0-5.64-2.07A2.8,2.8,0,0,0,472.24,43.34Z" transform="translate(-23 -23)"/><path class="cls-1" d="M495.17,43.21V60.13h-4.68V43.21h-5.94V39.16h16.56v4.05Z" transform="translate(-23 -23)"/><path class="cls-1" d="M504.53,39.16h4.68v21h-4.68Z" transform="translate(-23 -23)"/><path class="cls-1" d="M523.25,43.21V60.13h-4.68V43.21h-5.94V39.16h16.56v4.05Z" transform="translate(-23 -23)"/><path class="cls-1" d="M538.16,54.71a4.12,4.12,0,0,0,6.29,0,6.27,6.27,0,0,0,1.15-4V39.16h4.68V50.89q0,4.56-2.52,7a9.71,9.71,0,0,1-12.91,0,9.29,9.29,0,0,1-2.54-7V39.16H537V50.74A6.16,6.16,0,0,0,538.16,54.71Z" transform="translate(-23 -23)"/><path class="cls-1" d="M564,43.21V60.13h-4.68V43.21H553.4V39.16H570v4.05Z" transform="translate(-23 -23)"/><path class="cls-1" d="M588.5,39.16v4.17H578.06v4.32h9.39v4h-9.39V56h10.77v4.14H573.38v-21Z" transform="translate(-23 -23)"/><path class="cls-1" d="M96.5,25.81a5.86,5.86,0,0,0-5-2.81H87l15.2,27L87,77h4.49a5.86,5.86,0,0,0,5-2.81L110,50Z" transform="translate(-23 -23)"/><path class="cls-1" d="M83,23H28.77A5.78,5.78,0,0,0,23,28.79V71.21A5.78,5.78,0,0,0,28.77,77H83L98,50ZM51,62H47L36,44.4V62H32V38h4L47,55.6V38h4Zm8,0H55V38h4Zm23,0H78V52H67V62H63V38h4V48H78V38h4Z" transform="translate(-23 -23)"/></svg>