<?xml version="1.0" encoding="utf-8"?>
<svg enable-background="new 0 235.2 1022.1 85.8" viewBox="0 235.2 614 89.243" xmlns="http://www.w3.org/2000/svg">
  <path d="m118.7 278.1-23.8-42.9h-86c-5 0-9.1 4.1-9.1 9.1v67.3c0 5.1 4.1 9.1 9.1 9.1h86z" fill="#606060"/>
  <path d="m116.3 239.7c-1.7-2.7-4.6-4.5-7.9-4.5h-7l24.2 42.9-24.2 42.9h7c3.3 0 6.3-1.7 7.9-4.5l21.4-38.4z" fill="#bb0e3d"/>
  <path d="m50.4 259h6.3v38.1h-6.3z" fill="#fff"/>
  <path d="m37.9 259v28l-17.5-28h-6.3v38.1h6.3v-27.9l17.5 27.9h6.2v-38.1z" fill="#fff"/>
  <path d="m87 259v16h-17.5v-16h-6.4v38.1h6.4v-15.9h17.5v15.9h6.3v-38.1z" fill="#fff"/>
  <g fill="#bb0e3d">
    <path d="m170.9 250.9h3.9v17.7h-3.9l-8.4-11.2v11.2h-3.9v-17.7h3.8l8.8 11.5v-11.5z"/>
    <path d="m191.8 268.7-1.7-3.8h-7.4l-1.7 3.8h-4.3l7.7-17.7h3.8l7.7 17.7zm-5.3-12.5-2.2 5.1h4.5z"/>
    <path d="m204.3 254.3v14.2h-3.9v-14.2h-5v-3.4h14.1v3.4z"/>
    <path d="m212.2 250.9h3.9v17.7h-3.9z"/>
    <path d="m235.4 266.2c-1.7 1.7-3.9 2.6-6.7 2.6-2.7 0-4.8-.9-6.7-2.6-1.7-1.7-2.7-3.9-2.7-6.5s.9-4.8 2.7-6.5c1.7-1.7 3.9-2.6 6.7-2.6 2.7 0 4.8.9 6.7 2.6 1.7 1.7 2.7 3.9 2.7 6.5 0 2.5-.8 4.7-2.7 6.5zm-1.4-6.6c0-1.5-.5-2.9-1.5-4.1s-2.2-1.7-3.8-1.7c-1.5 0-2.7.5-3.8 1.7-1 1.2-1.5 2.4-1.5 4.1 0 1.5.5 2.9 1.5 4.1 1 1 2.2 1.7 3.8 1.7 1.5 0 2.7-.5 3.8-1.7 1-1 1.5-2.3 1.5-4.1z"/>
    <path d="m253.9 250.9h3.9v17.7h-3.9l-8.4-11.2v11.2h-3.9v-17.7h3.8l8.8 11.5v-11.5z"/>
    <path d="m274.9 268.7-1.7-3.8h-7.4l-1.7 3.8h-4.3l7.7-17.7h3.8l7.7 17.7zm-5.4-12.5-2.2 5.1h4.5z"/>
    <path d="m281.2 268.7v-17.7h3.9v14.2h7.5v3.6z"/>
    <path d="m310.4 265.1c1.9 0 3.6-.7 4.8-2.2l2.6 2.6c-2.1 2.2-4.5 3.4-7 3.4-2.7 0-5-.9-6.7-2.6s-2.6-3.9-2.6-6.5.9-4.8 2.7-6.5c1.9-1.7 3.9-2.6 6.7-2.6 2.9 0 5.3 1 7.4 3.3l-2.4 2.7c-1.2-1.5-2.7-2.4-4.6-2.4-1.5 0-2.7.5-3.8 1.5-1 1-1.5 2.2-1.5 3.9s.5 2.9 1.5 3.9c.3 1 1.5 1.5 2.9 1.5z"/>
    <path d="m333.4 268.7-1.7-3.8h-7.4l-1.7 3.8h-4.1l7.7-17.7h3.8l7.7 17.7zm-5.4-12.5-2.2 5.1h4.5z"/>
    <path d="m352.1 250.9h3.9v17.7h-3.9l-8.4-11.2v11.2h-3.9v-17.7h3.8l8.8 11.5v-11.5z"/>
    <path d="m368.5 265.1c1.9 0 3.6-.7 4.8-2.2l2.6 2.6c-2.1 2.2-4.5 3.4-7 3.4-2.6 0-5-.9-6.7-2.6s-2.6-3.9-2.6-6.5.9-4.8 2.7-6.5c1.9-1.7 3.9-2.6 6.7-2.6 2.9 0 5.3 1 7.4 3.3l-2.4 2.7c-1.2-1.5-2.7-2.4-4.6-2.4-1.5 0-2.7.5-3.8 1.5-1 1-1.5 2.2-1.5 3.9s.5 2.9 1.5 3.9c.2 1 1.4 1.5 2.9 1.5z"/>
    <path d="m391.7 250.9v3.6h-8.7v3.6h7.9v3.4h-7.9v3.6h9.1v3.4h-13v-17.7z"/>
    <path d="m409.9 256.9c0 2.9-1.2 4.6-3.4 5.5l4.5 6.3h-4.8l-3.9-5.7h-2.7v5.7h-3.9v-17.7h6.7c2.7 0 4.8.5 5.8 1.4 1.2.9 1.7 2.4 1.7 4.5zm-4.8 2.1c.5-.5.7-1.2.7-2.1 0-1-.2-1.5-.7-1.9-.5-.3-1.4-.5-2.7-.5h-2.9v5.3h2.9c1.3-.2 2.2-.3 2.7-.8z"/>
    <path d="m420.7 250.9h3.9v17.7h-3.9z"/>
    <path d="m441.5 250.9h3.9v17.7h-3.9l-8.4-11.2v11.2h-3.9v-17.7h3.8l8.8 11.5v-11.5z"/>
    <path d="m453.8 254.5c-.3.3-.5.7-.5 1.2s.2.9.7 1.2 1.5.7 3.3 1c1.7.3 2.9 1 3.9 1.9.9.9 1.4 2.1 1.4 3.6s-.5 2.9-1.7 3.9-2.7 1.5-4.6 1.5c-2.7 0-5.3-1-7.5-3.1l2.4-2.9c1.9 1.7 3.6 2.6 5.3 2.6.7 0 1.4-.2 1.7-.5s.7-.7.7-1.2-.2-1-.7-1.2c-.5-.3-1.4-.7-2.6-1-2.1-.5-3.6-1.2-4.5-1.9-1-.9-1.4-2.1-1.4-3.8s.7-2.9 1.9-3.9c1.2-.9 2.7-1.4 4.5-1.4 1.2 0 2.4.2 3.6.7s2.2 1 3.1 1.7l-2.1 2.9c-1.5-1.2-3.1-1.7-4.8-1.7-1.1-.1-1.6 0-2.1.4z"/>
    <path d="m473.2 254.3v14.2h-3.9v-14.2h-5v-3.4h14.1v3.4z"/>
    <path d="m481.3 250.9h3.9v17.7h-3.9z"/>
    <path d="m497 254.3v14.2h-3.9v-14.2h-5v-3.4h14.1v3.4z"/>
    <path d="m509.6 264.1c.7.9 1.5 1.2 2.7 1.2s2.1-.3 2.6-1.2c.7-.9 1-1.9 1-3.4v-9.8h3.9v10c0 2.6-.7 4.5-2.1 6-1.4 1.4-3.3 2.1-5.5 2.1s-4.1-.7-5.5-2.1-2.1-3.4-2.1-5.8v-10h3.9v9.8c.2 1.3.4 2.3 1.1 3.2z"/>
    <path d="m531.5 254.3v14.2h-3.9v-14.2h-5v-3.4h14.1v3.4z"/>
    <path d="m552.3 250.9v3.6h-8.8v3.6h7.9v3.4h-7.9v3.6h9.1v3.4h-13v-17.7z"/>
  </g>
  <path d="m156.5 284h1063v60.5h-1063z" fill="none"/>
  <path d="M 166.599 285.605 C 168.292 285.605 169.769 285.885 171.029 286.445 C 172.289 287.005 173.256 287.808 173.929 288.855 C 174.602 289.902 174.939 291.142 174.939 292.575 C 174.939 293.995 174.602 295.232 173.929 296.285 C 173.256 297.338 172.289 298.145 171.029 298.705 C 169.769 299.265 168.292 299.545 166.599 299.545 L 162.169 299.545 L 162.169 305.205 L 158.529 305.205 L 158.529 285.605 L 166.599 285.605 Z M 166.429 296.465 C 168.016 296.465 169.219 296.132 170.039 295.465 C 170.859 294.792 171.269 293.828 171.269 292.575 C 171.269 291.328 170.859 290.368 170.039 289.695 C 169.219 289.022 168.016 288.685 166.429 288.685 L 162.169 288.685 L 162.169 296.465 L 166.429 296.465 Z M 183.817 290.085 C 186.017 290.085 187.7 290.612 188.867 291.665 C 190.033 292.718 190.617 294.312 190.617 296.445 L 190.617 305.205 L 187.317 305.205 L 187.317 303.385 C 186.883 304.038 186.27 304.538 185.477 304.885 C 184.683 305.232 183.727 305.405 182.607 305.405 C 181.487 305.405 180.507 305.212 179.667 304.825 C 178.827 304.445 178.18 303.915 177.727 303.235 C 177.267 302.548 177.037 301.778 177.037 300.925 C 177.037 299.578 177.537 298.498 178.537 297.685 C 179.537 296.872 181.11 296.465 183.257 296.465 L 187.117 296.465 L 187.117 296.245 C 187.117 295.198 186.803 294.395 186.177 293.835 C 185.557 293.275 184.63 292.995 183.397 292.995 C 182.557 292.995 181.73 293.125 180.917 293.385 C 180.103 293.652 179.417 294.018 178.857 294.485 L 177.487 291.935 C 178.273 291.335 179.217 290.878 180.317 290.565 C 181.417 290.245 182.583 290.085 183.817 290.085 Z M 183.337 302.855 C 184.217 302.855 184.997 302.655 185.677 302.255 C 186.357 301.848 186.837 301.272 187.117 300.525 L 187.117 298.795 L 183.507 298.795 C 181.493 298.795 180.487 299.458 180.487 300.785 C 180.487 301.418 180.737 301.922 181.237 302.295 C 181.743 302.668 182.443 302.855 183.337 302.855 Z M 203.102 301.905 L 204.082 304.395 C 203.676 304.728 203.179 304.978 202.592 305.145 C 201.999 305.318 201.376 305.405 200.722 305.405 C 199.082 305.405 197.816 304.975 196.922 304.115 C 196.022 303.255 195.572 302.005 195.572 300.365 L 195.572 293.165 L 193.112 293.165 L 193.112 290.365 L 195.572 290.365 L 195.572 286.945 L 199.072 286.945 L 199.072 290.365 L 203.082 290.365 L 203.082 293.165 L 199.072 293.165 L 199.072 300.275 C 199.072 301.002 199.249 301.558 199.602 301.945 C 199.962 302.325 200.476 302.515 201.142 302.515 C 201.929 302.515 202.582 302.312 203.102 301.905 Z M 206.974 305.205 L 206.974 290.255 L 210.474 290.255 L 210.474 305.205 L 206.974 305.205 Z M 208.734 287.785 C 208.101 287.785 207.567 287.585 207.134 287.185 C 206.707 286.785 206.494 286.285 206.494 285.685 C 206.494 285.092 206.707 284.595 207.134 284.195 C 207.567 283.788 208.101 283.585 208.734 283.585 C 209.367 283.585 209.901 283.778 210.334 284.165 C 210.761 284.545 210.974 285.025 210.974 285.605 C 210.974 286.218 210.764 286.735 210.344 287.155 C 209.924 287.575 209.387 287.785 208.734 287.785 Z M 229.116 297.815 C 229.116 298.055 229.099 298.398 229.066 298.845 L 217.326 298.845 C 217.533 299.952 218.069 300.825 218.936 301.465 C 219.809 302.112 220.889 302.435 222.176 302.435 C 223.816 302.435 225.169 301.892 226.236 300.805 L 228.106 302.965 C 227.439 303.765 226.593 304.372 225.566 304.785 C 224.539 305.198 223.379 305.405 222.086 305.405 C 220.446 305.405 218.999 305.078 217.746 304.425 C 216.499 303.772 215.536 302.862 214.856 301.695 C 214.169 300.528 213.826 299.205 213.826 297.725 C 213.826 296.272 214.159 294.962 214.826 293.795 C 215.486 292.628 216.406 291.718 217.586 291.065 C 218.759 290.412 220.083 290.085 221.556 290.085 C 223.016 290.085 224.319 290.408 225.466 291.055 C 226.613 291.695 227.509 292.598 228.156 293.765 C 228.796 294.932 229.116 296.282 229.116 297.815 Z M 221.556 292.885 C 220.436 292.885 219.489 293.215 218.716 293.875 C 217.943 294.542 217.473 295.425 217.306 296.525 L 225.786 296.525 C 225.639 295.445 225.183 294.568 224.416 293.895 C 223.649 293.222 222.696 292.885 221.556 292.885 Z M 240.962 290.085 C 242.848 290.085 244.362 290.635 245.502 291.735 C 246.635 292.835 247.202 294.468 247.202 296.635 L 247.202 305.205 L 243.702 305.205 L 243.702 297.085 C 243.702 295.778 243.395 294.795 242.782 294.135 C 242.168 293.468 241.292 293.135 240.152 293.135 C 238.865 293.135 237.848 293.522 237.102 294.295 C 236.355 295.075 235.982 296.192 235.982 297.645 L 235.982 305.205 L 232.482 305.205 L 232.482 290.255 L 235.812 290.255 L 235.812 292.185 C 236.392 291.492 237.118 290.968 237.992 290.615 C 238.872 290.262 239.862 290.085 240.962 290.085 Z M 259.661 301.905 L 260.641 304.395 C 260.235 304.728 259.738 304.978 259.151 305.145 C 258.558 305.318 257.935 305.405 257.281 305.405 C 255.641 305.405 254.375 304.975 253.481 304.115 C 252.581 303.255 252.131 302.005 252.131 300.365 L 252.131 293.165 L 249.671 293.165 L 249.671 290.365 L 252.131 290.365 L 252.131 286.945 L 255.631 286.945 L 255.631 290.365 L 259.641 290.365 L 259.641 293.165 L 255.631 293.165 L 255.631 300.275 C 255.631 301.002 255.808 301.558 256.161 301.945 C 256.521 302.325 257.035 302.515 257.701 302.515 C 258.488 302.515 259.141 302.312 259.661 301.905 Z M 288.221 303.245 L 286.291 305.515 L 283.831 303.135 C 281.998 304.702 279.804 305.485 277.251 305.485 C 275.884 305.485 274.661 305.262 273.581 304.815 C 272.501 304.368 271.651 303.748 271.031 302.955 C 270.418 302.162 270.111 301.258 270.111 300.245 C 270.111 299.032 270.464 297.965 271.171 297.045 C 271.884 296.118 273.041 295.208 274.641 294.315 C 273.861 293.528 273.301 292.795 272.961 292.115 C 272.628 291.435 272.461 290.732 272.461 290.005 C 272.461 288.618 272.978 287.502 274.011 286.655 C 275.051 285.808 276.428 285.385 278.141 285.385 C 279.728 285.385 280.998 285.772 281.951 286.545 C 282.904 287.318 283.381 288.368 283.381 289.695 C 283.381 290.702 283.068 291.598 282.441 292.385 C 281.814 293.165 280.794 293.958 279.381 294.765 L 283.601 298.795 C 284.068 297.882 284.434 296.778 284.701 295.485 L 287.521 296.415 C 287.148 298.148 286.561 299.642 285.761 300.895 L 288.221 303.245 Z M 278.141 287.875 C 277.381 287.875 276.774 288.065 276.321 288.445 C 275.874 288.832 275.651 289.332 275.651 289.945 C 275.651 290.392 275.774 290.815 276.021 291.215 C 276.261 291.622 276.728 292.168 277.421 292.855 C 278.541 292.242 279.318 291.705 279.751 291.245 C 280.191 290.792 280.411 290.292 280.411 289.745 C 280.411 289.172 280.211 288.715 279.811 288.375 C 279.411 288.042 278.854 287.875 278.141 287.875 Z M 277.501 302.625 C 279.128 302.625 280.548 302.132 281.761 301.145 L 276.581 296.185 C 275.461 296.805 274.671 297.398 274.211 297.965 C 273.751 298.538 273.521 299.178 273.521 299.885 C 273.521 300.705 273.888 301.368 274.621 301.875 C 275.348 302.375 276.308 302.625 277.501 302.625 Z M 307.156 285.605 C 308.85 285.605 310.326 285.885 311.586 286.445 C 312.846 287.005 313.813 287.808 314.486 288.855 C 315.16 289.902 315.496 291.142 315.496 292.575 C 315.496 293.995 315.16 295.232 314.486 296.285 C 313.813 297.338 312.846 298.145 311.586 298.705 C 310.326 299.265 308.85 299.545 307.156 299.545 L 302.726 299.545 L 302.726 305.205 L 299.086 305.205 L 299.086 285.605 L 307.156 285.605 Z M 306.986 296.465 C 308.573 296.465 309.776 296.132 310.596 295.465 C 311.416 294.792 311.826 293.828 311.826 292.575 C 311.826 291.328 311.416 290.368 310.596 289.695 C 309.776 289.022 308.573 288.685 306.986 288.685 L 302.726 288.685 L 302.726 296.465 L 306.986 296.465 Z M 321.994 292.435 C 323.001 290.868 324.774 290.085 327.314 290.085 L 327.314 293.415 C 327.014 293.362 326.744 293.335 326.504 293.335 C 325.137 293.335 324.071 293.732 323.304 294.525 C 322.544 295.318 322.164 296.462 322.164 297.955 L 322.164 305.205 L 318.664 305.205 L 318.664 290.255 L 321.994 290.255 L 321.994 292.435 Z M 336.864 305.405 C 335.351 305.405 333.987 305.078 332.774 304.425 C 331.561 303.772 330.614 302.862 329.934 301.695 C 329.247 300.528 328.904 299.205 328.904 297.725 C 328.904 296.252 329.247 294.938 329.934 293.785 C 330.614 292.625 331.561 291.718 332.774 291.065 C 333.987 290.412 335.351 290.085 336.864 290.085 C 338.391 290.085 339.761 290.412 340.974 291.065 C 342.187 291.718 343.134 292.625 343.814 293.785 C 344.501 294.938 344.844 296.252 344.844 297.725 C 344.844 299.205 344.501 300.528 343.814 301.695 C 343.134 302.862 342.187 303.772 340.974 304.425 C 339.761 305.078 338.391 305.405 336.864 305.405 Z M 336.864 302.405 C 338.151 302.405 339.214 301.975 340.054 301.115 C 340.894 300.255 341.314 299.125 341.314 297.725 C 341.314 296.325 340.894 295.198 340.054 294.345 C 339.214 293.485 338.151 293.055 336.864 293.055 C 335.571 293.055 334.511 293.485 333.684 294.345 C 332.851 295.198 332.434 296.325 332.434 297.725 C 332.434 299.125 332.851 300.255 333.684 301.115 C 334.511 301.975 335.571 302.405 336.864 302.405 Z M 358.424 290.255 L 361.784 290.255 L 355.364 305.205 L 351.754 305.205 L 345.344 290.255 L 348.984 290.255 L 353.634 301.345 L 358.424 290.255 Z M 363.967 305.205 L 363.967 290.255 L 367.467 290.255 L 367.467 305.205 L 363.967 305.205 Z M 365.727 287.785 C 365.094 287.785 364.561 287.585 364.127 287.185 C 363.701 286.785 363.487 286.285 363.487 285.685 C 363.487 285.092 363.701 284.595 364.127 284.195 C 364.561 283.788 365.094 283.585 365.727 283.585 C 366.361 283.585 366.894 283.778 367.327 284.165 C 367.754 284.545 367.967 285.025 367.967 285.605 C 367.967 286.218 367.757 286.735 367.337 287.155 C 366.917 287.575 366.381 287.785 365.727 287.785 Z M 383.199 284.425 L 386.699 284.425 L 386.699 305.205 L 383.339 305.205 L 383.339 303.275 C 382.759 303.982 382.046 304.512 381.199 304.865 C 380.346 305.225 379.406 305.405 378.379 305.405 C 376.946 305.405 375.656 305.085 374.509 304.445 C 373.356 303.812 372.453 302.912 371.799 301.745 C 371.146 300.578 370.819 299.238 370.819 297.725 C 370.819 296.218 371.146 294.885 371.799 293.725 C 372.453 292.565 373.356 291.668 374.509 291.035 C 375.656 290.402 376.946 290.085 378.379 290.085 C 379.373 290.085 380.279 290.252 381.099 290.585 C 381.919 290.925 382.619 291.432 383.199 292.105 L 383.199 284.425 Z M 378.799 302.405 C 379.639 302.405 380.396 302.215 381.069 301.835 C 381.743 301.448 382.276 300.902 382.669 300.195 C 383.063 299.482 383.259 298.658 383.259 297.725 C 383.259 296.792 383.063 295.972 382.669 295.265 C 382.276 294.558 381.743 294.012 381.069 293.625 C 380.396 293.245 379.639 293.055 378.799 293.055 C 377.959 293.055 377.206 293.245 376.539 293.625 C 375.866 294.012 375.333 294.558 374.939 295.265 C 374.546 295.972 374.349 296.792 374.349 297.725 C 374.349 298.658 374.546 299.482 374.939 300.195 C 375.333 300.902 375.866 301.448 376.539 301.835 C 377.206 302.215 377.959 302.405 378.799 302.405 Z M 405.345 297.815 C 405.345 298.055 405.328 298.398 405.295 298.845 L 393.555 298.845 C 393.762 299.952 394.298 300.825 395.165 301.465 C 396.038 302.112 397.118 302.435 398.405 302.435 C 400.045 302.435 401.398 301.892 402.465 300.805 L 404.335 302.965 C 403.668 303.765 402.822 304.372 401.795 304.785 C 400.768 305.198 399.608 305.405 398.315 305.405 C 396.675 305.405 395.228 305.078 393.975 304.425 C 392.728 303.772 391.765 302.862 391.085 301.695 C 390.398 300.528 390.055 299.205 390.055 297.725 C 390.055 296.272 390.388 294.962 391.055 293.795 C 391.715 292.628 392.635 291.718 393.815 291.065 C 394.988 290.412 396.312 290.085 397.785 290.085 C 399.245 290.085 400.548 290.408 401.695 291.055 C 402.842 291.695 403.738 292.598 404.385 293.765 C 405.025 294.932 405.345 296.282 405.345 297.815 Z M 397.785 292.885 C 396.665 292.885 395.718 293.215 394.945 293.875 C 394.172 294.542 393.702 295.425 393.535 296.525 L 402.015 296.525 C 401.868 295.445 401.412 294.568 400.645 293.895 C 399.878 293.222 398.925 292.885 397.785 292.885 Z M 412.041 292.435 C 413.047 290.868 414.821 290.085 417.361 290.085 L 417.361 293.415 C 417.061 293.362 416.791 293.335 416.551 293.335 C 415.184 293.335 414.117 293.732 413.351 294.525 C 412.591 295.318 412.211 296.462 412.211 297.955 L 412.211 305.205 L 408.711 305.205 L 408.711 290.255 L 412.041 290.255 L 412.041 292.435 Z" fill="#333"/>
  <path d="M 432.203 302.181 L 443.263 302.181 L 443.263 305.231 L 428.563 305.231 L 428.563 285.631 L 442.873 285.631 L 442.873 288.681 L 432.203 288.681 L 432.203 293.781 L 441.673 293.781 L 441.673 296.771 L 432.203 296.771 L 432.203 302.181 ZM 454.773 290.111 C 456.659 290.111 458.173 290.661 459.313 291.761 C 460.446 292.861 461.013 294.494 461.013 296.661 L 461.013 305.231 L 457.513 305.231 L 457.513 297.111 C 457.513 295.804 457.206 294.821 456.593 294.161 C 455.979 293.494 455.103 293.161 453.963 293.161 C 452.676 293.161 451.659 293.548 450.913 294.321 C 450.166 295.101 449.793 296.218 449.793 297.671 L 449.793 305.231 L 446.293 305.231 L 446.293 290.281 L 449.623 290.281 L 449.623 292.211 C 450.203 291.518 450.929 290.994 451.803 290.641 C 452.683 290.288 453.673 290.111 454.773 290.111 ZM 476.412 290.281 L 479.752 290.281 L 479.752 302.961 C 479.752 308.228 477.062 310.861 471.682 310.861 C 470.249 310.861 468.886 310.678 467.592 310.311 C 466.306 309.951 465.242 309.424 464.402 308.731 L 465.972 306.101 C 466.626 306.641 467.452 307.074 468.452 307.401 C 469.452 307.728 470.466 307.891 471.492 307.891 C 473.132 307.891 474.336 307.518 475.102 306.771 C 475.869 306.024 476.252 304.884 476.252 303.351 L 476.252 302.571 C 475.652 303.224 474.922 303.718 474.062 304.051 C 473.202 304.391 472.259 304.561 471.232 304.561 C 469.819 304.561 468.536 304.258 467.382 303.651 C 466.236 303.044 465.332 302.191 464.672 301.091 C 464.006 299.984 463.672 298.724 463.672 297.311 C 463.672 295.891 464.006 294.634 464.672 293.541 C 465.332 292.448 466.236 291.604 467.382 291.011 C 468.536 290.411 469.819 290.111 471.232 290.111 C 472.319 290.111 473.306 290.288 474.192 290.641 C 475.079 290.994 475.819 291.538 476.412 292.271 L 476.412 290.281 Z M 471.772 301.591 C 473.092 301.591 474.179 301.194 475.032 300.401 C 475.879 299.608 476.302 298.578 476.302 297.311 C 476.302 296.058 475.879 295.038 475.032 294.251 C 474.179 293.471 473.092 293.081 471.772 293.081 C 470.426 293.081 469.329 293.471 468.482 294.251 C 467.629 295.038 467.202 296.058 467.202 297.311 C 467.202 298.578 467.629 299.608 468.482 300.401 C 469.329 301.194 470.426 301.591 471.772 301.591 ZM 489.354 290.111 C 491.554 290.111 493.237 290.638 494.404 291.691 C 495.571 292.744 496.154 294.338 496.154 296.471 L 496.154 305.231 L 492.854 305.231 L 492.854 303.411 C 492.421 304.064 491.807 304.564 491.014 304.911 C 490.221 305.258 489.264 305.431 488.144 305.431 C 487.024 305.431 486.044 305.238 485.204 304.851 C 484.364 304.471 483.717 303.941 483.264 303.261 C 482.804 302.574 482.574 301.804 482.574 300.951 C 482.574 299.604 483.074 298.524 484.074 297.711 C 485.074 296.898 486.647 296.491 488.794 296.491 L 492.654 296.491 L 492.654 296.271 C 492.654 295.224 492.341 294.421 491.714 293.861 C 491.094 293.301 490.167 293.021 488.934 293.021 C 488.094 293.021 487.267 293.151 486.454 293.411 C 485.641 293.678 484.954 294.044 484.394 294.511 L 483.024 291.961 C 483.811 291.361 484.754 290.904 485.854 290.591 C 486.954 290.271 488.121 290.111 489.354 290.111 Z M 488.874 302.881 C 489.754 302.881 490.534 302.681 491.214 302.281 C 491.894 301.874 492.374 301.298 492.654 300.551 L 492.654 298.821 L 489.044 298.821 C 487.031 298.821 486.024 299.484 486.024 300.811 C 486.024 301.444 486.274 301.948 486.774 302.321 C 487.281 302.694 487.981 302.881 488.874 302.881 ZM 511.58 290.281 L 514.92 290.281 L 514.92 302.961 C 514.92 308.228 512.23 310.861 506.85 310.861 C 505.416 310.861 504.053 310.678 502.76 310.311 C 501.473 309.951 500.41 309.424 499.57 308.731 L 501.14 306.101 C 501.793 306.641 502.62 307.074 503.62 307.401 C 504.62 307.728 505.633 307.891 506.66 307.891 C 508.3 307.891 509.503 307.518 510.27 306.771 C 511.036 306.024 511.42 304.884 511.42 303.351 L 511.42 302.571 C 510.82 303.224 510.09 303.718 509.23 304.051 C 508.37 304.391 507.426 304.561 506.4 304.561 C 504.986 304.561 503.703 304.258 502.55 303.651 C 501.403 303.044 500.5 302.191 499.84 301.091 C 499.173 299.984 498.84 298.724 498.84 297.311 C 498.84 295.891 499.173 294.634 499.84 293.541 C 500.5 292.448 501.403 291.604 502.55 291.011 C 503.703 290.411 504.986 290.111 506.4 290.111 C 507.486 290.111 508.473 290.288 509.36 290.641 C 510.246 290.994 510.986 291.538 511.58 292.271 L 511.58 290.281 Z M 506.94 301.591 C 508.26 301.591 509.346 301.194 510.2 300.401 C 511.046 299.608 511.47 298.578 511.47 297.311 C 511.47 296.058 511.046 295.038 510.2 294.251 C 509.346 293.471 508.26 293.081 506.94 293.081 C 505.593 293.081 504.496 293.471 503.65 294.251 C 502.796 295.038 502.37 296.058 502.37 297.311 C 502.37 298.578 502.796 299.608 503.65 300.401 C 504.496 301.194 505.593 301.591 506.94 301.591 ZM 532.861 297.841 C 532.861 298.081 532.845 298.424 532.811 298.871 L 521.071 298.871 C 521.278 299.978 521.815 300.851 522.681 301.491 C 523.555 302.138 524.635 302.461 525.921 302.461 C 527.561 302.461 528.915 301.918 529.981 300.831 L 531.851 302.991 C 531.185 303.791 530.338 304.398 529.311 304.811 C 528.285 305.224 527.125 305.431 525.831 305.431 C 524.191 305.431 522.745 305.104 521.491 304.451 C 520.245 303.798 519.281 302.888 518.601 301.721 C 517.915 300.554 517.571 299.231 517.571 297.751 C 517.571 296.298 517.905 294.988 518.571 293.821 C 519.231 292.654 520.151 291.744 521.331 291.091 C 522.505 290.438 523.828 290.111 525.301 290.111 C 526.761 290.111 528.065 290.434 529.211 291.081 C 530.358 291.721 531.255 292.624 531.901 293.791 C 532.541 294.958 532.861 296.308 532.861 297.841 Z M 525.301 292.911 C 524.181 292.911 523.235 293.241 522.461 293.901 C 521.688 294.568 521.218 295.451 521.051 296.551 L 529.531 296.551 C 529.385 295.471 528.928 294.594 528.161 293.921 C 527.395 293.248 526.441 292.911 525.301 292.911 ZM 554.397 290.111 C 556.283 290.111 557.777 290.658 558.877 291.751 C 559.977 292.844 560.527 294.481 560.527 296.661 L 560.527 305.231 L 557.027 305.231 L 557.027 297.111 C 557.027 295.804 556.737 294.821 556.157 294.161 C 555.577 293.494 554.747 293.161 553.667 293.161 C 552.493 293.161 551.55 293.548 550.837 294.321 C 550.13 295.101 549.777 296.208 549.777 297.641 L 549.777 305.231 L 546.277 305.231 L 546.277 297.111 C 546.277 295.804 545.987 294.821 545.407 294.161 C 544.827 293.494 543.997 293.161 542.917 293.161 C 541.723 293.161 540.777 293.544 540.077 294.311 C 539.377 295.078 539.027 296.188 539.027 297.641 L 539.027 305.231 L 535.527 305.231 L 535.527 290.281 L 538.857 290.281 L 538.857 292.181 C 539.417 291.508 540.117 290.994 540.957 290.641 C 541.797 290.288 542.73 290.111 543.757 290.111 C 544.877 290.111 545.87 290.321 546.737 290.741 C 547.603 291.161 548.29 291.781 548.797 292.601 C 549.41 291.821 550.203 291.211 551.177 290.771 C 552.143 290.331 553.217 290.111 554.397 290.111 ZM 578.5 297.841 C 578.5 298.081 578.484 298.424 578.45 298.871 L 566.71 298.871 C 566.917 299.978 567.454 300.851 568.32 301.491 C 569.194 302.138 570.274 302.461 571.56 302.461 C 573.2 302.461 574.554 301.918 575.62 300.831 L 577.49 302.991 C 576.824 303.791 575.977 304.398 574.95 304.811 C 573.924 305.224 572.764 305.431 571.47 305.431 C 569.83 305.431 568.384 305.104 567.13 304.451 C 565.884 303.798 564.92 302.888 564.24 301.721 C 563.554 300.554 563.21 299.231 563.21 297.751 C 563.21 296.298 563.544 294.988 564.21 293.821 C 564.87 292.654 565.79 291.744 566.97 291.091 C 568.144 290.438 569.467 290.111 570.94 290.111 C 572.4 290.111 573.704 290.434 574.85 291.081 C 575.997 291.721 576.894 292.624 577.54 293.791 C 578.18 294.958 578.5 296.308 578.5 297.841 Z M 570.94 292.911 C 569.82 292.911 568.874 293.241 568.1 293.901 C 567.327 294.568 566.857 295.451 566.69 296.551 L 575.17 296.551 C 575.024 295.471 574.567 294.594 573.8 293.921 C 573.034 293.248 572.08 292.911 570.94 292.911 ZM 589.646 290.111 C 591.533 290.111 593.046 290.661 594.186 291.761 C 595.319 292.861 595.886 294.494 595.886 296.661 L 595.886 305.231 L 592.386 305.231 L 592.386 297.111 C 592.386 295.804 592.079 294.821 591.466 294.161 C 590.853 293.494 589.976 293.161 588.836 293.161 C 587.549 293.161 586.533 293.548 585.786 294.321 C 585.039 295.101 584.666 296.218 584.666 297.671 L 584.666 305.231 L 581.166 305.231 L 581.166 290.281 L 584.496 290.281 L 584.496 292.211 C 585.076 291.518 585.803 290.994 586.676 290.641 C 587.556 290.288 588.546 290.111 589.646 290.111 ZM 607.645 301.931 L 608.625 304.421 C 608.219 304.754 607.722 305.004 607.135 305.171 C 606.542 305.344 605.919 305.431 605.265 305.431 C 603.625 305.431 602.359 305.001 601.465 304.141 C 600.565 303.281 600.115 302.031 600.115 300.391 L 600.115 293.191 L 597.655 293.191 L 597.655 290.391 L 600.115 290.391 L 600.115 286.971 L 603.615 286.971 L 603.615 290.391 L 607.625 290.391 L 607.625 293.191 L 603.615 293.191 L 603.615 300.301 C 603.615 301.028 603.792 301.584 604.145 301.971 C 604.505 302.351 605.019 302.541 605.685 302.541 C 606.472 302.541 607.125 302.338 607.645 301.931 Z" transform="matrix(1, 0, 0, 1, 0, 0)" style="fill: rgb(51, 51, 51); white-space: pre;"/>
</svg>