<svg enable-background="new 0 235.2 1022.1 85.8" viewBox="0 235.2 590.308 85.8" xmlns="http://www.w3.org/2000/svg"><path d="m118.7 278.1-23.8-42.9h-86c-5 0-9.1 4.1-9.1 9.1v67.3c0 5.1 4.1 9.1 9.1 9.1h86z" fill="#606060"/><path d="m116.3 239.7c-1.7-2.7-4.6-4.5-7.9-4.5h-7l24.2 42.9-24.2 42.9h7c3.3 0 6.3-1.7 7.9-4.5l21.4-38.4z" fill="#bb0e3d"/><path d="m50.4 259h6.3v38.1h-6.3z" fill="#fff"/><path d="m37.9 259v28l-17.5-28h-6.3v38.1h6.3v-27.9l17.5 27.9h6.2v-38.1z" fill="#fff"/><path d="m87 259v16h-17.5v-16h-6.4v38.1h6.4v-15.9h17.5v15.9h6.3v-38.1z" fill="#fff"/><g fill="#bb0e3d"><path d="m170.9 250.9h3.9v17.7h-3.9l-8.4-11.2v11.2h-3.9v-17.7h3.8l8.8 11.5v-11.5z"/><path d="m191.8 268.7-1.7-3.8h-7.4l-1.7 3.8h-4.3l7.7-17.7h3.8l7.7 17.7zm-5.3-12.5-2.2 5.1h4.5z"/><path d="m204.3 254.3v14.2h-3.9v-14.2h-5v-3.4h14.1v3.4z"/><path d="m212.2 250.9h3.9v17.7h-3.9z"/><path d="m235.4 266.2c-1.7 1.7-3.9 2.6-6.7 2.6-2.7 0-4.8-.9-6.7-2.6-1.7-1.7-2.7-3.9-2.7-6.5s.9-4.8 2.7-6.5c1.7-1.7 3.9-2.6 6.7-2.6 2.7 0 4.8.9 6.7 2.6 1.7 1.7 2.7 3.9 2.7 6.5 0 2.5-.8 4.7-2.7 6.5zm-1.4-6.6c0-1.5-.5-2.9-1.5-4.1s-2.2-1.7-3.8-1.7c-1.5 0-2.7.5-3.8 1.7-1 1.2-1.5 2.4-1.5 4.1 0 1.5.5 2.9 1.5 4.1 1 1 2.2 1.7 3.8 1.7 1.5 0 2.7-.5 3.8-1.7 1-1 1.5-2.3 1.5-4.1z"/><path d="m253.9 250.9h3.9v17.7h-3.9l-8.4-11.2v11.2h-3.9v-17.7h3.8l8.8 11.5v-11.5z"/><path d="m274.9 268.7-1.7-3.8h-7.4l-1.7 3.8h-4.3l7.7-17.7h3.8l7.7 17.7zm-5.4-12.5-2.2 5.1h4.5z"/><path d="m281.2 268.7v-17.7h3.9v14.2h7.5v3.6z"/><path d="m310.4 265.1c1.9 0 3.6-.7 4.8-2.2l2.6 2.6c-2.1 2.2-4.5 3.4-7 3.4-2.7 0-5-.9-6.7-2.6s-2.6-3.9-2.6-6.5.9-4.8 2.7-6.5c1.9-1.7 3.9-2.6 6.7-2.6 2.9 0 5.3 1 7.4 3.3l-2.4 2.7c-1.2-1.5-2.7-2.4-4.6-2.4-1.5 0-2.7.5-3.8 1.5-1 1-1.5 2.2-1.5 3.9s.5 2.9 1.5 3.9c.3 1 1.5 1.5 2.9 1.5z"/><path d="m333.4 268.7-1.7-3.8h-7.4l-1.7 3.8h-4.1l7.7-17.7h3.8l7.7 17.7zm-5.4-12.5-2.2 5.1h4.5z"/><path d="m352.1 250.9h3.9v17.7h-3.9l-8.4-11.2v11.2h-3.9v-17.7h3.8l8.8 11.5v-11.5z"/><path d="m368.5 265.1c1.9 0 3.6-.7 4.8-2.2l2.6 2.6c-2.1 2.2-4.5 3.4-7 3.4-2.6 0-5-.9-6.7-2.6s-2.6-3.9-2.6-6.5.9-4.8 2.7-6.5c1.9-1.7 3.9-2.6 6.7-2.6 2.9 0 5.3 1 7.4 3.3l-2.4 2.7c-1.2-1.5-2.7-2.4-4.6-2.4-1.5 0-2.7.5-3.8 1.5-1 1-1.5 2.2-1.5 3.9s.5 2.9 1.5 3.9c.2 1 1.4 1.5 2.9 1.5z"/><path d="m391.7 250.9v3.6h-8.7v3.6h7.9v3.4h-7.9v3.6h9.1v3.4h-13v-17.7z"/><path d="m409.9 256.9c0 2.9-1.2 4.6-3.4 5.5l4.5 6.3h-4.8l-3.9-5.7h-2.7v5.7h-3.9v-17.7h6.7c2.7 0 4.8.5 5.8 1.4 1.2.9 1.7 2.4 1.7 4.5zm-4.8 2.1c.5-.5.7-1.2.7-2.1 0-1-.2-1.5-.7-1.9-.5-.3-1.4-.5-2.7-.5h-2.9v5.3h2.9c1.3-.2 2.2-.3 2.7-.8z"/><path d="m420.7 250.9h3.9v17.7h-3.9z"/><path d="m441.5 250.9h3.9v17.7h-3.9l-8.4-11.2v11.2h-3.9v-17.7h3.8l8.8 11.5v-11.5z"/><path d="m453.8 254.5c-.3.3-.5.7-.5 1.2s.2.9.7 1.2 1.5.7 3.3 1c1.7.3 2.9 1 3.9 1.9.9.9 1.4 2.1 1.4 3.6s-.5 2.9-1.7 3.9-2.7 1.5-4.6 1.5c-2.7 0-5.3-1-7.5-3.1l2.4-2.9c1.9 1.7 3.6 2.6 5.3 2.6.7 0 1.4-.2 1.7-.5s.7-.7.7-1.2-.2-1-.7-1.2c-.5-.3-1.4-.7-2.6-1-2.1-.5-3.6-1.2-4.5-1.9-1-.9-1.4-2.1-1.4-3.8s.7-2.9 1.9-3.9c1.2-.9 2.7-1.4 4.5-1.4 1.2 0 2.4.2 3.6.7s2.2 1 3.1 1.7l-2.1 2.9c-1.5-1.2-3.1-1.7-4.8-1.7-1.1-.1-1.6 0-2.1.4z"/><path d="m473.2 254.3v14.2h-3.9v-14.2h-5v-3.4h14.1v3.4z"/><path d="m481.3 250.9h3.9v17.7h-3.9z"/><path d="m497 254.3v14.2h-3.9v-14.2h-5v-3.4h14.1v3.4z"/><path d="m509.6 264.1c.7.9 1.5 1.2 2.7 1.2s2.1-.3 2.6-1.2c.7-.9 1-1.9 1-3.4v-9.8h3.9v10c0 2.6-.7 4.5-2.1 6-1.4 1.4-3.3 2.1-5.5 2.1s-4.1-.7-5.5-2.1-2.1-3.4-2.1-5.8v-10h3.9v9.8c.2 1.3.4 2.3 1.1 3.2z"/><path d="m531.5 254.3v14.2h-3.9v-14.2h-5v-3.4h14.1v3.4z"/><path d="m552.3 250.9v3.6h-8.8v3.6h7.9v3.4h-7.9v3.6h9.1v3.4h-13v-17.7z"/></g><path d="m156.5 284h1063v60.5h-1063z" fill="none"/><path d="m166.599 285.605c1.693 0 3.17.28 4.43.84s2.227 1.363 2.9 2.41 1.01 2.287 1.01 3.72c0 1.42-.337 2.657-1.01 3.71s-1.64 1.86-2.9 2.42-2.737.84-4.43.84h-4.43v5.66h-3.64v-19.6zm-.17 10.86c1.587 0 2.79-.333 3.61-1 .82-.673 1.23-1.637 1.23-2.89 0-1.247-.41-2.207-1.23-2.88s-2.023-1.01-3.61-1.01h-4.26v7.78zm17.388-6.38c2.2 0 3.883.527 5.05 1.58 1.166 1.053 1.75 2.647 1.75 4.78v8.76h-3.3v-1.82c-.434.653-1.047 1.153-1.84 1.5-.794.347-1.75.52-2.87.52s-2.1-.193-2.94-.58c-.84-.38-1.487-.91-1.94-1.59-.46-.687-.69-1.457-.69-2.31 0-1.347.5-2.427 1.5-3.24s2.573-1.22 4.72-1.22h3.86v-.22c0-1.047-.314-1.85-.94-2.41-.62-.56-1.547-.84-2.78-.84-.84 0-1.667.13-2.48.39-.814.267-1.5.633-2.06 1.1l-1.37-2.55c.786-.6 1.73-1.057 2.83-1.37 1.1-.32 2.266-.48 3.5-.48zm-.48 12.77c.88 0 1.66-.2 2.34-.6.68-.407 1.16-.983 1.44-1.73v-1.73h-3.61c-2.014 0-3.02.663-3.02 1.99 0 .633.25 1.137.75 1.51.506.373 1.206.56 2.1.56zm19.765-.95.98 2.49c-.406.333-.903.583-1.49.75-.593.173-1.216.26-1.87.26-1.64 0-2.906-.43-3.8-1.29-.9-.86-1.35-2.11-1.35-3.75v-7.2h-2.46v-2.8h2.46v-3.42h3.5v3.42h4.01v2.8h-4.01v7.11c0 .727.177 1.283.53 1.67.36.38.874.57 1.54.57.787 0 1.44-.203 1.96-.61zm3.872 3.3v-14.95h3.5v14.95zm1.76-17.42c-.633 0-1.167-.2-1.6-.6-.427-.4-.64-.9-.64-1.5 0-.593.213-1.09.64-1.49.433-.407.967-.61 1.6-.61s1.167.193 1.6.58c.427.38.64.86.64 1.44 0 .613-.21 1.13-.63 1.55s-.957.63-1.61.63zm20.382 10.03c0 .24-.017.583-.05 1.03h-11.74c.207 1.107.743 1.98 1.61 2.62.873.647 1.953.97 3.24.97 1.64 0 2.993-.543 4.06-1.63l1.87 2.16c-.667.8-1.513 1.407-2.54 1.82s-2.187.62-3.48.62c-1.64 0-3.087-.327-4.34-.98-1.247-.653-2.21-1.563-2.89-2.73-.687-1.167-1.03-2.49-1.03-3.97 0-1.453.333-2.763 1-3.93.66-1.167 1.58-2.077 2.76-2.73 1.173-.653 2.497-.98 3.97-.98 1.46 0 2.763.323 3.91.97 1.147.64 2.043 1.543 2.69 2.71.64 1.167.96 2.517.96 4.05zm-7.56-4.93c-1.12 0-2.067.33-2.84.99-.773.667-1.243 1.55-1.41 2.65h8.48c-.147-1.08-.603-1.957-1.37-2.63s-1.72-1.01-2.86-1.01zm19.406-2.8c1.886 0 3.4.55 4.54 1.65 1.133 1.1 1.7 2.733 1.7 4.9v8.57h-3.5v-8.12c0-1.307-.307-2.29-.92-2.95-.614-.667-1.49-1-2.63-1-1.287 0-2.304.387-3.05 1.16-.747.78-1.12 1.897-1.12 3.35v7.56h-3.5v-14.95h3.33v1.93c.58-.693 1.306-1.217 2.18-1.57.88-.353 1.87-.53 2.97-.53zm18.699 11.82.98 2.49c-.406.333-.903.583-1.49.75-.593.173-1.216.26-1.87.26-1.64 0-2.906-.43-3.8-1.29-.9-.86-1.35-2.11-1.35-3.75v-7.2h-2.46v-2.8h2.46v-3.42h3.5v3.42h4.01v2.8h-4.01v7.11c0 .727.177 1.283.53 1.67.36.38.874.57 1.54.57.787 0 1.44-.203 1.96-.61zm28.56 1.34-1.93 2.27-2.46-2.38c-1.833 1.567-4.027 2.35-6.58 2.35-1.367 0-2.59-.223-3.67-.67s-1.93-1.067-2.55-1.86c-.613-.793-.92-1.697-.92-2.71 0-1.213.353-2.28 1.06-3.2.713-.927 1.87-1.837 3.47-2.73-.78-.787-1.34-1.52-1.68-2.2-.333-.68-.5-1.383-.5-2.11 0-1.387.517-2.503 1.55-3.35 1.04-.847 2.417-1.27 4.13-1.27 1.587 0 2.857.387 3.81 1.16s1.43 1.823 1.43 3.15c0 1.007-.313 1.903-.94 2.69-.627.78-1.647 1.573-3.06 2.38l4.22 4.03c.467-.913.833-2.017 1.1-3.31l2.82.93c-.373 1.733-.96 3.227-1.76 4.48zm-10.08-15.37c-.76 0-1.367.19-1.82.57-.447.387-.67.887-.67 1.5 0 .447.123.87.37 1.27.24.407.707.953 1.4 1.64 1.12-.613 1.897-1.15 2.33-1.61.44-.453.66-.953.66-1.5 0-.573-.2-1.03-.6-1.37-.4-.333-.957-.5-1.67-.5zm-.64 14.75c1.627 0 3.047-.493 4.26-1.48l-5.18-4.96c-1.12.62-1.91 1.213-2.37 1.78-.46.573-.69 1.213-.69 1.92 0 .82.367 1.483 1.1 1.99.727.5 1.687.75 2.88.75zm29.655-17.02c1.694 0 3.17.28 4.43.84s2.227 1.363 2.9 2.41c.674 1.047 1.01 2.287 1.01 3.72 0 1.42-.336 2.657-1.01 3.71-.673 1.053-1.64 1.86-2.9 2.42s-2.736.84-4.43.84h-4.43v5.66h-3.64v-19.6zm-.17 10.86c1.587 0 2.79-.333 3.61-1 .82-.673 1.23-1.637 1.23-2.89 0-1.247-.41-2.207-1.23-2.88s-2.023-1.01-3.61-1.01h-4.26v7.78zm15.008-4.03c1.007-1.567 2.78-2.35 5.32-2.35v3.33c-.3-.053-.57-.08-.81-.08-1.367 0-2.433.397-3.2 1.19-.76.793-1.14 1.937-1.14 3.43v7.25h-3.5v-14.95h3.33zm14.87 12.97c-1.513 0-2.877-.327-4.09-.98s-2.16-1.563-2.84-2.73c-.687-1.167-1.03-2.49-1.03-3.97 0-1.473.343-2.787 1.03-3.94.68-1.16 1.627-2.067 2.84-2.72s2.577-.98 4.09-.98c1.527 0 2.897.327 4.11.98s2.16 1.56 2.84 2.72c.687 1.153 1.03 2.467 1.03 3.94 0 1.48-.343 2.803-1.03 3.97-.68 1.167-1.627 2.077-2.84 2.73s-2.583.98-4.11.98zm0-3c1.287 0 2.35-.43 3.19-1.29s1.26-1.99 1.26-3.39-.42-2.527-1.26-3.38c-.84-.86-1.903-1.29-3.19-1.29-1.293 0-2.353.43-3.18 1.29-.833.853-1.25 1.98-1.25 3.38s.417 2.53 1.25 3.39c.827.86 1.887 1.29 3.18 1.29zm21.56-12.15h3.36l-6.42 14.95h-3.61l-6.41-14.95h3.64l4.65 11.09zm5.543 14.95v-14.95h3.5v14.95zm1.76-17.42c-.633 0-1.166-.2-1.6-.6-.426-.4-.64-.9-.64-1.5 0-.593.214-1.09.64-1.49.434-.407.967-.61 1.6-.61.634 0 1.167.193 1.6.58.427.38.64.86.64 1.44 0 .613-.21 1.13-.63 1.55s-.956.63-1.61.63zm17.472-3.36h3.5v20.78h-3.36v-1.93c-.58.707-1.293 1.237-2.14 1.59-.853.36-1.793.54-2.82.54-1.433 0-2.723-.32-3.87-.96-1.153-.633-2.056-1.533-2.71-2.7-.653-1.167-.98-2.507-.98-4.02 0-1.507.327-2.84.98-4 .654-1.16 1.557-2.057 2.71-2.69 1.147-.633 2.437-.95 3.87-.95.994 0 1.9.167 2.72.5.82.34 1.52.847 2.1 1.52zm-4.4 17.98c.84 0 1.597-.19 2.27-.57.674-.387 1.207-.933 1.6-1.64.394-.713.59-1.537.59-2.47s-.196-1.753-.59-2.46c-.393-.707-.926-1.253-1.6-1.64-.673-.38-1.43-.57-2.27-.57s-1.593.19-2.26.57c-.673.387-1.206.933-1.6 1.64-.393.707-.59 1.527-.59 2.46s.197 1.757.59 2.47c.394.707.927 1.253 1.6 1.64.667.38 1.42.57 2.26.57zm26.546-4.59c0 .24-.017.583-.05 1.03h-11.74c.207 1.107.743 1.98 1.61 2.62.873.647 1.953.97 3.24.97 1.64 0 2.993-.543 4.06-1.63l1.87 2.16c-.667.8-1.513 1.407-2.54 1.82s-2.187.62-3.48.62c-1.64 0-3.087-.327-4.34-.98-1.247-.653-2.21-1.563-2.89-2.73-.687-1.167-1.03-2.49-1.03-3.97 0-1.453.333-2.763 1-3.93.66-1.167 1.58-2.077 2.76-2.73 1.173-.653 2.497-.98 3.97-.98 1.46 0 2.763.323 3.91.97 1.147.64 2.043 1.543 2.69 2.71.64 1.167.96 2.517.96 4.05zm-7.56-4.93c-1.12 0-2.067.33-2.84.99-.773.667-1.243 1.55-1.41 2.65h8.48c-.147-1.08-.603-1.957-1.37-2.63s-1.72-1.01-2.86-1.01zm14.256-.45c1.006-1.567 2.78-2.35 5.32-2.35v3.33c-.3-.053-.57-.08-.81-.08-1.367 0-2.434.397-3.2 1.19-.76.793-1.14 1.937-1.14 3.43v7.25h-3.5v-14.95h3.33zm20.127 9.72h11.06v3.05h-14.7v-19.6h14.31v3.05h-10.67v5.1h9.47v2.99h-9.47zm27.97 3.05h-3.94l-3.84-5.18-3.86 5.18h-3.87l5.83-7.59-5.58-7.36h3.9l3.66 4.9 3.67-4.9h3.78l-5.6 7.31zm10.864-15.12c1.46 0 2.763.317 3.91.95 1.146.633 2.046 1.53 2.7 2.69.653 1.16.98 2.493.98 4 0 1.513-.327 2.853-.98 4.02-.654 1.167-1.554 2.067-2.7 2.7-1.147.64-2.45.96-3.91.96-2.014 0-3.607-.673-4.78-2.02v7.25h-3.5v-20.38h3.33v1.96c.58-.713 1.293-1.247 2.14-1.6.846-.353 1.783-.53 2.81-.53zm-.39 12.32c1.286 0 2.346-.43 3.18-1.29.833-.86 1.25-1.99 1.25-3.39s-.417-2.527-1.25-3.38c-.834-.86-1.894-1.29-3.18-1.29-.84 0-1.597.19-2.27.57-.667.387-1.197.933-1.59 1.64-.394.707-.59 1.527-.59 2.46s.196 1.757.59 2.47c.393.707.923 1.253 1.59 1.64.673.38 1.43.57 2.27.57zm25.367-4.59c0 .24-.016.583-.05 1.03h-11.74c.207 1.107.744 1.98 1.61 2.62.874.647 1.954.97 3.24.97 1.64 0 2.994-.543 4.06-1.63l1.87 2.16c-.666.8-1.513 1.407-2.54 1.82-1.026.413-2.186.62-3.48.62-1.64 0-3.086-.327-4.34-.98-1.246-.653-2.21-1.563-2.89-2.73-.686-1.167-1.03-2.49-1.03-3.97 0-1.453.334-2.763 1-3.93.66-1.167 1.58-2.077 2.76-2.73 1.174-.653 2.497-.98 3.97-.98 1.46 0 2.764.323 3.91.97 1.147.64 2.044 1.543 2.69 2.71.64 1.167.96 2.517.96 4.05zm-7.56-4.93c-1.12 0-2.066.33-2.84.99-.773.667-1.243 1.55-1.41 2.65h8.48c-.146-1.08-.603-1.957-1.37-2.63-.766-.673-1.72-1.01-2.86-1.01zm14.256-.45c1.007-1.567 2.78-2.35 5.32-2.35v3.33c-.3-.053-.57-.08-.81-.08-1.367 0-2.433.397-3.2 1.19-.76.793-1.14 1.937-1.14 3.43v7.25h-3.5v-14.95h3.33zm8.29 12.77v-14.95h3.5v14.95zm1.76-17.42c-.634 0-1.167-.2-1.6-.6-.427-.4-.64-.9-.64-1.5 0-.593.213-1.09.64-1.49.433-.407.966-.61 1.6-.61.633 0 1.166.193 1.6.58.426.38.64.86.64 1.44 0 .613-.21 1.13-.63 1.55s-.957.63-1.61.63zm20.381 10.03c0 .24-.016.583-.05 1.03h-11.74c.207 1.107.744 1.98 1.61 2.62.874.647 1.954.97 3.24.97 1.64 0 2.994-.543 4.06-1.63l1.87 2.16c-.666.8-1.513 1.407-2.54 1.82-1.026.413-2.186.62-3.48.62-1.64 0-3.086-.327-4.34-.98-1.246-.653-2.21-1.563-2.89-2.73-.686-1.167-1.03-2.49-1.03-3.97 0-1.453.334-2.763 1-3.93.66-1.167 1.58-2.077 2.76-2.73 1.174-.653 2.497-.98 3.97-.98 1.46 0 2.764.323 3.91.97 1.147.64 2.044 1.543 2.69 2.71.64 1.167.96 2.517.96 4.05zm-7.56-4.93c-1.12 0-2.066.33-2.84.99-.773.667-1.243 1.55-1.41 2.65h8.48c-.146-1.08-.603-1.957-1.37-2.63-.766-.673-1.72-1.01-2.86-1.01zm19.406-2.8c1.887 0 3.4.55 4.54 1.65 1.134 1.1 1.7 2.733 1.7 4.9v8.57h-3.5v-8.12c0-1.307-.306-2.29-.92-2.95-.613-.667-1.49-1-2.63-1-1.286 0-2.303.387-3.05 1.16-.746.78-1.12 1.897-1.12 3.35v7.56h-3.5v-14.95h3.33v1.93c.58-.693 1.307-1.217 2.18-1.57.88-.353 1.87-.53 2.97-.53zm17.7 15.32c-1.554 0-2.947-.327-4.18-.98-1.227-.653-2.187-1.563-2.88-2.73-.694-1.167-1.04-2.49-1.04-3.97 0-1.473.346-2.787 1.04-3.94.693-1.16 1.65-2.067 2.87-2.72s2.616-.98 4.19-.98c1.473 0 2.763.3 3.87.9 1.113.593 1.95 1.45 2.51 2.57l-2.69 1.57c-.427-.693-.964-1.21-1.61-1.55-.64-.347-1.344-.52-2.11-.52-1.307 0-2.39.423-3.25 1.27-.86.853-1.29 1.987-1.29 3.4 0 1.42.426 2.557 1.28 3.41.846.847 1.933 1.27 3.26 1.27.766 0 1.47-.173 2.11-.52.646-.347 1.183-.863 1.61-1.55l2.69 1.57c-.58 1.12-1.424 1.983-2.53 2.59-1.114.607-2.397.91-3.85.91zm23.234-7.59c0 .24-.017.583-.05 1.03h-11.74c.206 1.107.743 1.98 1.61 2.62.873.647 1.953.97 3.24.97 1.64 0 2.993-.543 4.06-1.63l1.87 2.16c-.667.8-1.514 1.407-2.54 1.82-1.027.413-2.187.62-3.48.62-1.64 0-3.087-.327-4.34-.98-1.247-.653-2.21-1.563-2.89-2.73-.687-1.167-1.03-2.49-1.03-3.97 0-1.453.333-2.763 1-3.93.66-1.167 1.58-2.077 2.76-2.73 1.173-.653 2.496-.98 3.97-.98 1.46 0 2.763.323 3.91.97 1.146.64 2.043 1.543 2.69 2.71.64 1.167.96 2.517.96 4.05zm-7.56-4.93c-1.12 0-2.067.33-2.84.99-.774.667-1.244 1.55-1.41 2.65h8.48c-.147-1.08-.604-1.957-1.37-2.63-.767-.673-1.72-1.01-2.86-1.01z" fill="#333"/></svg>