<?xml version="1.0" encoding="utf-8"?>
<svg version="1.1" x="0px" y="0px" viewBox="0 0 1024 349" xmlns="http://www.w3.org/2000/svg">
  <style type="text/css">
	.st0{fill:none;}
	.st1{fill:#F2F5F8;}
	.st2{fill:#FFFFFF;}
	.st3{fill:#FFEBF1;}
</style>
  <g>
    <polygon class="st0" points="543.6,292.5 576.1,348.9 576.3,348.9 543.6,292.4 &#9;"/>
    <polygon class="st0" points="511.5,348.9 511.7,348.9 491,311.5 &#9;"/>
    <polygon class="st0" points="930.3,292.4 899.3,348.9 899.4,348.9 930.4,292.5 &#9;"/>
    <polygon class="st0" points="351,292.3 319.6,235 350.9,292.4 &#9;"/>
    <polygon class="st0" points="673.1,292.4 704.4,235 673,292.3 &#9;"/>
    <polygon class="st0" points="93.6,292.5 124.6,348.9 124.7,348.9 93.7,292.4 &#9;"/>
    <polygon class="st0" points="480.4,292.4 447.7,348.9 447.9,348.9 480.4,292.5 &#9;"/>
    <polygon class="st0" points="608.2,292.4 640.8,348.9 641.2,348.9 608.5,292.4 &#9;"/>
    <polygon class="st1" points="928.6,177.6 864,177.6 897.2,235 &#9;"/>
    <polygon class="st1" points="800.1,177.6 800.3,177.9 800.4,177.6 &#9;"/>
    <polygon class="st1" points="1024,121.2 993.1,177.6 1024,177.6 &#9;"/>
    <polygon class="st2" points="1024,177.6 993.1,177.6 1024,231.2 &#9;"/>
    <polygon class="st1" points="866.3,292.4 930.3,292.4 897.2,235 866,292 &#9;"/>
    <polygon class="st2" points="866.3,292.4 866.1,292.8 898.5,348.9 899.3,348.9 930.3,292.4 &#9;"/>
    <polygon class="st2" points="961.7,235 928.6,177.6 897.2,235 &#9;"/>
    <polygon class="st3" points="930.3,292.4 961.7,235 897.2,235 &#9;"/>
    <polygon class="st1" points="511.6,235 447.2,235 480.3,292.3 &#9;"/>
    <polygon class="st3" points="575.8,235 511.6,235 543.5,292.4 &#9;"/>
    <polygon class="st3" points="899.4,348.9 963,348.9 930.4,292.5 &#9;"/>
    <polygon class="st1" points="1024,231.2 993.1,177.6 961.7,235 1024,235 &#9;"/>
    <polygon class="st2" points="1024,239 1024,235 961.7,235 994.8,292.3 &#9;"/>
    <polygon class="st1" points="1024,348.9 1024,342.8 994.9,292.4 963.9,348.9 &#9;"/>
    <polygon class="st3" points="833.5,235 897.2,235 864,177.6 833.3,234.7 &#9;"/>
    <polygon class="st1" points="833.3,234.7 864,177.6 833.1,234.3 &#9;"/>
    <polygon class="st2" points="866,292 897.2,235 833.5,235 833.3,235.4 &#9;"/>
    <polygon class="st1" points="835.3,348.9 898.4,348.9 866.1,292.8 &#9;"/>
    <polygon class="st1" points="898.4,348.9 898.5,348.9 866.1,292.8 &#9;"/>
    <polygon class="st1" points="930.4,292.4 994.8,292.4 961.7,235 930.3,292.4 &#9;"/>
    <polygon class="st1" points="994.9,292.4 994.8,292.3 994.8,292.4 &#9;"/>
    <polygon class="st1" points="994.8,292.3 961.7,235 994.8,292.4 &#9;"/>
    <polygon class="st3" points="930.4,292.4 963,348.9 963.9,348.9 994.9,292.4 994.8,292.4 &#9;"/>
    <polygon class="st3" points="930.4,292.4 930.3,292.4 930.4,292.5 &#9;"/>
    <polygon class="st3" points="930.4,292.5 963,348.9 963,348.9 930.4,292.4 &#9;"/>
    <polygon class="st3" points="1024,239.3 994.9,292.4 1024,292.4 &#9;"/>
    <polygon class="st2" points="1024,292.4 994.9,292.4 1024,342.8 &#9;"/>
    <polygon class="st1" points="577.2,348.9 640.8,348.9 608.2,292.4 &#9;"/>
    <polygon class="st3" points="512.5,348.9 576.1,348.9 543.6,292.5 &#9;"/>
    <polygon class="st3" points="543.6,292.4 576.3,348.9 577.2,348.9 608.2,292.4 &#9;"/>
    <polygon class="st1" points="491,311.5 511.7,348.9 512.5,348.9 543.5,292.4 480.5,292.4 &#9;"/>
    <polygon class="st2" points="480.5,292.4 480.4,292.4 480.4,292.5 &#9;"/>
    <polygon class="st2" points="543.6,292.4 543.5,292.4 543.6,292.5 &#9;"/>
    <polygon class="st2" points="512.5,348.9 543.6,292.5 543.5,292.4 512.5,348.9 &#9;"/>
    <polygon class="st1" points="673,292.4 639.9,235 608.8,291.9 609.1,292.4 &#9;"/>
    <polygon class="st1" points="673,292.3 673,292.4 673.1,292.4 &#9;"/>
    <polygon class="st1" points="608.2,292.4 608.5,292.4 608.8,291.9 575.9,235 543.5,292.4 543.6,292.4 &#9;"/>
    <polygon class="st1" points="609.1,292.4 608.8,291.9 608.5,292.4 &#9;"/>
    <polygon class="st1" points="447.2,235 415.8,292.4 480.2,292.4 &#9;"/>
    <polygon class="st1" points="480.3,292.3 447.2,235 480.2,292.4 &#9;"/>
    <polygon class="st2" points="480.4,292.4 480.5,292.4 543.5,292.4 511.6,235 480.3,292.3 &#9;"/>
    <polygon class="st2" points="480.2,292.4 480.4,292.4 480.3,292.3 &#9;"/>
    <polygon class="st2" points="673,292.4 609.1,292.4 608.5,292.4 641.2,348.9 642.1,348.9 673.1,292.4 &#9;"/>
    <polygon class="st1" points="704.4,235 639.9,235 673,292.3 &#9;"/>
    <polygon class="st1" points="673,292.3 639.9,235 673,292.4 &#9;"/>
    <polygon class="st3" points="642.1,348.9 705.7,348.9 673.1,292.4 &#9;"/>
    <polygon class="st1" points="735.8,177.6 704.4,235 769,235 &#9;"/>
    <polygon class="st2" points="769,235 704.4,235 737.6,292.4 &#9;"/>
    <polygon class="st2" points="706.6,348.9 770.2,348.9 737.6,292.4 &#9;"/>
    <polygon class="st2" points="832.9,234.6 800.3,177.9 769,235 832.7,235 &#9;"/>
    <polygon class="st2" points="833.1,234.3 800.4,177.6 800.3,177.9 832.9,234.6 &#9;"/>
    <polygon class="st2" points="833.2,235 832.9,234.6 832.7,235 833.1,235 &#9;"/>
    <polygon class="st2" points="833.5,235 833.3,234.7 833.2,235 &#9;"/>
    <polygon class="st2" points="833.3,234.7 833.1,234.3 832.9,234.6 833.2,235 &#9;"/>
    <polygon class="st1" points="832.9,235.4 832.7,235 769,235 801.9,292.1 &#9;"/>
    <polygon class="st1" points="832.7,235 832.9,235.4 833.1,235 &#9;"/>
    <polygon class="st1" points="833.1,235 833.3,235.4 833.5,235 833.2,235 &#9;"/>
    <polygon class="st1" points="771.1,348.9 834.4,348.9 802,292.7 &#9;"/>
    <polygon class="st2" points="737.6,292.4 704.4,235 673.1,292.4 &#9;"/>
    <polygon class="st1" points="673.1,292.4 705.7,348.9 706.6,348.9 737.6,292.4 &#9;"/>
    <polygon class="st3" points="801.8,292.4 801.9,292.1 769,235 737.6,292.4 &#9;"/>
    <polygon class="st2" points="801.8,292.4 737.6,292.4 770.2,348.9 771.1,348.9 802,292.7 &#9;"/>
    <polygon class="st3" points="802.1,292.4 865.8,292.4 833.1,235.7 &#9;"/>
    <polygon class="st3" points="865.8,292.4 866.3,292.4 866,292 &#9;"/>
    <polygon class="st3" points="833.3,235.4 833.1,235.7 865.8,292.4 866,292 &#9;"/>
    <polygon class="st3" points="833.1,235.7 832.9,235.4 801.9,292.1 802.1,292.4 &#9;"/>
    <polygon class="st3" points="833.3,235.4 833.1,235 832.9,235.4 833.1,235.7 &#9;"/>
    <polygon class="st3" points="801.9,292.1 801.8,292.4 802.1,292.4 &#9;"/>
    <polygon class="st3" points="802.1,292.4 834.8,348.9 865.8,292.4 &#9;"/>
    <polygon class="st3" points="866.1,292.8 866.3,292.4 865.8,292.4 &#9;"/>
    <polygon class="st3" points="865.8,292.4 834.8,348.9 835.3,348.9 866.1,292.8 &#9;"/>
    <polygon class="st3" points="802,292.7 834.4,348.9 834.8,348.9 802.1,292.4 &#9;"/>
    <polygon class="st3" points="802.1,292.4 801.8,292.4 802,292.7 &#9;"/>
    <polygon class="st3" points="160,177.6 95.4,177.6 126.8,235 &#9;"/>
    <polygon class="st1" points="223.9,177.6 223.6,177.6 223.7,177.9 &#9;"/>
    <polygon class="st1" points="0,121.2 0,177.6 30.9,177.6 &#9;"/>
    <polygon class="st2" points="0,177.6 0,231.2 30.9,177.6 &#9;"/>
    <polygon class="st1" points="158,292 126.8,235 93.7,292.4 157.7,292.4 &#9;"/>
    <polygon class="st2" points="157.7,292.4 93.7,292.4 124.7,348.9 125.5,348.9 157.9,292.8 &#9;"/>
    <polygon class="st2" points="95.4,177.6 62.3,235 126.8,235 &#9;"/>
    <polygon class="st3" points="126.8,235 62.3,235 93.7,292.4 &#9;"/>
    <polygon class="st3" points="61,348.9 124.6,348.9 93.6,292.5 &#9;"/>
    <polygon class="st1" points="30.9,177.6 0,231.2 0,235 62.3,235 &#9;"/>
    <polygon class="st2" points="0,235 0,239 29.2,292.3 62.3,235 &#9;"/>
    <polygon class="st1" points="29.1,292.4 0,342.8 0,348.9 60.1,348.9 &#9;"/>
    <polygon class="st1" points="190.5,235 190.7,234.7 160,177.6 126.8,235 &#9;"/>
    <polygon class="st1" points="190.9,234.3 160,177.6 190.7,234.7 &#9;"/>
    <polygon class="st2" points="190.7,235.4 190.5,235 126.8,235 158,292 &#9;"/>
    <polygon class="st1" points="125.6,348.9 188.7,348.9 157.9,292.8 &#9;"/>
    <polygon class="st1" points="125.5,348.9 125.6,348.9 157.9,292.8 &#9;"/>
    <polygon class="st1" points="29.2,292.3 29.1,292.4 29.2,292.4 &#9;"/>
    <polygon class="st1" points="93.6,292.4 93.7,292.4 62.3,235 29.2,292.4 &#9;"/>
    <polygon class="st1" points="62.3,235 29.2,292.3 29.2,292.4 &#9;"/>
    <polygon class="st3" points="93.7,292.4 93.6,292.4 93.6,292.5 &#9;"/>
    <polygon class="st3" points="61,348.9 93.6,292.4 29.2,292.4 29.1,292.4 60.1,348.9 &#9;"/>
    <polygon class="st3" points="93.6,292.4 61,348.9 61,348.9 93.6,292.5 &#9;"/>
    <polygon class="st3" points="0,239.3 0,292.4 29.1,292.4 &#9;"/>
    <polygon class="st2" points="0,292.4 0,342.8 29.1,292.4 &#9;"/>
    <polygon class="st1" points="415.8,292.4 383.2,348.9 446.8,348.9 &#9;"/>
    <polygon class="st2" points="480.4,292.5 447.9,348.9 511.5,348.9 491,311.5 &#9;"/>
    <polygon class="st3" points="491,311.5 480.5,292.4 480.4,292.5 &#9;"/>
    <polygon class="st3" points="447.7,348.9 480.4,292.4 480.2,292.4 415.8,292.4 446.8,348.9 &#9;"/>
    <polygon class="st1" points="415.5,292.4 384.1,235 351,292.4 &#9;"/>
    <polygon class="st1" points="351,292.3 350.9,292.4 351,292.4 &#9;"/>
    <polygon class="st2" points="350.9,292.4 381.9,348.9 382.8,348.9 415.5,292.4 351,292.4 &#9;"/>
    <polygon class="st1" points="384.1,235 319.6,235 351,292.3 &#9;"/>
    <polygon class="st1" points="351,292.4 384.1,235 351,292.3 &#9;"/>
    <polygon class="st3" points="318.3,348.9 381.9,348.9 350.9,292.4 &#9;"/>
    <polygon class="st1" points="288.2,177.6 255,235 319.6,235 &#9;"/>
    <polygon class="st2" points="319.6,235 255,235 286.4,292.4 &#9;"/>
    <polygon class="st2" points="253.8,348.9 317.4,348.9 286.4,292.4 &#9;"/>
    <polygon class="st2" points="191.3,235 255,235 223.7,177.9 191.1,234.6 &#9;"/>
    <polygon class="st2" points="191.1,234.6 223.7,177.9 223.6,177.6 190.9,234.3 &#9;"/>
    <polygon class="st2" points="190.9,235 191.3,235 191.1,234.6 190.8,235 &#9;"/>
    <polygon class="st2" points="190.7,234.7 190.5,235 190.8,235 &#9;"/>
    <polygon class="st2" points="191.1,234.6 190.9,234.3 190.7,234.7 190.8,235 &#9;"/>
    <polygon class="st1" points="191.1,235.4 222.1,292.1 255,235 191.3,235 &#9;"/>
    <polygon class="st1" points="191.1,235.4 191.3,235 190.9,235 &#9;"/>
    <polygon class="st1" points="190.9,235 190.8,235 190.5,235 190.7,235.4 &#9;"/>
    <polygon class="st1" points="189.6,348.9 252.9,348.9 222,292.7 &#9;"/>
    <polygon class="st2" points="350.9,292.4 319.6,235 286.4,292.4 &#9;"/>
    <polygon class="st1" points="286.4,292.4 317.4,348.9 318.3,348.9 350.9,292.4 &#9;"/>
    <polygon class="st3" points="222.2,292.4 286.4,292.4 255,235 222.1,292.1 &#9;"/>
    <polygon class="st2" points="222.2,292.4 222,292.7 252.9,348.9 253.8,348.9 286.4,292.4 &#9;"/>
    <polygon class="st3" points="158.2,292.4 221.9,292.4 190.9,235.7 &#9;"/>
    <polygon class="st3" points="157.7,292.4 158.2,292.4 158,292 &#9;"/>
    <polygon class="st3" points="190.7,235.4 158,292 158.2,292.4 190.9,235.7 &#9;"/>
    <polygon class="st3" points="221.9,292.4 222.1,292.1 191.1,235.4 190.9,235.7 &#9;"/>
    <polygon class="st3" points="190.7,235.4 190.9,235.7 191.1,235.4 190.9,235 &#9;"/>
    <polygon class="st3" points="222.2,292.4 222.1,292.1 221.9,292.4 &#9;"/>
    <polygon class="st3" points="158.2,292.4 189.2,348.9 221.9,292.4 &#9;"/>
    <polygon class="st3" points="157.9,292.8 158.2,292.4 157.7,292.4 &#9;"/>
    <polygon class="st3" points="157.9,292.8 188.7,348.9 189.2,348.9 158.2,292.4 &#9;"/>
    <polygon class="st3" points="221.9,292.4 189.2,348.9 189.6,348.9 222,292.7 &#9;"/>
    <polygon class="st3" points="222,292.7 222.2,292.4 221.9,292.4 &#9;"/>
  </g>
</svg>