<?xml version="1.0" encoding="utf-8"?>
<svg version="1.1" x="0px" y="0px" viewBox="0 0 541.8 349" xmlns="http://www.w3.org/2000/svg">
  <style type="text/css">
	.st0{fill:#FFEBF1;}
	.st1{fill:#F2F5F8;}
	.st2{fill:#FFFFFF;}
</style>
  <g>
    <polygon class="st0" points="413.9,178 382.7,235 349.7,178 "/>
    <polygon class="st1" points="349.7,178 319.1,235 286.2,178 "/>
    <polygon class="st1" points="351.5,292 382.7,235 415.6,292 "/>
    <polygon class="st2" points="415.6,292 384.4,349 351.5,292 "/>
    <polygon class="st2" points="382.7,235 413.9,178 446.8,235 "/>
    <polygon class="st0" points="446.8,235 415.6,292 382.7,235 "/>
    <polygon class="st0" points="384.5,349 415.7,292 448.6,349 "/>
    <polygon class="st1" points="446.8,235 478,178 510.9,235 "/>
    <polygon class="st2" points="510.9,235 479.7,292 446.8,235 "/>
    <polygon class="st1" points="448.6,349 479.8,292 512.7,349 "/>
    <polygon class="st1" points="318.6,235 349.7,178 382.7,235 "/>
    <polygon class="st2" points="382.7,235 351.5,292 318.6,235 "/>
    <polygon class="st1" points="320.3,349 351.5,292 384.5,349 "/>
    <polygon class="st1" points="415.6,292 446.8,235 479.8,292 "/>
    <polygon class="st0" points="479.8,292 448.6,349 415.6,292 "/>
    <polygon class="st2" points="64.3,349 95.5,292 128.4,349 "/>
    <polygon class="st1" points="0,349 31.2,292 64.1,349 "/>
    <polygon class="st0" points="95.5,292 64.3,349 31.3,292 "/>
    <polygon class="st1" points="95.8,292 127,235 160,292 "/>
    <polygon class="st0" points="160,292 128.8,349 95.8,292 "/>
    <polygon class="st1" points="191.1,235 159.9,292 127,235 "/>
    <polygon class="st0" points="128.8,349 160,292 192.9,349 "/>
    <polygon class="st1" points="191.1,235 222.3,178 255.3,235 "/>
    <polygon class="st2" points="255.3,235 224.1,292 191.1,235 "/>
    <polygon class="st2" points="192.9,349 224.1,292 257,349 "/>
    <polygon class="st2" points="255.3,235 286.5,178 319.4,235 "/>
    <polygon class="st1" points="319.4,235 288.2,292 255.3,235 "/>
    <polygon class="st1" points="257,349 288.2,292 321.2,349 "/>
    <polygon class="st2" points="160,292 191.1,235 224.1,292 "/>
    <polygon class="st1" points="224.1,292 192.9,349 160,292 "/>
    <polygon class="st0" points="224.1,292 255.3,235 288.2,292 "/>
    <polygon class="st2" points="288.2,292 257,349 224.1,292 "/>
    <polygon class="st0" points="287.9,292 319,235 352,292 "/>
    <polygon class="st0" points="352,292 320.8,349 287.9,292 "/>
    <polygon class="st1" points="541.2,176.5 509.2,121 478,178 541.2,178 &#9;"/>
    <polygon class="st2" points="478,178 510.9,235 541.2,179.6 541.2,178 &#9;"/>
    <polygon class="st0" points="541.2,121 509.2,121 509.2,121 541.2,176.5 &#9;"/>
    <polygon class="st1" points="541.2,179.6 510.9,235 541.2,235 &#9;"/>
    <polygon class="st0" points="541.2,287.4 541.2,235 510.9,235 511,235 511,235 &#9;"/>
    <polygon class="st1" points="512.7,349 541.2,349 541.2,296.9 &#9;"/>
    <polygon class="st0" points="541.2,287.4 511,235 511,235 479.8,292 541.2,292 &#9;"/>
    <polygon class="st2" points="479.8,292 512.7,349 541.2,296.9 541.2,292 &#9;"/>
  </g>
</svg>