<?xml version="1.0" encoding="utf-8"?>
<svg viewBox="0 0 541.8 349" preserveAspectRatio="xMinYMid" xmlns="http://www.w3.org/2000/svg">
  <path d="m413.9 178-31.2 57-33-57z" fill="#ffebf1"/>
  <path d="m349.7 178-30.6 57-32.9-57z" fill="#f2f5f8"/>
  <path d="m351.5 292 31.2-57 32.9 57z" fill="#f2f5f8"/>
  <path d="m415.6 292-31.2 57-32.9-57z" fill="#fff"/>
  <path d="m382.7 235 31.2-57 32.9 57z" fill="#fff"/>
  <path d="m446.8 235-31.2 57-32.9-57z" fill="#ffebf1"/>
  <path d="m384.5 349 31.2-57 32.9 57z" fill="#ffebf1"/>
  <path d="m446.8 235 31.2-57 32.9 57z" fill="#f2f5f8"/>
  <path d="m510.9 235-31.2 57-32.9-57z" fill="#fff"/>
  <path d="m448.6 349 31.2-57 32.9 57z" fill="#f2f5f8"/>
  <path d="m318.6 235 31.1-57 33 57z" fill="#f2f5f8"/>
  <path d="m382.7 235-31.2 57-32.9-57z" fill="#fff"/>
  <path d="m320.3 349 31.2-57 33 57z" fill="#f2f5f8"/>
  <path d="m415.6 292 31.2-57 33 57z" fill="#f2f5f8"/>
  <path d="m479.8 292-31.2 57-33-57z" fill="#ffebf1"/>
  <path d="m64.3 349 31.2-57 32.9 57z" fill="#fff"/>
  <path d="m0 349 31.2-57 32.9 57z" fill="#f2f5f8"/>
  <path d="m95.5 292-31.2 57-33-57z" fill="#ffebf1"/>
  <path d="m95.8 292 31.2-57 33 57z" fill="#f2f5f8"/>
  <path d="m160 292-31.2 57-33-57z" fill="#ffebf1"/>
  <path d="m191.1 235-31.2 57-32.9-57z" fill="#f2f5f8"/>
  <path d="m128.8 349 31.2-57 32.9 57z" fill="#ffebf1"/>
  <path d="m191.1 235 31.2-57 33 57z" fill="#f2f5f8"/>
  <path d="m255.3 235-31.2 57-33-57z" fill="#fff"/>
  <path d="m192.9 349 31.2-57 32.9 57z" fill="#fff"/>
  <path d="m255.3 235 31.2-57 32.9 57z" fill="#fff"/>
  <path d="m319.4 235-31.2 57-32.9-57z" fill="#f2f5f8"/>
  <path d="m257 349 31.2-57 33 57z" fill="#f2f5f8"/>
  <path d="m160 292 31.1-57 33 57z" fill="#fff"/>
  <path d="m224.1 292-31.2 57-32.9-57z" fill="#f2f5f8"/>
  <path d="m224.1 292 31.2-57 32.9 57z" fill="#ffebf1"/>
  <path d="m288.2 292-31.2 57-32.9-57z" fill="#fff"/>
  <path d="m287.9 292 31.1-57 33 57z" fill="#ffebf1"/>
  <path d="m352 292-31.2 57-32.9-57z" fill="#ffebf1"/>
  <path d="m541.2 176.5-32-55.5-31.2 57h63.2z" fill="#f2f5f8"/>
  <path d="m478 178 32.9 57 30.3-55.4v-1.6z" fill="#fff"/>
  <path d="m541.2 121h-32l32 55.5z" fill="#ffebf1"/>
  <path d="m541.2 179.6-30.3 55.4h30.3z" fill="#f2f5f8"/>
  <path d="m541.2 287.4v-52.4h-30.3.1z" fill="#ffebf1"/>
  <path d="m512.7 349h28.5v-52.1z" fill="#f2f5f8"/>
  <path d="m541.2 287.4-30.2-52.4-31.2 57h61.4z" fill="#ffebf1"/>
  <path d="m479.8 292 32.9 57 28.5-52.1v-4.9z" fill="#fff"/>
</svg>