<svg viewBox="0 0 25 25" xmlns="http://www.w3.org/2000/svg"><g fill-rule="evenodd"><path d="m17.51 3.81a10 10 0 0 0 -10.06 0 10.09 10.09 0 0 0 -3.68 3.66 10 10 0 0 0 0 10 10.19 10.19 0 0 0 3.68 3.67 9.8 9.8 0 0 0 5 1.35 9.8 9.8 0 0 0 5-1.35 10.17 10.17 0 0 0 3.67-3.67 9.68 9.68 0 0 0 1.36-5 9.71 9.71 0 0 0 -1.36-5 10.06 10.06 0 0 0 -3.61-3.66zm2 6-8.65 8.59a.66.66 0 0 1 -.45.2.5.5 0 0 1 -.41-.2l-4.57-4.55a.66.66 0 0 1 -.2-.45.51.51 0 0 1 .2-.41l1.16-1.15a.55.55 0 0 1 .4-.15.77.77 0 0 1 .46.15l3 3.06 7.14-7.08a.54.54 0 0 1 .4-.15.66.66 0 0 1 .46.2l1.07 1.13a.59.59 0 0 1 .2.45.46.46 0 0 1 -.2.38z" fill="#fff"/><path d="m18.72 1.73a12.54 12.54 0 0 1 4.55 4.54 12.31 12.31 0 0 1 0 12.45 12.61 12.61 0 0 1 -4.55 4.54 12.12 12.12 0 0 1 -6.24 1.68 12.12 12.12 0 0 1 -6.24-1.68 12.61 12.61 0 0 1 -4.55-4.54 12 12 0 0 1 -1.69-6.23 12 12 0 0 1 1.69-6.22 12.54 12.54 0 0 1 4.55-4.54 12 12 0 0 1 6.24-1.73 12 12 0 0 1 6.24 1.73zm-6.24.72a9.81 9.81 0 0 0 -5 1.36 10.09 10.09 0 0 0 -3.71 3.66 10 10 0 0 0 0 10 10.19 10.19 0 0 0 3.68 3.67 9.8 9.8 0 0 0 5 1.35 9.8 9.8 0 0 0 5-1.35 10.17 10.17 0 0 0 3.67-3.67 9.68 9.68 0 0 0 1.36-5 9.71 9.71 0 0 0 -1.36-5 10.06 10.06 0 0 0 -3.67-3.66 9.81 9.81 0 0 0 -4.97-1.36zm7 6.53a.59.59 0 0 1 .2.45.46.46 0 0 1 -.2.4l-8.65 8.59a.66.66 0 0 1 -.45.2.5.5 0 0 1 -.41-.2l-4.54-4.57a.66.66 0 0 1 -.2-.45.51.51 0 0 1 .2-.41l1.16-1.15a.55.55 0 0 1 .4-.15.77.77 0 0 1 .46.15l3 3.06 7.14-7.08a.54.54 0 0 1 .4-.15.66.66 0 0 1 .46.2" fill="#04c585"/></g></svg>