<svg id="Layer_1" data-name="Layer 1" xmlns="http://www.w3.org/2000/svg" viewBox="0 0 25 25"><defs><style>.cls-1{fill:#fff;}.cls-1,.cls-2{fill-rule:evenodd;}.cls-2{fill:#04c585;}</style></defs><title>alert-green-success-icon</title><path class="cls-1" d="M17.51,3.81a10,10,0,0,0-10.06,0A10.09,10.09,0,0,0,3.77,7.47a10,10,0,0,0,0,10,10.19,10.19,0,0,0,3.68,3.67,9.8,9.8,0,0,0,5,1.35,9.8,9.8,0,0,0,5-1.35,10.17,10.17,0,0,0,3.67-3.67,9.68,9.68,0,0,0,1.36-5,9.71,9.71,0,0,0-1.36-5A10.06,10.06,0,0,0,17.51,3.81Zm2,6-8.65,8.59a.66.66,0,0,1-.45.2.5.5,0,0,1-.41-.2L5.43,13.85a.66.66,0,0,1-.2-.45.51.51,0,0,1,.2-.41l1.16-1.15a.55.55,0,0,1,.4-.15.77.77,0,0,1,.46.15l3,3.06,7.14-7.08a.54.54,0,0,1,.4-.15.66.66,0,0,1,.46.2L19.52,9a.59.59,0,0,1,.2.45A.46.46,0,0,1,19.52,9.83Z"/><path class="cls-2" d="M18.72,1.73a12.54,12.54,0,0,1,4.55,4.54,12.31,12.31,0,0,1,0,12.45,12.61,12.61,0,0,1-4.55,4.54,12.12,12.12,0,0,1-6.24,1.68,12.12,12.12,0,0,1-6.24-1.68,12.61,12.61,0,0,1-4.55-4.54A12,12,0,0,1,0,12.49,12,12,0,0,1,1.69,6.27,12.54,12.54,0,0,1,6.24,1.73,12,12,0,0,1,12.48,0,12,12,0,0,1,18.72,1.73Zm-6.24.72a9.81,9.81,0,0,0-5,1.36A10.09,10.09,0,0,0,3.77,7.47a10,10,0,0,0,0,10,10.19,10.19,0,0,0,3.68,3.67,9.8,9.8,0,0,0,5,1.35,9.8,9.8,0,0,0,5-1.35,10.17,10.17,0,0,0,3.67-3.67,9.68,9.68,0,0,0,1.36-5,9.71,9.71,0,0,0-1.36-5,10.06,10.06,0,0,0-3.67-3.66A9.81,9.81,0,0,0,12.48,2.45Zm7,6.53a.59.59,0,0,1,.2.45.46.46,0,0,1-.2.4l-8.65,8.59a.66.66,0,0,1-.45.2.5.5,0,0,1-.41-.2L5.43,13.85a.66.66,0,0,1-.2-.45.51.51,0,0,1,.2-.41l1.16-1.15a.55.55,0,0,1,.4-.15.77.77,0,0,1,.46.15l3,3.06,7.14-7.08a.54.54,0,0,1,.4-.15.66.66,0,0,1,.46.2"/></svg>