<svg viewBox="0 0 25 25" xmlns="http://www.w3.org/2000/svg"><path d="m17.51 3.77a9.72 9.72 0 0 0 -5-1.36 9.72 9.72 0 0 0 -5 1.36 10.09 10.09 0 0 0 -3.74 3.66 10 10 0 0 0 0 10.05 10.19 10.19 0 0 0 3.68 3.67 9.8 9.8 0 0 0 5 1.35 9.8 9.8 0 0 0 5-1.35 10.17 10.17 0 0 0 3.67-3.67 9.68 9.68 0 0 0 1.36-5 9.74 9.74 0 0 0 -1.36-5 10.06 10.06 0 0 0 -3.61-3.71zm-3.51 14.23a1 1 0 0 1 -1 1h-1a1 1 0 0 1 -1-1v-6a1 1 0 0 1 1-1h1a1 1 0 0 1 1 1zm0-10a1 1 0 0 1 -1 1h-1a1 1 0 0 1 -1-1v-1a1 1 0 0 1 1-1h1a1 1 0 0 1 1 1z" fill="#fff"/><path d="m13 9h-1a1 1 0 0 1 -1-1v-1a1 1 0 0 1 1-1h1a1 1 0 0 1 1 1v1a1 1 0 0 1 -1 1zm0 10h-1a1 1 0 0 1 -1-1v-6a1 1 0 0 1 1-1h1a1 1 0 0 1 1 1v6a1 1 0 0 1 -1 1zm-.52-19a12.12 12.12 0 0 1 6.24 1.68 12.56 12.56 0 0 1 4.55 4.55 12.33 12.33 0 0 1 0 12.46 12.54 12.54 0 0 1 -4.55 4.54 12 12 0 0 1 -6.24 1.69 12 12 0 0 1 -6.24-1.69 12.54 12.54 0 0 1 -4.55-4.54 12 12 0 0 1 -1.69-6.23 12 12 0 0 1 1.69-6.23 12.56 12.56 0 0 1 4.55-4.55 12.12 12.12 0 0 1 6.24-1.68zm0 22.5a9.8 9.8 0 0 0 5-1.35 10.17 10.17 0 0 0 3.67-3.67 9.68 9.68 0 0 0 1.36-5 9.74 9.74 0 0 0 -1.36-5 10.06 10.06 0 0 0 -3.67-3.66 9.72 9.72 0 0 0 -5-1.36 9.72 9.72 0 0 0 -5 1.36 10.09 10.09 0 0 0 -3.71 3.61 10 10 0 0 0 0 10.05 10.19 10.19 0 0 0 3.68 3.67 9.8 9.8 0 0 0 5.03 1.35z" fill="#1e6fd6" fill-rule="evenodd"/></svg>