<?xml version="1.0" encoding="utf-8"?>
<svg id="Layer_1" data-name="Layer 1" viewBox="0 0 25 25" xmlns="http://www.w3.org/2000/svg">
  <defs>
    <style>.cls-1{fill:#fff;}.cls-1,.cls-2{fill-rule:evenodd;}.cls-2{fill:#04c585;}</style>
  </defs>
  <title>alert-green-success-icon</title>
  <path class="cls-2" d="M 18.72 1.73 C 20.605 2.822 22.174 4.387 23.27 6.27 C 25.523 10.114 25.523 14.876 23.27 18.72 C 22.171 20.601 20.603 22.165 18.72 23.26 C 16.83 24.374 14.674 24.955 12.48 24.94 C 10.286 24.955 8.13 24.374 6.24 23.26 C 4.357 22.165 2.789 20.601 1.69 18.72 C 0.568 16.837 -0.016 14.682 0 12.49 C -0.014 10.301 0.57 8.15 1.69 6.27 C 2.786 4.387 4.355 2.822 6.24 1.73 C 8.122 0.592 10.281 -0.006 12.48 0 C 14.679 -0.006 16.838 0.592 18.72 1.73 Z M 19.48 8.98 C 19.609 9.094 19.682 9.258 19.68 9.43 C 19.687 9.589 19.611 9.74 19.48 9.83 L 10.83 18.42 C 10.711 18.542 10.55 18.614 10.38 18.62 C 10.219 18.623 10.067 18.549 9.97 18.42 L 5.43 13.85 C 5.308 13.731 5.236 13.57 5.23 13.4 C 5.228 13.239 5.303 13.088 5.43 12.99 L 6.59 11.84 C 6.698 11.738 6.842 11.684 6.99 11.69 C 7.155 11.689 7.317 11.742 7.45 11.84 L 10.45 14.9 L 17.59 7.82 C 17.697 7.717 17.842 7.663 17.99 7.67 C 18.164 7.674 18.329 7.745 18.45 7.87 L 19.48 8.98 Z"/>
  <path class="cls-2" d="M 18.72 1.73 C 20.605 2.822 22.174 4.3870000000000005 23.27 6.27 C 25.523 10.114 25.523 14.876 23.27 18.72 C 22.171 20.601 20.603 22.165 18.72 23.26 C 16.83 24.374 14.674 24.955 12.48 24.94 C 10.286 24.955 8.13 24.374 6.24 23.26 C 4.357 22.165 2.7889999999999997 20.601 1.69 18.72 C 0.5680000000000001 16.837 -0.016 14.682 0 12.49 C -0.014 10.301 0.5700000000000001 8.15 1.69 6.27 C 2.786 4.3870000000000005 4.355 2.822 6.24 1.73 C 8.122 0.592 10.281 -0.006 12.48 0 C 14.679 -0.006 16.838 0.592 18.72 1.73 Z M 12.48 2.45 C 10.722 2.447 8.995 2.917 7.48 3.81 C 5.944 4.684 4.665 5.946 3.77 7.47 C 1.984 10.564 1.984 14.376 3.77 17.47 C 4.659 18.991 5.927 20.255 7.45 21.14 C 8.965 22.03 10.692 22.497 12.45 22.49 C 14.208 22.497 15.935 22.03 17.45 21.14 C 18.97 20.255 20.235 18.99 21.12 17.47 C 22.019 15.958 22.489 14.229 22.48 12.47 C 22.488 10.711 22.018 8.983 21.12 7.47 C 20.237 5.95 18.972 4.689 17.45 3.81 C 16.862000000000002 3.463 16.241 3.18 15.599 2.964 C 14.882 2.722 14.137 2.564 13.381 2.493 C 13.082 2.465 12.782 2.45 12.48 2.45 Z M 19.48 8.98 C 19.609 9.094 19.682 9.258 19.68 9.43 C 19.687 9.589 19.611 9.74 19.48 9.83 L 10.83 18.42 C 10.711 18.542 10.55 18.614 10.38 18.62 C 10.219 18.623 10.067 18.549 9.97 18.42 L 5.43 13.85 C 5.308 13.731 5.236 13.57 5.23 13.4 C 5.228 13.239 5.303 13.088 5.43 12.99 L 6.59 11.84 C 6.698 11.738 6.8420000000000005 11.684 6.99 11.69 C 7.155 11.689 7.317 11.742 7.45 11.84 L 10.45 14.9 L 17.59 7.82 C 17.697 7.717 17.842 7.663 17.99 7.67 C 18.164 7.6739999999999995 18.329 7.745 18.45 7.87 Z" transform="matrix(1, 0, 0, 1, 8.099232, 0.02988)" style="fill: rgb(4, 197, 133); fill-rule: evenodd; visibility: hidden;"/>
</svg>