<svg viewBox="0 0 60 60" xmlns="http://www.w3.org/2000/svg" xmlns:xlink="http://www.w3.org/1999/xlink"><linearGradient id="a" gradientTransform="matrix(1 0 0 -1 0 62)" gradientUnits="userSpaceOnUse" x1="30" x2="30" y1="7" y2="57"><stop offset="0" stop-color="#facfdc"/><stop offset="1" stop-color="#d2e2f7"/></linearGradient><g transform="matrix(1.2 0 0 1.2 -6 -6)"><circle cx="30" cy="30" fill="url(#a)" r="25"/><path d="m27 22.9-1 3.3 2.8-2c.4-.3 1-.3 1.5 0l2.8 2-1.1-3.3c-.2-.5 0-1.1.5-1.4l2.8-2.1h-3.5c-.5 0-1-.3-1.2-.9l-1.1-3.3-1.1 3.3c-.2.5-.7.9-1.2.9h-3.5l2.8 2.1c.5.3.7.8.5 1.4z" fill="none"/><path d="m19.729 31.565h-3.814v11.837h3.814z" fill="#ffecf1"/><path d="m44.2 34.4c-.7-.4-1.6-.5-2.4-.1l-5.8 2.8v-.5c0-1.3-1-2.4-2.4-2.5 0 0 0 0-.1 0h-5.5c-1.1 0-2.3-.2-3.4-.5l-3.7-1.1v-1.5c0-.4-.2-.7-.6-.7h-5c-.4 0-.7.3-.8.8v13.2c0 .4.4.7.8.7h5c.3 0 .6-.3.6-.6 0 0 0 0 0-.1v-1.6l.8.6c1.5 1.2 3.4 1.8 5.3 1.8h5c1.7 0 3.3-.5 4.7-1.5l7.6-5.2c.7-.4 1.1-1.2 1.1-2s-.5-1.6-1.2-2zm-24.6 9h-3.6v-11.8h3.6zm23.9-6.1-7.6 5.2c-1.2.8-2.5 1.2-3.9 1.2h-4.8c-1.6 0-3.2-.5-4.4-1.5l-1.7-1.3v-6.9l3.2 1c1.2.4 2.5.6 3.8.6h5.5c.6 0 1 .4 1 1v1.1h-.1c-1.9.5-3.8.6-5.8.4-.4-.1-.7.2-.8.6-.1.4.2.7.6.8.7.1 1.4.2 2.1.2 1.7 0 3.3-.3 4.9-.8h.1l6.8-3.3c.3-.2.7-.1 1 0 .3.2.5.5.5.9 0 .3-.1.6-.4.8z" fill="#0d1c3a"/><path d="m43.5 35.6c-.3-.2-.7-.2-1 0l-6.8 3.3h-.1c-1.6.5-3.3.8-4.9.8-.7 0-1.4 0-2.1-.2-.4-.1-.7-.4-.6-.8 0-.2.1-.3.3-.5.2-.1.3-.1.5-.1 1.9.3 3.9.1 5.8-.4h.1v-1.1c0-.6-.4-1-1-1h-5.5c-1.3 0-2.6-.2-3.8-.6l-3.2-1v6.8l1.7 1.3c1.3 1 2.8 1.5 4.4 1.5h4.7c1.4 0 2.8-.4 3.9-1.2l7.6-5.2c.3-.2.5-.5.5-.8s-.2-.7-.5-.8z" fill="#fff"/><path d="m21.2 19.6 4.2 3v.1l-1.6 4.9c-.1.4 0 .9.4 1.1.4.3.8.3 1.2 0l4.2-3 .1.1 4.1 3c.4.4 1.1.3 1.4-.1.2-.3.3-.7.2-1l-1.6-4.9h.1l4.1-3c.4-.3.5-.7.4-1.1s-.5-.7-1-.7h-5.2v-.1l-1.6-4.8c-.1-.4-.5-.7-1-.7s-.9.3-1 .7l-1.6 4.6h-5.2c-.5 0-.9.3-1 .7-.2.4 0 .9.4 1.2zm6-.5c.5 0 .9-.3 1-.7l1.3-4 1.3 4c.1.4.5.7 1 .7h4.2l-3.4 2.5c-.4.3-.5.7-.4 1.1l1.3 4-3.4-2.5c-.4-.3-.8-.3-1.2 0l-3.4 2.5 1.3-4c.1-.4 0-.9-.4-1.1l-3.4-2.5z" fill="#0d1c3a"/><path d="m26.8 22.8-1.3 4 3.4-2.5c.4-.3.8-.3 1.2 0l3.4 2.5-1.3-4c-.1-.4 0-.9.4-1.1l3.4-2.5h-4.2c-.5 0-.9-.3-1-.7l-1.3-4-1.3 4c-.1.4-.5.7-1 .7h-4.2l3.4 2.5c.4.2.5.7.4 1.1z" fill="#fff"/><g fill="#0d1c3a"><path d="m39 23.8-1.7-1c-.1-.1-.3-.1-.4-.1-.3 0-.6.2-.7.4-.2.4-.1.9.3 1.1l1.7 1c.1.1.3.1.4.1.5 0 .8-.4.8-.9 0-.1 0-.1 0-.2-.1-.1-.2-.3-.4-.4z"/><path d="m30.4 31v-2c0-.1 0-.3-.1-.4 0-.1-.1-.1-.1-.2-.2-.2-.4-.3-.6-.2-.5 0-.8.4-.8.8v1.9c0 .1 0 .3.1.4.2.4.8.6 1.2.3.1 0 .1-.1.2-.1 0-.1.1-.3.1-.5z"/><path d="m20.1 23.8 1.6-1c.1-.1.3-.1.4-.1.3 0 .6.2.7.4.2.4.1.9-.3 1.1l-1.6 1c-.1.1-.3.1-.4.1-.3 0-.6-.1-.7-.4-.1-.2-.2-.4-.1-.6s.2-.4.4-.5z"/><path d="m23.1 13.8 1.1 1.6c.1.1.2.2.3.3.1 0 .1.1.2.1.2 0 .4 0 .6-.1.4-.3.5-.8.2-1.2l-1.1-1.6c-.3-.4-.8-.5-1.2-.2-.2.1-.3.3-.4.5.2.2.2.4.3.6z"/><path d="m35.9 13.8-1.1 1.6c-.1.1-.2.2-.3.3l-.2.1c-.2 0-.4 0-.6-.1-.4-.3-.5-.8-.2-1.2l1.1-1.6c.1-.1.2-.2.3-.3.3-.1.6-.1.8.1.2.1.3.3.4.5 0 .2-.1.4-.2.6z"/></g></g></svg>