<?xml version="1.0" encoding="utf-8"?>
<svg version="1.1" x="0px" y="0px" viewBox="0 0 60 60" xmlns="http://www.w3.org/2000/svg">
  <style type="text/css">
	.st0{fill:url(#SVGID_1_);}
	.st1{fill:none;}
	.st2{fill:#0D1C3A;}
	.st3{fill:#FFECF1;}
	.st4{fill:#FFFFFF;}
</style>
  <title>breakthrough</title>
  <g id="Layer_6" transform="matrix(1.2, 0, 0, 1.2, -6, -6)">
    <linearGradient id="SVGID_1_" gradientUnits="userSpaceOnUse" x1="30" y1="7" x2="30" y2="57" gradientTransform="matrix(1 0 0 -1 0 62)">
      <stop offset="0" style="stop-color:#FACFDC"/>
      <stop offset="1" style="stop-color:#D2E2F7"/>
    </linearGradient>
    <circle class="st0" cx="30" cy="30" r="25"/>
    <path class="st1" d="M27,22.9l-1,3.3l2.8-2c0.4-0.3,1-0.3,1.5,0l2.8,2L32,22.9c-0.2-0.5,0-1.1,0.5-1.4l2.8-2.1h-3.5 c-0.5,0-1-0.3-1.2-0.9l-1.1-3.3l-1.1,3.3c-0.2,0.5-0.7,0.9-1.2,0.9h-3.5l2.8,2.1C27,21.8,27.2,22.3,27,22.9z"/>
    <path class="st3" d="M 19.729 31.565 L 15.915 31.565 L 15.915 43.402 L 19.729 43.402 L 19.729 31.565 Z" style=""/>
    <path class="st2" d="M44.2,34.4c-0.7-0.4-1.6-0.5-2.4-0.1L36,37.1v-0.5c0-1.3-1-2.4-2.4-2.5c0,0,0,0-0.1,0h-5.5 c-1.1,0-2.3-0.2-3.4-0.5l-3.7-1.1v-1.5c0-0.4-0.2-0.7-0.6-0.7c0,0,0,0,0,0h-5c-0.4,0-0.7,0.3-0.8,0.8v13.2c0,0.4,0.4,0.7,0.8,0.7h5 c0.3,0,0.6-0.3,0.6-0.6c0,0,0,0,0-0.1v-1.6l0.8,0.6c1.5,1.2,3.4,1.8,5.3,1.8H32c1.7,0,3.3-0.5,4.7-1.5l7.6-5.2 c0.7-0.4,1.1-1.2,1.1-2C45.4,35.6,44.9,34.8,44.2,34.4z M19.6,43.4h-3.6V31.6h3.6V43.4z M43.5,37.3l-7.6,5.2 c-1.2,0.8-2.5,1.2-3.9,1.2h-4.8c-1.6,0-3.2-0.5-4.4-1.5l-1.7-1.3V34l3.2,1c1.2,0.4,2.5,0.6,3.8,0.6h5.5c0.6,0,1,0.4,1,1v1.1h-0.1 c-1.9,0.5-3.8,0.6-5.8,0.4c-0.4-0.1-0.7,0.2-0.8,0.6c0,0,0,0,0,0c-0.1,0.4,0.2,0.7,0.6,0.8c0.7,0.1,1.4,0.2,2.1,0.2 c1.7,0,3.3-0.3,4.9-0.8h0.1l0,0l6.8-3.3c0.3-0.2,0.7-0.1,1,0c0.3,0.2,0.5,0.5,0.5,0.9C43.9,36.8,43.8,37.1,43.5,37.3z"/>
    <path class="st4" d="M43.5,35.6c-0.3-0.2-0.7-0.2-1,0l-6.8,3.3l0,0h-0.1c-1.6,0.5-3.3,0.8-4.9,0.8c-0.7,0-1.4,0-2.1-0.2 c-0.4-0.1-0.7-0.4-0.6-0.8c0-0.2,0.1-0.3,0.3-0.5c0.2-0.1,0.3-0.1,0.5-0.1c1.9,0.3,3.9,0.1,5.8-0.4h0.1v-1.1c0-0.6-0.4-1-1-1h-5.5 c-1.3,0-2.6-0.2-3.8-0.6l-3.2-1v6.8l1.7,1.3c1.3,1,2.8,1.5,4.4,1.5H32c1.4,0,2.8-0.4,3.9-1.2l7.6-5.2c0.3-0.2,0.5-0.5,0.5-0.8 C44,36.1,43.8,35.7,43.5,35.6z"/>
    <path class="st2" d="M21.2,19.6l4.2,3v0.1l-1.6,4.9c-0.1,0.4,0,0.9,0.4,1.1c0.4,0.3,0.8,0.3,1.2,0l4.2-3l0.1,0.1l4.1,3 c0.4,0.4,1.1,0.3,1.4-0.1c0.2-0.3,0.3-0.7,0.2-1l-1.6-4.9l0.1,0l4.1-3c0.4-0.3,0.5-0.7,0.4-1.1c-0.1-0.4-0.5-0.7-1-0.7h-5.2v-0.1 l-1.6-4.8c-0.1-0.4-0.5-0.7-1-0.7c-0.5,0-0.9,0.3-1,0.7L27,17.7h-5.2c-0.5,0-0.9,0.3-1,0.7C20.6,18.8,20.8,19.3,21.2,19.6 L21.2,19.6z M27.2,19.1c0.5,0,0.9-0.3,1-0.7l1.3-4l1.3,4c0.1,0.4,0.5,0.7,1,0.7H36l-3.4,2.5c-0.4,0.3-0.5,0.7-0.4,1.1l1.3,4 l-3.4-2.5c-0.4-0.3-0.8-0.3-1.2,0l-3.4,2.5l1.3-4c0.1-0.4,0-0.9-0.4-1.1L23,19.1L27.2,19.1z"/>
    <path class="st4" d="M26.8,22.8l-1.3,4l3.4-2.5c0.4-0.3,0.8-0.3,1.2,0l3.4,2.5l-1.3-4c-0.1-0.4,0-0.9,0.4-1.1l3.4-2.5h-4.2 c-0.5,0-0.9-0.3-1-0.7l-1.3-4l-1.3,4c-0.1,0.4-0.5,0.7-1,0.7H23l3.4,2.5C26.8,21.9,26.9,22.4,26.8,22.8z"/>
    <path class="st2" d="M39,23.8l-1.7-1c-0.1-0.1-0.3-0.1-0.4-0.1c-0.3,0-0.6,0.2-0.7,0.4c-0.2,0.4-0.1,0.9,0.3,1.1c0,0,0,0,0,0l1.7,1 c0.1,0.1,0.3,0.1,0.4,0.1c0.5,0,0.8-0.4,0.8-0.9c0-0.1,0-0.1,0-0.2C39.3,24.1,39.2,23.9,39,23.8z"/>
    <path class="st2" d="M30.4,31v-2c0-0.1,0-0.3-0.1-0.4c0-0.1-0.1-0.1-0.1-0.2c-0.2-0.2-0.4-0.3-0.6-0.2c-0.5,0-0.8,0.4-0.8,0.8 c0,0,0,0,0,0v1.9c0,0.1,0,0.3,0.1,0.4c0.2,0.4,0.8,0.6,1.2,0.3c0.1,0,0.1-0.1,0.2-0.1C30.3,31.4,30.4,31.2,30.4,31z"/>
    <path class="st2" d="M20.1,23.8l1.6-1c0.1-0.1,0.3-0.1,0.4-0.1c0.3,0,0.6,0.2,0.7,0.4c0.2,0.4,0.1,0.9-0.3,1.1c0,0,0,0,0,0l-1.6,1 c-0.1,0.1-0.3,0.1-0.4,0.1c-0.3,0-0.6-0.1-0.7-0.4c-0.1-0.2-0.2-0.4-0.1-0.6C19.8,24.1,19.9,23.9,20.1,23.8z"/>
    <path class="st2" d="M23.1,13.8l1.1,1.6c0.1,0.1,0.2,0.2,0.3,0.3c0.1,0,0.1,0.1,0.2,0.1c0.2,0,0.4,0,0.6-0.1 c0.4-0.3,0.5-0.8,0.2-1.2l-1.1-1.6c-0.3-0.4-0.8-0.5-1.2-0.2c-0.2,0.1-0.3,0.3-0.4,0.5C23,13.4,23,13.6,23.1,13.8z"/>
    <path class="st2" d="M35.9,13.8l-1.1,1.6c-0.1,0.1-0.2,0.2-0.3,0.3l-0.2,0.1c-0.2,0-0.4,0-0.6-0.1c-0.4-0.3-0.5-0.8-0.2-1.2 c0,0,0,0,0,0l1.1-1.6c0.1-0.1,0.2-0.2,0.3-0.3c0.3-0.1,0.6-0.1,0.8,0.1c0.2,0.1,0.3,0.3,0.4,0.5C36.1,13.4,36,13.6,35.9,13.8z"/>
  </g>
</svg>