<svg height="50" viewBox="0 0 50 50" width="50" xmlns="http://www.w3.org/2000/svg" xmlns:xlink="http://www.w3.org/1999/xlink"><linearGradient id="a" gradientUnits="userSpaceOnUse" x1="30" x2="30" y1="55" y2="5"><stop offset="0" stop-color="#facfdc"/><stop offset="1" stop-color="#d2e2f7"/></linearGradient><g transform="translate(-5 -5)"><circle cx="30" cy="30" fill="url(#a)" r="25"/><path d="m22.07 42.2h13.07v-3.66a.71.71 0 0 1 .71-.71h3.66v-20h-17.44zm3.76-21.2h10.24a.71.71 0 0 1 0 1.42h-10.24a.71.71 0 0 1 0-1.42zm0 3.68h10.24a.71.71 0 0 1 .71.71.7.7 0 0 1 -.71.7h-10.24a.7.7 0 0 1 -.71-.7.71.71 0 0 1 .71-.69zm0 3.68h10.24a.7.7 0 0 1 .71.7.71.71 0 0 1 -.71.71h-10.24a.71.71 0 0 1 -.71-.71.7.7 0 0 1 .71-.68zm0 3.67h10.24a.71.71 0 0 1 0 1.42h-10.24a.71.71 0 0 1 0-1.42zm0 3.68h5.17a.71.71 0 0 1 .7.71.7.7 0 0 1 -.7.7h-5.17a.7.7 0 0 1 -.71-.7.71.71 0 0 1 .71-.69z" fill="#fff"/><path d="m38.66 39.23.09-.08h-2.29v2.29zm-2.11 0h2l-2 2z" fill="#fff"/><path d="m36.55 39.25v1.95l1.96-1.95z" fill="#fff"/><g fill="#0d1c3a"><path d="m41.32 13.83h-8.32a.27.27 0 0 1 -.24-.16 2 2 0 0 0 -3.65 0 .25.25 0 0 1 -.24.16h-8.55a2.29 2.29 0 0 0 -2.32 2.29v6.64s.08 14.26.1 21.1a2.39 2.39 0 0 0 2.39 2.38h20.8a2.3 2.3 0 0 0 2.32-2.24v-27.88a2.3 2.3 0 0 0 -2.29-2.29zm-19.25 8.78v-4.47a.27.27 0 0 1 .27-.27h16.9a.27.27 0 0 1 .27.27v19.42a.27.27 0 0 1 -.27.27h-3.12a1 1 0 0 0 -1 1v3.12a.27.27 0 0 1 -.27.27h-12.51a.27.27 0 0 1 -.27-.27zm16.68 16.54-2.29 2.29v-2a.27.27 0 0 1 .26-.27z"/><path d="m25.83 22.44h10.24a.71.71 0 0 0 0-1.42h-10.24a.71.71 0 0 0 0 1.42z"/><path d="m25.83 26.11h10.24a.7.7 0 0 0 .71-.7.71.71 0 0 0 -.71-.71h-10.24a.71.71 0 0 0 -.71.71.7.7 0 0 0 .71.7z"/><path d="m25.83 29.79h10.24a.71.71 0 0 0 .71-.71.7.7 0 0 0 -.71-.7h-10.24a.7.7 0 0 0 -.71.7.71.71 0 0 0 .71.71z"/><path d="m25.83 33.47h10.24a.71.71 0 0 0 0-1.42h-10.24a.71.71 0 0 0 0 1.42z"/><path d="m25.83 37.14h5.17a.7.7 0 0 0 .7-.7.71.71 0 0 0 -.7-.71h-5.17a.71.71 0 0 0 -.71.71.7.7 0 0 0 .71.7z"/></g><circle cx="15.6" cy="40.91" fill="#fff" r="2.27"/><path d="m15.6 43.88a3 3 0 1 1 3-3 3 3 0 0 1 -3 3zm0-4.53a1.57 1.57 0 1 0 1.56 1.56 1.56 1.56 0 0 0 -1.56-1.56z" fill="#0d1c3a"/><circle cx="21.1" cy="45.31" fill="#ffecf1" r="2.3"/><path d="m21.1 48.31a3 3 0 1 1 3-3 3 3 0 0 1 -3 3zm0-4.61a1.61 1.61 0 1 0 1.6 1.61 1.61 1.61 0 0 0 -1.6-1.61z" fill="#0d1c3a"/><circle cx="19.09" cy="42.31" fill="#ffecf1" r="3.3"/><path d="m19.09 46.32a4 4 0 1 1 4-4 4 4 0 0 1 -4 4zm0-6.61a2.61 2.61 0 1 0 2.61 2.6 2.6 2.6 0 0 0 -2.61-2.6z" fill="#0d1c3a"/><path d="m25.74 35.35a1.9 1.9 0 0 0 -3.64-.76 3.58 3.58 0 0 0 -1.23-.23 3.73 3.73 0 0 0 -3.45 2.33 1.87 1.87 0 0 0 -1.42-.69 1.9 1.9 0 1 0 0 3.8 1.87 1.87 0 0 0 1.35-.56 3.73 3.73 0 0 0 7.26-1.18 3.77 3.77 0 0 0 -.14-1 1.9 1.9 0 0 0 1.27-1.71z" fill="#ffecf1"/><path d="m20.87 42.53a4.4 4.4 0 0 1 -3.81-2.21 2.55 2.55 0 0 1 -1.06.22 2.6 2.6 0 1 1 1.19-4.91 4.33 4.33 0 0 1 4.59-1.86 2.6 2.6 0 1 1 3.48 3.76 3.66 3.66 0 0 1 0 .57 4.44 4.44 0 0 1 -4.39 4.43zm-3.22-4.53.35 1.06a3 3 0 0 0 5.9-1 3 3 0 0 0 -.12-.78l-.16-.62.61-.22a1.2 1.2 0 1 0 -1.5-1.61l-.26.59-.61-.21a2.89 2.89 0 0 0 -1-.19 3 3 0 0 0 -2.79 1.98zm-1.65-1.26a1.2 1.2 0 1 0 0 2.4 1.19 1.19 0 0 0 .85-.35l.79-.8-.74-.84a1.19 1.19 0 0 0 -.9-.41z" fill="#0d1c3a"/><circle cx="20.3" cy="35.67" fill="#fff" r="2.51"/><path d="m20.3 38.88a3.21 3.21 0 1 1 3.21-3.21 3.21 3.21 0 0 1 -3.21 3.21zm0-5a1.81 1.81 0 1 0 1.81 1.81 1.81 1.81 0 0 0 -1.81-1.83z" fill="#0d1c3a"/><circle cx="19.04" cy="39.39" fill="#fff" r="2.4"/><path d="m19 42.49a3.1 3.1 0 1 1 3.1-3.1 3.1 3.1 0 0 1 -3.1 3.1zm0-4.8a1.7 1.7 0 1 0 1.7 1.7 1.7 1.7 0 0 0 -1.7-1.7z" fill="#0d1c3a"/><circle cx="25.13" cy="43.01" fill="#fff" r="2.87"/><path d="m25.13 46.58a3.57 3.57 0 1 1 3.57-3.58 3.58 3.58 0 0 1 -3.57 3.58zm0-5.74a2.17 2.17 0 1 0 2.17 2.16 2.18 2.18 0 0 0 -2.17-2.16z" fill="#0d1c3a"/><circle cx="27.17" cy="40.91" fill="#ffecf1" r="2.27"/><path d="m27.17 43.88a3 3 0 1 1 3-3 3 3 0 0 1 -3 3zm0-4.53a1.57 1.57 0 1 0 1.56 1.56 1.57 1.57 0 0 0 -1.56-1.56z" fill="#0d1c3a"/><circle cx="27.15" cy="37.83" fill="#fff" r="1.97"/><path d="m27.15 40.5a2.67 2.67 0 1 1 2.67-2.67 2.68 2.68 0 0 1 -2.67 2.67zm0-3.94a1.27 1.27 0 1 0 1.27 1.27 1.27 1.27 0 0 0 -1.27-1.27z" fill="#0d1c3a"/><circle cx="24.28" cy="39.61" fill="#ffecf1" r="2.84"/><path d="m24.28 43.16a3.55 3.55 0 1 1 3.54-3.54 3.55 3.55 0 0 1 -3.54 3.54zm0-5.69a2.15 2.15 0 1 0 2.14 2.15 2.14 2.14 0 0 0 -2.14-2.15z" fill="#0d1c3a"/><circle cx="21.56" cy="41.75" fill="#fff" r="2.1"/><path d="m21.56 44.55a2.8 2.8 0 1 1 2.8-2.8 2.8 2.8 0 0 1 -2.8 2.8zm0-4.2a1.4 1.4 0 1 0 1.4 1.4 1.4 1.4 0 0 0 -1.4-1.4z" fill="#0d1c3a"/></g></svg>