<svg viewBox="0 0 350 340" xmlns="http://www.w3.org/2000/svg"><g fill="#707070" transform="matrix(.772454 0 0 .772454 -29.198742 -39.395126)"><path d="m476.2 326.3c-9.8-16.7-23.3-30.2-40.1-40.1-6.5-3.8-13.5-7-20.8-9.4l-5.3-1.8 34.4-94.5v-1.1c0-11.6-6.8-19.7-16.6-19.7h-24.1v-43c0-10-8.1-18.1-18.1-18.1h-168.3l-34-47.6h-127.4c-10 0-18.1 8.1-18.1 18.1v298.6l.4 1.8c.6 2.6 1.6 4.8 3 6.6l.1.1c3.2 4.2 8.1 6.7 13.5 6.7h216.3l.3 5c1 17.2 5.9 33.4 14.7 48.3 9.8 16.7 23.3 30.2 40.1 40.1 16.8 9.8 35.3 14.8 54.9 14.8 19.7 0 38.1-5 54.9-14.8 16.7-9.8 30.2-23.3 40.1-40.1 9.8-16.8 14.8-35.3 14.8-54.9.1-20.1-4.7-38.1-14.7-55zm-425.7-257.3c0-3 2.4-5.4 5.4-5.4h120.8l34 47.6h174.9c3 0 5.4 2.4 5.4 5.4v43h-267c-1 0-1.9.1-2.6.2h-.2c-6.3 1.1-11.7 5.7-13.4 11.6l-.1.4-57.2 155.6zm221.9 296.5-.6 4.6h-223l72.1-197.8h310.7v6.4l-34.2 93.7-4.1-.4c-.5 0-.9-.1-1.4-.1-3.8-.4-7.3-.5-10.8-.5-19.7 0-38.1 5-54.9 14.8-16.7 9.8-30.2 23.3-40.1 40.1-7.1 12-11.6 24.9-13.6 38.5 0 .2 0 .5-.1.7zm193.6 64.8c-8.9 15.1-20.9 27.1-35.8 35.8-14.9 8.8-31.5 13.3-49.1 13.3s-34.2-4.5-49.1-13.3c-15.1-8.9-27.1-20.9-35.8-35.8-7.6-13-12-27-13-41.8v-.2c-.1-1.1-.2-2.3-.2-3.5v-.2c0-.5 0-1 0-1.5 0-.6 0-1.3 0-1.9 0-1.2 0-2.6.1-4v-1.1c0-.5.1-.9.1-1.4s0-1.1.1-1.6v-.9c.3-2.5.6-5 1-7.3 0-.3.1-.6.1-.9 2-11.2 5.9-21.9 11.8-31.9 8.9-15.1 20.9-27.1 35.8-35.8 14.9-8.8 31.5-13.3 49.1-13.3h2.6 2.3.5c.4 0 .8.1 1.3.1h.2c.5 0 1.1 0 1.6.1l2.9.3c.6.1 1.1.1 1.7.2.3 0 .7.1 1 .1h.2l.6.1c.4.1.8.1 1.1.2.4.1.8.1 1.2.2l.6.1c.8.1 1.6.3 2.4.4l.5.1c.6.1 1.1.2 1.7.4.2.1.5.1.7.2h.3l.7.2c.4.1.8.2 1.2.3.5.1 1 .2 1.6.4 1.2.3 2.2.6 3.2 1 6.8 2.2 13.3 5.1 19.3 8.7 15.1 8.9 27.1 20.9 35.7 35.8 8.8 14.9 13.3 31.5 13.3 49.1-.2 17.9-4.5 34.1-13.5 49.3z"/><path d="m424.6 348.2v-.1l-10.4-10.4h-.1c-.3 0-.5 0-.7.1l-32.3 32.3-18.2-18.2-14-14c-.3-.2-.6-.3-.9-.2l-10.4 10.3v.1c0 .3 0 .5.1.7l15.9 15.9 16.4 16.4-6.5 6.5-25.8 25.8c-.1.2-.2.4-.2.7v.1l10.4 10.4h.1c.3 0 .5 0 .7-.1l32.3-32.3 32.3 32.3c.2.1.4.2.7.2h.1l10.4-10.4v-.1c0-.3 0-.5-.1-.7l-32.3-32.3 32.3-32.3c.1-.2.2-.5.2-.7z"/></g></svg>