<?xml version="1.0" encoding="utf-8"?>
<svg version="1.1" x="0px" y="0px" viewBox="0 0 350 340" xmlns="http://www.w3.org/2000/svg">
  <style type="text/css">
	.st0{fill:#707070;}
</style>
  <g transform="matrix(0.772454, 0, 0, 0.772454, -29.198742, -39.395126)">
    <path class="st0" d="M476.2,326.3L476.2,326.3c-9.8-16.7-23.3-30.2-40.1-40.1c-6.5-3.8-13.5-7-20.8-9.4L410,275l34.4-94.5v-1.1 c0-11.6-6.8-19.7-16.6-19.7h-24.1v-43c0-10-8.1-18.1-18.1-18.1l-168.3,0l-34-47.6L55.9,51c-10,0-18.1,8.1-18.1,18.1l0,298.6 l0.4,1.8c0.6,2.6,1.6,4.8,3,6.6l0.1,0.1c3.2,4.2,8.1,6.7,13.5,6.7l216.3,0l0.3,5c1,17.2,5.9,33.4,14.7,48.3 c9.8,16.7,23.3,30.2,40.1,40.1c16.8,9.8,35.3,14.8,54.9,14.8c19.7,0,38.1-5,54.9-14.8c16.7-9.8,30.2-23.3,40.1-40.1 c9.8-16.8,14.8-35.3,14.8-54.9C491,361.2,486.2,343.2,476.2,326.3z M50.5,69c0-3,2.4-5.4,5.4-5.4l120.8,0l34,47.6l174.9,0 c3,0,5.4,2.4,5.4,5.4v43l-267,0c-1,0-1.9,0.1-2.6,0.2l-0.2,0c-6.3,1.1-11.7,5.7-13.4,11.6l-0.1,0.4L50.5,327.4L50.5,69z M272.4,365.5l-0.6,4.6l-223,0l72.1-197.8l310.7,0v6.4l-34.2,93.7l-4.1-0.4c-0.5,0-0.9-0.1-1.4-0.1c-3.8-0.4-7.3-0.5-10.8-0.5 c-19.7,0-38.1,5-54.9,14.8c-16.7,9.8-30.2,23.3-40.1,40.1c-7.1,12-11.6,24.9-13.6,38.5C272.5,365,272.5,365.3,272.4,365.5z M466,430.3L466,430.3c-8.9,15.1-20.9,27.1-35.8,35.8c-14.9,8.8-31.5,13.3-49.1,13.3c-17.6,0-34.2-4.5-49.1-13.3 c-15.1-8.9-27.1-20.9-35.8-35.8c-7.6-13-12-27-13-41.8l0-0.2c-0.1-1.1-0.2-2.3-0.2-3.5v-0.2c0-0.5,0-1,0-1.5c0-0.6,0-1.3,0-1.9 c0-1.2,0-2.6,0.1-4l0-1.1c0-0.5,0.1-0.9,0.1-1.4c0-0.5,0-1.1,0.1-1.6l0-0.9c0.3-2.5,0.6-5,1-7.3c0-0.3,0.1-0.6,0.1-0.9 c2-11.2,5.9-21.9,11.8-31.9c8.9-15.1,20.9-27.1,35.8-35.8c14.9-8.8,31.5-13.3,49.1-13.3c0.8,0,1.7,0,2.6,0c0.8,0,1.5,0,2.3,0l0.5,0 c0.4,0,0.8,0.1,1.3,0.1c0.1,0,0.1,0,0.2,0c0.5,0,1.1,0,1.6,0.1l2.9,0.3c0.6,0.1,1.1,0.1,1.7,0.2c0.3,0,0.7,0.1,1,0.1h0.2l0.6,0.1 c0.4,0.1,0.8,0.1,1.1,0.2c0.4,0.1,0.8,0.1,1.2,0.2l0.6,0.1c0.8,0.1,1.6,0.3,2.4,0.4h0l0.5,0.1c0.6,0.1,1.1,0.2,1.7,0.4 c0.2,0.1,0.5,0.1,0.7,0.2h0.3l0.7,0.2c0.4,0.1,0.8,0.2,1.2,0.3c0.5,0.1,1,0.2,1.6,0.4c1.2,0.3,2.2,0.6,3.2,1 c6.8,2.2,13.3,5.1,19.3,8.7c15.1,8.9,27.1,20.9,35.7,35.8c8.8,14.9,13.3,31.5,13.3,49.1C479.3,398.9,475,415.1,466,430.3z"/>
    <path class="st0" d="M424.6,348.2c0,0,0-0.1,0-0.1l-10.4-10.4c0,0-0.1,0-0.1,0c-0.3,0-0.5,0-0.7,0.1l-32.3,32.3l0,0l-18.2-18.2 l-14-14c-0.3-0.2-0.6-0.3-0.9-0.2L337.6,348c0,0,0,0.1,0,0.1c0,0.3,0,0.5,0.1,0.7l15.9,15.9l16.4,16.4l-6.5,6.5l0,0l-25.8,25.8 c-0.1,0.2-0.2,0.4-0.2,0.7c0,0,0,0.1,0,0.1l10.4,10.4c0,0,0.1,0,0.1,0c0.3,0,0.5,0,0.7-0.1l32.3-32.3l32.3,32.3 c0.2,0.1,0.4,0.2,0.7,0.2c0,0,0.1,0,0.1,0l10.4-10.4c0,0,0-0.1,0-0.1c0-0.3,0-0.5-0.1-0.7l-32.3-32.3l32.3-32.3 C424.5,348.7,424.6,348.4,424.6,348.2z"/>
  </g>
</svg>