<svg viewBox="0 0 60 49" xmlns="http://www.w3.org/2000/svg"><path d="m57.49 16h-3.49v-6.268c0-1.507-1.226-2.732-2.732-2.732h-24.753l-5-7h-18.783c-1.506 0-2.732 1.226-2.732 2.732v43.687h.006c-.005.563.17 1.114.522 1.575.49.64 1.232 1.006 2.037 1.006h44.759c1.156 0 2.174-.779 2.45-1.813l10.226-28.038v-.177c0-1.722-1.056-2.972-2.51-2.972zm-55.49-13.268c0-.404.329-.732.732-.732h17.753l5 7h25.782c.404 0 .732.328.732.732v6.268h-39.268c-.144 0-.287.012-.426.036-.973.163-1.782.873-2.023 1.776l-8.282 22.587zm45.869 43.851c-.066.245-.291.417-.545.417h-44.759c-.243 0-.385-.139-.448-.222-.063-.082-.16-.256-.123-.408l10.191-27.953c.066-.245.291-.417.545-.417h41.27 3.49c.38 0 .477.546.502.819z" fill="#707070"/></svg>