<?xml version="1.0" encoding="utf-8"?>
<svg version="1.1" x="0px" y="0px" viewBox="0 0 60 49" xmlns="http://www.w3.org/2000/svg">
  <path d="M 57.49 16 L 54 16 L 54 9.732 C 54 8.225 52.774 7 51.268 7 L 26.515 7 L 21.515 0 L 2.732 0 C 1.226 0 0 1.226 0 2.732 L 0 46.419 L 0.006 46.419 C 0.001 46.982 0.176 47.533 0.528 47.994 C 1.018 48.634 1.76 49 2.565 49 L 47.324 49 C 48.48 49 49.498 48.221 49.774 47.187 L 60 19.149 L 60 18.972 C 60 17.25 58.944 16 57.49 16 Z M 2 2.732 C 2 2.328 2.329 2 2.732 2 L 20.485 2 L 25.485 9 L 51.267 9 C 51.671 9 51.999 9.328 51.999 9.732 L 51.999 16 L 12.731 16 C 12.587 16 12.444 16.012 12.305 16.036 C 11.332 16.199 10.523 16.909 10.282 17.812 L 2 40.399 L 2 2.732 Z M 47.869 46.583 C 47.803 46.828 47.578 47 47.324 47 L 2.565 47 C 2.322 47 2.18 46.861 2.117 46.778 C 2.054 46.696 1.957 46.522 1.994 46.37 L 12.185 18.417 C 12.251 18.172 12.476 18 12.73 18 L 54 18 L 57.49 18 C 57.87 18 57.967 18.546 57.992 18.819 L 47.869 46.583 Z" style="fill: rgb(112, 112, 112);"/>
</svg>