<svg viewBox="0 0 50 50" xmlns="http://www.w3.org/2000/svg" xmlns:xlink="http://www.w3.org/1999/xlink"><linearGradient id="a" gradientUnits="userSpaceOnUse" x1="25" x2="25" y1="50" y2="0"><stop offset="0" stop-color="#facfdc"/><stop offset="1" stop-color="#d2e2f7"/></linearGradient><circle cx="25" cy="25" fill="url(#a)" r="25"/><g fill="#0d1c3a"><path d="m30.17 36h-2.15v-15.73c.006-.461-.369-.836-.83-.83h-6.4c-.461-.006-.836.369-.83.83v3.3c-.006.461.369.836.83.83h2v11.6h-2c-.461-.006-.836.369-.83.83v3.3c-.011.465.365.846.83.84h9.39c.465.006.841-.375.83-.84v-3.3c-.021-.453-.386-.815-.84-.83z"/><circle cx="25" cy="12.54" r="4"/></g></svg>