<?xml version="1.0" encoding="utf-8"?>
<svg viewBox="0 0 60 60" xmlns="http://www.w3.org/2000/svg">
  <defs>
    <style>.cls-1{fill:url(#New_Gradient_Swatch_2);}.cls-2{fill:#fff;}.cls-3{fill:#ffecf1;}.cls-4{fill:#0d1c3a;}</style>
    <linearGradient id="New_Gradient_Swatch_2" x1="30" y1="55.19" x2="30" y2="5.19" gradientUnits="userSpaceOnUse">
      <stop offset="0" stop-color="#facfdc"/>
      <stop offset="1" stop-color="#d2e2f7"/>
    </linearGradient>
  </defs>
  <title>one-idea-icon copy</title>
  <g id="Layer_6" data-name="Layer 6" transform="matrix(1.2, 0, 0, 1.2, -6, -6.228001)">
    <circle class="cls-1" cx="30" cy="30.19" r="25"/>
    <path class="cls-2" d="M42.45,20H17.55a1.85,1.85,0,0,0-1.84,1.84V38.51a1.86,1.86,0,0,0,1.84,1.85h24.9a1.86,1.86,0,0,0,1.84-1.85V21.87A1.85,1.85,0,0,0,42.45,20ZM28.22,36.35h-9.1a.79.79,0,0,1-.78-.78,5.57,5.57,0,0,1,1.56-3.93,5.27,5.27,0,0,1,1.87-1.22,3.5,3.5,0,1,1,3.8,0,5,5,0,0,1,1.87,1.21A5.53,5.53,0,0,1,29,35.57.78.78,0,0,1,28.22,36.35Zm12.62-1.18H33.2a.78.78,0,0,1,0-1.56h7.64a.78.78,0,1,1,0,1.56Zm0-4.2H33.2a.78.78,0,1,1,0-1.56h7.64a.78.78,0,1,1,0,1.56Zm0-4.19H33.2a.78.78,0,0,1,0-1.56h7.64a.78.78,0,1,1,0,1.56Z"/>
    <path class="cls-3" d="M23.67,29.44a1.95,1.95,0,1,0-2-2A2,2,0,0,0,23.67,29.44Z"/>
    <path class="cls-3" d="M23.67,31.62A3.8,3.8,0,0,0,21,32.73a3.94,3.94,0,0,0-1,2.06h7.4a3.94,3.94,0,0,0-1-2.06A3.8,3.8,0,0,0,23.67,31.62Z"/>
    <path class="cls-4" d="M25.57,30.43a3.52,3.52,0,1,0-3.8,0,5.27,5.27,0,0,0-1.87,1.22,5.57,5.57,0,0,0-1.56,3.93.79.79,0,0,0,.78.78h9.1a.78.78,0,0,0,.78-.78,5.53,5.53,0,0,0-1.56-3.93A5,5,0,0,0,25.57,30.43Zm-3.85-2.94a2,2,0,1,1,2,2A1.95,1.95,0,0,1,21.72,27.49ZM20,34.79a3.94,3.94,0,0,1,1-2.06,3.74,3.74,0,0,1,5.32,0,3.94,3.94,0,0,1,1,2.06Z"/>
    <path class="cls-4" d="M42.45,18.47H17.55a3.41,3.41,0,0,0-3.4,3.4V38.51a3.41,3.41,0,0,0,3.4,3.41h24.9a3.41,3.41,0,0,0,3.4-3.41V21.87A3.41,3.41,0,0,0,42.45,18.47Zm1.84,20a1.86,1.86,0,0,1-1.84,1.85H17.55a1.86,1.86,0,0,1-1.84-1.85V21.87A1.85,1.85,0,0,1,17.55,20h24.9a1.85,1.85,0,0,1,1.84,1.84Z"/>
    <path class="cls-4" d="M40.84,29.41H33.2a.78.78,0,1,0,0,1.56h7.64a.78.78,0,1,0,0-1.56Z"/>
    <path class="cls-4" d="M40.84,33.61H33.2a.78.78,0,0,0,0,1.56h7.64a.78.78,0,1,0,0-1.56Z"/>
    <path class="cls-4" d="M40.84,25.22H33.2a.78.78,0,0,0,0,1.56h7.64a.78.78,0,1,0,0-1.56Z"/>
  </g>
</svg>