<svg viewBox="0 0 60 60" xmlns="http://www.w3.org/2000/svg" xmlns:xlink="http://www.w3.org/1999/xlink"><linearGradient id="a" gradientUnits="userSpaceOnUse" x1="30" x2="30" y1="55" y2="5"><stop offset="0" stop-color="#facfdc"/><stop offset="1" stop-color="#d2e2f7"/></linearGradient><g transform="matrix(1.2 0 0 1.2 -6 -6)"><circle cx="30" cy="30" fill="url(#a)" r="25"/><path d="m30.89 38.23h-.08v-1.34a2.59 2.59 0 0 0 -2.58-2.58h-9.79a2.59 2.59 0 0 0 -2.58 2.58v1.31h-.08a2.71 2.71 0 0 0 -1.78 2.58v2a.81.81 0 0 0 .81.82h17.06a.82.82 0 0 0 .82-.82v-2a2.71 2.71 0 0 0 -1.8-2.55zm-13.39-1.34a1 1 0 0 1 .94-1h9.79a1 1 0 0 1 .94 1v1.19h-11.67zm13.56 5.11h-15.45v-1.22a1.07 1.07 0 0 1 1.07-1.07h13.32a1.07 1.07 0 0 1 1.07 1.07z" fill="#0d1c3a"/><path d="m28.23 35.94h-9.79a1 1 0 0 0 -.94 1v1.19h11.67v-1.24a1 1 0 0 0 -.94-.95z" fill="#fff"/><path d="m30 39.71h-13.32a1.07 1.07 0 0 0 -1.07 1.07v1.22h15.45v-1.22a1.07 1.07 0 0 0 -1.06-1.07z" fill="#fff"/><path d="m45.33 36.88-8.87-11.79.06-.08a11.24 11.24 0 0 0 1.27-2l.05-.1h.11a2.7 2.7 0 0 0 2.67-.33 2.64 2.64 0 0 0 1.05-1.78 2.7 2.7 0 0 0 -.51-2l-4.54-6a2.68 2.68 0 0 0 -1.78-1 2.7 2.7 0 0 0 -3.05 3v.12h-.12a11 11 0 0 0 -8 6.06l-.06.11-.1-.05a2.69 2.69 0 0 0 -2.68.33 2.73 2.73 0 0 0 -1.05 1.78 2.69 2.69 0 0 0 .52 2l4.53 6a2.7 2.7 0 0 0 4.84-1.94v-.12h.11a10.89 10.89 0 0 0 2.31-.66h.09l.06.08 8.76 11.61a2.71 2.71 0 0 0 3.78.54 2.7 2.7 0 0 0 .55-3.78zm-11.5-23.33a1.05 1.05 0 0 1 .79-.2 1.08 1.08 0 0 1 .7.41l4.53 6a1.07 1.07 0 0 1 .2.79 1 1 0 0 1 -.41.71 1.07 1.07 0 0 1 -1.49-.21l-4.54-6a1.07 1.07 0 0 1 -.2-.79 1.05 1.05 0 0 1 .42-.71zm-6.23 16.79a1.09 1.09 0 0 1 -.64.21 1.06 1.06 0 0 1 -.85-.42l-4.53-6a1 1 0 0 1 -.21-.79 1.07 1.07 0 0 1 1.91-.49l4.53 6a1 1 0 0 1 -.21 1.49zm1.32-2.84h-.07l-.05-.06-3.94-5.24v-.06a9.34 9.34 0 0 1 7.63-5.74h.07l1.15 1.53 2.84 3.77v.07a9.36 9.36 0 0 1 -7.63 5.73zm4.7.08.11-.07a10.94 10.94 0 0 0 1.49-1.12l.11-.09 1.41 1.88-1.74 1.28zm10.2 11.77a1 1 0 0 1 -.64.22 1.07 1.07 0 0 1 -.86-.43l-6.32-8.38 1.7-1.28 6.3 8.38a1.07 1.07 0 0 1 -.18 1.49z" fill="#0d1c3a"/><path d="m27.81 28.85-4.53-6a1.07 1.07 0 0 0 -1.91.49 1 1 0 0 0 .21.79l4.53 6a1.06 1.06 0 0 0 .85.42 1.09 1.09 0 0 0 .64-.21 1 1 0 0 0 .21-1.49z" fill="#ffecf1"/><path d="m39.85 19.78-4.53-6a1.08 1.08 0 0 0 -.7-.41 1.07 1.07 0 0 0 -1.21.91 1.07 1.07 0 0 0 .2.79l4.54 6a1.07 1.07 0 0 0 1.49.21 1 1 0 0 0 .41-.71 1.07 1.07 0 0 0 -.2-.79z" fill="#ffecf1"/><path d="m44 37.86-6.31-8.38-1.69 1.28 6.3 8.38a1.07 1.07 0 0 0 .86.43 1 1 0 0 0 .64-.22 1.07 1.07 0 0 0 .2-1.49z" fill="#fff"/><path d="m35.33 26.3-.11.09a10.94 10.94 0 0 1 -1.49 1.12l-.11.07 1.38 1.88 1.71-1.28z" fill="#ffecf1"/><path d="m36.54 21.76v-.07l-2.84-3.77-1.15-1.53h-.07a9.34 9.34 0 0 0 -7.63 5.74v.06l3.94 5.25.05.06h.07a9.36 9.36 0 0 0 7.63-5.74z" fill="#fff"/></g></svg>