<?xml version="1.0" encoding="utf-8"?>
<svg viewBox="0 0 60 60" xmlns="http://www.w3.org/2000/svg">
  <defs>
    <style>.cls-1{fill:url(#New_Gradient_Swatch_2);}.cls-2{fill:#fff;}.cls-3{fill:#0d1c3a;}.cls-4{fill:#ffecf1;}</style>
    <linearGradient id="New_Gradient_Swatch_2" x1="30" y1="55" x2="30" y2="5" gradientUnits="userSpaceOnUse">
      <stop offset="0" stop-color="#facfdc"/>
      <stop offset="1" stop-color="#d2e2f7"/>
    </linearGradient>
  </defs>
  <title>one-idea-icon copy 5</title>
  <g id="Layer_6" data-name="Layer 6" transform="matrix(1.2, 0, 0, 1.2, -6, -6)">
    <circle class="cls-1" cx="30" cy="30" r="25"/>
    <path class="cls-3" d="M30.89,38.23l-.08,0V36.89a2.59,2.59,0,0,0-2.58-2.58H18.44a2.59,2.59,0,0,0-2.58,2.58V38.2l-.08,0A2.71,2.71,0,0,0,14,40.78v2a.81.81,0,0,0,.81.82H31.87a.82.82,0,0,0,.82-.82v-2A2.71,2.71,0,0,0,30.89,38.23ZM17.5,36.89a1,1,0,0,1,.94-1h9.79a1,1,0,0,1,.94,1v1.19H17.5ZM31.06,42H15.61V40.78a1.07,1.07,0,0,1,1.07-1.07H30a1.07,1.07,0,0,1,1.07,1.07Z"/>
    <path class="cls-2" d="M28.23,35.94H18.44a1,1,0,0,0-.94,1v1.19H29.17V36.89A1,1,0,0,0,28.23,35.94Z"/>
    <path class="cls-2" d="M30,39.71H16.68a1.07,1.07,0,0,0-1.07,1.07V42H31.06V40.78A1.07,1.07,0,0,0,30,39.71Z"/>
    <path class="cls-3" d="M45.33,36.88,36.46,25.09l.06-.08a11.24,11.24,0,0,0,1.27-2l.05-.1.11,0a2.7,2.7,0,0,0,2.67-.33,2.64,2.64,0,0,0,1.05-1.78,2.7,2.7,0,0,0-.51-2l-4.54-6a2.68,2.68,0,0,0-1.78-1,2.7,2.7,0,0,0-3.05,3v.12l-.12,0a11,11,0,0,0-8,6.06l-.06.11-.1-.05a2.69,2.69,0,0,0-2.68.33,2.73,2.73,0,0,0-1.05,1.78,2.69,2.69,0,0,0,.52,2l4.53,6a2.7,2.7,0,0,0,4.84-1.94v-.12l.11,0a10.89,10.89,0,0,0,2.31-.66l.09,0,.06.08L41,40.12a2.71,2.71,0,0,0,3.78.54A2.7,2.7,0,0,0,45.33,36.88ZM33.83,13.55a1.05,1.05,0,0,1,.79-.2,1.08,1.08,0,0,1,.7.41l4.53,6a1.07,1.07,0,0,1,.2.79,1,1,0,0,1-.41.71,1.07,1.07,0,0,1-1.49-.21l-4.54-6a1.07,1.07,0,0,1-.2-.79A1.05,1.05,0,0,1,33.83,13.55ZM27.6,30.34a1.09,1.09,0,0,1-.64.21,1.06,1.06,0,0,1-.85-.42l-4.53-6a1,1,0,0,1-.21-.79,1.07,1.07,0,0,1,1.91-.49l4.53,6a1,1,0,0,1-.21,1.49Zm1.32-2.84h-.07l-.05-.06L24.86,22.2l0-.06a9.34,9.34,0,0,1,7.63-5.74h.07l1.15,1.53,2.84,3.77,0,.07A9.36,9.36,0,0,1,28.92,27.5Zm4.7.08.11-.07a10.94,10.94,0,0,0,1.49-1.12l.11-.09,1.41,1.88L35,29.46Zm10.2,11.77a1,1,0,0,1-.64.22,1.07,1.07,0,0,1-.86-.43L36,30.76l1.7-1.28L44,37.86A1.07,1.07,0,0,1,43.82,39.35Z"/>
    <path class="cls-4" d="M27.81,28.85l-4.53-6a1.07,1.07,0,0,0-1.91.49,1,1,0,0,0,.21.79l4.53,6a1.06,1.06,0,0,0,.85.42,1.09,1.09,0,0,0,.64-.21,1,1,0,0,0,.21-1.49Z"/>
    <path class="cls-4" d="M39.85,19.78l-4.53-6a1.08,1.08,0,0,0-.7-.41,1.07,1.07,0,0,0-1.21.91,1.07,1.07,0,0,0,.2.79l4.54,6a1.07,1.07,0,0,0,1.49.21,1,1,0,0,0,.41-.71A1.07,1.07,0,0,0,39.85,19.78Z"/>
    <path class="cls-2" d="M44,37.86l-6.31-8.38L36,30.76l6.3,8.38a1.07,1.07,0,0,0,.86.43,1,1,0,0,0,.64-.22A1.07,1.07,0,0,0,44,37.86Z"/>
    <path class="cls-4" d="M35.33,26.3l-.11.09a10.94,10.94,0,0,1-1.49,1.12l-.11.07L35,29.46l1.71-1.28Z"/>
    <path class="cls-2" d="M36.54,21.76l0-.07-2.84-3.77-1.15-1.53h-.07a9.34,9.34,0,0,0-7.63,5.74l0,.06,3.94,5.25.05.06h.07A9.36,9.36,0,0,0,36.54,21.76Z"/>
  </g>
</svg>