<svg viewBox="0 0 30 30" xmlns="http://www.w3.org/2000/svg" xmlns:xlink="http://www.w3.org/1999/xlink"><clipPath id="a"><circle cx="15" cy="15" r="15"/></clipPath><clipPath id="b"><path d="m-332-5626h1440v6269h-1440z"/></clipPath><clipPath id="c"><path clip-rule="evenodd" d="m10.5 18.5h2.25v-6h-2.25zm1.12-6.75a1.13 1.13 0 1 1 1.13-1.13 1.13 1.13 0 0 1 -1.13 1.13zm7.88 6.75h-1.92v-2.85c0-.68 0-1.55-1-1.55s-1.16.74-1.16 1.5v2.9h-1.92v-5.85h1.85v.8a2.06 2.06 0 0 1 1.82-.95c1.95 0 2.31 1.21 2.31 2.78v3.22z"/></clipPath><g clip-path="url(#a)"><g clip-path="url(#b)"><path d="m-5-5h40v40h-40z" fill="#fff"/></g></g><g clip-path="url(#c)"><g clip-path="url(#b)"><path d="m5.5 4.5h19v19h-19z" fill="#1e2446"/></g></g></svg>