<?xml version="1.0" encoding="utf-8"?>
<svg viewBox="0 0 60 60" xmlns="http://www.w3.org/2000/svg">
  <defs>
    <style>.cls-1{fill:url(#New_Gradient_Swatch_2);}.cls-2{fill:#fff;}.cls-3{fill:#ffecf1;}.cls-4{fill:#0d1c3a;}</style>
    <linearGradient id="New_Gradient_Swatch_2" x1="30" y1="55" x2="30" y2="5" gradientUnits="userSpaceOnUse">
      <stop offset="0" stop-color="#facfdc"/>
      <stop offset="1" stop-color="#d2e2f7"/>
    </linearGradient>
  </defs>
  <title>multiple-samples-icon</title>
  <g id="Layer_6" data-name="Layer 6" transform="matrix(1.2, 0, 0, 1.2, -6, -6)">
    <circle class="cls-1" cx="30" cy="30" r="25"/>
    <rect class="cls-2" x="13.47" y="23.31" width="33.02" height="17.83"/>
    <path class="cls-2" d="M15.66,22.11h.9a.54.54,0,0,1,0,1.07h-.9v2.11H20.8V20H15.66Z"/>
    <path class="cls-3" d="M15.66,28.47h.9a.54.54,0,0,1,0,1.07h-.9v2.12h.9a.54.54,0,0,1,0,1.07h-.9v2.11h.9a.54.54,0,0,1,0,1.07h-.87l0,.2A2.58,2.58,0,0,0,17.78,38l.12,0h.74A2.55,2.55,0,0,0,20.8,35.5V26.36H15.66Z"/>
    <path class="cls-2" d="M21.56,17.31H14.83a.86.86,0,1,0,0,1.71h6.72a.85.85,0,0,0,.86-.85A.87.87,0,0,0,21.56,17.31Z"/>
    <polygon points="18.19 38.17 18.17 38.17 18.17 38.07 18.1 38.07 18.17 38.07 18.17 37.97 18.19 37.98 18.29 37.98 18.29 38.17 18.19 38.17"/>
    <path class="cls-2" d="M27.44,22.11h.9a.54.54,0,1,1,0,1.07h-.9v2.11h5.14V20H27.44Z"/>
    <path class="cls-3" d="M27.44,28.47h.9a.54.54,0,1,1,0,1.07h-.9v2.12h.9a.54.54,0,1,1,0,1.07h-.9v2.11h.9a.54.54,0,1,1,0,1.07h-.87l0,.2a2.58,2.58,0,0,0,2,1.92l.12,0h.75a2.54,2.54,0,0,0,2.15-2.53V26.36H27.44Z"/>
    <path class="cls-2" d="M33.34,17.31H26.61a.86.86,0,1,0,0,1.71h6.73a.85.85,0,0,0,.85-.85A.87.87,0,0,0,33.34,17.31Z"/>
    <path class="cls-2" d="M39.22,22.11h.9a.54.54,0,1,1,0,1.07h-.9v2.11h5.14V20H39.22Z"/>
    <path class="cls-3" d="M39.22,28.47h.9a.54.54,0,1,1,0,1.07h-.9v2.12h.9a.54.54,0,1,1,0,1.07h-.9v2.11h.9a.54.54,0,1,1,0,1.07h-.87l0,.2a2.55,2.55,0,0,0,2,1.92l.12,0h.75a2.54,2.54,0,0,0,2.15-2.53V26.36H39.22Z"/>
    <path class="cls-2" d="M45.12,17.31H38.39a.86.86,0,1,0,0,1.71h6.73a.85.85,0,0,0,.85-.85A.87.87,0,0,0,45.12,17.31Z"/>
    <path class="cls-4" d="M 47.15 22 L 45.49 22 L 45.49 20.06 C 46.357 19.841 46.974 19.074 47 18.18 C 47.001 17.146 46.183 16.298 45.15 16.26 L 38.35 16.26 C 37.317 16.298 36.499 17.146 36.5 18.18 C 36.53 19.067 37.14 19.829 38 20.05 L 38.05 20.05 L 38.05 22 L 33.71 22 L 33.71 20.06 C 34.585 19.856 35.206 19.078 35.21 18.18 C 35.211 17.15 34.399 16.303 33.37 16.26 L 26.57 16.26 C 25.537 16.298 24.719 17.146 24.72 18.18 C 24.724 19.078 25.345 19.856 26.22 20.06 L 26.27 20.06 L 26.27 22 L 21.93 22 L 21.93 20.06 L 22 20.06 C 22.875 19.856 23.496 19.078 23.5 18.18 C 23.501 17.15 22.689 16.303 21.66 16.26 L 14.79 16.26 C 13.757 16.298 12.939 17.146 12.94 18.18 C 12.944 19.078 13.565 19.856 14.44 20.06 L 14.49 20.06 L 14.49 22 L 12.8 22 C 12.438 22.005 12.145 22.298 12.14 22.66 L 12.14 41.79 C 12.14 42.156 12.434 42.455 12.8 42.46 L 47.15 42.46 C 47.516 42.455 47.81 42.156 47.81 41.79 L 47.81 22.64 C 47.794 22.286 47.505 22.005 47.15 22 Z M 37.63 18.19 C 37.63 17.77 37.97 17.43 38.39 17.43 L 45.12 17.43 C 45.553 17.413 45.915 17.757 45.92 18.19 C 45.92 18.61 45.58 18.95 45.16 18.95 L 38.43 18.95 C 37.991 18.961 37.63 18.609 37.63 18.17 L 37.63 18.19 Z M 39.32 20.11 L 44.32 20.11 L 44.32 22 L 39.32 22 L 39.32 20.11 Z M 41.94 38 L 41.79 38 L 41.36 38 C 40.382 37.834 39.597 37.103 39.36 36.14 L 39.36 36.07 L 40.11 36.07 C 40.46 36.065 40.74 35.78 40.74 35.43 C 40.74 35.082 40.458 34.8 40.11 34.8 L 39.31 34.8 L 39.31 32.82 L 40.11 32.82 C 40.595 32.82 40.898 32.295 40.656 31.875 C 40.543 31.68 40.335 31.56 40.11 31.56 L 39.31 31.56 L 39.31 29.64 L 40.11 29.64 C 40.595 29.64 40.898 29.115 40.656 28.695 C 40.543 28.5 40.335 28.38 40.11 28.38 L 39.31 28.38 L 39.31 26.46 L 44.31 26.46 L 44.31 35.46 C 44.316 36.667 43.441 37.698 42.25 37.89 L 41.94 38 Z M 39.32 25.19 L 39.32 23.31 L 44.32 23.31 L 44.32 25.19 L 39.32 25.19 Z M 25.85 18.19 C 25.85 17.77 26.19 17.43 26.61 17.43 L 33.34 17.43 C 33.925 17.43 34.291 18.063 33.998 18.57 C 33.862 18.805 33.612 18.95 33.34 18.95 L 26.65 18.95 C 26.211 18.961 25.85 18.609 25.85 18.17 L 25.85 18.19 Z M 27.54 20.11 L 32.48 20.11 L 32.48 22 L 27.54 22 L 27.54 20.11 Z M 30.16 38 L 30 38 L 29.57 38 C 28.592 37.834 27.807 37.103 27.57 36.14 L 27.57 36.07 L 28.32 36.07 C 28.67 36.065 28.95 35.78 28.95 35.43 C 28.95 35.082 28.668 34.8 28.32 34.8 L 27.52 34.8 L 27.52 32.82 L 28.32 32.82 C 28.805 32.82 29.108 32.295 28.866 31.875 C 28.753 31.68 28.545 31.56 28.32 31.56 L 27.52 31.56 L 27.52 29.64 L 28.32 29.64 C 28.805 29.64 29.108 29.115 28.866 28.695 C 28.753 28.5 28.545 28.38 28.32 28.38 L 27.52 28.38 L 27.52 26.46 L 32.46 26.46 L 32.46 35.46 C 32.47 36.668 31.594 37.702 30.4 37.89 L 30.16 38 Z M 27.54 25.19 L 27.54 23.31 L 32.48 23.31 L 32.48 25.19 L 27.54 25.19 Z M 14.07 18.19 C 14.07 17.77 14.41 17.43 14.83 17.43 L 21.56 17.43 C 22.145 17.43 22.511 18.063 22.218 18.57 C 22.082 18.805 21.832 18.95 21.56 18.95 L 14.87 18.95 C 14.431 18.961 14.07 18.609 14.07 18.17 L 14.07 18.19 Z M 15.76 20.11 L 20.7 20.11 L 20.7 22 L 15.76 22 L 15.76 20.11 Z M 18.05 38 L 17.8 38 C 16.822 37.834 16.037 37.103 15.8 36.14 L 15.8 36.07 L 16.55 36.07 C 16.9 36.065 17.18 35.78 17.18 35.43 C 17.18 35.082 16.898 34.8 16.55 34.8 L 15.75 34.8 L 15.75 32.82 L 16.55 32.82 C 17.035 32.82 17.338 32.295 17.096 31.875 C 16.983 31.68 16.775 31.56 16.55 31.56 L 15.75 31.56 L 15.75 29.64 L 16.55 29.64 C 17.035 29.64 17.338 29.115 17.096 28.695 C 16.983 28.5 16.775 28.38 16.55 28.38 L 15.75 28.38 L 15.75 26.46 L 20.7 26.46 L 20.7 35.46 C 20.71 36.668 19.834 37.702 18.64 37.89 L 18.05 38 Z M 15.76 25.19 L 15.76 23.31 L 20.7 23.31 L 20.7 25.19 L 15.76 25.19 Z M 46.49 41.13 L 13.49 41.13 L 13.49 23.31 L 14.49 23.31 L 14.49 35.5 C 14.501 37.275 15.751 38.801 17.49 39.16 L 17.61 39.16 C 17.828 39.198 18.049 39.222 18.27 39.23 C 18.5 39.23 18.99 39.15 19.01 39.15 C 20.751 38.795 22.003 37.267 22.01 35.49 L 22.01 23.31 L 26.35 23.31 L 26.35 35.5 C 26.361 37.275 27.611 38.801 29.35 39.16 L 29.47 39.16 C 29.688 39.198 29.909 39.222 30.13 39.23 C 30.36 39.23 30.85 39.15 30.87 39.15 C 32.611 38.795 33.863 37.267 33.87 35.49 L 33.87 23.31 L 38.22 23.31 L 38.22 35.5 C 38.227 37.277 39.479 38.805 41.22 39.16 L 41.33 39.16 C 41.548 39.198 41.769 39.221 41.99 39.23 C 42.22 39.23 42.71 39.15 42.73 39.15 C 44.471 38.795 45.723 37.267 45.73 35.49 L 45.73 23.31 L 46.73 23.31 L 46.49 41.13 Z"/>
  </g>
</svg>