<svg viewBox="0 0 60 60" xmlns="http://www.w3.org/2000/svg" xmlns:xlink="http://www.w3.org/1999/xlink"><linearGradient id="a" gradientUnits="userSpaceOnUse" x1="29.67" x2="29.67" y1="55" y2="5"><stop offset="0" stop-color="#facfdc"/><stop offset="1" stop-color="#d2e2f7"/></linearGradient><g transform="matrix(1.2 0 0 1.2 -5.604 -6)"><circle cx="29.67" cy="30" fill="url(#a)" r="25"/><path d="m41.49 37.91-.09-.28h-23.46l-.1.28a11.8 11.8 0 0 1 -1.84 3.65l-.52.66h28.41l-.53-.66a11.69 11.69 0 0 1 -1.87-3.65z" fill="#fff"/><path d="m40.92 35.75a22.35 22.35 0 0 1 -.46-4v-5.42a10.79 10.79 0 0 0 -21.58 0v5.42a23.79 23.79 0 0 1 -.46 4l-.11.49h22.69z" fill="#fff"/><path d="m46.42 42.28c-4.4-2-4.56-10.18-4.57-10.53v-5.42a12.17 12.17 0 0 0 -7.46-11.23l-.26-.1v-.27a4.47 4.47 0 0 0 -8.93 0v.27l-.2.1a12.18 12.18 0 0 0 -7.47 11.23v5.42c0 .35-.16 8.55-4.56 10.53a.69.69 0 0 0 .28 1.33h10.86l.06.34a5.81 5.81 0 0 0 1.53 3 5.43 5.43 0 0 0 7.93 0 5.9 5.9 0 0 0 1.54-3l.06-.34h10.9a.69.69 0 0 0 .68-.55.7.7 0 0 0 -.39-.78zm-28-6.53a23.79 23.79 0 0 0 .46-4v-5.42a10.79 10.79 0 0 1 21.58 0v5.43a22.35 22.35 0 0 0 .46 4l.1.49h-22.71zm-3 6.47.52-.66a11.8 11.8 0 0 0 1.87-3.65l.1-.28h23.49l.09.28a11.69 11.69 0 0 0 1.87 3.65l.53.66z" fill="#0d1c3a"/></g></svg>