<svg viewBox="0 0 60 60" xmlns="http://www.w3.org/2000/svg" xmlns:xlink="http://www.w3.org/1999/xlink"><linearGradient id="a" gradientUnits="userSpaceOnUse" x1="30" x2="30" y1="54.19" y2="5.81"><stop offset="0" stop-color="#facfdc"/><stop offset="1" stop-color="#d2e2f7"/></linearGradient><g transform="matrix(1.240182 0 0 1.240182 -7.205449 -7.205457)"><path d="m26 32.79h1.4a.83.83 0 0 1 0 1.66h-1.4v3.29h1.4a.83.83 0 0 1 .83.83.84.84 0 0 1 -.83.84h-1.4v3.28h1.4a.83.83 0 0 1 .83.83.84.84 0 0 1 -.83.84h-1.33l.07.3a4 4 0 0 0 3.19 3h.19.2.2.08.24.2.2a4 4 0 0 0 3.36-3.93v-14.23h-8z" fill="#ffecf1"/><path d="m30 5.81a24.19 24.19 0 1 0 24.19 24.19 24.22 24.22 0 0 0 -24.19-24.19zm5.83 13.73h-.2v24.19a5.68 5.68 0 0 1 -4.48 5.53 10 10 0 0 1 -1.12.13 11.67 11.67 0 0 1 -1.18-.13 5.68 5.68 0 0 1 -4.48-5.53v-24.15h-.2a2.88 2.88 0 0 1 -2.17-2.82 2.83 2.83 0 0 1 2.73-2.83h.44 9.75.45a2.83 2.83 0 0 1 2.73 2.83 2.88 2.88 0 0 1 -2.27 2.78z" fill="url(#a)"/><path d="m35.32 13.93h-.45-9.74-.45a2.83 2.83 0 0 0 -2.68 2.83 2.88 2.88 0 0 0 2.22 2.78h.2v24.19a5.68 5.68 0 0 0 4.48 5.53 11.67 11.67 0 0 0 1.18.13 10 10 0 0 0 1.12-.13 5.68 5.68 0 0 0 4.48-5.53v-24.15h.2a2.88 2.88 0 0 0 2.22-2.78 2.83 2.83 0 0 0 -2.78-2.87zm-1.32 29.8a4 4 0 0 1 -3.36 3.93h-.2-.2-.24-.1-.2-.2-.05-.15a4 4 0 0 1 -3.19-3l-.07-.3h1.36a.84.84 0 0 0 .83-.84.83.83 0 0 0 -.83-.83h-1.4v-3.28h1.4a.84.84 0 0 0 .83-.84.83.83 0 0 0 -.83-.83h-1.4v-3.29h1.4a.83.83 0 0 0 0-1.66h-1.4v-3.29h8zm0-15.89h-8v-3.28h1.4a.84.84 0 0 0 .83-.84.83.83 0 0 0 -.83-.83h-1.4v-3.29h8zm1.23-9.75h-10.43a1.33 1.33 0 1 1 -.06-2.66h10.46a1.34 1.34 0 0 1 1.39 1.33 1.32 1.32 0 0 1 -1.33 1.33z" fill="#0d1c3a"/></g></svg>