<?xml version="1.0" encoding="utf-8"?>
<svg version="1.1" x="0px" y="0px" viewBox="0 0 60 60" xmlns="http://www.w3.org/2000/svg">
  <defs>
    <linearGradient id="SVGID_1_" gradientUnits="userSpaceOnUse" x1="30.05" y1="55" x2="30.05" y2="5">
      <stop offset="0" style="stop-color:#FACFDC"/>
      <stop offset="1" style="stop-color:#D2E2F7"/>
    </linearGradient>
    <style type="text/css">
	.st0{fill:url(#SVGID_1_);}
	.st1{fill:#FFECF1;}
	.st2{fill:#FFFFFF;}
	.st3{fill:#0D1C3A;}
</style>
  </defs>
  <title>one-idea-icon</title>
  <g id="Layer_6" transform="matrix(1.2, 0, 0, 1.2, -6, -6)">
    <circle class="st0" cx="30" cy="30" r="25"/>
    <path class="st1" d="M33.8,35.7h-7.7c-0.6,0-1.1,0.5-1.1,1.1s0.5,1.1,1.1,1.1h7.7c0.6,0,1.1-0.5,1.1-1.1 C34.9,36.2,34.4,35.7,33.8,35.7z"/>
    <path class="st1" d="M33.8,39.6h-7.7c-0.6,0-1.1,0.5-1.1,1.1s0.5,1.1,1.1,1.1h7.7c0.6,0,1.1-0.5,1.1-1.1 C34.9,40,34.4,39.6,33.8,39.6z"/>
    <path class="st2" d="M 27.022 43.279 C 27.538 45.052 29.291 45.938 30.941 45.384 C 31.869 45.052 32.591 44.276 32.9 43.279 L 32.9 43.168 L 27.022 43.279 L 27.022 43.279 Z" style=""/>
    <path class="st2" d="M37.8,26.3c0-4.3-3.5-7.8-7.8-7.8s-7.8,3.5-7.8,7.8c0,2.6,1.3,5,3.4,6.4c0.2,0.2,0.4,0.4,0.4,0.7V34h1.2v-3.6 L26,29.2c-0.2-0.2-0.3-0.4-0.2-0.6c0-0.2,0.1-0.4,0.2-0.6c0.2-0.2,0.4-0.2,0.6-0.2l0,0c0.2,0,0.4,0.1,0.6,0.2l1.5,1.5 c0.2,0.2,0.2,0.4,0.2,0.6V34H31v-4c0-0.2,0.1-0.4,0.2-0.6l1.5-1.5c0.2-0.2,0.4-0.2,0.6-0.2l0,0c0.2,0,0.4,0.1,0.6,0.2 c0.2,0.2,0.2,0.4,0.2,0.6s-0.1,0.4-0.2,0.6l-1.3,1.3V34h1.2v-0.6c0-0.3,0.1-0.5,0.4-0.7C36.5,31.3,37.8,28.9,37.8,26.3z"/>
    <path class="st3" d="M35.6,33.9c4.2-3.1,5.1-9,1.9-13.2c-3.1-4.2-9-5.1-13.2-1.9s-5.1,9-1.9,13.2c0.5,0.7,1.2,1.4,1.9,1.9l0,0v0.8 l0,0c-1.1,1-1.3,2.7-0.3,3.9c0,0,0,0,0.1,0.1l0,0l0,0c-1,1.1-1,2.8,0.1,3.9c0.3,0.3,0.7,0.5,1.1,0.6l0,0l0,0 c0.4,2.5,2.8,4.3,5.3,3.9c2-0.3,3.5-1.9,3.9-3.9l0,0l0,0c1.2-0.4,1.9-1.4,1.9-2.6c0-0.7-0.3-1.4-0.7-1.9l0,0l0,0 c1-1.1,1-2.8-0.1-3.9c0,0,0,0-0.1-0.1l0,0L35.6,33.9L35.6,33.9z M32.8,43.4c-0.5,1.6-2.2,2.4-3.8,1.9c-0.9-0.3-1.6-1-1.9-1.9v-0.1 L32.8,43.4L32.8,43.4z M33.8,41.7h-7.7c-0.6,0-1.1-0.5-1.1-1.1s0.5-1.1,1.1-1.1h7.7c0.6,0,1.1,0.5,1.1,1.1 C34.9,41.2,34.4,41.7,33.8,41.7L33.8,41.7z M33.8,37.9h-7.7c-0.6,0-1.1-0.5-1.1-1.1s0.5-1.1,1.1-1.1h7.7c0.6,0,1.1,0.5,1.1,1.1 C34.9,37.4,34.4,37.9,33.8,37.9L33.8,37.9z M34.3,32.7c-0.2,0.2-0.4,0.4-0.4,0.7V34h-1.2v-3.6l1.3-1.3c0.2-0.2,0.3-0.4,0.2-0.6 c0-0.2-0.1-0.4-0.2-0.6c-0.2-0.2-0.4-0.2-0.6-0.2l0,0c-0.2,0-0.4,0.1-0.6,0.2l-1.5,1.5c-0.2,0.2-0.2,0.4-0.2,0.6v4H29v-3.9 c0-0.2-0.1-0.4-0.2-0.6L27.1,28c-0.2-0.2-0.4-0.2-0.6-0.2l0,0c-0.2,0-0.4,0.1-0.5,0.2c-0.2,0.2-0.2,0.4-0.2,0.6s0.1,0.4,0.2,0.6 l1.3,1.3v3.6h-1.2v-0.6c0-0.3-0.1-0.5-0.4-0.7c-3.6-2.4-4.5-7.2-2.1-10.8s7.2-4.5,10.8-2.1s4.5,7.2,2.1,10.8 C35.9,31.5,35.2,32.2,34.3,32.7L34.3,32.7z"/>
    <path class="st3" d="M18.4,26.3c0-0.5-0.4-0.8-0.8-0.8h-1.9c-0.5,0-0.8,0.4-0.8,0.8s0.4,0.8,0.8,0.8h1.9 C18,27.1,18.4,26.8,18.4,26.3L18.4,26.3z"/>
    <path class="st3" d="M44.3,25.5h-1.9c-0.5,0-0.8,0.4-0.8,0.8s0.4,0.8,0.8,0.8l0,0h1.9c0.5,0,0.8-0.4,0.8-0.8S44.8,25.5,44.3,25.5z"/>
    <path class="st3" d="M18.8,31.8l-1.6,1c-0.4,0.2-0.5,0.7-0.3,1.1l0,0c0.1,0.3,0.4,0.4,0.7,0.4c0.1,0,0.3,0,0.4-0.1l1.7-1 c0.2-0.1,0.3-0.3,0.4-0.5s0-0.4-0.1-0.6C19.7,31.7,19.2,31.5,18.8,31.8L18.8,31.8z"/>
    <path class="st3" d="M40.8,20.9c0.1,0,0.3,0,0.4-0.1l1.7-1c0.2-0.1,0.3-0.3,0.4-0.5c0.1-0.2,0-0.4-0.1-0.6 c-0.2-0.3-0.4-0.4-0.7-0.4c-0.1,0-0.3,0-0.4,0.1l-1.7,1c-0.2,0.1-0.3,0.3-0.4,0.5c-0.1,0.2,0,0.4,0.1,0.6 C40.2,20.8,40.5,20.9,40.8,20.9z"/>
    <path class="st3" d="M42.8,32.7l-1.7-1c-0.1-0.1-0.3-0.1-0.4-0.1c-0.1,0-0.1,0-0.2,0c-0.5,0.1-0.7,0.6-0.6,1 c0.1,0.2,0.2,0.4,0.4,0.5l1.7,1c0.1,0.1,0.3,0.1,0.4,0.1c0.3,0,0.6-0.2,0.7-0.4c0.1-0.2,0.1-0.4,0.1-0.6S43,32.8,42.8,32.7z"/>
    <path class="st3" d="M19.7,19.3l-1.7-1c-0.1-0.1-0.3-0.1-0.4-0.1s-0.1,0-0.2,0c-0.2,0.1-0.4,0.2-0.5,0.4c-0.2,0.4-0.1,0.9,0.3,1.1 l0,0l1.6,1c0.1,0.1,0.3,0.1,0.4,0.1c0.5,0,0.8-0.4,0.8-0.9C20.1,19.7,19.9,19.5,19.7,19.3L19.7,19.3z"/>
  </g>
</svg>