<?xml version="1.0" encoding="utf-8"?>
<svg id="Layer_2" data-name="Layer 2" viewBox="0 0 50 50" xmlns="http://www.w3.org/2000/svg" xmlns:bx="https://boxy-svg.com">
  <defs>
    <style>.cls-1{fill:none;}.cls-2{fill:url(#New_Gradient_Swatch_2);}.cls-3{fill:#fff;}.cls-4{fill:#ffecf1;}.cls-5{fill:#0d1c3a;}</style>
    <linearGradient id="New_Gradient_Swatch_2" x1="30.01" y1="54" x2="30.01" y2="6" gradientUnits="userSpaceOnUse">
      <stop offset="0" stop-color="#facfdc"/>
      <stop offset="1" stop-color="#d2e2f7"/>
    </linearGradient>
  </defs>
  <title>one-idea-icon-v2</title>
  <g id="Layer_6" data-name="Layer 6" transform="matrix(1.039134, 0, 0, 1.040789, -6.152624, -6.207739)" bx:origin="0 0">
    <path class="cls-2" d="M54,28.46A24.14,24.14,0,0,0,37.67,7.22a22.65,22.65,0,0,0-3.52-.88,24,24,0,0,0-24,37.23,24.09,24.09,0,0,0,3.76,4.22l6.94-10.73,5.8,3.76-7,10.78A24,24,0,0,0,37.6,52.81,24.3,24.3,0,0,0,54,28.46Z" style=""/>
    <g>
      <title>lens</title>
      <path class="cls-3" d="M 24.59 41.26 L 21.31 39.14 L 15.09 48.75 C 16.115 49.554 17.202 50.277 18.34 50.91 Z" style=""/>
      <path class="cls-5" d="M 31.57 11.25 C 19.476 11.246 11.914 24.336 17.958 34.811 C 18.61 35.941 19.4 36.985 20.31 37.92 L 19.31 39.53 L 18.18 38.81 C 17.86 38.61 17.438 38.708 17.24 39.03 L 17.14 39.18 C 16.901 39.51 16.999 39.974 17.35 40.18 L 18.47 40.88 L 13.97 47.88 C 14.34 48.21 14.74 48.53 15.13 48.88 L 19.74 41.76 L 23 43.72 L 18.34 50.91 C 18.78 51.15 19.23 51.38 19.69 51.6 L 24.27 44.52 L 25.45 45.27 C 25.771 45.473 26.195 45.379 26.4 45.06 L 26.5 44.9 C 26.7 44.58 26.602 44.158 26.28 43.96 L 25.11 43.22 L 26.11 41.69 C 37.449 45.894 49.088 36.247 47.059 24.325 C 45.775 16.777 39.237 11.254 31.58 11.25 Z M 23.84 42.41 L 20.54 40.33 L 21.31 39.14 L 24.59 41.26 Z M 31.57 41.19 C 20.623 41.198 13.774 29.352 19.24 19.869 C 24.707 10.385 38.39 10.375 43.87 19.851 C 45.126 22.024 45.785 24.49 45.78 27 C 45.753 34.833 39.403 41.174 31.57 41.19 Z" style=""/>
    </g>
    <g>
      <title>lightbulb</title>
      <path class="cls-3" d="M 29.6 35.7 C 30.076 37.213 32.011 37.643 33.083 36.474 C 33.287 36.252 33.439 35.988 33.53 35.7 L 33.53 35.7 L 29.59 35.7 Z" style=""/>
      <path class="cls-3" d="M 36.93 23.85 C 36.941 19.716 32.472 17.121 28.887 19.179 C 25.425 21.166 25.264 26.102 28.59 28.31 C 28.749 28.418 28.843 28.598 28.84 28.79 L 28.84 29.21 L 29.65 29.21 L 29.65 26.73 L 28.76 25.83 C 28.648 25.723 28.583 25.575 28.58 25.42 C 28.584 25.265 28.648 25.118 28.76 25.01 C 28.868 24.9 29.016 24.839 29.17 24.84 L 29.17 24.84 C 29.324 24.84 29.471 24.901 29.58 25.01 L 30.65 26.08 C 30.758 26.189 30.819 26.336 30.82 26.49 L 30.82 29.21 L 32.3 29.21 L 32.3 26.49 C 32.301 26.336 32.362 26.189 32.47 26.08 L 33.54 25 C 33.649 24.891 33.796 24.83 33.95 24.83 L 33.95 24.83 C 34.104 24.829 34.252 24.89 34.36 25 C 34.472 25.108 34.536 25.255 34.54 25.41 C 34.537 25.565 34.472 25.713 34.36 25.82 L 33.47 26.72 L 33.47 29.2 L 34.29 29.2 L 34.29 28.78 C 34.287 28.588 34.381 28.408 34.54 28.3 C 36.031 27.31 36.928 25.64 36.93 23.85 Z" style=""/>
      <path class="cls-5" d="M 35.58 29.62 L 35.58 29.15 C 39.679 26.071 38.908 19.709 34.192 17.698 C 29.475 15.688 24.351 19.537 24.968 24.627 C 25.187 26.427 26.13 28.061 27.58 29.15 L 27.58 29.62 C 27.158 30 26.919 30.542 26.92 31.11 C 26.918 31.595 27.092 32.064 27.41 32.43 C 27.096 32.802 26.923 33.273 26.92 33.76 C 26.912 34.633 27.47 35.41 28.3 35.68 C 28.765 38.216 31.802 39.298 33.766 37.627 C 34.354 37.127 34.751 36.439 34.89 35.68 C 35.72 35.41 36.278 34.633 36.27 33.76 C 36.267 33.273 36.094 32.802 35.78 32.43 C 36.504 31.605 36.428 30.351 35.61 29.62 Z M 35.46 29.08 Z M 33.37 35.78 C 32.823 37.169 30.976 37.445 30.047 36.277 C 29.927 36.126 29.83 35.959 29.76 35.78 Z M 28.92 33.14 L 34.21 33.14 C 34.683 33.2 34.914 33.751 34.625 34.131 C 34.524 34.263 34.375 34.349 34.21 34.37 L 28.92 34.37 C 28.447 34.31 28.216 33.759 28.505 33.379 C 28.606 33.247 28.755 33.161 28.92 33.14 Z M 34.21 31.73 L 28.92 31.73 C 28.579 31.73 28.304 31.451 28.31 31.11 C 28.31 30.773 28.583 30.5 28.92 30.5 L 34.21 30.5 C 34.547 30.5 34.82 30.773 34.82 31.11 C 34.826 31.451 34.551 31.73 34.21 31.73 Z M 34.16 28.79 L 34.16 29.08 L 33.59 29.08 L 33.59 26.78 L 34.45 25.92 C 34.73 25.646 34.73 25.194 34.45 24.92 C 34.167 24.661 33.733 24.661 33.45 24.92 L 32.39 26 C 32.253 26.13 32.176 26.311 32.18 26.5 L 32.18 29.09 L 31 29.09 L 31 26.49 C 31.004 26.301 30.927 26.12 30.79 25.99 L 29.73 24.92 C 29.449 24.656 29.011 24.656 28.73 24.92 C 28.45 25.194 28.45 25.646 28.73 25.92 L 29.59 26.78 L 29.59 29.08 L 29 29.08 L 29 28.79 C 28.999 28.554 28.884 28.334 28.69 28.2 C 25.345 25.96 25.679 20.938 29.292 19.161 C 32.904 17.384 37.086 20.184 36.818 24.202 C 36.711 25.82 35.858 27.297 34.51 28.2 C 34.298 28.322 34.166 28.546 34.16 28.79 Z" style=""/>
      <path class="cls-5" d="M 24.264 18.503 L 22.914 18.503 C 22.523 18.502 22.208 18.822 22.214 19.213 C 22.214 19.599 22.527 19.913 22.914 19.913 L 24.264 19.913 C 24.651 19.913 24.964 19.599 24.964 19.213 C 24.97 18.822 24.655 18.502 24.264 18.503 Z" style="" transform="matrix(0.857167, 0.515038, -0.515038, 0.857167, 13.26213, -9.405702)"/>
      <path class="cls-5" d="M 23 23.14 L 21.65 23.14 C 21.259 23.14 20.944 23.46 20.95 23.85 C 20.95 24.237 21.263 24.55 21.65 24.55 L 23 24.55 C 23.387 24.55 23.7 24.237 23.7 23.85 C 23.706 23.46 23.391 23.14 23 23.14 Z" style=""/>
      <path class="cls-5" d="M 24.74 27.79 C 24.544 27.432 24.086 27.313 23.74 27.53 L 22.6 28.19 C 22.236 28.382 22.116 28.845 22.34 29.19 C 22.465 29.41 22.697 29.547 22.95 29.55 C 23.077 29.548 23.2 29.513 23.31 29.45 L 24.45 28.79 C 24.615 28.699 24.734 28.543 24.78 28.36 C 24.848 28.173 24.834 27.966 24.74 27.79 Z" style=""/>
      <path class="cls-5" d="M 40.76 18.54 C 40.556 18.192 40.108 18.075 39.76 18.28 L 38.62 18.94 C 38.456 19.032 38.337 19.188 38.29 19.37 C 38.242 19.549 38.267 19.74 38.36 19.9 C 38.485 20.12 38.717 20.257 38.97 20.26 C 39.097 20.258 39.22 20.223 39.33 20.16 L 40.47 19.5 C 40.834 19.308 40.954 18.845 40.73 18.5 Z" style=""/>
      <path class="cls-5" d="M 41.48 23.14 L 40.15 23.14 C 39.759 23.14 39.444 23.46 39.45 23.85 C 39.45 24.237 39.763 24.55 40.15 24.55 L 41.48 24.55 C 41.867 24.55 42.18 24.237 42.18 23.85 C 42.186 23.46 41.871 23.14 41.48 23.14 Z" style=""/>
      <path class="cls-5" d="M 40.83 28.62 C 40.784 28.437 40.665 28.281 40.5 28.19 L 39.36 27.53 C 39.014 27.313 38.556 27.432 38.36 27.79 C 38.136 28.135 38.256 28.598 38.62 28.79 L 39.76 29.45 C 39.87 29.513 39.993 29.548 40.12 29.55 C 40.374 29.549 40.607 29.412 40.73 29.19 C 40.849 29.026 40.886 28.815 40.83 28.62 Z" style=""/>
    </g>
  </g>
</svg>