<?xml version="1.0" encoding="utf-8"?>
<svg viewBox="0 0 60 60" xmlns="http://www.w3.org/2000/svg">
  <defs>
    <style>.cls-1{fill:url(#New_Gradient_Swatch_2);}.cls-2{fill:url(#New_Gradient_Swatch_2-2);}.cls-3{fill:#0d1c3a;}.cls-4{fill:none;}.cls-5{fill:#fff;}.cls-6{fill:url(#New_Gradient_Swatch_2-3);}</style>
    <linearGradient id="New_Gradient_Swatch_2" x1="30.01" y1="55" x2="30.01" y2="5" gradientUnits="userSpaceOnUse">
      <stop offset="0" stop-color="#facfdc"/>
      <stop offset="1" stop-color="#d2e2f7"/>
    </linearGradient>
  </defs>
  <title>vv copy 46</title>
  <g id="Layer_6" data-name="Layer 6" transform="matrix(1.2, 0, 0, 1.2, -6.01264, -6.004949)">
    <path class="cls-1" d="M12.25,46.45c.08-.21.12-.34.12-.34.09-.21.19-.41.28-.62s.24-.52.37-.78l.34-.6.42-.73.39-.58c.16-.23.31-.46.48-.68s.28-.37.43-.55.34-.43.52-.63l.48-.52.57-.58.52-.49c.2-.18.4-.36.61-.53s.36-.3.55-.44L19,37.9l.58-.4.7-.43.6-.34c.24-.14.49-.26.74-.38l.63-.3.78-.32.63-.24.84-.26.63-.18c.29-.08.6-.14.9-.2l.05,0a10.36,10.36,0,1,1,7.37,0A18.64,18.64,0,0,1,43,40c.3.31.6.63.88,1l.27.32.55.69.29.4.46.66.27.44c.14.22.27.45.4.68l.24.45q.19.36.36.72c.07.15.14.29.2.44s.4,1,.69,1.87L47.45,47c.07.21.16.44.24.68a25,25,0,1,0-35.75-.4l.12-.32C12.12,46.78,12.19,46.61,12.25,46.45Z"/>
    <path class="cls-3" d="M46.94,45.71c-.06-.15-.13-.29-.2-.44s-.23-.48-.36-.72l-.24-.45c-.13-.23-.26-.46-.4-.68L45.47,43,45,42.32l-.29-.4-.55-.69-.27-.32c-.28-.33-.58-.65-.88-1a18.64,18.64,0,0,0-9.58-5.13,10.37,10.37,0,1,0-7.37,0l-.05,0c-.3.06-.61.12-.9.2l-.63.18-.84.26-.63.24-.78.32-.63.3c-.25.12-.5.24-.74.38l-.6.34-.7.43-.58.4-.66.48c-.19.14-.37.29-.55.44s-.41.35-.61.53l-.52.49-.57.58-.48.52c-.18.2-.35.41-.52.63s-.29.36-.43.55-.32.45-.48.68l-.39.58-.42.73-.34.6c-.13.26-.25.52-.37.78s-.19.41-.28.62l-.12.34c-.08.21-.19.5-.3.83.38.4.78.8,1.2,1.18v0c.06-.22.13-.45.2-.67s.18-.48.27-.71.16-.43.25-.64.22-.46.33-.69.2-.41.31-.61l.37-.65.36-.59.43-.6c.13-.19.26-.38.4-.56s.32-.38.48-.57l.44-.52.52-.53.48-.47.57-.49.51-.44.61-.44c.18-.13.36-.27.54-.39s.43-.27.65-.4l.57-.34.68-.34c.2-.1.39-.21.59-.3l.72-.29.6-.24.77-.24.6-.19.84-.18.57-.13.95-.12.49-.06A14.46,14.46,0,0,1,29.73,36,17.18,17.18,0,0,1,42,41c.29.29.58.6.85.91l.22.27c.19.23.38.46.56.7l.25.36c.15.22.31.43.45.65s.17.28.25.42.26.43.38.65l.23.46c.11.21.22.42.32.64l.21.49c.08.22.17.43.25.65a5.34,5.34,0,0,1,.18.52c.08.22.15.43.21.65l.12.44c.42-.37.84-.74,1.23-1.14a.36.36,0,0,0,0-.11C47.34,46.7,47,45.94,46.94,45.71ZM20.87,25.15A8.87,8.87,0,1,1,29.73,34,8.88,8.88,0,0,1,20.87,25.15Z"/>
    <path class="cls-3" d="M38,40.9a2.67,2.67,0,0,0-2.3,1.33,2.6,2.6,0,0,0-2.25-1.33,2.84,2.84,0,0,0-2.71,2.78,2.79,2.79,0,0,0,.09,1A4.43,4.43,0,0,0,32.18,47l3.48,3.16L39.21,47a4.57,4.57,0,0,0,1.38-2.31,2.67,2.67,0,0,0,.08-1A2.83,2.83,0,0,0,38,40.9Z"/>
  </g>
</svg>