<svg height="50" viewBox="0 0 50 50" width="50" xmlns="http://www.w3.org/2000/svg" xmlns:xlink="http://www.w3.org/1999/xlink"><linearGradient id="a" gradientUnits="userSpaceOnUse" x1="30" x2="30" y1="55.92" y2="5.92"><stop offset="0" stop-color="#facfdc"/><stop offset="1" stop-color="#d2e2f7"/></linearGradient><g transform="translate(-5 -5.92)"><circle cx="30" cy="30.92" fill="url(#a)" r="25"/><path d="m21.92 20.58h16.15v18.55h-16.15z" fill="#fff"/><path d="m23.07 16.27a1.16 1.16 0 0 0 -1.15 1.15v1.7h16.16v-1.7a1.16 1.16 0 0 0 -1.15-1.15zm6.73 2.2h-2.2a.73.73 0 0 1 -.72-.73.72.72 0 0 1 .72-.74h2.2a.72.72 0 0 1 .72.72.73.73 0 0 1 -.72.75zm2.6 0h-.55a.73.73 0 0 1 -.72-.73.72.72 0 0 1 .72-.72h.55a.72.72 0 0 1 .72.72.73.73 0 0 1 -.72.73z" fill="#ffecf1"/><path d="m30 44.57a.93.93 0 1 0 -.93-.92.93.93 0 0 0 .93.92z" fill="#fff"/><path d="m23.07 46.73h13.86a1.16 1.16 0 0 0 1.15-1.15v-5h-16.16v5a1.16 1.16 0 0 0 1.15 1.15zm6.93-5.46a2.38 2.38 0 1 1 -2.38 2.38 2.39 2.39 0 0 1 2.38-2.38z" fill="#ffecf1"/><g fill="#0d1c3a"><path d="m36.93 14.83h-13.86a2.59 2.59 0 0 0 -2.59 2.59v28.16a2.59 2.59 0 0 0 2.59 2.59h13.86a2.59 2.59 0 0 0 2.59-2.59v-28.16a2.59 2.59 0 0 0 -2.59-2.59zm-15 25.75h16.15v5a1.16 1.16 0 0 1 -1.15 1.15h-13.86a1.16 1.16 0 0 1 -1.15-1.15zm16.16-20v18.54h-16.17v-18.54zm-15-4.31h13.84a1.16 1.16 0 0 1 1.15 1.15v1.71h-16.16v-1.71a1.16 1.16 0 0 1 1.15-1.15z"/><path d="m30 46a2.38 2.38 0 1 0 -2.38-2.37 2.38 2.38 0 0 0 2.38 2.37zm0-3.3a.93.93 0 1 1 -.93.93.93.93 0 0 1 .93-.91z"/><path d="m27.6 18.47h2.2a.73.73 0 0 0 .72-.73.72.72 0 0 0 -.72-.74h-2.2a.72.72 0 0 0 -.72.72.73.73 0 0 0 .72.75z"/><path d="m31.85 18.47h.55a.73.73 0 0 0 .72-.73.72.72 0 0 0 -.72-.74h-.55a.72.72 0 0 0 -.72.72.73.73 0 0 0 .72.75z"/><path d="m44.76 17.39a.72.72 0 0 0 -1 1 5.11 5.11 0 0 1 0 7.2.73.73 0 0 0 .51 1.24.75.75 0 0 0 .51-.21 6.57 6.57 0 0 0 0-9.26z"/><path d="m42.44 18.64a.72.72 0 0 0 -1 0 .74.74 0 0 0 0 1 3.44 3.44 0 0 1 0 4.85.74.74 0 0 0 0 1 .75.75 0 0 0 .51.21.74.74 0 0 0 .51-.21 4.89 4.89 0 0 0 0-6.91z"/><path d="m14.77 22a5.06 5.06 0 0 1 1.49-3.6.72.72 0 0 0 0-1 .72.72 0 0 0 -1 0 6.57 6.57 0 0 0 0 9.26.75.75 0 0 0 .51.21.73.73 0 0 0 .51-1.24 5.06 5.06 0 0 1 -1.51-3.63z"/><path d="m17.58 21.94a3.4 3.4 0 0 1 1-2.43.68.68 0 0 0 .21-.51.71.71 0 0 0 -.21-.51.73.73 0 0 0 -1 0 4.88 4.88 0 0 0 0 6.9.69.69 0 0 0 .51.22.72.72 0 0 0 .51-.22.68.68 0 0 0 .21-.51.71.71 0 0 0 -.21-.51 3.4 3.4 0 0 1 -1.02-2.43z"/></g></g></svg>