<svg viewBox="0 0 60 60" xmlns="http://www.w3.org/2000/svg" xmlns:xlink="http://www.w3.org/1999/xlink"><linearGradient id="a" gradientUnits="userSpaceOnUse" x1="30" x2="30" y1="55" y2="5"><stop offset="0" stop-color="#facfdc"/><stop offset="1" stop-color="#d2e2f7"/></linearGradient><g transform="matrix(1.2 0 0 1.2 -6 -6)"><circle cx="30" cy="30" fill="url(#a)" r="25"/><path d="m40.38 45.7h-20.18a2.38 2.38 0 0 1 -2.39-2.38l-.07-27.93a2.4 2.4 0 0 1 2.39-2.39h15.42a1.52 1.52 0 0 1 1 .38l.07.07 5.63 5.55a1.65 1.65 0 0 1 .45 1v.17l.06 23.16a2.39 2.39 0 0 1 -2.38 2.37z" fill="#fff"/><g fill="#0d1c3a"><path d="m42.7 20a1.65 1.65 0 0 0 -.45-1l-5.57-5.53-.07-.07a1.52 1.52 0 0 0 -1-.38l-15.48-.02a2.4 2.4 0 0 0 -2.39 2.4l.07 27.93a2.38 2.38 0 0 0 2.39 2.38h20.18a2.39 2.39 0 0 0 2.39-2.39l-.06-23.16zm-6.49-4.77 4.4 4.4h-3.27a1.13 1.13 0 0 1 -1.13-1.08zm4.22 29h-20.3a.85.85 0 0 1 -.85-.85l-.06-28.05a.85.85 0 0 1 .85-.84h14.73v4.92a1.56 1.56 0 0 0 1.56 1.59h4.86l.05 22.42a.83.83 0 0 1 -.84.81z"/><path d="m23.82 25.28h12.84a.73.73 0 0 0 .72-.73.72.72 0 0 0 -.72-.72h-12.84a.73.73 0 1 0 0 1.45z"/><path d="m23.83 29.65h12.84a.72.72 0 0 0 .72-.72.71.71 0 0 0 -.72-.72h-12.84a.72.72 0 1 0 0 1.44z"/><path d="m36.68 32.55h-12.84a.73.73 0 1 0 0 1.45h12.84a.73.73 0 0 0 0-1.45z"/><path d="m30.27 37h-6.42a.73.73 0 1 0 0 1.45h6.42a.72.72 0 0 0 0-1.44z"/></g></g></svg>