<?xml version="1.0" encoding="utf-8"?>
<svg viewBox="0 0 60 60" xmlns="http://www.w3.org/2000/svg">
  <defs>
    <style>.cls-1{fill:url(#New_Gradient_Swatch_2);}.cls-2{fill:#fff;}.cls-3{fill:#0d1c3a;}.cls-4{fill:none;stroke:#0d1c3a;stroke-linecap:round;stroke-linejoin:round;stroke-width:0;}</style>
    <linearGradient id="New_Gradient_Swatch_2" x1="30" y1="55" x2="30" y2="5" gradientUnits="userSpaceOnUse">
      <stop offset="0" stop-color="#facfdc"/>
      <stop offset="1" stop-color="#d2e2f7"/>
    </linearGradient>
  </defs>
  <title>vv copy 50</title>
  <g id="Layer_6" data-name="Layer 6" transform="matrix(1.2, 0, 0, 1.2, -6, -6)">
    <circle class="cls-1" cx="30" cy="30" r="25"/>
    <path class="cls-2" d="M40.38,45.7l-20.18,0a2.38,2.38,0,0,1-2.39-2.38l-.07-27.93A2.4,2.4,0,0,1,20.13,13l15.42,0a1.52,1.52,0,0,1,1,.38h0l.07.07L42.25,19a1.65,1.65,0,0,1,.45,1v.17l.06,23.16A2.39,2.39,0,0,1,40.38,45.7Z"/>
    <path class="cls-3" d="M42.7,20a1.65,1.65,0,0,0-.45-1l-5.57-5.53-.07-.07h0a1.52,1.52,0,0,0-1-.38L20.13,13a2.4,2.4,0,0,0-2.39,2.4l.07,27.93a2.38,2.38,0,0,0,2.39,2.38l20.18,0a2.39,2.39,0,0,0,2.39-2.39l-.06-23.16Zm-6.49-4.77,4.4,4.4H37.34a1.13,1.13,0,0,1-1.13-1.08Zm4.22,29-20.3,0a.85.85,0,0,1-.85-.85l-.06-28.05a.85.85,0,0,1,.85-.84l14.73,0v4.92A1.56,1.56,0,0,0,36.36,21h4.86l.05,22.42A.83.83,0,0,1,40.43,44.23Z"/>
    <path class="cls-3" d="M23.82,25.28l12.84,0a.73.73,0,0,0,.72-.73.72.72,0,0,0-.72-.72l-12.84,0a.73.73,0,1,0,0,1.45Z"/>
    <path class="cls-3" d="M23.83,29.65l12.84,0a.72.72,0,0,0,.72-.72.71.71,0,0,0-.72-.72l-12.84,0a.72.72,0,1,0,0,1.44Z"/>
    <path class="cls-3" d="M36.68,32.55l-12.84,0a.73.73,0,1,0,0,1.45l12.84,0a.73.73,0,0,0,0-1.45Z"/>
    <path class="cls-3" d="M30.27,37H23.85a.73.73,0,1,0,0,1.45l6.42,0a.72.72,0,0,0,0-1.44Z"/>
  </g>
</svg>