<?xml version="1.0" encoding="utf-8"?>
<svg viewBox="0 0 60 60" xmlns="http://www.w3.org/2000/svg">
  <defs>
    <style>.cls-1{fill:url(#New_Gradient_Swatch_2);}.cls-2{fill:#fff;}.cls-3{fill:#0d1c3a;}.cls-4{fill:#ffecf1;}</style>
    <linearGradient id="New_Gradient_Swatch_2" x1="30" y1="55" x2="30" y2="5" gradientUnits="userSpaceOnUse">
      <stop offset="0" stop-color="#facfdc"/>
      <stop offset="1" stop-color="#d2e2f7"/>
    </linearGradient>
  </defs>
  <title>one-idea-icon copy 4</title>
  <g id="Layer_6" data-name="Layer 6" transform="matrix(1.2, 0, 0, 1.2, -6, -6)">
    <circle class="cls-1" cx="30" cy="30" r="25"/>
    <path class="cls-3" d="M45.47,22.22c0-.35,0-.72,0-1.14A3.66,3.66,0,0,0,42,17.49a15.26,15.26,0,0,1-10.35-4.37,2.16,2.16,0,0,0-2.92,0,15.24,15.24,0,0,1-10.37,4.39,3.66,3.66,0,0,0-3.46,3.59q0,.62,0,1.14v.06c-.08,4.27-.18,9.57,1.59,14.38a18.24,18.24,0,0,0,4.36,6.79,22.79,22.79,0,0,0,8.56,5.06l.33.09a2.18,2.18,0,0,0,.95,0l.33-.09a23,23,0,0,0,8.55-5.06,18.28,18.28,0,0,0,4.36-6.8c1.78-4.82,1.68-10.13,1.59-14.4ZM42.24,36.05c-1.9,5.16-5.78,8.7-11.85,10.82l-.1,0h-.13l-.13,0-.09,0c-6.09-2.12-10-5.66-11.87-10.82-1.65-4.49-1.56-9.4-1.48-13.73,0-.4,0-.79,0-1.21a1.91,1.91,0,0,1,1.81-1.88,18.65,18.65,0,0,0,6.31-1.39,16.48,16.48,0,0,0,5.14-3.45.4.4,0,0,1,.53,0,16.62,16.62,0,0,0,5.15,3.46,18.7,18.7,0,0,0,6.32,1.39,1.92,1.92,0,0,1,1.81,1.88c0,.42,0,.81,0,1.18C43.81,26.63,43.91,31.54,42.24,36.05Z"/>
    <path class="cls-2" d="M43.7,21.11a1.92,1.92,0,0,0-1.81-1.88,18.7,18.7,0,0,1-6.32-1.39,16.62,16.62,0,0,1-5.15-3.46.4.4,0,0,0-.53,0,16.48,16.48,0,0,1-5.14,3.45,18.65,18.65,0,0,1-6.31,1.39,1.91,1.91,0,0,0-1.81,1.88c0,.42,0,.81,0,1.21-.08,4.33-.17,9.24,1.48,13.73,1.9,5.16,5.78,8.7,11.87,10.82l.09,0,.13,0h.13l.1,0c6.07-2.12,10-5.66,11.85-10.82,1.67-4.51,1.57-9.42,1.49-13.76C43.72,21.92,43.7,21.53,43.7,21.11ZM30.16,39.49a8.9,8.9,0,1,1,8.9-8.9A8.91,8.91,0,0,1,30.16,39.49Z"/>
    <path class="cls-3" d="M30.16,21.69a8.9,8.9,0,1,0,8.9,8.9A8.91,8.91,0,0,0,30.16,21.69Zm0,16.06a7.16,7.16,0,1,1,7.16-7.16A7.17,7.17,0,0,1,30.16,37.75Z"/>
    <path class="cls-4" d="M30.16,23.43a7.16,7.16,0,1,0,7.16,7.16A7.17,7.17,0,0,0,30.16,23.43Zm4,5.71-5,5a.9.9,0,0,1-1.24,0L26,32.22A.87.87,0,1,1,27.26,31l1.29,1.29,4.37-4.37a.83.83,0,0,1,.61-.26h0a.83.83,0,0,1,.61.26A.87.87,0,0,1,34.15,29.14Z"/>
    <path class="cls-3" d="M33.54,27.65h0a.83.83,0,0,0-.61.26l-4.37,4.37L27.26,31A.87.87,0,0,0,26,32.22l1.9,1.91a.9.9,0,0,0,1.24,0l5-5a.87.87,0,0,0,0-1.23A.83.83,0,0,0,33.54,27.65Z"/>
  </g>
</svg>