<?xml version="1.0" encoding="utf-8"?>
<svg viewBox="0 0 60 60" xmlns="http://www.w3.org/2000/svg">
  <defs>
    <style>.cls-1{fill:url(#New_Gradient_Swatch_2);}.cls-2{fill:#fff;}.cls-3{fill:#ffecf1;}.cls-4{fill:#0d1c3a;}</style>
    <linearGradient id="New_Gradient_Swatch_2" x1="30" y1="55.19" x2="30" y2="5.19" gradientUnits="userSpaceOnUse">
      <stop offset="0" stop-color="#facfdc"/>
      <stop offset="1" stop-color="#d2e2f7"/>
    </linearGradient>
  </defs>
  <title>one-idea-icon copy 2</title>
  <g id="Layer_6" data-name="Layer 6" transform="matrix(1.2, 0, 0, 1.2, -6, -6.228001)">
    <circle class="cls-1" cx="30" cy="30.19" r="25"/>
    <path class="cls-2" d="M36.84,26a7,7,0,1,0-11.54,5.2,5.1,5.1,0,0,1,1.08-1.67,4.89,4.89,0,0,1,1.74-1.13,3.26,3.26,0,0,1,1.77-6h0a3.26,3.26,0,0,1,1.77,6,5,5,0,0,1,1.74,1.13s0,0,0,0a5.48,5.48,0,0,1,.6.75h0a4.87,4.87,0,0,1,.45.88A6.9,6.9,0,0,0,36.84,26Z"/>
    <path class="cls-2" d="M19.46,43.39H40.52a.47.47,0,0,0,.48-.48V16.16a.47.47,0,0,0-.48-.47H19.46a.47.47,0,0,0-.48.47V33.55l2.84-2.82a9.34,9.34,0,1,1,8.07,4.63,9.19,9.19,0,0,1-4.67-1.26L19,40.34v2.57A.47.47,0,0,0,19.46,43.39Zm4-6.27H37.68a.7.7,0,0,1,.71.7.71.71,0,0,1-.71.71H23.47a.7.7,0,0,1-.7-.71A.7.7,0,0,1,23.47,37.12Zm0,3.07H37.68a.71.71,0,0,1,0,1.42H23.47a.71.71,0,0,1,0-1.42Z"/>
    <path class="cls-3" d="M31.7,25.7a1.82,1.82,0,1,0-1.81,1.82A1.81,1.81,0,0,0,31.7,25.7Z"/>
    <path class="cls-4" d="M23.47,41.61H37.68a.71.71,0,0,0,0-1.42H23.47a.71.71,0,0,0,0,1.42Z"/>
    <path class="cls-4" d="M17.56,42.91a1.89,1.89,0,0,0,1.9,1.89H40.52a1.89,1.89,0,0,0,1.9-1.89V16.16a1.9,1.9,0,0,0-1.9-1.89H19.46a1.9,1.9,0,0,0-1.9,1.89V35l-.32.33-2.39,2.37a2.41,2.41,0,0,0,1.7,4.11,2.27,2.27,0,0,0,.69-.12,1.73,1.73,0,0,0,.32-.11Zm1.42-.3V40.34l6.24-6.24a9.19,9.19,0,0,0,4.67,1.26,9.31,9.31,0,1,0-8.07-4.63L19,33.55V16.16a.47.47,0,0,1,.48-.47H40.52a.47.47,0,0,1,.48.47V42.91a.47.47,0,0,1-.48.48H19.46a.47.47,0,0,1-.48-.48ZM31.7,25.7a1.82,1.82,0,0,1-1.81,1.82h0a1.82,1.82,0,1,1,0-3.63h0A1.81,1.81,0,0,1,31.7,25.7Zm-1.81,3.85a3.48,3.48,0,0,1,2.47,1,3.69,3.69,0,0,1,.87,1.54,6.94,6.94,0,0,1-6.69,0,3.55,3.55,0,0,1,.88-1.54A3.46,3.46,0,0,1,29.89,29.55Zm4.58,1.68h0a4.87,4.87,0,0,0-.45-.88h0a5.48,5.48,0,0,0-.6-.75s0,0,0,0a5,5,0,0,0-1.74-1.13,3.26,3.26,0,0,0-1.77-6h0a3.26,3.26,0,0,0-1.77,6,4.89,4.89,0,0,0-1.74,1.13,5.1,5.1,0,0,0-1.08,1.67h0a7,7,0,1,1,9.17,0Z"/>
    <path class="cls-3" d="M26.54,32.12a6.94,6.94,0,0,0,6.69,0,3.69,3.69,0,0,0-.87-1.54,3.48,3.48,0,0,0-4.94,0A3.55,3.55,0,0,0,26.54,32.12Z"/>
    <path class="cls-4" d="M23.47,38.53H37.68a.71.71,0,0,0,.71-.71.7.7,0,0,0-.71-.7H23.47a.7.7,0,0,0-.7.7A.7.7,0,0,0,23.47,38.53Z"/>
    <path class="cls-2" d="M15.88,40.07a.88.88,0,0,1,0-1.24L22.69,32l1.24,1.24-6.81,6.82A.88.88,0,0,1,15.88,40.07Z"/>
  </g>
</svg>