<svg viewBox="0 0 60 60" xmlns="http://www.w3.org/2000/svg" xmlns:xlink="http://www.w3.org/1999/xlink"><linearGradient id="a" gradientUnits="userSpaceOnUse" x1="30" x2="30" y1="55" y2="5"><stop offset="0" stop-color="#facfdc"/><stop offset="1" stop-color="#d2e2f7"/></linearGradient><g transform="matrix(1.2 0 0 1.2 -6 -6)"><circle cx="30" cy="30" fill="url(#a)" r="25"/><path d="m45.47 22.22c0-.35 0-.72 0-1.14a3.66 3.66 0 0 0 -3.47-3.59 15.26 15.26 0 0 1 -10.35-4.37 2.16 2.16 0 0 0 -2.92 0 15.24 15.24 0 0 1 -10.37 4.39 3.66 3.66 0 0 0 -3.46 3.59q0 .62 0 1.14v.06c-.08 4.27-.18 9.57 1.59 14.38a18.24 18.24 0 0 0 4.36 6.79 22.79 22.79 0 0 0 8.56 5.06l.33.09a2.18 2.18 0 0 0 .95 0l.33-.09a23 23 0 0 0 8.55-5.06 18.28 18.28 0 0 0 4.36-6.8c1.78-4.82 1.68-10.13 1.59-14.4zm-3.23 13.83c-1.9 5.16-5.78 8.7-11.85 10.82h-.1-.13-.13-.09c-6.09-2.12-10-5.66-11.87-10.82-1.65-4.49-1.56-9.4-1.48-13.73 0-.4 0-.79 0-1.21a1.91 1.91 0 0 1 1.81-1.88 18.65 18.65 0 0 0 6.31-1.39 16.48 16.48 0 0 0 5.14-3.45.4.4 0 0 1 .53 0 16.62 16.62 0 0 0 5.15 3.46 18.7 18.7 0 0 0 6.32 1.39 1.92 1.92 0 0 1 1.81 1.88v1.18c.15 4.33.25 9.24-1.42 13.75z" fill="#0d1c3a"/><path d="m43.7 21.11a1.92 1.92 0 0 0 -1.81-1.88 18.7 18.7 0 0 1 -6.32-1.39 16.62 16.62 0 0 1 -5.15-3.46.4.4 0 0 0 -.53 0 16.48 16.48 0 0 1 -5.14 3.45 18.65 18.65 0 0 1 -6.31 1.39 1.91 1.91 0 0 0 -1.81 1.88v1.21c-.08 4.33-.17 9.24 1.48 13.73 1.9 5.16 5.78 8.7 11.87 10.82h.09.13.13.1c6.07-2.12 10-5.66 11.85-10.82 1.67-4.51 1.57-9.42 1.49-13.76-.05-.36-.07-.75-.07-1.17zm-13.54 18.38a8.9 8.9 0 1 1 8.9-8.9 8.91 8.91 0 0 1 -8.9 8.9z" fill="#fff"/><path d="m30.16 21.69a8.9 8.9 0 1 0 8.9 8.9 8.91 8.91 0 0 0 -8.9-8.9zm0 16.06a7.16 7.16 0 1 1 7.16-7.16 7.17 7.17 0 0 1 -7.16 7.16z" fill="#0d1c3a"/><path d="m30.16 23.43a7.16 7.16 0 1 0 7.16 7.16 7.17 7.17 0 0 0 -7.16-7.16zm4 5.71-5 5a.9.9 0 0 1 -1.24 0l-1.92-1.92a.87.87 0 1 1 1.26-1.22l1.29 1.29 4.37-4.37a.83.83 0 0 1 .61-.26.83.83 0 0 1 .61.26.87.87 0 0 1 .01 1.22z" fill="#ffecf1"/><path d="m33.54 27.65a.83.83 0 0 0 -.61.26l-4.37 4.37-1.3-1.28a.87.87 0 0 0 -1.26 1.22l1.9 1.91a.9.9 0 0 0 1.24 0l5-5a.87.87 0 0 0 0-1.23.83.83 0 0 0 -.6-.25z" fill="#0d1c3a"/></g></svg>