<svg height="50" viewBox="0 0 50 50" width="50" xmlns="http://www.w3.org/2000/svg" xmlns:xlink="http://www.w3.org/1999/xlink"><linearGradient id="a" gradientUnits="userSpaceOnUse" x1="30" x2="30" y1="55.92" y2="5.92"><stop offset="0" stop-color="#facfdc"/><stop offset="1" stop-color="#d2e2f7"/></linearGradient><g transform="translate(-5 -5.92)"><circle cx="30" cy="30.92" fill="url(#a)" r="25"/><path d="m24.81 29.36a1.46 1.46 0 0 0 -1 2.48 1.49 1.49 0 0 0 2.06 0 1.45 1.45 0 0 0 -1-2.48z" fill="#fff"/><g fill="#ffecf1"><path d="m20.3 39.14a.93.93 0 1 0 1.31 0 .93.93 0 0 0 -1.31 0z"/><path d="m35.41 18.76h7.2v1.54h-7.2z" transform="matrix(.70710678 -.70710678 .70710678 .70710678 -2.38 33.31)"/><path d="m37.49 20.84h7.2v1.54h-7.2z" transform="matrix(.70698336 -.70723018 .70723018 .70698336 -3.25 35.39)"/><path d="m40 15.45-.4-.45a.8.8 0 0 0 -1.13 0l-4.53 4.53 1 1z"/></g><path d="m31.65 19.31a1.14 1.14 0 0 0 -1.62 0l-16.22 16.37a1.5 1.5 0 0 0 0 2.12l9.3 9.2a1.51 1.51 0 0 0 2.12 0l16.22-16.27a1.16 1.16 0 0 0 0-1.62zm-9 22.17a2.38 2.38 0 1 1 0-3.36 2.39 2.39 0 0 1 -.01 3.36zm14.78-11.88h-.33l.3 2a.71.71 0 0 1 -.59.8h-.1a.7.7 0 0 1 -.69-.59l-.3-2-.54.07.13 1.18a.7.7 0 0 1 -.62.77h-.08a.7.7 0 0 1 -.69-.63l-.13-1.12-6.14.92a2.85 2.85 0 0 1 -2.84 2.65 2.85 2.85 0 0 1 -2-.84 2.86 2.86 0 1 1 4.62-3.19l9.82-1.43a.7.7 0 0 1 .2 1.39z" fill="#fff"/><path d="m45.17 20.6-5.09 5.1 1 1 4.53-4.53a.8.8 0 0 0 0-1.13z" fill="#ffecf1"/><path d="m46.6 20.05-6-6a2.2 2.2 0 0 0 -3.11 0l-4.49 4.52-.28-.28a2.58 2.58 0 0 0 -3.67 0l-16.61 16.55a2.61 2.61 0 0 0 0 3.68l9.8 9.79a2.59 2.59 0 0 0 3.67 0l16.56-16.55a2.61 2.61 0 0 0 0-3.68l-.4-.39 4.53-4.53a2.2 2.2 0 0 0 0-3.11zm-10.68 1.49 5.08-5.1 1.09 1.09-5.09 5.1zm2.08 2.08 5.09-5.1 1.09 1.09-5.09 5.1zm.47-8.62a.8.8 0 0 1 1.13 0l.42.42-5.09 5.1-1-1zm3 15.7-16.24 16.3a1.51 1.51 0 0 1 -2.12 0l-9.29-9.2a1.5 1.5 0 0 1 0-2.12l16.18-16.37a1.14 1.14 0 0 1 1.62 0l9.8 9.8a1.16 1.16 0 0 1 .03 1.62zm4.16-8.56-4.55 4.56-1-1 5.09-5.1.44.44a.8.8 0 0 1 0 1.13z" fill="#0d1c3a"/><path d="m37.23 28.21-9.82 1.43a2.86 2.86 0 1 0 -.58 3.19 2.8 2.8 0 0 0 .82-1.83l6.14-.89.13 1.12a.7.7 0 0 0 .69.63h.08a.7.7 0 0 0 .62-.77l-.13-1.18.54-.07.3 2a.7.7 0 0 0 .69.59h.1a.71.71 0 0 0 .59-.8l-.3-2h.33a.7.7 0 0 0 -.2-1.39zm-11.39 3.63a1.49 1.49 0 0 1 -2.06 0 1.45 1.45 0 0 1 -.42-1 1.46 1.46 0 0 1 2.48-1 1.45 1.45 0 0 1 0 2z" fill="#0d1c3a"/><path d="m19.28 38.12a2.38 2.38 0 1 0 3.36 0 2.37 2.37 0 0 0 -3.36 0zm2.33 2.33a.93.93 0 1 1 0-1.31.93.93 0 0 1 0 1.31z" fill="#0d1c3a"/></g></svg>