<svg width="63" height="62" viewBox="0 0 63 62" fill="none" xmlns="http://www.w3.org/2000/svg">
<path d="M31.8906 62C49.0115 62 62.8906 48.1208 62.8906 31C62.8906 13.8792 49.0115 0 31.8906 0C14.7698 0 0.890625 13.8792 0.890625 31C0.890625 48.1208 14.7698 62 31.8906 62Z" fill="url(#paint0_linear_344_942)"/>
<path d="M11.3934 22.7044H52.3382V44.8136H11.3934V22.7044Z" fill="white"/>
<path d="M14.109 21.2164H15.225C15.3854 21.2384 15.5323 21.3177 15.6387 21.4396C15.7451 21.5616 15.8037 21.718 15.8037 21.8798C15.8037 22.0416 15.7451 22.198 15.6387 22.32C15.5323 22.4419 15.3854 22.5212 15.225 22.5432H14.109V25.1596H20.4826V18.6H14.109V21.2164Z" fill="white"/>
<path d="M14.109 29.1028H15.225C15.3854 29.1248 15.5323 29.2041 15.6387 29.326C15.7451 29.448 15.8037 29.6044 15.8037 29.7662C15.8037 29.928 15.7451 30.0844 15.6387 30.2064C15.5323 30.3283 15.3854 30.4076 15.225 30.4296H14.109V33.0584H15.225C15.3854 33.0804 15.5323 33.1597 15.6387 33.2816C15.7451 33.4036 15.8037 33.56 15.8037 33.7218C15.8037 33.8836 15.7451 34.04 15.6387 34.162C15.5323 34.2839 15.3854 34.3632 15.225 34.3852H14.109V37.0016H15.225C15.3854 37.0236 15.5323 37.1029 15.6387 37.2248C15.7451 37.3468 15.8037 37.5032 15.8037 37.665C15.8037 37.8268 15.7451 37.9832 15.6387 38.1052C15.5323 38.2271 15.3854 38.3064 15.225 38.3284H14.1462V38.5764C14.3045 39.1763 14.6337 39.7172 15.0938 40.1333C15.5539 40.5494 16.1251 40.8227 16.7378 40.92H17.8042C18.546 40.8052 19.2227 40.4304 19.7134 39.8624C20.2041 39.2945 20.4767 38.5705 20.4826 37.82V26.4864H14.109V29.1028Z" fill="#FFECF1"/>
<path d="M21.425 15.2644H13.0798C12.931 15.2483 12.7804 15.2637 12.6379 15.3096C12.4954 15.3555 12.3641 15.431 12.2527 15.531C12.1413 15.631 12.0521 15.7534 11.9911 15.8901C11.9301 16.0268 11.8986 16.1749 11.8986 16.3246C11.8986 16.4743 11.9301 16.6224 11.9911 16.7591C12.0521 16.8959 12.1413 17.0182 12.2527 17.1182C12.3641 17.2182 12.4954 17.2937 12.6379 17.3396C12.7804 17.3855 12.931 17.4009 13.0798 17.3848H21.4126C21.5521 17.3864 21.6905 17.3604 21.8198 17.3082C21.9491 17.2559 22.0668 17.1785 22.1659 17.0805C22.2651 16.9825 22.3439 16.8657 22.3976 16.737C22.4514 16.6083 22.479 16.4703 22.479 16.3308C22.4759 16.0511 22.3642 15.7835 22.1676 15.5846C21.9709 15.3856 21.7047 15.2708 21.425 15.2644Z" fill="white"/>
<path d="M17.2214 41.1308V41.0068V40.8828L17.2462 40.8952H17.3702V41.1308H17.2214Z" fill="black"/>
<path d="M28.7162 21.2164H29.8322C29.927 21.2034 30.0234 21.2109 30.115 21.2383C30.2066 21.2657 30.2912 21.3124 30.3633 21.3752C30.4354 21.4381 30.4931 21.5156 30.5327 21.6026C30.5723 21.6897 30.5927 21.7842 30.5927 21.8798C30.5927 21.9754 30.5723 22.0699 30.5327 22.157C30.4931 22.244 30.4354 22.3215 30.3633 22.3844C30.2912 22.4472 30.2066 22.4939 30.115 22.5213C30.0234 22.5487 29.927 22.5562 29.8322 22.5432H28.7162V25.1596H35.0898V18.6H28.7162V21.2164Z" fill="white"/>
<path d="M28.7162 29.1028H29.8322C29.927 29.0898 30.0234 29.0973 30.115 29.1247C30.2066 29.1521 30.2912 29.1988 30.3633 29.2616C30.4354 29.3245 30.4931 29.402 30.5327 29.489C30.5723 29.5761 30.5927 29.6706 30.5927 29.7662C30.5927 29.8618 30.5723 29.9563 30.5327 30.0434C30.4931 30.1304 30.4354 30.2079 30.3633 30.2708C30.2912 30.3336 30.2066 30.3803 30.115 30.4077C30.0234 30.4351 29.927 30.4426 29.8322 30.4296H28.7162V33.0584H29.8322C29.927 33.0454 30.0234 33.0529 30.115 33.0803C30.2066 33.1077 30.2912 33.1544 30.3633 33.2172C30.4354 33.2801 30.4931 33.3576 30.5327 33.4446C30.5723 33.5317 30.5927 33.6262 30.5927 33.7218C30.5927 33.8174 30.5723 33.9119 30.5327 33.999C30.4931 34.086 30.4354 34.1635 30.3633 34.2264C30.2912 34.2892 30.2066 34.3359 30.115 34.3633C30.0234 34.3907 29.927 34.3982 29.8322 34.3852H28.7162V37.0016H29.8322C29.927 36.9886 30.0234 36.9961 30.115 37.0235C30.2066 37.0509 30.2912 37.0976 30.3633 37.1604C30.4354 37.2233 30.4931 37.3008 30.5327 37.3878C30.5723 37.4749 30.5927 37.5694 30.5927 37.665C30.5927 37.7606 30.5723 37.8551 30.5327 37.9422C30.4931 38.0292 30.4354 38.1067 30.3633 38.1696C30.2912 38.2324 30.2066 38.2791 30.115 38.3065C30.0234 38.3339 29.927 38.3414 29.8322 38.3284H28.7534V38.5764C28.8973 39.1681 29.2072 39.7065 29.6465 40.1282C30.0858 40.55 30.6363 40.8375 31.2334 40.9572H32.3122C33.0591 40.8412 33.7393 40.4604 34.2288 39.8845C34.7182 39.3085 34.9842 38.5758 34.9782 37.82V26.4864H28.7162V29.1028Z" fill="#FFECF1"/>
<path d="M36.0322 15.2644H27.687C27.5382 15.2483 27.3876 15.2637 27.2451 15.3096C27.1026 15.3555 26.9713 15.431 26.8599 15.531C26.7485 15.631 26.6593 15.7534 26.5983 15.8901C26.5373 16.0268 26.5058 16.1749 26.5058 16.3246C26.5058 16.4743 26.5373 16.6224 26.5983 16.7591C26.6593 16.8959 26.7485 17.0182 26.8599 17.1182C26.9713 17.2182 27.1026 17.2937 27.2451 17.3396C27.3876 17.3855 27.5382 17.4009 27.687 17.3848H36.0322C36.1706 17.3848 36.3077 17.3575 36.4356 17.3046C36.5634 17.2516 36.6796 17.174 36.7775 17.0761C36.8754 16.9782 36.953 16.862 37.006 16.7341C37.059 16.6063 37.0862 16.4692 37.0862 16.3308C37.0831 16.0511 36.9714 15.7835 36.7748 15.5846C36.5781 15.3856 36.3119 15.2708 36.0322 15.2644Z" fill="white"/>
<path d="M43.3234 21.2164H44.4394C44.5341 21.2034 44.6306 21.2109 44.7222 21.2383C44.8138 21.2657 44.8984 21.3124 44.9705 21.3752C45.0426 21.4381 45.1003 21.5156 45.1399 21.6026C45.1795 21.6897 45.1999 21.7842 45.1999 21.8798C45.1999 21.9754 45.1795 22.0699 45.1399 22.157C45.1003 22.244 45.0426 22.3215 44.9705 22.3844C44.8984 22.4472 44.8138 22.4939 44.7222 22.5213C44.6306 22.5487 44.5341 22.5562 44.4394 22.5432H43.3234V25.1596H49.697V18.6H43.3234V21.2164Z" fill="white"/>
<path d="M43.3234 29.1028H44.4394C44.5341 29.0898 44.6306 29.0973 44.7222 29.1247C44.8138 29.1521 44.8984 29.1988 44.9705 29.2616C45.0426 29.3245 45.1003 29.402 45.1399 29.489C45.1795 29.5761 45.1999 29.6706 45.1999 29.7662C45.1999 29.8618 45.1795 29.9563 45.1399 30.0434C45.1003 30.1304 45.0426 30.2079 44.9705 30.2708C44.8984 30.3336 44.8138 30.3803 44.7222 30.4077C44.6306 30.4351 44.5341 30.4426 44.4394 30.4296H43.3234V33.0584H44.4394C44.5341 33.0454 44.6306 33.0529 44.7222 33.0803C44.8138 33.1077 44.8984 33.1544 44.9705 33.2172C45.0426 33.2801 45.1003 33.3576 45.1399 33.4446C45.1795 33.5317 45.1999 33.6262 45.1999 33.7218C45.1999 33.8174 45.1795 33.9119 45.1399 33.999C45.1003 34.086 45.0426 34.1635 44.9705 34.2264C44.8984 34.2892 44.8138 34.3359 44.7222 34.3633C44.6306 34.3907 44.5341 34.3982 44.4394 34.3852H43.3234V37.0016H44.4394C44.5341 36.9886 44.6306 36.9961 44.7222 37.0235C44.8138 37.0509 44.8984 37.0976 44.9705 37.1604C45.0426 37.2233 45.1003 37.3008 45.1399 37.3878C45.1795 37.4749 45.1999 37.5694 45.1999 37.665C45.1999 37.7606 45.1795 37.8551 45.1399 37.9422C45.1003 38.0292 45.0426 38.1067 44.9705 38.1696C44.8984 38.2324 44.8138 38.2791 44.7222 38.3065C44.6306 38.3339 44.5341 38.3414 44.4394 38.3284H43.3606V38.5764C43.5003 39.1702 43.8088 39.7109 44.2488 40.1333C44.6888 40.5557 45.2417 40.8418 45.8406 40.9572H46.9194C47.6663 40.8412 48.3465 40.4604 48.836 39.8845C49.3254 39.3085 49.5914 38.5758 49.5854 37.82V26.4864H43.3234V29.1028Z" fill="#FFECF1"/>
<path d="M50.6394 15.2644H42.2942C42.1454 15.2483 41.9948 15.2637 41.8523 15.3096C41.7098 15.3555 41.5785 15.431 41.4671 15.531C41.3557 15.631 41.2665 15.7534 41.2055 15.8901C41.1445 16.0268 41.113 16.1749 41.113 16.3246C41.113 16.4743 41.1445 16.6224 41.2055 16.7591C41.2665 16.8959 41.3557 17.0182 41.4671 17.1182C41.5785 17.2182 41.7098 17.2937 41.8523 17.3396C41.9948 17.3855 42.1454 17.4009 42.2942 17.3848H50.6394C50.919 17.3848 51.1871 17.2738 51.3847 17.0761C51.5824 16.8784 51.6934 16.6103 51.6934 16.3308C51.6903 16.0511 51.5786 15.7835 51.382 15.5846C51.1853 15.3856 50.9191 15.2708 50.6394 15.2644Z" fill="white"/>
<path d="M53.1566 21.08H51.0982V18.6744C52.1733 18.4028 52.9384 17.4518 52.9706 16.3432C52.9719 15.061 51.9576 14.0095 50.6766 13.9624H42.2446C40.9637 14.0095 39.9494 15.061 39.9506 16.3432C39.9878 17.4431 40.7442 18.388 41.8106 18.662H41.8726V21.08H36.491V18.6744C37.576 18.4214 38.3461 17.4567 38.351 16.3432C38.3523 15.066 37.3454 14.0157 36.0694 13.9624H27.6374C26.3565 14.0095 25.3422 15.061 25.3434 16.3432C25.3484 17.4567 26.1184 18.4214 27.2034 18.6744H27.2654V21.08H21.8838V18.6744H21.9706C23.0556 18.4214 23.8257 17.4567 23.8306 16.3432C23.8319 15.066 22.825 14.0157 21.549 13.9624H13.0302C11.7493 14.0095 10.735 15.061 10.7362 16.3432C10.7412 17.4567 11.5112 18.4214 12.5962 18.6744H12.6582V21.08H10.5626C10.1137 21.0862 9.75043 21.4495 9.74423 21.8984V45.6196C9.74423 46.0734 10.1088 46.4442 10.5626 46.4504H53.1566C53.6105 46.4442 53.975 46.0734 53.975 45.6196V21.8736C53.9552 21.4346 53.5968 21.0862 53.1566 21.08ZM41.3518 16.3556C41.3518 15.8348 41.7734 15.4132 42.2942 15.4132H50.6394C51.1763 15.3921 51.6252 15.8187 51.6314 16.3556C51.6314 16.8764 51.2098 17.298 50.689 17.298H42.3438C41.7995 17.3116 41.3518 16.8752 41.3518 16.3308V16.3556ZM43.4474 18.7364H49.6474V21.08H43.4474V18.7364ZM46.6962 40.92H45.977C44.7643 40.7142 43.7909 39.8077 43.497 38.6136V38.5268H44.427C44.861 38.5206 45.2082 38.1672 45.2082 37.7332C45.2082 37.3017 44.8585 36.952 44.427 36.952H43.435V34.4968H44.427C45.0284 34.4968 45.4041 33.8458 45.1041 33.325C44.9639 33.0832 44.706 32.9344 44.427 32.9344H43.435V30.5536H44.427C45.0284 30.5536 45.4041 29.9026 45.1041 29.3818C44.9639 29.14 44.706 28.9912 44.427 28.9912H43.435V26.6104H49.635V37.7704C49.6425 39.2671 48.5575 40.5455 47.0806 40.7836L46.6962 40.92ZM43.4474 25.0356V22.7044H49.6474V25.0356H43.4474ZM26.7446 16.3556C26.7446 15.8348 27.1662 15.4132 27.687 15.4132H36.0322C36.7576 15.4132 37.2115 16.1981 36.8481 16.8268C36.6795 17.1182 36.3695 17.298 36.0322 17.298H27.7366C27.1923 17.3116 26.7446 16.8752 26.7446 16.3308V16.3556ZM28.8402 18.7364H34.9658V21.08H28.8402V18.7364ZM32.089 40.92H31.3574C30.1447 40.7142 29.1713 39.8077 28.8774 38.6136V38.5268H29.8074C30.2414 38.5206 30.5886 38.1672 30.5886 37.7332C30.5886 37.3017 30.2389 36.952 29.8074 36.952H28.8154V34.4968H29.8074C30.4088 34.4968 30.7845 33.8458 30.4845 33.325C30.3443 33.0832 30.0864 32.9344 29.8074 32.9344H28.8154V30.5536H29.8074C30.4088 30.5536 30.7845 29.9026 30.4845 29.3818C30.3443 29.14 30.0864 28.9912 29.8074 28.9912H28.8154V26.6104H34.941V37.7704C34.9534 39.2683 33.8672 40.5505 32.3866 40.7836L32.089 40.92ZM28.8402 25.0356V22.7044H34.9658V25.0356H28.8402ZM12.1374 16.3556C12.1374 15.8348 12.559 15.4132 13.0798 15.4132H21.425C22.1504 15.4132 22.6043 16.1981 22.2409 16.8268C22.0723 17.1182 21.7623 17.298 21.425 17.298H13.1294C12.5851 17.3116 12.1374 16.8752 12.1374 16.3308V16.3556ZM14.233 18.7364H20.3586V21.08H14.233V18.7364ZM17.0726 40.92H16.7626C15.5499 40.7142 14.5765 39.8077 14.2826 38.6136V38.5268H15.2126C15.6466 38.5206 15.9938 38.1672 15.9938 37.7332C15.9938 37.3017 15.6441 36.952 15.2126 36.952H14.2206V34.4968H15.2126C15.814 34.4968 16.1897 33.8458 15.8897 33.325C15.7495 33.0832 15.4916 32.9344 15.2126 32.9344H14.2206V30.5536H15.2126C15.814 30.5536 16.1897 29.9026 15.8897 29.3818C15.7495 29.14 15.4916 28.9912 15.2126 28.9912H14.2206V26.6104H20.3586V37.7704C20.371 39.2683 19.2848 40.5505 17.8042 40.7836L17.0726 40.92ZM14.233 25.0356V22.7044H20.3586V25.0356H14.233ZM52.3382 44.8012H11.4182V22.7044H12.6582V37.82C12.6719 40.021 14.2219 41.9132 16.3782 42.3584H16.527C16.7973 42.4055 17.0714 42.4353 17.3454 42.4452C17.6306 42.4452 18.2382 42.346 18.263 42.346C20.4219 41.9058 21.9743 40.0111 21.983 37.8076V22.7044H27.3646V37.82C27.3783 40.021 28.9283 41.9132 31.0846 42.3584H31.2334C31.5037 42.4055 31.7778 42.4353 32.0518 42.4452C32.337 42.4452 32.9446 42.346 32.9694 42.346C35.1283 41.9058 36.6807 40.0111 36.6894 37.8076V22.7044H42.0834V37.82C42.0921 40.0235 43.6446 41.9182 45.8034 42.3584H45.9398C46.2101 42.4055 46.4842 42.434 46.7582 42.4452C47.0434 42.4452 47.651 42.346 47.6758 42.346C49.8347 41.9058 51.3871 40.0111 51.3958 37.8076V22.7044H52.6358L52.3382 44.8012Z" fill="#0D1C3A"/>
<defs>
<linearGradient id="paint0_linear_344_942" x1="31.8906" y1="62" x2="31.8906" y2="0" gradientUnits="userSpaceOnUse">
<stop stop-color="#FACFDC"/>
<stop offset="1" stop-color="#D2E2F7"/>
</linearGradient>
</defs>
</svg>
