<svg width="62" height="62" viewBox="0 0 62 62" fill="none" xmlns="http://www.w3.org/2000/svg">
<path d="M62 31C62 48.1208 48.1208 62 31 62C13.8792 62 9.48012e-06 48.1208 9.48012e-06 31C9.48012e-06 13.8792 13.8792 0 31 0C48.1208 0 62 13.8792 62 31Z" fill="white"/>
<path d="M8.97695 51.3929C9.07615 51.1325 9.12575 50.9713 9.12575 50.9713C9.23735 50.7109 9.36135 50.4629 9.47295 50.2025C9.58455 49.9421 9.77055 49.5577 9.93175 49.2353L10.3533 48.4913L10.8741 47.5861L11.3577 46.8669C11.5561 46.5817 11.7421 46.2965 11.9529 46.0237C12.1637 45.7509 12.3001 45.5649 12.4861 45.3417C12.6721 45.1185 12.9077 44.8085 13.1309 44.5605L13.7261 43.9157L14.4329 43.1965L15.0777 42.5889C15.3257 42.3657 15.5737 42.1425 15.8341 41.9317C16.0945 41.7209 16.2805 41.5597 16.5161 41.3861L17.3469 40.7909L18.0661 40.2949L18.9341 39.7617L19.6781 39.3401C19.9757 39.1665 20.2857 39.0177 20.5957 38.8689L21.3769 38.4969L22.3441 38.1001L23.1253 37.8025L24.1669 37.4801L24.9481 37.2569C25.3077 37.1577 25.6921 37.0833 26.0641 37.0089H26.1261C23.3185 35.9403 20.9741 33.9216 19.5006 31.3037C18.0271 28.6858 17.5177 25.6342 18.0609 22.6796C18.6042 19.725 20.1657 17.0542 22.474 15.1316C24.7823 13.209 27.6914 12.1562 30.6955 12.1562C33.6997 12.1562 36.6088 13.209 38.9171 15.1316C41.2254 17.0542 42.7869 19.725 43.3302 22.6796C43.8734 25.6342 43.364 28.6858 41.8905 31.3037C40.417 33.9216 38.0726 35.9403 35.2649 37.0089C39.7582 37.9162 43.8802 40.139 47.1069 43.3949C47.4789 43.7793 47.8509 44.1761 48.1981 44.6349L48.5329 45.0317L49.2149 45.8873L49.5745 46.3833L50.1449 47.2017L50.4797 47.7473C50.6533 48.0201 50.8145 48.3053 50.9757 48.5905L51.2733 49.1485C51.4304 49.4461 51.5792 49.7437 51.7197 50.0413C51.8065 50.2273 51.8933 50.4009 51.9677 50.5869C52.0421 50.7729 52.4637 51.8269 52.8233 52.9057L52.6249 52.0749C52.7117 52.3353 52.8233 52.6205 52.9225 52.9181C57.2364 48.6033 60.1812 43.1114 61.3878 37.1305C62.5944 31.1496 62.0092 24.9456 59.7056 19.2958C57.402 13.6459 53.4823 8.80151 48.4377 5.36943C43.3931 1.93734 37.4479 0.0702058 31.3468 0.00194252C25.2458 -0.0663208 19.2603 1.66732 14.1401 4.98568C9.02002 8.30403 4.99296 13.0595 2.5635 18.6564C0.134032 24.2533 -0.589801 30.4426 0.48268 36.4491C1.55516 42.4555 4.37626 48.0118 8.59255 52.4221L8.74135 52.0253C8.81575 51.8021 8.90255 51.5913 8.97695 51.3929Z" fill="url(#paint0_linear_344_935)"/>
<path d="M51.9925 50.4753C51.9181 50.2893 51.8313 50.1157 51.7445 49.9297C51.6577 49.7437 51.4593 49.3345 51.2981 49.0369L51.0005 48.4789C50.8393 48.1937 50.6781 47.9085 50.5045 47.6357L50.1697 47.1149L49.5869 46.2717L49.2273 45.7757L48.5453 44.9201L48.2105 44.5233C47.8633 44.1141 47.4913 43.7173 47.1193 43.2833C43.8793 40.0301 39.7438 37.8155 35.2401 36.9221C38.0513 35.8534 40.3989 33.8332 41.8747 31.2128C43.3506 28.5924 43.8613 25.5376 43.318 22.5796C42.7747 19.6217 41.2118 16.9477 38.9011 15.0228C36.5904 13.0979 33.6782 12.0437 30.6707 12.0437C27.6633 12.0437 24.751 13.0979 22.4403 15.0228C20.1297 16.9477 18.5668 19.6217 18.0235 22.5796C17.4802 25.5376 17.9909 28.5924 19.4667 31.2128C20.9426 33.8332 23.2902 35.8534 26.1013 36.9221H26.0393C25.6673 36.9965 25.2829 37.0709 24.9233 37.1701L24.1421 37.3933L23.1005 37.7157L22.3193 38.0133L21.3521 38.4101L20.5709 38.7821C20.2609 38.9309 19.9509 39.0797 19.6533 39.2533L18.9093 39.6749L18.0413 40.2081L17.3221 40.7041L16.5037 41.2993C16.2681 41.4729 16.0449 41.6589 15.8217 41.8449C15.5985 42.0309 15.3133 42.2789 15.0653 42.5021L14.4205 43.1097L13.7137 43.8289L13.1185 44.4737C12.8953 44.7217 12.6845 44.9821 12.4737 45.2549C12.2629 45.5277 12.1141 45.7013 11.9405 45.9369C11.7669 46.1725 11.5437 46.4949 11.3453 46.7801L10.8617 47.4993L10.3409 48.4045L9.91934 49.1485C9.75814 49.4709 9.60934 49.7933 9.46054 50.1157C9.31174 50.4381 9.22494 50.6241 9.11334 50.8845L8.96454 51.3061C8.86534 51.5665 8.72894 51.9261 8.59254 52.3353C9.06374 52.8313 9.55974 53.3273 10.0805 53.7985C10.1549 53.5257 10.2417 53.2405 10.3285 52.9677C10.4153 52.6949 10.5517 52.3725 10.6633 52.0873C10.7749 51.8021 10.8617 51.5541 10.9733 51.2937C11.0849 51.0333 11.2461 50.7233 11.3825 50.4381C11.5189 50.1529 11.6305 49.9297 11.7669 49.6817L12.2257 48.8757L12.6721 48.1441L13.2053 47.4001C13.3665 47.1645 13.5277 46.9289 13.7013 46.7057C13.8749 46.4825 14.0981 46.2345 14.2965 45.9989L14.8421 45.3541L15.4869 44.6969L16.0821 44.1141L16.7889 43.5065L17.4213 42.9609L18.1777 42.4153C18.4009 42.2541 18.6241 42.0805 18.8473 41.9317C19.0705 41.7829 19.3805 41.5969 19.6533 41.4357L20.3601 41.0141L21.2033 40.5925C21.4513 40.4685 21.6869 40.3321 21.9349 40.2205L22.8277 39.8609L23.5717 39.5633L24.5265 39.2657L25.2705 39.0301L26.3121 38.8069L27.0189 38.6457L28.1969 38.4969L28.8045 38.4225C29.4202 38.3949 30.0369 38.399 30.6521 38.4349C33.4723 38.4097 36.2695 38.9448 38.8813 40.0091C41.4931 41.0734 43.8675 42.6458 45.8669 44.6349C46.2265 44.9945 46.5861 45.3789 46.9209 45.7633L47.1937 46.0981C47.4293 46.3833 47.6649 46.6685 47.8881 46.9661L48.1981 47.4125C48.3841 47.6853 48.5825 47.9457 48.7561 48.2185C48.9297 48.4913 48.9669 48.5657 49.0661 48.7393C49.1653 48.9129 49.3885 49.2725 49.5373 49.5453L49.8225 50.1157C49.9589 50.3761 50.0953 50.6365 50.2193 50.9093L50.4797 51.5169C50.5789 51.7897 50.6905 52.0501 50.7897 52.3229C50.8752 52.5338 50.9497 52.7491 51.0129 52.9677C51.1121 53.2405 51.1989 53.5009 51.2733 53.7737L51.4221 54.3193C51.9429 53.8605 52.4637 53.4017 52.9473 52.9057C52.9543 52.8605 52.9543 52.8145 52.9473 52.7693C52.4885 51.7029 52.0669 50.7605 51.9925 50.4753ZM19.6657 24.9809C19.6608 22.804 20.302 20.6745 21.5082 18.8622C22.7143 17.05 24.4311 15.6364 26.4411 14.8005C28.4512 13.9646 30.6641 13.7439 32.7996 14.1665C34.9351 14.5891 36.8972 15.6359 38.4374 17.1744C39.9776 18.7128 41.0267 20.6737 41.4517 22.8088C41.8767 24.9438 41.6585 27.157 40.8249 29.168C39.9912 31.179 38.5796 32.8974 36.7687 34.1056C34.9578 35.3137 32.8291 35.9573 30.6521 35.9549C27.7425 35.9483 24.9538 34.7905 22.8952 32.7342C20.8366 30.6779 19.6756 27.8905 19.6657 24.9809Z" fill="#0D1C3A"/>
<path d="M40.9069 44.5109C40.329 44.5129 39.7616 44.6662 39.2612 44.9556C38.7609 45.2449 38.345 45.6602 38.0549 46.1601C37.7769 45.6633 37.3723 45.2491 36.8822 44.9594C36.3922 44.6697 35.8342 44.515 35.2649 44.5109C34.3719 44.5516 33.5278 44.9305 32.9037 45.5706C32.2797 46.2108 31.9225 47.0643 31.9045 47.9581C31.8664 48.3748 31.9043 48.7949 32.0161 49.1981C32.2632 50.3071 32.8481 51.3121 33.6901 52.0749L38.0053 55.9933L42.4073 52.0749C43.2523 51.3134 43.8485 50.3154 44.1185 49.2105C44.2296 48.8071 44.2633 48.3864 44.2177 47.9705C44.2066 47.0818 43.8586 46.2304 43.2441 45.5882C42.6296 44.9461 41.7943 44.5611 40.9069 44.5109Z" fill="#0D1C3A"/>
<defs>
<linearGradient id="paint0_linear_344_935" x1="30.9993" y1="72.6346" x2="30.9993" y2="-0.00599666" gradientUnits="userSpaceOnUse">
<stop stop-color="#FACFDC"/>
<stop offset="1" stop-color="#D2E2F7"/>
</linearGradient>
</defs>
</svg>
