<svg width="63" height="64" viewBox="0 0 63 64" fill="none" xmlns="http://www.w3.org/2000/svg">
<path d="M31.915 64C49.0359 64 62.915 50.1208 62.915 33C62.915 15.8792 49.0359 2 31.915 2C14.7942 2 0.915039 15.8792 0.915039 33C0.915039 50.1208 14.7942 64 31.915 64Z" fill="url(#paint0_linear_392_509)"/>
<path d="M17.2458 43.1308V43.0068V42.8828L17.2706 42.8952H17.3946V43.1308H17.2458Z" fill="black"/>
<g clip-path="url(#clip0_392_509)">
<path d="M55.857 41.3903L51.8644 40.9385C51.2047 40.869 50.6492 40.3826 50.5104 39.7224V39.6876C50.3715 38.9927 50.684 38.2978 51.2742 37.9503L53.2531 36.8731C53.6003 36.6647 53.392 36.1434 53.0101 36.2477L50.8576 36.8731C50.1979 37.0816 49.4688 36.8036 49.0869 36.1782V36.1434C48.7397 35.5875 48.7744 34.8231 49.1911 34.3019L51.6908 31.1399C52.1421 30.5492 51.413 29.8195 50.8228 30.2712L47.6634 32.773C47.1427 33.1899 46.4136 33.2247 45.8233 32.8772H45.7886C45.1984 32.495 44.9207 31.7653 45.0942 31.1051L45.7192 28.9508C45.8233 28.5686 45.3026 28.3254 45.0942 28.7076L44.018 30.6882C43.6708 31.3136 42.9764 31.6263 42.282 31.4526H42.2473C41.5877 31.3136 41.1016 30.7577 41.0322 30.0975L40.5461 26.0668C40.4767 25.3371 39.4004 25.3371 39.2962 26.0668L38.8449 30.0627C38.7755 30.7229 38.2894 31.2789 37.6297 31.4178H37.595C36.9006 31.5568 36.2063 31.2441 35.8591 30.6187L34.7828 28.6728C34.5745 28.3254 34.0537 28.5338 34.1579 28.9161L34.7828 31.0704C34.9911 31.7306 34.7134 32.4603 34.1231 32.8425H34.0884C33.5329 33.1899 32.7691 33.1552 32.2483 32.7382L29.0889 30.2364C28.4987 29.7847 27.7696 30.5144 28.221 31.1051L30.7207 34.2671C31.1373 34.7883 31.1721 35.518 30.8249 36.1087V36.1434C30.443 36.7341 29.7139 37.0121 29.0542 36.8384L26.9017 36.2129C26.5198 36.1087 26.2767 36.6299 26.6586 36.8384L28.6376 37.9155C29.2625 38.263 29.575 38.958 29.4014 39.6529V39.6876C29.2625 40.3478 28.707 40.8343 28.0474 40.9038L23.9853 41.3903C23.2562 41.4597 23.2562 42.5369 23.9853 42.6411L27.9779 43.0929C28.6376 43.1624 29.1931 43.6488 29.332 44.309V44.3438C29.4708 45.0387 29.1584 45.7336 28.5682 46.0811L26.5892 47.1583C26.242 47.3667 26.4503 47.888 26.8322 47.7837L28.9848 47.1583C29.6444 46.9498 30.3735 47.2278 30.7554 47.8532V47.888C31.1026 48.4439 31.0679 49.2083 30.6513 49.7295L28.1515 52.8915C27.7002 53.4822 28.4293 54.2119 29.0195 53.7602L32.1789 51.2584C32.6997 50.8415 33.4288 50.8067 34.019 51.1542H34.0537C34.6439 51.5364 34.9217 52.2661 34.7481 52.9263L34.1231 55.0806C34.019 55.4628 34.5398 55.706 34.7481 55.3238L35.8244 53.3432C36.1715 52.7178 36.8659 52.4051 37.5603 52.5788H37.595C38.2547 52.7178 38.7407 53.2737 38.8102 53.9339L39.2615 57.9299C39.3309 58.6595 40.4072 58.6595 40.5114 57.9299L40.9627 53.9339C41.0322 53.2737 41.5182 52.7178 42.1779 52.5788H42.2126C42.907 52.4398 43.6013 52.7525 43.9485 53.3432L45.0248 55.3238C45.2331 55.6713 45.7539 55.4628 45.6497 55.0806L45.0248 52.9263C44.8165 52.2661 45.0943 51.5364 45.7192 51.1542H45.7539C46.3094 50.8067 47.0732 50.8415 47.594 51.2584L50.7534 53.7602C51.3436 54.2119 52.0727 53.4822 51.6214 52.8915L49.1216 49.7295C48.705 49.2083 48.6703 48.4787 49.0175 47.888V47.8532C49.3994 47.2625 50.1285 46.9845 50.7881 47.1583L52.9407 47.7837C53.3226 47.888 53.5656 47.3667 53.1837 47.1583L51.2047 46.0811C50.5798 45.7336 50.2673 45.0387 50.4409 44.3438V44.309C50.5798 43.6488 51.1353 43.1624 51.795 43.0929L55.7876 42.6411C56.5861 42.5369 56.5861 41.4945 55.857 41.3903Z" fill="white"/>
<path d="M39.872 59C39.872 59 39.8511 59 39.8442 59C39.2505 58.9861 38.7992 58.5656 38.7436 57.9819L38.2923 53.9964C38.2471 53.562 37.9451 53.2111 37.5354 53.1034L37.4347 53.0895C36.973 52.9748 36.5182 53.1729 36.2786 53.6003L35.2058 55.5774C34.9905 55.9735 34.5357 56.1437 34.1295 55.9804C33.7164 55.8136 33.5011 55.3793 33.6191 54.9484L34.2475 52.7872C34.3517 52.3945 34.2024 51.9532 33.883 51.6822H33.8761L33.7545 51.6093C33.3449 51.366 32.8519 51.3938 32.5047 51.6718L29.3418 54.1771C28.8627 54.5454 28.2412 54.5072 27.8246 54.0937C27.4114 53.6802 27.3733 53.0582 27.7378 52.5822L30.241 49.4132C30.5188 49.0692 30.5465 48.5446 30.3105 48.1728L30.2306 48.0234C29.9667 47.6863 29.5328 47.5369 29.137 47.662L26.974 48.2909C26.5504 48.4056 26.1269 48.204 25.9602 47.8079C25.7866 47.4049 25.9394 46.9462 26.3213 46.7169L28.3176 45.6293C28.7064 45.3999 28.9148 44.9239 28.821 44.4514L28.8106 44.3749C28.703 43.9649 28.3523 43.6626 27.9218 43.6174L23.9257 43.1657C23.3216 43.0788 22.9015 42.582 22.9154 41.9808C22.9293 41.3867 23.3494 40.935 23.9326 40.8794L27.9808 40.3929C28.4113 40.3477 28.7689 40.0385 28.8766 39.6354L28.8905 39.5346C29.005 39.069 28.8071 38.6173 28.3801 38.3776L26.4046 37.3039C26.0088 37.0885 25.8387 36.6333 26.0019 36.2267C26.1685 35.8132 26.599 35.5978 27.033 35.7159L29.1925 36.3449C29.5848 36.4491 30.0258 36.2997 30.2966 35.98V35.9731L30.3695 35.8515C30.6125 35.4414 30.5882 34.948 30.307 34.6006L27.8038 31.4351C27.4357 30.9556 27.4739 30.3336 27.8871 29.9167C28.3002 29.5032 28.9217 29.4649 29.3974 29.8263L32.5637 32.3316C32.9074 32.6096 33.4282 32.6374 33.8032 32.4011L33.942 32.3212C34.2614 32.0501 34.4003 31.6193 34.2753 31.2266L33.6469 29.0619C33.5323 28.638 33.7337 28.2141 34.1295 28.0473C34.5322 27.877 34.9905 28.0264 35.2197 28.4086L36.3064 30.3684C36.5425 30.7923 37.0042 31.0042 37.4833 30.9104L37.5597 30.9C37.9694 30.7923 38.2714 30.4413 38.3166 30.0105L38.7679 26.0111C38.8617 25.403 39.3547 24.9895 39.9622 24.9999C40.5559 25.0138 41.0073 25.4343 41.0628 26.018L41.5489 30.0348C41.594 30.4726 41.8961 30.8236 42.3058 30.9313L42.4064 30.9452C42.8682 31.0598 43.323 30.8618 43.5626 30.4344L44.6354 28.4573C44.8506 28.0612 45.3054 27.8909 45.7117 28.0542C46.1248 28.221 46.3366 28.6553 46.222 29.0862L45.5936 31.2475C45.4895 31.6401 45.6387 32.0814 45.9582 32.3524H45.9651L46.0866 32.4254C46.4963 32.6686 46.9893 32.6443 47.3365 32.3629L50.4994 29.8576C50.9785 29.4893 51.5999 29.5275 52.0166 29.941C52.4297 30.3545 52.4679 30.9764 52.1068 31.4525L49.6001 34.6214C49.3259 34.9654 49.2946 35.4901 49.5307 35.8619L49.6106 36.0113C49.8779 36.3483 50.3084 36.4978 50.7042 36.3727L52.8672 35.7437C53.2907 35.6291 53.7143 35.8306 53.881 36.2267C54.0546 36.6298 53.9018 37.0885 53.5234 37.3178L51.527 38.4054C51.1382 38.6347 50.9299 39.1107 51.0236 39.5833L51.034 39.6597C51.1417 40.0697 51.4923 40.372 51.9228 40.4172L55.9363 40.8724C56.5196 40.9558 56.9258 41.4214 56.9223 42.0017C56.9188 42.5993 56.4814 43.0754 55.8599 43.1553L51.8569 43.607C51.4229 43.6522 51.0722 43.9545 50.9646 44.3645L50.9507 44.4653C50.8361 44.9309 51.034 45.3826 51.4611 45.6189L53.4366 46.6925C53.8324 46.908 54.0025 47.3597 53.8393 47.7697C53.6726 48.1832 53.2421 48.3986 52.8082 48.2805L50.6487 47.6516C50.239 47.5438 49.7807 47.7072 49.5134 48.0546L49.4717 48.145C49.2287 48.555 49.253 49.0484 49.5342 49.3959L52.0339 52.5613C52.4019 53.0408 52.3638 53.6628 51.9506 54.0798C51.5374 54.4967 50.916 54.5315 50.4403 54.1701L47.274 51.6648C46.9303 51.3903 46.406 51.3591 46.0345 51.5954L45.8853 51.6753C45.5485 51.9393 45.4027 52.3737 45.5242 52.7698L46.1526 54.9345C46.2672 55.3585 46.0658 55.7824 45.67 55.9492C45.2673 56.1229 44.809 55.97 44.5798 55.5913L43.4931 53.5933C43.264 53.2041 42.7883 52.9957 42.3162 53.0895L42.2398 53.0999C41.8301 53.2076 41.5281 53.5586 41.4829 53.9894L41.0316 57.9888C40.9483 58.583 40.4657 59 39.8754 59H39.872ZM37.6187 52.0575L37.7021 52.0679C38.5804 52.2521 39.2332 52.9818 39.3269 53.8782L39.7782 57.8707C39.7817 57.9158 39.7852 57.9541 39.8685 57.9541C39.9761 57.961 39.99 57.8811 39.9935 57.8533L40.4414 53.8713C40.5351 52.9783 41.1878 52.2486 42.0662 52.0644L42.1599 52.054C43.0487 51.8977 43.941 52.3042 44.3923 53.0756L44.6701 53.5864L44.5208 53.0686C44.2431 52.1861 44.6215 51.2097 45.4443 50.7058L45.5693 50.6294H45.6144C46.347 50.2472 47.2705 50.3306 47.9163 50.8483L51.0722 53.3466C51.1069 53.3744 51.1521 53.3953 51.2042 53.3466C51.2597 53.291 51.2319 53.2458 51.2042 53.2076L48.7114 50.0526C48.1906 49.4028 48.1107 48.5168 48.4961 47.7558V47.735L48.5794 47.5716C49.0794 46.8003 50.0411 46.425 50.9195 46.6543L51.4507 46.8072L50.9542 46.5362C50.1313 46.0775 49.7217 45.1741 49.9196 44.2741L49.93 44.2012C50.114 43.3221 50.8431 42.6688 51.7388 42.575L55.728 42.1233C55.8217 42.1094 55.8738 42.0677 55.8738 41.9982C55.8738 41.9287 55.8321 41.9148 55.787 41.9079L51.8048 41.4562C50.9125 41.3623 50.1834 40.7091 49.9994 39.83L49.989 39.7362C49.8328 38.8467 50.239 37.9537 51.0097 37.5019L51.5201 37.224L51.0028 37.3734C50.1244 37.6514 49.1453 37.2726 48.6419 36.4491L48.5655 36.324V36.2788C48.1836 35.5457 48.267 34.6214 48.7843 33.9751L51.284 30.8166C51.3118 30.7819 51.3326 30.7367 51.284 30.6846C51.2319 30.6324 51.1868 30.6533 51.1451 30.6846L47.9927 33.1829C47.3434 33.7041 46.4581 33.784 45.6978 33.3983H45.6422L45.5138 33.3149C44.743 32.8146 44.368 31.8521 44.5972 30.973L44.7499 30.4413L44.4826 30.9347C44.0243 31.7583 43.1286 32.1648 42.2294 31.9702L42.146 31.9598C41.2677 31.7756 40.615 31.0459 40.5212 30.1495L40.0352 26.1258C40.0317 26.0771 40.0282 26.0389 39.9449 26.0389C39.8338 26.0215 39.8234 26.1119 39.8199 26.1397L39.372 30.1217C39.2783 31.0147 38.6256 31.7444 37.7472 31.9285L37.6535 31.9389C36.7508 32.0953 35.8585 31.6714 35.4141 30.8722L35.1259 30.3545L35.2926 30.9278C35.5669 31.7965 35.2093 32.7694 34.4142 33.2836L34.2857 33.367H34.2337C33.5046 33.7493 32.5776 33.6659 31.9318 33.1481L28.7759 30.6498C28.7446 30.6255 28.6995 30.5977 28.644 30.6498C28.5919 30.7019 28.6127 30.7471 28.644 30.7888L31.1368 33.9438C31.6575 34.5936 31.7374 35.4831 31.352 36.2406V36.2962L31.2687 36.4248C30.7687 37.1962 29.807 37.5714 28.9286 37.3421L28.4009 37.1892L28.8939 37.4568C29.7168 37.912 30.123 38.8119 29.9285 39.7119L29.9181 39.7952C29.7341 40.6743 29.005 41.3276 28.1093 41.4214L24.0541 41.9079C24.0055 41.9113 23.9673 41.9148 23.9673 41.9982C23.9673 42.1094 24.0403 42.1198 24.068 42.1233L28.0468 42.5715C28.9391 42.6654 29.6682 43.3186 29.8522 44.1977L29.8626 44.2915C30.0188 45.181 29.6126 46.074 28.8419 46.5258L28.3315 46.8037L28.8488 46.6543C29.7306 46.3763 30.7062 46.7551 31.2097 47.5786L31.286 47.7037V47.7454C31.668 48.4785 31.5846 49.4028 31.0673 50.0491L28.571 53.2076C28.5467 53.2389 28.519 53.2875 28.571 53.3397C28.6231 53.3918 28.6683 53.3709 28.7099 53.3397L31.8624 50.8413C32.5116 50.3236 33.4004 50.2402 34.1573 50.6259H34.2128L34.3413 50.7093C35.112 51.2097 35.487 52.1722 35.2579 53.0513L35.1051 53.5829L35.3724 53.0895C35.8272 52.266 36.7265 51.8594 37.6257 52.054L37.6187 52.0575Z" fill="black"/>
<path d="M42.7429 35.4623C41.8055 35.8098 41.3541 36.8522 41.7013 37.7556C41.8055 38.0336 41.6666 38.3463 41.3889 38.4506C41.3194 38.4853 41.25 38.4853 41.2153 38.4853C41.007 38.4853 40.7986 38.3463 40.7292 38.1379C40.1737 36.6437 40.9375 35.0106 42.4304 34.4547C42.7082 34.3504 43.0206 34.4894 43.1248 34.7674C43.1595 35.0454 43.0206 35.3581 42.7429 35.4623Z" fill="black"/>
<path d="M34.3136 47.3667C33.5497 47.3667 32.9248 46.7412 32.9248 45.9768C32.9248 45.2124 33.5497 44.5869 34.3136 44.5869C35.0774 44.5869 35.7023 45.2124 35.7023 45.9768C35.7023 46.7412 35.0774 47.3667 34.3136 47.3667Z" fill="black"/>
<path d="M36.3959 41.5292C35.9446 41.8072 35.4238 41.9462 34.903 41.9462C34.66 41.9462 34.4517 41.9114 34.2086 41.8767C33.4795 41.703 32.8199 41.2165 32.438 40.5911C32.2991 40.3478 32.3685 40.0004 32.6116 39.8614C32.8546 39.7224 33.2018 39.7919 33.3407 40.0351C33.5837 40.4521 33.9656 40.73 34.4517 40.8343C34.903 40.9385 35.3891 40.869 35.8057 40.6258C36.0487 40.4868 36.3959 40.5563 36.5348 40.7995C36.7431 41.0428 36.6736 41.3902 36.3959 41.5292Z" fill="black"/>
<path d="M36.1182 38.1933C35.3544 38.1933 34.7295 37.5679 34.7295 36.8035C34.7295 36.039 35.3544 35.4136 36.1182 35.4136C36.8821 35.4136 37.507 36.039 37.507 36.8035C37.507 37.5679 36.8821 38.1933 36.1182 38.1933Z" fill="black"/>
<path d="M45.5616 37.3247C46.3254 37.3247 46.9503 37.9502 46.9503 38.7146C46.9503 39.479 46.3254 40.1045 45.5616 40.1045C44.7978 40.1045 44.1729 39.479 44.1729 38.7146C44.2076 37.9502 44.7978 37.3247 45.5616 37.3247Z" fill="black"/>
<path d="M40.4933 50.4939C40.3892 50.6677 40.2156 50.7719 40.0073 50.7719C39.9378 50.7719 39.8337 50.7372 39.7642 50.7024C38.3755 49.9727 37.82 48.2354 38.5491 46.8455C38.6879 46.5675 39.0004 46.4633 39.2782 46.6022C39.5559 46.7412 39.6601 47.054 39.5212 47.3319C39.0699 48.2006 39.417 49.3125 40.285 49.7642C40.528 49.9032 40.6322 50.2159 40.4933 50.4939Z" fill="black"/>
<path d="M40.0069 44.0657C39.2431 44.0657 38.6182 43.4403 38.6182 42.6758C38.6182 41.9114 39.2431 41.2859 40.0069 41.2859C40.7707 41.2859 41.3957 41.9114 41.3957 42.6758C41.3957 43.4403 40.7707 44.0657 40.0069 44.0657Z" fill="black"/>
<path d="M43.9649 48.8608C43.2011 48.8608 42.5762 48.2354 42.5762 47.4709C42.5762 46.7065 43.2011 46.081 43.9649 46.081C44.7287 46.081 45.3537 46.7065 45.3537 47.4709C45.3537 48.2354 44.694 48.8608 43.9649 48.8608Z" fill="black"/>
<path d="M47.5408 44.6912C47.4713 44.7259 47.4019 44.7607 47.2977 44.7607C47.0894 44.7607 46.9158 44.6564 46.8117 44.4479C46.3951 43.5445 45.3188 43.1623 44.4161 43.614C44.1383 43.753 43.8259 43.614 43.687 43.3708C43.5481 43.0928 43.687 42.7801 43.93 42.6411C45.3535 41.9461 47.0547 42.5716 47.7491 43.9962C47.9227 44.2395 47.7838 44.5522 47.5408 44.6912Z" fill="black"/>
</g>
<g clip-path="url(#clip1_392_509)">
<path d="M22.1115 24.3324C27.375 24.3324 31.642 19.9814 31.642 14.6142C31.642 9.24698 27.375 4.896 22.1115 4.896C16.848 4.896 12.5811 9.24698 12.5811 14.6142C12.5811 19.9814 16.848 24.3324 22.1115 24.3324Z" fill="white"/>
<path d="M25.4531 24.7257C26.0846 24.7257 26.5966 24.2036 26.5966 23.5596C26.5966 22.9156 26.0846 22.3936 25.4531 22.3936C24.8215 22.3936 24.3096 22.9156 24.3096 23.5596C24.3096 24.2036 24.8215 24.7257 25.4531 24.7257Z" fill="white"/>
<path d="M31.2534 7.95064C31.2534 6.79131 30.3274 5.84704 29.1904 5.84704C28.7554 5.84704 28.3534 5.98482 28.0206 6.22005C26.3662 4.99351 24.3329 4.26767 22.1382 4.26767C16.6051 4.26767 12.1035 8.85794 12.1035 14.5C12.1035 20.1421 16.6051 24.7323 22.1382 24.7323C22.7874 24.7323 23.4168 24.6685 24.0331 24.5475C24.3231 25.0079 24.824 25.317 25.4007 25.317C26.297 25.317 27.0253 24.5744 27.0253 23.6604C27.0253 23.5864 27.0122 23.5159 27.0056 23.4453C30.0835 21.6946 32.1728 18.3443 32.1728 14.5034C32.1728 12.6047 31.662 10.8271 30.7756 9.30487C31.0754 8.93859 31.2567 8.46813 31.2567 7.95736L31.2534 7.95064ZM29.4079 9.02259C29.3387 9.0394 29.2629 9.04612 29.1872 9.04612C28.594 9.04612 28.1128 8.5555 28.1128 7.95064C28.1128 7.83974 28.1326 7.73221 28.1656 7.6314C28.2677 7.28864 28.5281 7.02317 28.8609 6.91228C28.9664 6.87868 29.0751 6.85515 29.1904 6.85515C29.7836 6.85515 30.2648 7.34577 30.2648 7.95064C30.2648 8.10521 30.2318 8.25307 30.1758 8.38412C30.0374 8.70672 29.754 8.94867 29.4079 9.02259ZM25.3974 24.3056C25.3117 24.3056 25.2293 24.2888 25.1535 24.2552C24.9228 24.1577 24.7614 23.9258 24.7614 23.657C24.7614 23.5192 24.8042 23.3915 24.8767 23.2874C24.992 23.1194 25.1832 23.0085 25.4007 23.0085C25.4567 23.0085 25.5127 23.0185 25.5654 23.032C25.8357 23.1059 26.0367 23.3579 26.0367 23.657C26.0367 23.7645 26.007 23.8654 25.9609 23.9561C25.8554 24.1644 25.6445 24.3056 25.3974 24.3056ZM31.1809 14.5C31.1809 17.9377 29.3256 20.9418 26.5804 22.5279C26.2839 22.2053 25.8653 22.0003 25.3974 22.0003C24.5307 22.0003 23.8287 22.6959 23.7826 23.5663C23.2487 23.6671 22.6984 23.7209 22.1382 23.7209C17.1522 23.7209 13.0922 19.5842 13.0922 14.4966C13.0922 9.40904 17.1489 5.27242 22.1382 5.27242C24.0825 5.27242 25.8851 5.90417 27.3615 6.97277C27.2132 7.26512 27.1275 7.59444 27.1275 7.94392C27.1275 8.41101 27.2791 8.84449 27.5361 9.19397C27.3779 9.27126 27.3285 9.2847 27.2791 9.26454C27.0847 9.17717 26.8737 9.18053 26.6793 9.26454C26.4849 9.35191 26.3366 9.51993 26.2245 9.69131C26.1454 9.67115 26.0697 9.6577 25.9972 9.64426C25.8983 9.62746 25.7533 9.60058 25.7104 9.5737C25.6709 9.54681 25.5918 9.41912 25.5391 9.33511C25.4633 9.21414 25.3776 9.07636 25.2623 8.95539C25.4831 8.78737 25.6379 8.53534 25.717 8.3102L24.791 7.96072C24.7679 8.02456 24.7152 8.10521 24.6823 8.13882C24.4516 8.16234 24.267 8.28331 24.1649 8.47821C24.1319 8.54542 24.1122 8.61263 24.1023 8.6832C24.0825 8.68656 24.0594 8.68992 24.0364 8.69664C23.9342 8.72016 23.8222 8.74368 23.7398 8.74368C23.7134 8.73696 23.6607 8.70672 23.6079 8.66975C23.7266 8.59919 23.8024 8.5051 23.8518 8.41773C24.0693 8.0212 23.8189 7.60788 23.6837 7.38609L23.6574 7.34241L22.8994 7.79942C22.5929 7.86327 22.4512 8.05145 22.3919 8.17578C22.3689 8.22283 22.3557 8.26651 22.3425 8.31356C22.1514 8.38076 21.9899 8.49166 21.8515 8.59247C21.7724 8.64959 21.657 8.7336 21.5878 8.74704C21.5219 8.74704 21.4165 8.72352 21.3143 8.7C21.2978 8.69664 21.2814 8.69328 21.2649 8.68992C21.1462 8.39084 20.9782 8.10521 20.7475 7.96072L20.8365 7.10718C20.4509 7.06686 20.1016 7.23824 19.9006 7.56419C19.7028 7.88679 19.6864 8.30684 19.8577 8.57903C19.9434 8.71344 20.0686 8.80417 20.2103 8.84786C20.0357 8.98899 19.917 9.17717 19.8182 9.33847C19.7654 9.42248 19.6864 9.55017 19.6468 9.57706C19.6073 9.60394 19.459 9.63082 19.3601 9.64762C19.2283 9.67114 19.08 9.69803 18.935 9.75179C18.9185 9.70811 18.8987 9.66442 18.8724 9.62074C18.6977 9.36535 18.444 9.19733 16.9017 9.5905L17.1423 10.5684C17.4257 10.4978 17.7256 10.434 17.9562 10.397C18.0156 10.5482 18.1177 10.6625 18.2265 10.7532C18.2265 10.7733 18.2199 10.7935 18.2166 10.8137C18.2001 10.9145 18.1737 11.0623 18.1474 11.106C18.121 11.1463 17.9958 11.227 17.9134 11.2808C17.7157 11.4085 17.4784 11.5698 17.3367 11.8386C17.0566 11.8924 16.6842 12.0368 16.1866 12.3359C15.8636 12.5308 15.7022 12.6014 15.6297 12.6249C15.6066 12.598 15.5769 12.5611 15.5539 12.5342L15.4814 12.4468L14.7234 13.0954L14.786 13.1727C15.0497 13.502 15.2935 13.6465 15.5769 13.6465C15.8801 13.6465 16.2261 13.4818 16.6842 13.2063C16.9577 13.0416 17.1587 12.9509 17.3037 12.8971C17.3202 12.9845 17.3367 13.0752 17.3301 13.1122C17.3202 13.1592 17.2378 13.2802 17.1818 13.3575C17.0335 13.5725 16.8457 13.8414 16.8457 14.1942C16.8457 14.2009 16.8457 14.2076 16.8457 14.2177C16.6875 14.2816 16.5326 14.3891 16.4272 14.5605C16.3942 14.6109 16.3711 14.6579 16.3514 14.705C16.292 14.7117 16.1899 14.7218 16.0317 14.7285L16.0712 15.7366C16.6512 15.7131 17.0434 15.6593 17.2378 15.162C17.2378 15.1553 17.2411 15.1486 17.2444 15.1418H17.251C17.2873 15.199 17.3202 15.2527 17.3268 15.283C17.3367 15.3334 17.3037 15.4846 17.2807 15.5854C17.2247 15.8408 17.1554 16.1567 17.2807 16.4759C17.3004 16.5196 17.3268 16.5565 17.3499 16.5969C17.3037 16.701 17.2642 16.8153 17.2411 16.9531C17.2181 17.1043 17.162 17.2555 16.7897 17.2925L16.8885 18.2972C17.5344 18.23 17.9859 17.8906 18.1606 17.3496C18.1803 17.4134 18.1935 17.5075 18.2067 17.5781C18.2397 17.7663 18.2792 17.9881 18.3879 18.1863C18.2034 18.4451 18.1078 18.7542 18.2397 19.0835L18.2594 19.1272C18.2726 19.1608 18.2891 19.2012 18.3023 19.2348C18.2957 19.2415 18.2858 19.2516 18.2759 19.2616C18.1902 19.3389 18.1276 19.4061 18.0716 19.4666C18.0452 19.4969 18.0222 19.5238 18.0156 19.5338C18.0156 19.5338 17.976 19.5473 17.8607 19.5406L17.8244 20.5487C17.8541 20.5487 17.8804 20.5487 17.9068 20.5487C18.3912 20.5487 18.589 20.3773 18.7933 20.1555C18.8328 20.1152 18.8757 20.0648 18.935 20.011C19.4656 19.5271 19.3239 19.1104 19.1887 18.7744C19.2019 18.7576 19.2217 18.7374 19.2415 18.7206C19.281 18.7273 19.3206 18.7374 19.3568 18.7441C19.4557 18.7609 19.6007 18.7878 19.6435 18.8147C19.6831 18.8416 19.7622 18.9693 19.8149 19.0533C19.9401 19.2583 20.1016 19.5036 20.3718 19.6447C20.3949 19.7859 20.441 19.9404 20.5333 20.1017C20.5201 20.1118 20.5036 20.1185 20.4872 20.1286C19.8742 20.468 19.6468 21.1871 19.8511 21.6072L20.7343 21.1569C20.7607 21.2107 20.764 21.2543 20.764 21.2678C20.764 21.2275 20.82 21.0897 20.9551 21.0158C21.1594 20.9015 21.4461 20.7133 21.5351 20.3706C21.6142 20.0681 21.5022 19.806 21.4264 19.6682C21.4923 19.6548 21.5582 19.6447 21.6109 19.6447C21.657 19.6548 21.7757 19.7388 21.8548 19.7959C22.0657 19.9472 22.3293 20.1387 22.6753 20.1387C23.0214 20.1387 23.285 19.9472 23.4959 19.7959C23.575 19.7388 23.6903 19.6548 23.7595 19.6414C23.8254 19.6414 23.9309 19.6649 24.0331 19.6884C24.066 19.6951 24.1056 19.7019 24.1418 19.7086C24.2077 20.0681 24.4087 20.4579 24.8767 20.626C25.0118 20.673 25.0547 20.71 25.0579 20.71C25.0645 20.7234 25.0744 20.7671 25.081 20.7973C25.0975 20.8679 25.1173 20.9418 25.1469 21.0158L26.0664 20.6461C26.0532 20.6125 26.0466 20.5789 26.0367 20.5453C25.9609 20.2429 25.8258 19.9001 25.2029 19.675C25.1568 19.6582 25.1304 19.6111 25.1173 19.5574C25.3051 19.4129 25.427 19.2146 25.5292 19.0499C25.5819 18.9659 25.661 18.8382 25.7006 18.8114C25.7401 18.7845 25.8884 18.7576 25.9873 18.7408C26.0729 18.7273 26.1619 18.7072 26.2575 18.6837C26.2839 18.7273 26.297 18.8214 26.2674 19.0197C26.2377 19.2012 26.2872 19.386 26.4025 19.5372C26.709 19.9337 27.579 20.0816 28.2578 20.1387L28.3369 19.1339C27.9382 19.1003 27.4933 19.0163 27.2692 18.939C27.289 18.5392 27.1868 18.2401 27.022 18.0317C27.0814 17.8772 27.111 17.7159 27.1341 17.5747C27.1506 17.4739 27.1769 17.3261 27.2033 17.2824C27.2297 17.2421 27.3549 17.1614 27.4373 17.1076C27.4504 17.0976 27.4669 17.0875 27.4834 17.0774C27.5197 17.0942 27.5559 17.1177 27.5987 17.1312C27.7075 17.1648 27.8228 17.1816 27.9448 17.1816C28.36 17.1816 28.8082 17.0001 29.0817 16.8052C29.1147 16.8287 29.1542 16.8623 29.1806 16.8926L29.5529 16.5599L29.9286 16.2306C29.5826 15.824 28.9993 15.5652 28.5379 15.9651C28.4556 16.0357 28.2809 16.1096 28.1326 16.1466C28.1425 15.945 28.1062 15.7501 28.07 15.582C28.0469 15.4812 28.014 15.33 28.0239 15.2796C28.0337 15.2326 28.1161 15.1116 28.1722 15.0343C28.3237 14.8192 28.5083 14.5504 28.5083 14.1976C28.5083 13.9119 28.3831 13.6801 28.2578 13.4885C28.3369 13.5087 28.4028 13.5289 28.4622 13.5457C28.594 13.586 28.7192 13.6229 28.8906 13.6465C28.9301 13.6498 28.9664 13.6532 29.0026 13.6532C29.1904 13.6532 29.3519 13.5961 29.487 13.549C29.5398 13.5322 29.6189 13.502 29.6485 13.502C29.6485 13.502 29.6353 13.502 29.6156 13.4986L29.8397 12.5174C29.5793 12.4535 29.3453 12.5375 29.1707 12.5947C29.1147 12.6148 29.029 12.6451 29.0092 12.6451C28.9202 12.635 28.8543 12.6148 28.7423 12.5812C28.6236 12.5443 28.4753 12.5006 28.2512 12.4535C28.2084 12.4435 28.1689 12.4401 28.1293 12.4334C28.1425 12.2687 28.1326 12.0973 28.0634 11.9226C27.9316 11.6 27.6614 11.4253 27.4406 11.2841C27.3582 11.2304 27.2329 11.1497 27.2066 11.1094C27.1802 11.0691 27.1539 10.9178 27.1374 10.817C27.111 10.6625 27.0748 10.4877 27.0056 10.3163C27.0187 10.2928 27.0319 10.2659 27.0418 10.2458C27.4504 10.3567 27.7899 10.1886 27.981 10.0912C28.0173 10.0744 28.0502 10.0542 28.0799 10.0441L27.9547 9.6241C28.3007 9.88621 28.7258 10.0475 29.1904 10.0475C29.4673 10.0475 29.7309 9.99038 29.9715 9.88957C30.7393 11.2438 31.1809 12.8131 31.1809 14.4899V14.5ZM27.3648 13.9455C27.4208 14.0262 27.5131 14.1572 27.5197 14.1942C27.5098 14.2446 27.4175 14.3757 27.3648 14.4563C27.2428 14.6344 27.1044 14.8327 27.055 15.0881C27.0056 15.3502 27.055 15.5921 27.1044 15.8072C27.1242 15.9046 27.1572 16.0525 27.1572 16.0827C27.1308 16.1231 26.9957 16.2104 26.9166 16.2608C26.8342 16.3146 26.7452 16.3717 26.6628 16.4389C26.4948 16.3045 26.2707 16.197 26.0301 16.0794C25.8851 16.0088 25.7368 15.9382 25.6511 15.8811C25.605 15.8509 25.5325 15.7635 25.4567 15.666C25.6445 15.8643 25.8884 15.9819 26.1487 15.9819C26.3597 15.9819 26.5574 15.9013 26.7057 15.7601C26.8639 15.6056 26.9495 15.3939 26.9495 15.162C26.9495 14.8293 26.8012 14.6109 26.7123 14.4798C26.7024 14.463 26.6925 14.4496 26.6793 14.4328C26.6793 14.4261 26.6859 14.4193 26.6892 14.4126L27.1242 13.5289C27.1901 13.6834 27.2791 13.8212 27.3648 13.9422V13.9455ZM27.1044 12.5947C27.0583 12.8097 27.0023 13.055 27.055 13.3138C27.0616 13.3508 27.0748 13.381 27.0847 13.4146L26.1092 13.707C26.0037 13.7406 25.46 13.922 25.2227 14.3925C25.0975 14.6411 25.081 14.92 25.1766 15.199C25.2062 15.283 25.2425 15.3603 25.2853 15.4308C25.2754 15.4174 25.2656 15.4039 25.259 15.3905C25.025 15.0545 24.8536 14.8125 24.5373 14.8125L24.3066 14.8226L24.1616 14.9772C23.9869 15.162 23.9968 15.4073 24.0001 15.5014C24.0133 15.8542 24.2341 16.1634 24.4483 16.4658C24.5076 16.5498 24.5669 16.6305 24.6131 16.7078C24.7482 16.9262 25.2524 17.6419 26.0499 17.6419C26.0762 17.6419 26.1026 17.6386 26.1257 17.6352C26.1191 17.6587 26.1158 17.6789 26.1125 17.6856C26.0729 17.7125 25.9247 17.7394 25.8258 17.7562C25.6149 17.7932 25.3743 17.8368 25.1568 17.9813C24.9426 18.1292 24.8141 18.3375 24.6987 18.5224C24.6493 18.603 24.5636 18.7374 24.5241 18.7609C24.4615 18.7609 24.356 18.7374 24.2572 18.7139C24.0495 18.6669 23.7892 18.6165 23.5519 18.6635C23.3015 18.7139 23.107 18.855 22.9324 18.9794C22.8566 19.0331 22.7347 19.1205 22.6819 19.1373C22.6424 19.1272 22.5633 19.0735 22.4941 19.0264C22.7116 18.9558 22.962 18.8114 23.2026 18.5291C23.9045 17.689 23.8287 17.1345 23.7398 16.4893C23.7266 16.3919 23.7101 16.2844 23.7002 16.1701C23.5882 15.1855 23.2191 14.9772 22.9324 14.9772C22.7775 14.9772 22.6292 15.0444 22.527 15.1654C22.471 15.2292 22.4348 15.3098 22.4051 15.4006C22.1217 15.0377 21.7526 14.7352 21.3835 14.7352C21.3275 14.7352 21.2781 14.7453 21.2253 14.7554L21.1957 14.6747C21.0836 14.3757 20.8464 14.1976 20.5564 14.1774C20.6585 14.0463 20.7244 13.875 20.7343 13.6666L20.7541 13.2835L20.3982 13.1626C20.1609 13.0819 19.8907 12.9509 19.7951 12.8769C19.6237 12.4972 19.1031 12.2654 18.6878 12.2654C18.5099 12.2654 18.3517 12.309 18.2166 12.3863C18.2133 12.3594 18.2067 12.3359 18.21 12.3258C18.2364 12.2855 18.3715 12.1981 18.4506 12.1477C18.6318 12.0301 18.8361 11.8991 18.9811 11.6806C19.1261 11.4622 19.1657 11.2169 19.2019 11.0019C19.2184 10.901 19.2448 10.7532 19.2579 10.7229C19.2975 10.6961 19.4458 10.6692 19.5447 10.6524C19.716 10.6221 19.9039 10.5852 20.0851 10.4978C20.0752 10.8574 20.2169 11.2102 20.3125 11.4454C20.3389 11.5093 20.3619 11.563 20.3751 11.6101L20.8826 13.2399L21.0704 13.334C21.2451 13.4213 21.4 13.4616 21.545 13.4616C21.6241 13.4616 21.6966 13.4448 21.7658 13.4213C21.7658 13.5423 21.7823 13.6666 21.8251 13.791C21.9899 14.2681 22.3689 14.5773 22.794 14.5773C23.0049 14.5773 23.2026 14.4966 23.3509 14.3521C23.5091 14.1976 23.5948 13.9859 23.5948 13.754C23.5948 13.4213 23.4465 13.2029 23.3575 13.0718C23.3476 13.055 23.3377 13.0416 23.3245 13.0248C23.3245 13.0181 23.3311 13.0114 23.3344 13.0046L23.7233 12.2149C23.9078 12.1007 24.0858 11.9428 24.2637 11.7747C24.2703 11.7747 24.2736 11.7747 24.2802 11.7781C24.3527 11.7949 24.4417 11.8151 24.5406 11.8151C24.8141 11.8151 25.137 11.6504 25.2227 11.1934C25.2787 10.9078 25.2227 10.6423 25.0645 10.4474C24.7745 10.0878 24.1715 10.0878 23.7497 10.4608C23.4333 10.7397 22.6885 11.3043 22.6786 11.311L22.3623 11.553L22.5237 11.9226C22.5929 12.0805 22.6984 12.2015 22.8269 12.2788L22.7577 12.299C22.6951 12.3191 22.4743 12.393 22.2568 12.551C22.2469 12.225 22.1547 11.8487 22.0525 11.4353C21.9965 11.2102 21.9108 10.8708 21.9141 10.7733C21.9207 10.6759 21.9569 10.5583 21.9965 10.4474C22.0657 10.239 22.1579 9.96014 21.9965 9.69467C22.1645 9.62746 22.3095 9.52329 22.4381 9.4292C22.5172 9.37207 22.6457 9.27798 22.6819 9.27126C22.7314 9.28134 22.8599 9.37543 22.939 9.4292C23.1136 9.55353 23.3081 9.69467 23.5585 9.74507C23.7958 9.79212 24.0561 9.74171 24.2637 9.69467C24.3659 9.67115 24.4681 9.64762 24.534 9.6409C24.5735 9.66779 24.6592 9.80556 24.7086 9.88621C24.824 10.071 24.9525 10.2794 25.1667 10.4272C25.3809 10.5751 25.6215 10.6154 25.8357 10.6557C25.9345 10.6725 26.0795 10.6994 26.1092 10.7129C26.1356 10.7532 26.1619 10.9044 26.1784 11.0052C26.2147 11.2203 26.2575 11.4656 26.3992 11.6874C26.5442 11.9058 26.7485 12.0368 26.9298 12.1545C27.0089 12.2049 27.144 12.2922 27.1637 12.3158C27.1736 12.3628 27.1407 12.5107 27.1176 12.6081L27.1044 12.5947ZM19.2579 17.6991C19.2316 17.6587 19.2052 17.5075 19.1887 17.4067C19.1525 17.1917 19.1097 16.9463 18.9679 16.7246C18.8229 16.5061 18.6186 16.3751 18.4374 16.2575C18.3583 16.2071 18.2265 16.1197 18.2034 16.0962C18.1935 16.0458 18.2265 15.9013 18.2495 15.8038C18.2957 15.5888 18.3517 15.3468 18.299 15.0847C18.2495 14.8293 18.1111 14.6277 17.9892 14.453C17.9332 14.3723 17.8409 14.2413 17.8343 14.2043C17.8442 14.1539 17.9365 14.0228 17.9892 13.9422C18.0189 13.9019 18.0485 13.8582 18.0749 13.8145C18.2298 13.9254 18.4143 13.9791 18.5857 14.0295C18.6648 14.0531 18.7504 14.0766 18.846 14.1102C18.9317 14.1404 19.024 14.1774 19.1162 14.2177C19.3403 14.3118 19.571 14.4025 19.7951 14.4328C19.6732 14.5168 19.5545 14.6143 19.4359 14.7151C19.4293 14.7151 19.426 14.7151 19.4194 14.7117C19.337 14.6882 19.2382 14.6613 19.1162 14.6613C18.9943 14.6613 18.5758 14.7016 18.444 15.246C18.3715 15.5384 18.4176 15.8105 18.5758 16.0155C18.7208 16.2037 18.9482 16.3112 19.1986 16.3112C19.4293 16.3112 19.6699 16.2205 19.8775 16.0558C20.0258 15.9382 20.2598 15.7736 20.474 15.6224C20.4806 15.7534 20.5135 15.8811 20.5794 15.9987C20.7541 16.3079 21.1133 16.4625 21.4791 16.3784C21.4824 16.3784 21.489 16.3784 21.4923 16.3784C21.512 16.4053 21.5417 16.4524 21.5615 16.486C21.6142 16.5733 21.6735 16.6742 21.7691 16.7649C21.9404 16.9262 22.1316 17.074 22.3689 17.074C22.3886 17.074 22.4084 17.0707 22.4282 17.0673C22.4282 17.0774 22.4249 17.0908 22.4216 17.0976C22.2436 17.4134 22.1382 17.6016 21.7427 17.7226C21.2847 17.8604 21.166 18.2098 21.2023 18.4619C21.2122 18.5425 21.2418 18.6131 21.2781 18.6803C21.2187 18.6904 21.1561 18.7038 21.1001 18.7173C20.9979 18.7408 20.8958 18.7643 20.8299 18.771C20.7903 18.7441 20.7047 18.6064 20.6552 18.5257C20.5399 18.3409 20.4114 18.1326 20.1972 17.9847C19.9829 17.8368 19.7424 17.7965 19.5315 17.7596C19.4326 17.7428 19.2843 17.7159 19.2579 17.7024V17.6991Z" fill="black"/>
<path d="M35.933 18.0015C36.2065 16.8791 36.3548 15.7064 36.3548 14.5C36.3548 6.50568 29.9748 0 22.1349 0C19.3041 0 16.6678 0.850174 14.4499 2.31194C14.0446 1.9591 13.5206 1.74403 12.9472 1.74403C11.6686 1.74403 10.6305 2.80255 10.6305 4.10637C10.6305 4.60371 10.7821 5.06408 11.0424 5.44716C9.08822 7.92711 7.91504 11.0758 7.91504 14.5C7.91504 19.06 9.99118 23.1328 13.2306 25.7942C13.1779 25.9589 13.1416 26.1269 13.1416 26.3083C13.1416 27.2224 13.8699 27.965 14.7663 27.965C15.1947 27.965 15.5836 27.7903 15.8736 27.5147C17.7652 28.4623 19.8874 29 22.1349 29C27.345 29 31.9027 26.1269 34.3808 21.8592C34.5291 21.8928 34.684 21.913 34.8422 21.913C35.9857 21.913 36.915 20.9654 36.915 19.7993C36.915 19.0399 36.5196 18.3779 35.933 18.0049V18.0015ZM34.8422 20.9015C34.4962 20.9015 34.193 20.7335 33.992 20.4747C33.847 20.2866 33.7547 20.0513 33.7547 19.7926C33.7547 19.2314 34.1699 18.7677 34.7038 18.7005C34.7499 18.6937 34.7928 18.687 34.8422 18.687C35.1553 18.687 35.4387 18.8248 35.6364 19.0432C35.8177 19.2415 35.9297 19.5036 35.9297 19.7926C35.9297 20.384 35.4683 20.8679 34.8949 20.8948C34.8785 20.8948 34.862 20.8981 34.8455 20.8981L34.8422 20.9015ZM11.6158 4.10301C11.6158 3.35701 12.2123 2.74878 12.9439 2.74878C13.1746 2.74878 13.3921 2.81599 13.5799 2.92352C13.8765 3.09154 14.1006 3.36709 14.2061 3.70313C14.2456 3.83082 14.272 3.96188 14.272 4.10301C14.272 4.84901 13.6755 5.45724 12.9439 5.45724C12.7594 5.45724 12.5814 5.41692 12.4232 5.34635C12.1102 5.20857 11.8597 4.95319 11.7246 4.63395C11.6554 4.46929 11.6158 4.29119 11.6158 4.10301ZM14.8553 26.9468C14.8256 26.9502 14.7992 26.9569 14.7696 26.9569C14.4862 26.9569 14.2456 26.7654 14.1632 26.4999C14.1434 26.4394 14.1303 26.3755 14.1303 26.3083C14.1303 25.9689 14.3873 25.6934 14.7136 25.6632C14.73 25.6632 14.7498 25.6564 14.7663 25.6564C15.0398 25.6564 15.2705 25.8345 15.3628 26.0832C15.3891 26.1538 15.4023 26.2277 15.4023 26.3083C15.4023 26.6377 15.1617 26.9065 14.852 26.9502L14.8553 26.9468ZM22.1349 27.9919C20.0654 27.9919 18.1046 27.5046 16.3613 26.6377C16.3811 26.5301 16.3942 26.4226 16.3942 26.3083C16.3942 25.3943 15.6659 24.6517 14.7696 24.6517C14.4104 24.6517 14.0808 24.776 13.8106 24.9776C10.8216 22.501 8.90368 18.7273 8.90368 14.5034C8.90368 11.3446 9.97799 8.43789 11.7674 6.13604C12.1134 6.34438 12.5155 6.46871 12.9472 6.46871C14.2258 6.46871 15.2639 5.4102 15.2639 4.10637C15.2639 3.75353 15.1848 3.42086 15.0497 3.11842C17.0995 1.78436 19.5315 1.01147 22.1382 1.01147C29.4344 1.01147 35.3695 7.0635 35.3695 14.5034C35.3695 15.6022 35.2377 16.6708 34.9938 17.6924C34.9444 17.6924 34.8949 17.6856 34.8455 17.6856C33.702 17.6856 32.7727 18.6333 32.7727 19.7993C32.7727 20.4411 33.0561 21.0191 33.5009 21.4056C31.1875 25.3473 26.9628 27.9919 22.1382 27.9919H22.1349Z" fill="black"/>
<path d="M29.1709 9.04947C29.8024 9.04947 30.3144 8.52742 30.3144 7.88342C30.3144 7.23943 29.8024 6.71738 29.1709 6.71738C28.5393 6.71738 28.0273 7.23943 28.0273 7.88342C28.0273 8.52742 28.5393 9.04947 29.1709 9.04947Z" fill="white"/>
<path d="M24.8344 12.0603H24.7717C24.4026 12.0737 24.2115 12.2754 24.1324 12.3963C23.905 12.7324 24.027 13.139 24.0533 13.2163L24.0863 13.2936C24.3236 13.7405 24.6201 13.9656 24.9662 13.9656C25.187 13.9656 25.5099 13.8682 25.7736 13.4045C25.9416 13.1121 25.9548 12.7962 25.8098 12.5375C25.6384 12.235 25.2858 12.0637 24.8376 12.0637L24.8344 12.0603Z" fill="black"/>
</g>
<defs>
<linearGradient id="paint0_linear_392_509" x1="31.915" y1="64" x2="31.915" y2="2" gradientUnits="userSpaceOnUse">
<stop stop-color="#FACFDC"/>
<stop offset="1" stop-color="#D2E2F7"/>
</linearGradient>
<clipPath id="clip0_392_509">
<rect width="34" height="34" fill="white" transform="translate(22.915 25)"/>
</clipPath>
<clipPath id="clip1_392_509">
<rect width="29" height="29" fill="white" transform="translate(7.91504)"/>
</clipPath>
</defs>
</svg>
