<svg width="63" height="62" viewBox="0 0 63 62" fill="none" xmlns="http://www.w3.org/2000/svg">
<path d="M31.915 62C49.0359 62 62.915 48.1208 62.915 31C62.915 13.8792 49.0359 0 31.915 0C14.7942 0 0.915039 13.8792 0.915039 31C0.915039 48.1208 14.7942 62 31.915 62Z" fill="url(#paint0_linear_392_510)"/>
<path d="M17.2458 41.1308V41.0068V40.8828L17.2706 40.8952H17.3946V41.1308H17.2458Z" fill="black"/>
<g clip-path="url(#clip0_392_510)">
<path d="M16.3145 45.9561V13.2809H35.6934V21.3843C35.6934 21.7503 36.0102 22.064 36.3798 22.064H44.67V33.4088C43.8779 33.0428 43.0859 32.8337 42.2938 32.6769V26.5601C42.2938 26.1418 41.977 25.8281 41.5546 25.8281H37.9639C37.5415 25.8281 37.2247 26.1418 37.2247 26.5601V33.0951C36.8023 33.2519 36.4326 33.4088 36.063 33.5656V31.6313C36.063 31.213 35.7462 30.8993 35.3238 30.8993H31.7331C31.3107 30.8993 30.9939 31.213 30.9939 31.6313V38.9505C30.0962 41.1986 30.0962 43.708 30.8883 45.9561H16.3145Z" fill="white"/>
<path d="M18.9277 17.9077H24.4721C24.8945 17.9077 25.2114 17.594 25.2114 17.1758C25.2114 16.7575 24.8945 16.4438 24.4721 16.4438H18.9277C18.5053 16.4438 18.1885 16.7575 18.1885 17.1758C18.1885 17.594 18.5053 17.9077 18.9277 17.9077Z" fill="#231F20"/>
<path d="M29.119 26.7954H25.5283C25.12 26.7954 24.7891 27.1231 24.7891 27.5273V42.009C24.7891 42.4132 25.12 42.7409 25.5283 42.7409H29.119C29.5272 42.7409 29.8582 42.4132 29.8582 42.009V27.5273C29.8582 27.1231 29.5272 26.7954 29.119 26.7954Z" fill="#231F20"/>
<path d="M22.9412 30.9778H19.3506C18.9281 30.9778 18.6113 31.2914 18.6113 31.7097V42.0089C18.6113 42.4271 18.9281 42.7408 19.3506 42.7408H22.9412C23.3637 42.7408 23.6805 42.4271 23.6805 42.0089V31.7097C23.6805 31.2914 23.3109 30.9778 22.9412 30.9778Z" fill="#231F20"/>
<path d="M55.6794 52.2558L49.8182 46.4527C50.9799 43.5773 50.7687 40.3882 49.2374 37.7219V16.4438C49.2374 16.0779 48.9206 15.7642 48.5509 15.7642H40.4192L36.8285 12.2091C36.7229 12.0523 36.5117 12 36.3533 12H15.6015C15.2319 12 14.915 12.3137 14.915 12.6796V46.7141C14.915 47.0801 15.2319 47.3938 15.6015 47.3938H18.2417V50.1646C18.2417 50.5306 18.5585 50.8443 18.9281 50.8443H34.5052C37.3038 52.8832 41 53.3537 44.2211 52.0467L50.0823 57.8498C50.8743 58.5818 51.8776 59 52.9336 59C53.9897 59 54.993 58.5818 55.7322 57.8498C57.3163 56.2814 57.3163 53.772 55.6794 52.2558ZM47.8645 17.1235V17.1496H47.8962V35.9182C47.8962 35.9182 47.8751 35.8921 47.8645 35.8816V35.8921C47.7589 35.7875 47.7061 35.683 47.6005 35.5784C47.4738 35.4529 47.3417 35.3275 47.215 35.2072C46.819 34.8465 46.4124 34.5171 45.9424 34.2453V34.2348C45.9424 34.2348 45.9213 34.2191 45.9108 34.2139V21.4575C45.9108 21.3007 45.8052 21.0915 45.6996 20.987L41.7921 17.1182H47.8645V17.1235ZM37.0398 14.3003L38.4655 15.7642H37.0398V14.3003ZM37.0398 17.0712H39.8912L43.5874 20.7831H37.0398V17.0712ZM16.2879 46.0345V13.3593H35.6669V21.4627C35.6669 21.8287 35.9837 22.1424 36.3533 22.1424H44.6435V33.4872C43.8514 33.1212 43.0594 32.9121 42.2673 32.7553V26.6385C42.2673 26.2202 41.9505 25.9066 41.5281 25.9066H37.9374C37.515 25.9066 37.1982 26.2202 37.1982 26.6385V33.1735C36.7757 33.3304 36.4061 33.4872 36.0365 33.6441V31.7097C36.0365 31.2914 35.7197 30.9778 35.2972 30.9778H31.7066C31.2842 30.9778 30.9673 31.2914 30.9673 31.7097V39.0289C30.0697 41.277 30.0697 43.7864 30.8617 46.0345H16.2879ZM19.6146 49.485V47.3938H31.4954C31.865 48.178 32.393 48.8576 32.9739 49.485H19.6146ZM40.4192 51.3148C38.1486 51.3148 35.9309 50.3738 34.2412 48.7531C32.6043 47.1847 31.7066 44.9889 31.7066 42.6885C31.7066 37.931 35.6141 34.0623 40.4192 34.0623C45.2243 34.0623 49.1318 37.931 49.1318 42.6885C49.1318 47.4461 45.2243 51.3148 40.4192 51.3148ZM54.729 56.8565C53.7257 57.8498 52.1416 57.8498 51.1383 56.8565L45.5939 51.3671C47.0724 50.4783 48.3397 49.2759 49.1846 47.812L54.6762 53.2492C55.6794 54.2425 55.6794 55.8109 54.729 56.8565ZM43.5874 20.7831H37.0398H43.5874Z" fill="#231F20"/>
<path d="M46.2806 38.7674C46.2806 38.7152 46.2278 38.7152 46.2278 38.6629C44.9077 36.7285 42.7428 35.6306 40.4194 35.6306C36.512 35.6306 33.3438 38.7674 33.3438 42.6362C33.3438 46.5049 36.512 49.6417 40.4194 49.6417C44.3269 49.6417 47.4951 46.5572 47.4951 42.6885C47.4951 41.3292 47.0727 39.9699 46.2806 38.7674ZM40.4194 48.2302C38.9409 48.2302 37.5152 47.6551 36.4592 46.6095C34.2942 44.4137 34.2942 40.9109 36.4592 38.7674C37.3568 37.9309 38.4657 37.3559 39.6802 37.199V42.6885C39.6802 43.1067 39.997 43.4204 40.4194 43.4204H45.9638C45.5942 46.139 43.218 48.2302 40.4194 48.2302Z" fill="#231F20"/>
<path d="M30.9141 21.0967C30.9141 20.6784 30.5973 20.3647 30.1749 20.3647H18.9277C18.5053 20.3647 18.1885 20.6784 18.1885 21.0967C18.1885 21.5149 18.5053 21.8286 18.9277 21.8286H30.2277C30.5973 21.8286 30.9141 21.5149 30.9141 21.0967Z" fill="#231F20"/>
<path d="M22.0282 32.4573H19.916V41.3449H22.0282V32.4573Z" fill="#FFECF1"/>
<path d="M28.2059 28.2749H26.0938V41.2927H28.2059V28.2749Z" fill="#FFECF1"/>
<path d="M40.5614 27.386H38.4492V32.8231C39.0301 32.7186 39.6637 32.6663 40.2445 32.6663H40.5614V27.386Z" fill="#FFECF1"/>
<path d="M34.3836 32.4573H32.2715V36.4829C32.8523 35.6987 33.5916 35.0713 34.3836 34.4962V32.4573Z" fill="#FFECF1"/>
<path d="M40.9844 41.9723H45.7895C45.7895 41.8677 45.7895 41.8155 45.7367 41.7109V41.6063C45.6839 41.2927 45.5783 40.979 45.4199 40.6653C45.4199 40.613 45.3671 40.5607 45.3671 40.5084C45.3143 40.4039 45.2615 40.2993 45.2087 40.1948C45.1559 40.1425 45.1559 40.0902 45.1031 40.0379C45.0503 39.9334 44.9974 39.8288 44.9446 39.7765C44.8918 39.7242 44.8918 39.672 44.839 39.6197C44.7862 39.5151 44.6806 39.4106 44.6278 39.3583C44.575 39.306 44.575 39.2537 44.5222 39.2537C44.4166 39.1492 44.311 38.9923 44.1526 38.8878C43.9942 38.7832 43.8886 38.6786 43.783 38.5218C43.7302 38.4695 43.6774 38.4695 43.6774 38.4172C43.5718 38.365 43.5189 38.2604 43.4133 38.2081C43.3605 38.1558 43.3077 38.1558 43.2549 38.1036C43.1493 38.0513 43.0437 37.999 42.9909 37.9467C42.9381 37.8422 42.8853 37.8422 42.8325 37.7899C42.7269 37.7376 42.6213 37.6853 42.5157 37.633C42.4629 37.633 42.4101 37.5807 42.3573 37.5807C42.0404 37.4762 41.7236 37.3716 41.4068 37.2671C41.354 37.2671 41.3012 37.2671 41.2484 37.2148C41.1428 37.2148 41.09 37.2148 40.9844 37.1625V41.9723Z" fill="#FFECF1"/>
<path d="M43.5769 20.7883C43.5769 20.7883 37.0293 13.7932 37.0293 14.3056V20.7883" fill="white"/>
<path d="M40.3721 48.2304C38.8936 48.2304 37.4679 47.6553 36.4118 46.6097C34.2468 44.4139 34.2468 40.9111 36.4118 38.7676C37.3095 37.9311 38.4183 37.3561 39.6328 37.1992V42.6887C39.6328 43.1069 39.9496 43.4206 40.3721 43.4206H45.9165C45.5468 46.1392 43.1707 48.2304 40.3721 48.2304Z" fill="white"/>
</g>
<defs>
<linearGradient id="paint0_linear_392_510" x1="31.915" y1="62" x2="31.915" y2="0" gradientUnits="userSpaceOnUse">
<stop stop-color="#FACFDC"/>
<stop offset="1" stop-color="#D2E2F7"/>
</linearGradient>
<clipPath id="clip0_392_510">
<rect width="42" height="47" fill="white" transform="translate(14.915 12)"/>
</clipPath>
</defs>
</svg>
