<svg viewBox="0 0 30 30" xmlns="http://www.w3.org/2000/svg" xmlns:xlink="http://www.w3.org/1999/xlink"><clipPath id="a"><circle cx="15" cy="15" r="15"/></clipPath><clipPath id="b"><path d="m-252-5625h1440v6269h-1440z"/></clipPath><clipPath id="c"><path d="m9.75 10.5h11.25v9h-11.25z"/></clipPath><clipPath id="d"><path d="m9 10h12v10h-12z"/></clipPath><clipPath id="e"><path clip-rule="evenodd" d="m19.84 12.74v.3a6.46 6.46 0 0 1 -6.56 6.46 6.55 6.55 0 0 1 -3.54-1 5.12 5.12 0 0 0 .56 0 4.68 4.68 0 0 0 2.86-1 2.33 2.33 0 0 1 -2.16-1.5 3.27 3.27 0 0 0 .44 0 2.49 2.49 0 0 0 .61-.08 2.27 2.27 0 0 1 -1.85-2.23 2.24 2.24 0 0 0 1 .29 2.24 2.24 0 0 1 -.71-3 6.58 6.58 0 0 0 4.75 2.38 2.24 2.24 0 0 1 -.06-.52 2.31 2.31 0 0 1 4-1.55 4.74 4.74 0 0 0 1.47-.55 2.3 2.3 0 0 1 -1 1.25 4.82 4.82 0 0 0 1.35-.42 4.77 4.77 0 0 1 -1.16 1.17"/></clipPath><g clip-path="url(#a)"><g clip-path="url(#b)"><path d="m-5-5h40v40h-40z" fill="#fff"/></g></g><g clip-path="url(#c)"><g clip-path="url(#b)"><g clip-path="url(#d)"><g clip-path="url(#e)"><g clip-path="url(#d)"><path d="m4.75 5.5h21.25v19h-21.25z" fill="#1e2446"/></g></g></g></g></g></svg>