<?xml version="1.0" encoding="utf-8"?>
<svg viewBox="0 0 60 60" xmlns="http://www.w3.org/2000/svg">
  <defs>
    <style>.cls-1{fill:url(#New_Gradient_Swatch_2);}.cls-2{fill:url(#New_Gradient_Swatch_2-2);}.cls-3{fill:#0d1c3a;}.cls-4{fill:none;}.cls-5{fill:#fff;}.cls-6{fill:url(#New_Gradient_Swatch_2-3);}</style>
    <linearGradient id="New_Gradient_Swatch_2" x1="30" y1="55" x2="30" y2="5" gradientUnits="userSpaceOnUse">
      <stop offset="0" stop-color="#facfdc"/>
      <stop offset="1" stop-color="#d2e2f7"/>
    </linearGradient>
  </defs>
  <title>vv copy 48</title>
  <g id="Layer_6" data-name="Layer 6" transform="matrix(1.2, 0, 0, 1.201931, -6.000636, -6.110761)">
    <path class="cls-1" d="M12.24,46.45l.13-.34c.08-.21.18-.41.28-.62s.24-.52.37-.78.22-.4.33-.6.28-.49.43-.73.25-.39.38-.58.31-.46.48-.68.29-.37.43-.55.35-.43.53-.63.31-.35.47-.52l.57-.58.52-.49c.2-.18.4-.36.61-.53l.55-.44L19,37.9l.58-.4.7-.43.6-.34c.25-.14.5-.26.75-.38l.62-.3.78-.32.64-.24.83-.26.63-.18c.3-.08.6-.14.9-.2l0,0a10.35,10.35,0,1,1,7.38,0A18.65,18.65,0,0,1,43,40c.31.31.6.63.89,1,.09.11.17.22.26.32s.38.46.55.69.2.26.29.4l.46.66.27.44c.14.22.27.45.4.68s.17.3.25.45.24.48.35.72l.21.44c.1.23.4,1,.69,1.87-.07-.2-.12-.4-.19-.59l.25.68a25,25,0,1,0-35.75-.4,3,3,0,0,0,.11-.32C12.11,46.78,12.18,46.61,12.24,46.45Z"/>
    <path class="cls-3" d="M46.94,45.71l-.21-.44c-.11-.24-.23-.48-.35-.72s-.16-.3-.25-.45-.26-.46-.4-.68L45.46,43,45,42.32c-.09-.14-.19-.27-.29-.4s-.36-.46-.55-.69S44,41,43.9,40.91c-.29-.33-.58-.65-.89-1a18.65,18.65,0,0,0-9.57-5.13,10.38,10.38,0,1,0-7.38,0l0,0c-.3.06-.6.12-.9.2l-.63.18-.83.26-.64.24-.78.32-.62.3c-.25.12-.5.24-.75.38l-.6.34-.7.43-.58.4-.66.48-.55.44c-.21.17-.41.35-.61.53l-.52.49-.57.58c-.16.17-.32.34-.47.52s-.36.41-.53.63-.29.36-.43.55-.32.45-.48.68-.26.38-.38.58-.29.48-.43.73-.23.4-.33.6-.25.52-.37.78-.2.41-.28.62-.09.23-.13.34-.18.5-.3.83c.39.4.79.8,1.2,1.18v0c.07-.22.13-.45.2-.67l.27-.71c.09-.22.17-.43.26-.64s.21-.46.32-.69.2-.41.31-.61.25-.43.38-.65.23-.39.35-.59l.43-.6c.14-.19.26-.38.4-.56l.48-.57.44-.52.53-.53c.15-.16.31-.32.48-.47s.37-.33.56-.49.34-.3.52-.44.4-.29.6-.44.36-.27.55-.39l.64-.4.57-.34.68-.34c.2-.1.39-.21.59-.3l.72-.29c.21-.08.4-.17.61-.24s.51-.16.77-.24l.6-.19c.27-.07.55-.12.83-.18l.58-.13c.31-.05.63-.08.94-.12s.33,0,.5-.06A14.19,14.19,0,0,1,29.73,36,17.17,17.17,0,0,1,42,41c.29.29.58.6.85.91l.22.27c.19.23.38.46.56.7l.25.36c.16.22.31.43.45.65s.17.28.25.42.26.43.38.65.16.3.23.46.22.42.32.64l.21.49c.09.22.18.43.26.65l.18.52.21.65c0,.15.08.3.11.44.42-.37.84-.74,1.23-1.14l0-.11C47.34,46.7,47,45.94,46.94,45.71ZM20.86,25.15A8.87,8.87,0,1,1,29.73,34,8.88,8.88,0,0,1,20.86,25.15Z"/>
  </g>
</svg>