<svg viewBox="0 0 25 25" xmlns="http://www.w3.org/2000/svg"><g fill="#04c585" fill-rule="evenodd"><path d="m18.72 1.73c1.885 1.092 3.454 2.657 4.55 4.54 2.253 3.844 2.253 8.606 0 12.45-1.099 1.881-2.667 3.445-4.55 4.54-1.89 1.114-4.046 1.695-6.24 1.68-2.194.015-4.35-.566-6.24-1.68-1.883-1.095-3.451-2.659-4.55-4.54-1.122-1.883-1.706-4.038-1.69-6.23-.014-2.189.57-4.34 1.69-6.22 1.096-1.883 2.665-3.448 4.55-4.54 1.882-1.138 4.041-1.736 6.24-1.73 2.199-.006 4.358.592 6.24 1.73zm.76 7.25c.129.114.202.278.2.45.007.159-.069.31-.2.4l-8.65 8.59c-.119.122-.28.194-.45.2-.161.003-.313-.071-.41-.2l-4.54-4.57c-.122-.119-.194-.28-.2-.45-.002-.161.073-.312.2-.41l1.16-1.15c.108-.102.252-.156.4-.15.165-.001.327.052.46.15l3 3.06 7.14-7.08c.107-.103.252-.157.4-.15.174.004.339.075.46.2z"/><path d="m18.72 1.73c1.885 1.092 3.454 2.657 4.55 4.54 2.253 3.844 2.253 8.606 0 12.45-1.099 1.881-2.667 3.445-4.55 4.54-1.89 1.114-4.046 1.695-6.24 1.68-2.194.015-4.35-.566-6.24-1.68-1.883-1.095-3.451-2.659-4.55-4.54-1.122-1.883-1.706-4.038-1.69-6.23-.014-2.189.57-4.34 1.69-6.22 1.096-1.883 2.665-3.448 4.55-4.54 1.882-1.138 4.041-1.736 6.24-1.73 2.199-.006 4.358.592 6.24 1.73zm-6.24.72c-1.758-.003-3.485.467-5 1.36-1.536.874-2.815 2.136-3.71 3.66-1.786 3.094-1.786 6.906 0 10 .889 1.521 2.157 2.785 3.68 3.67 1.515.89 3.242 1.357 5 1.35 1.758.007 3.485-.46 5-1.35 1.52-.885 2.785-2.15 3.67-3.67.899-1.512 1.369-3.241 1.36-5 .008-1.759-.462-3.487-1.36-5-.883-1.52-2.148-2.781-3.67-3.66-.588-.347-1.209-.63-1.851-.846-.717-.242-1.462-.4-2.218-.471-.299-.028-.599-.043-.901-.043zm7 6.53c.129.114.202.278.2.45.007.159-.069.31-.2.4l-8.65 8.59c-.119.122-.28.194-.45.2-.161.003-.313-.071-.41-.2l-4.54-4.57c-.122-.119-.194-.28-.2-.45-.002-.161.073-.312.2-.41l1.16-1.15c.108-.102.252-.156.4-.15.165-.001.327.052.46.15l3 3.06 7.14-7.08c.107-.103.252-.157.4-.15.174.004.339.075.46.2z" transform="translate(8.099232 .02988)" visibility="hidden"/></g></svg>