<svg height="50" viewBox="0 0 50 50" width="50" xmlns="http://www.w3.org/2000/svg" xmlns:xlink="http://www.w3.org/1999/xlink"><linearGradient id="a" gradientUnits="userSpaceOnUse" x1="29.75" x2="29.75" y1="55.88" y2="5.88"><stop offset="0" stop-color="#facfdc"/><stop offset="1" stop-color="#d2e2f7"/></linearGradient><g transform="translate(-4.75 -5.879999)"><circle cx="29.75" cy="30.88" fill="url(#a)" r="25"/><path d="m21.92 20.58h16.15v18.55h-16.15z" fill="#fff"/><path d="m23.07 16.27a1.16 1.16 0 0 0 -1.15 1.15v1.7h16.16v-1.7a1.16 1.16 0 0 0 -1.15-1.15zm6.73 2.2h-2.2a.73.73 0 0 1 -.72-.73.72.72 0 0 1 .72-.74h2.2a.72.72 0 0 1 .72.72.73.73 0 0 1 -.72.75zm2.6 0h-.55a.73.73 0 0 1 -.72-.73.72.72 0 0 1 .72-.72h.55a.72.72 0 0 1 .72.72.73.73 0 0 1 -.72.73z" fill="#ffecf1"/><path d="m30 44.57a.93.93 0 1 0 -.93-.92.93.93 0 0 0 .93.92z" fill="#fff"/><path d="m23.07 46.73h13.86a1.16 1.16 0 0 0 1.15-1.15v-5h-16.16v5a1.16 1.16 0 0 0 1.15 1.15zm6.93-5.46a2.38 2.38 0 1 1 -2.38 2.38 2.39 2.39 0 0 1 2.38-2.38z" fill="#ffecf1"/><g fill="#0d1c3a"><path d="m36.93 14.83h-13.86a2.59 2.59 0 0 0 -2.59 2.59v28.16a2.59 2.59 0 0 0 2.59 2.59h13.86a2.59 2.59 0 0 0 2.59-2.59v-28.16a2.59 2.59 0 0 0 -2.59-2.59zm-15 25.75h16.15v5a1.16 1.16 0 0 1 -1.15 1.15h-13.86a1.16 1.16 0 0 1 -1.15-1.15zm16.16-20v18.54h-16.17v-18.54zm-15-4.31h13.84a1.16 1.16 0 0 1 1.15 1.15v1.71h-16.16v-1.71a1.16 1.16 0 0 1 1.15-1.15z"/><path d="m30 46a2.38 2.38 0 1 0 -2.38-2.37 2.38 2.38 0 0 0 2.38 2.37zm0-3.3a.93.93 0 1 1 -.93.93.93.93 0 0 1 .93-.91z"/><path d="m27.6 18.47h2.2a.73.73 0 0 0 .72-.73.72.72 0 0 0 -.72-.74h-2.2a.72.72 0 0 0 -.72.72.73.73 0 0 0 .72.75z"/><path d="m31.85 18.47h.55a.73.73 0 0 0 .72-.73.72.72 0 0 0 -.72-.74h-.55a.72.72 0 0 0 -.72.72.73.73 0 0 0 .72.75z"/></g><path d="m12.85 25.67h34.47v8.17h-34.47z" fill="#fff"/><g fill="#0d1c3a"><path d="m47.32 34.53h-34.47a.7.7 0 0 1 -.7-.7v-8.16a.7.7 0 0 1 .7-.7h34.47a.7.7 0 0 1 .7.7v8.16a.7.7 0 0 1 -.7.7zm-33.77-1.4h33.07v-6.76h-33.07z"/><path d="m18.91 29.73 1.24.69-.32.57-1.26-.73v1.4h-.57v-1.4l-1.28.74-.32-.57 1.24-.69-1.24-.68.32-.58 1.28.72v-1.4h.62v1.4l1.26-.73.32.58z"/><path d="m23.62 29.73 1.23.69-.32.57-1.25-.73v1.4h-.62v-1.4l-1.23.74-.32-.57 1.24-.69-1.24-.68.32-.58 1.25.73v-1.41h.62v1.4l1.25-.73.32.58z"/><path d="m28.33 29.73 1.23.69-.32.57-1.24-.73v1.4h-.62v-1.4l-1.24.74-.32-.57 1.24-.69-1.24-.68.32-.58 1.25.73v-1.41h.61v1.4l1.25-.73.32.58z"/><path d="m33 29.73 1.23.69-.23.58-1.25-.73v1.4h-.62v-1.4l-1.28.73-.33-.57 1.25-.69-1.25-.68.33-.58 1.25.73v-1.41h.62v1.4l1.28-.73.32.58z"/><path d="m37.75 29.73 1.23.69-.32.57-1.25-.73v1.4h-.61v-1.4l-1.25.74-.32-.57 1.24-.69-1.24-.68.32-.58 1.26.73v-1.41h.62v1.4l1.25-.73.32.58z"/><path d="m42.46 29.73 1.23.69-.32.57-1.26-.73v1.4h-.61v-1.4l-1.24.74-.32-.57 1.24-.69-1.24-.68.32-.58 1.25.73v-1.41h.62v1.4l1.26-.73.32.58z"/></g></g></svg>