<svg height="50" viewBox="0 0 50 50" width="50" xmlns="http://www.w3.org/2000/svg" xmlns:xlink="http://www.w3.org/1999/xlink"><linearGradient id="a" gradientUnits="userSpaceOnUse" x1="29.75" x2="29.75" y1="55.88" y2="5.88"><stop offset="0" stop-color="#facfdc"/><stop offset="1" stop-color="#d2e2f7"/></linearGradient><g transform="translate(-4.75 -5.879999)"><circle cx="29.75" cy="30.88" fill="url(#a)" r="25"/><path d="m18.7 20.75h21.91v15.74h-21.91z" fill="#fff"/><path d="m43.08 20a1.7 1.7 0 0 0 -1.7-1.7h-23.45a1.7 1.7 0 0 0 -1.7 1.7v19h26.85zm-.93 17.27a.76.76 0 0 1 -.77.77h-23.45a.76.76 0 0 1 -.76-.77v-17.27a.76.76 0 0 1 .76-.77h23.45a.76.76 0 0 1 .77.77z" fill="#ffecf1"/><path d="m32.19 40.82.11-.32h-5.28l.11.32z" fill="#ffecf1"/><path d="m33.61 41.4a1.37 1.37 0 0 1 -1.31 1h-5.3a1.39 1.39 0 0 1 -1.32-1l-.3-.9h-12.23v.5a1.7 1.7 0 0 0 1.7 1.7h29.62a1.7 1.7 0 0 0 1.7-1.7v-.5h-12.26z" fill="#ffecf1"/><g fill="#0d1c3a"><path d="m17.93 38h23.45a.76.76 0 0 0 .77-.77v-17.23a.76.76 0 0 0 -.77-.77h-23.45a.76.76 0 0 0 -.76.77v17.26a.76.76 0 0 0 .76.74zm.77-1.53v-15.72h21.92v15.75z"/><path d="m46.94 39h-2.32v-19a3.25 3.25 0 0 0 -3.24-3.24h-23.45a3.24 3.24 0 0 0 -3.23 3.24v19h-2.32a.78.78 0 0 0 -.77.77v1.23a3.24 3.24 0 0 0 3.24 3.23h29.62a3.23 3.23 0 0 0 3.23-3.23v-1.27a.77.77 0 0 0 -.76-.73zm-29-20.67h23.44a1.7 1.7 0 0 1 1.7 1.7v18.97h-26.85v-19a1.7 1.7 0 0 1 1.7-1.71zm9.06 22.17h5.3l-.11.32h-5.06zm0 1.85h5.3a1.37 1.37 0 0 0 1.31-1l.3-.9h12.26v.55a1.7 1.7 0 0 1 -1.7 1.7h-29.62a1.7 1.7 0 0 1 -1.7-1.7v-.5h12.25l.3.9a1.39 1.39 0 0 0 1.3.95z"/><path d="m34.75 23.82h-10.33a.7.7 0 1 1 0-1.4h10.33a.7.7 0 0 1 0 1.4z"/><path d="m34.75 26.57h-10.33a.7.7 0 1 1 0-1.4h10.33a.7.7 0 0 1 0 1.4z"/><path d="m34.75 29.32h-10.33a.7.7 0 1 1 0-1.4h10.33a.7.7 0 0 1 0 1.4z"/><path d="m34.75 32.07h-10.33a.7.7 0 1 1 0-1.4h10.33a.7.7 0 1 1 0 1.4z"/><path d="m34.75 34.82h-10.33a.7.7 0 1 1 0-1.4h10.33a.7.7 0 0 1 0 1.4z"/></g></g></svg>