<svg height="50" viewBox="0 0 50 50" width="50" xmlns="http://www.w3.org/2000/svg" xmlns:xlink="http://www.w3.org/1999/xlink"><linearGradient id="a" gradientUnits="userSpaceOnUse" x1="30" x2="30" y1="55" y2="5"><stop offset="0" stop-color="#facfdc"/><stop offset="1" stop-color="#d2e2f7"/></linearGradient><g transform="translate(-5 -5)"><circle cx="30" cy="30" fill="url(#a)" r="25"/><path d="m22.07 42.2h13.07v-3.66a.71.71 0 0 1 .71-.71h3.66v-20h-17.44zm3.76-21.2h10.24a.71.71 0 0 1 0 1.42h-10.24a.71.71 0 0 1 0-1.42zm0 3.68h10.24a.71.71 0 0 1 .71.71.7.7 0 0 1 -.71.7h-10.24a.7.7 0 0 1 -.71-.7.71.71 0 0 1 .71-.69zm0 3.68h10.24a.7.7 0 0 1 .71.7.71.71 0 0 1 -.71.71h-10.24a.71.71 0 0 1 -.71-.71.7.7 0 0 1 .71-.68zm0 3.67h10.24a.71.71 0 0 1 0 1.42h-10.24a.71.71 0 0 1 0-1.42zm0 3.68h5.17a.71.71 0 0 1 .7.71.7.7 0 0 1 -.7.7h-5.17a.7.7 0 0 1 -.71-.7.71.71 0 0 1 .71-.69z" fill="#fff"/><path d="m38.66 39.23.09-.08h-2.29v2.29zm-2.11 0h2l-2 2z" fill="#fff"/><path d="m36.55 39.25v1.95l1.96-1.95z" fill="#fff"/><g fill="#0d1c3a"><path d="m41.32 13.83h-8.32a.27.27 0 0 1 -.24-.16 2 2 0 0 0 -3.65 0 .25.25 0 0 1 -.24.16h-8.55a2.29 2.29 0 0 0 -2.32 2.29v6.64s.08 14.26.1 21.1a2.39 2.39 0 0 0 2.39 2.38h20.8a2.3 2.3 0 0 0 2.32-2.24v-27.88a2.3 2.3 0 0 0 -2.29-2.29zm-19.25 8.78v-4.47a.27.27 0 0 1 .27-.27h16.9a.27.27 0 0 1 .27.27v19.42a.27.27 0 0 1 -.27.27h-3.12a1 1 0 0 0 -1 1v3.12a.27.27 0 0 1 -.27.27h-12.51a.27.27 0 0 1 -.27-.27zm16.68 16.54-2.29 2.29v-2a.27.27 0 0 1 .26-.27z"/><path d="m25.83 22.44h10.24a.71.71 0 0 0 0-1.42h-10.24a.71.71 0 0 0 0 1.42z"/><path d="m25.83 26.11h10.24a.7.7 0 0 0 .71-.7.71.71 0 0 0 -.71-.71h-10.24a.71.71 0 0 0 -.71.71.7.7 0 0 0 .71.7z"/><path d="m25.83 29.79h10.24a.71.71 0 0 0 .71-.71.7.7 0 0 0 -.71-.7h-10.24a.7.7 0 0 0 -.71.7.71.71 0 0 0 .71.71z"/><path d="m25.83 33.47h10.24a.71.71 0 0 0 0-1.42h-10.24a.71.71 0 0 0 0 1.42z"/><path d="m25.83 37.14h5.17a.7.7 0 0 0 .7-.7.71.71 0 0 0 -.7-.71h-5.17a.71.71 0 0 0 -.71.71.7.7 0 0 0 .71.7z"/></g><path d="m20.6 30.38s-5 9.16-5 11.81a5 5 0 1 0 10 0c.03-2.56-5-11.81-5-11.81z" fill="#ffecf1"/><path d="m20.6 47.92a5.73 5.73 0 0 1 -5.72-5.72c0-2.76 4.58-11.2 5.12-12.2l.61-1.12.61 1.12c.52 1 5.11 9.49 5.11 12.16a5.73 5.73 0 0 1 -5.73 5.76zm0-16.06c-1.6 3-4.32 8.56-4.32 10.34a4.33 4.33 0 0 0 8.65 0c0-1.59-2.4-6.67-4.33-10.34z" fill="#0d1c3a"/><path d="m21.62 38a.7.7 0 0 1 -.65-.45l-.5-1.29a.7.7 0 1 1 1.31-.5l.5 1.29a.71.71 0 0 1 -.4.91.78.78 0 0 1 -.26.04z" fill="#0d1c3a"/><circle cx="22.37" cy="39.29" fill="#0d1c3a" r=".78" transform="matrix(.71994573 -.69403036 .69403036 .71994573 -21 26.53)"/></g></svg>