<svg viewBox="0 0 60 60" xmlns="http://www.w3.org/2000/svg" xmlns:xlink="http://www.w3.org/1999/xlink"><linearGradient id="a" gradientUnits="userSpaceOnUse" x1="30" x2="30" y1="55.17" y2="5.17"><stop offset="0" stop-color="#facfdc"/><stop offset="1" stop-color="#d2e2f7"/></linearGradient><g transform="matrix(1.2 0 0 1.201448 -5.994774 -6.258368)"><path d="m12.24 46.61.13-.33c.08-.21.18-.42.28-.62s.24-.53.37-.78.22-.41.33-.61.28-.49.43-.72.25-.39.38-.59.31-.45.48-.67l.43-.56.53-.63.47-.52.57-.58.52-.48c.2-.18.4-.36.61-.53l.55-.44.66-.49.58-.39.7-.43.6-.35.75-.37c.2-.11.41-.21.62-.3s.52-.22.78-.32.42-.17.64-.24.55-.18.83-.26l.63-.19c.3-.08.6-.14.9-.2a10.37 10.37 0 1 1 7.38 0 18.67 18.67 0 0 1 9.61 5.11c.31.31.6.63.89 1l.26.33c.19.22.38.45.55.68l.29.4c.16.22.31.44.46.67l.27.43.4.68c.09.15.17.3.25.45s.24.48.35.73l.21.44c.1.22.4 1 .69 1.86-.07-.2-.12-.39-.19-.59l.25.68a25 25 0 1 0 -35.75-.39c0-.11.08-.22.11-.32z" fill="url(#a)"/><path d="m47.63 47.74c-.29-.88-.59-1.64-.69-1.86l-.21-.44c-.11-.25-.23-.49-.35-.73s-.16-.3-.25-.45l-.4-.68-.27-.43c-.15-.23-.3-.45-.46-.67l-.29-.4c-.17-.23-.36-.46-.55-.68l-.26-.33c-.29-.32-.58-.64-.89-1a18.67 18.67 0 0 0 -9.57-5.07 10.36 10.36 0 1 0 -7.38 0c-.3.06-.6.12-.9.2l-.63.19c-.28.08-.56.16-.83.26s-.43.16-.64.24-.52.2-.78.32-.42.19-.62.3l-.75.37-.6.35-.7.43-.58.39-.66.49-.55.44c-.21.17-.41.35-.61.53l-.52.48-.57.58-.47.52-.53.63-.43.56c-.17.22-.32.44-.48.67s-.26.39-.38.59-.29.48-.43.72-.23.4-.33.61-.25.52-.37.78-.2.41-.28.62-.09.22-.13.33-.18.5-.3.83c.39.41.79.8 1.2 1.18.07-.23.13-.45.2-.67l.27-.72c.09-.21.17-.43.26-.64s.21-.46.32-.68.2-.42.31-.62.25-.43.38-.64.23-.4.35-.59.29-.41.43-.61.26-.37.4-.55l.48-.58.44-.51.53-.53c.15-.16.31-.33.48-.48s.37-.33.56-.49l.52-.43c.19-.16.4-.3.6-.44l.55-.4.64-.39.23-.14a18.55 18.55 0 0 0 .24 2.82c-3.74 2.64-.66 11.07-.52 11.45a.81.81 0 0 0 .75.52.92.92 0 0 0 .28-.05.81.81 0 0 0 .47-1c0-.09-3-8.45.39-9.83a1.54 1.54 0 0 1 1.37.08c2.15 1.14 3.72 6.39 4.14 8.31a.8.8 0 1 0 1.56-.34c-.17-.78-1.76-7.7-5-9.39a3.16 3.16 0 0 0 -2-.34 17.09 17.09 0 0 1 -.16-3l.72-.3.62-.33c.25-.09.51-.16.77-.24s.39-.13.6-.18l.83-.19c.19 0 .38-.09.58-.12s.63-.09.94-.13.33-.05.5-.06q.72-.06 1.47-.06a17.16 17.16 0 0 1 7.63 1.79 15.41 15.41 0 0 1 -1 7.18h-.25a2.46 2.46 0 1 0 1.7.7 16.26 16.26 0 0 0 1.23-6.96 17.33 17.33 0 0 1 3 2.35c.29.3.58.6.85.92l.22.27.56.69c.09.12.17.25.25.37s.31.43.45.65.17.28.25.42.26.42.38.64.16.31.23.46l.32.64.21.5c.09.21.18.43.26.64l.18.53.21.65c0 .14.08.29.11.44.42-.37.84-.75 1.23-1.15zm-26.77-22.42a8.87 8.87 0 1 1 8.87 8.86 8.88 8.88 0 0 1 -8.87-8.86zm15.22 23a.84.84 0 0 1 -.83-.84.83.83 0 0 1 .83-.83.84.84 0 0 1 .84.83.85.85 0 0 1 -.84.86z" fill="#0d1c3a"/></g></svg>