<svg viewBox="0 0 60 60" xmlns="http://www.w3.org/2000/svg" xmlns:xlink="http://www.w3.org/1999/xlink"><linearGradient id="a" gradientUnits="userSpaceOnUse" x1="30" x2="30" y1="55" y2="5"><stop offset="0" stop-color="#facfdc"/><stop offset="1" stop-color="#d2e2f7"/></linearGradient><g transform="matrix(1.2 0 0 1.2 -6 -6)"><circle cx="30" cy="30" fill="url(#a)" r="25"/><path d="m13.47 23.31h33.02v17.83h-33.02z" fill="#fff"/><path d="m15.66 22.11h.9a.54.54 0 0 1 0 1.07h-.9v2.11h5.14v-5.29h-5.14z" fill="#fff"/><path d="m15.66 28.47h.9a.54.54 0 0 1 0 1.07h-.9v2.12h.9a.54.54 0 0 1 0 1.07h-.9v2.11h.9a.54.54 0 0 1 0 1.07h-.87v.2a2.58 2.58 0 0 0 2.09 1.89h.12.74a2.55 2.55 0 0 0 2.16-2.5v-9.14h-5.14z" fill="#ffecf1"/><path d="m21.56 17.31h-6.73a.86.86 0 1 0 0 1.71h6.72a.85.85 0 0 0 .86-.85.87.87 0 0 0 -.85-.86z" fill="#fff"/><path d="m18.19 38.17h-.02v-.1h-.07.07v-.1l.02.01h.1v.19z"/><path d="m27.44 22.11h.9a.54.54 0 1 1 0 1.07h-.9v2.11h5.14v-5.29h-5.14z" fill="#fff"/><path d="m27.44 28.47h.9a.54.54 0 1 1 0 1.07h-.9v2.12h.9a.54.54 0 1 1 0 1.07h-.9v2.11h.9a.54.54 0 1 1 0 1.07h-.87v.2a2.58 2.58 0 0 0 2 1.92h.12.75a2.54 2.54 0 0 0 2.15-2.53v-9.14h-5.05z" fill="#ffecf1"/><path d="m33.34 17.31h-6.73a.86.86 0 1 0 0 1.71h6.73a.85.85 0 0 0 .85-.85.87.87 0 0 0 -.85-.86z" fill="#fff"/><path d="m39.22 22.11h.9a.54.54 0 1 1 0 1.07h-.9v2.11h5.14v-5.29h-5.14z" fill="#fff"/><path d="m39.22 28.47h.9a.54.54 0 1 1 0 1.07h-.9v2.12h.9a.54.54 0 1 1 0 1.07h-.9v2.11h.9a.54.54 0 1 1 0 1.07h-.87v.2a2.55 2.55 0 0 0 2 1.92h.12.75a2.54 2.54 0 0 0 2.15-2.53v-9.14h-5.05z" fill="#ffecf1"/><path d="m45.12 17.31h-6.73a.86.86 0 1 0 0 1.71h6.73a.85.85 0 0 0 .85-.85.87.87 0 0 0 -.85-.86z" fill="#fff"/><path d="m47.15 22h-1.66v-1.94c.867-.219 1.484-.986 1.51-1.88.001-1.034-.817-1.882-1.85-1.92h-6.8c-1.033.038-1.851.886-1.85 1.92.03.887.64 1.649 1.5 1.87h.05v1.95h-4.34v-1.94c.875-.204 1.496-.982 1.5-1.88.001-1.03-.811-1.877-1.84-1.92h-6.8c-1.033.038-1.851.886-1.85 1.92.004.898.625 1.676 1.5 1.88h.05v1.94h-4.34v-1.94h.07c.875-.204 1.496-.982 1.5-1.88.001-1.03-.811-1.877-1.84-1.92h-6.87c-1.033.038-1.851.886-1.85 1.92.004.898.625 1.676 1.5 1.88h.05v1.94h-1.69c-.362.005-.655.298-.66.66v19.13c0 .366.294.665.66.67h34.35c.366-.005.66-.304.66-.67v-19.15c-.016-.354-.305-.635-.66-.64zm-9.52-3.81c0-.42.34-.76.76-.76h6.73c.433-.017.795.327.8.76 0 .42-.34.76-.76.76h-6.73c-.439.011-.8-.341-.8-.78zm1.69 1.92h5v1.89h-5zm2.62 17.89h-.15-.43c-.978-.166-1.763-.897-2-1.86v-.07h.75c.35-.005.63-.29.63-.64 0-.348-.282-.63-.63-.63h-.8v-1.98h.8c.485 0 .788-.525.546-.945-.113-.195-.321-.315-.546-.315h-.8v-1.92h.8c.485 0 .788-.525.546-.945-.113-.195-.321-.315-.546-.315h-.8v-1.92h5v9c.006 1.207-.869 2.238-2.06 2.43zm-2.62-12.81v-1.88h5v1.88zm-13.47-7c0-.42.34-.76.76-.76h6.73c.585 0 .951.633.658 1.14-.136.235-.386.38-.658.38h-6.69c-.439.011-.8-.341-.8-.78zm1.69 1.92h4.94v1.89h-4.94zm2.62 17.89h-.16-.43c-.978-.166-1.763-.897-2-1.86v-.07h.75c.35-.005.63-.29.63-.64 0-.348-.282-.63-.63-.63h-.8v-1.98h.8c.485 0 .788-.525.546-.945-.113-.195-.321-.315-.546-.315h-.8v-1.92h.8c.485 0 .788-.525.546-.945-.113-.195-.321-.315-.546-.315h-.8v-1.92h4.94v9c.01 1.208-.866 2.242-2.06 2.43zm-2.62-12.81v-1.88h4.94v1.88zm-13.47-7c0-.42.34-.76.76-.76h6.73c.585 0 .951.633.658 1.14-.136.235-.386.38-.658.38h-6.69c-.439.011-.8-.341-.8-.78zm1.69 1.92h4.94v1.89h-4.94zm2.29 17.89h-.25c-.978-.166-1.763-.897-2-1.86v-.07h.75c.35-.005.63-.29.63-.64 0-.348-.282-.63-.63-.63h-.8v-1.98h.8c.485 0 .788-.525.546-.945-.113-.195-.321-.315-.546-.315h-.8v-1.92h.8c.485 0 .788-.525.546-.945-.113-.195-.321-.315-.546-.315h-.8v-1.92h4.95v9c.01 1.208-.866 2.242-2.06 2.43zm-2.29-12.81v-1.88h4.94v1.88zm30.73 15.94h-33v-17.82h1v12.19c.011 1.775 1.261 3.301 3 3.66h.12c.218.038.439.062.66.07.23 0 .72-.08.74-.08 1.741-.355 2.993-1.883 3-3.66v-12.18h4.34v12.19c.011 1.775 1.261 3.301 3 3.66h.12c.218.038.439.062.66.07.23 0 .72-.08.74-.08 1.741-.355 2.993-1.883 3-3.66v-12.18h4.35v12.19c.007 1.777 1.259 3.305 3 3.66h.11c.218.038.439.061.66.07.23 0 .72-.08.74-.08 1.741-.355 2.993-1.883 3-3.66v-12.18h1z" fill="#0d1c3a"/></g></svg>