<svg viewBox="0 0 60 60" xmlns="http://www.w3.org/2000/svg" xmlns:xlink="http://www.w3.org/1999/xlink"><linearGradient id="a" gradientUnits="userSpaceOnUse" x1="30.05" x2="30.05" y1="55" y2="5"><stop offset="0" stop-color="#facfdc"/><stop offset="1" stop-color="#d2e2f7"/></linearGradient><g transform="matrix(1.2 0 0 1.2 -6 -6)"><circle cx="30" cy="30" fill="url(#a)" r="25"/><path d="m33.8 35.7h-7.7c-.6 0-1.1.5-1.1 1.1s.5 1.1 1.1 1.1h7.7c.6 0 1.1-.5 1.1-1.1s-.5-1.1-1.1-1.1z" fill="#ffecf1"/><path d="m33.8 39.6h-7.7c-.6 0-1.1.5-1.1 1.1s.5 1.1 1.1 1.1h7.7c.6 0 1.1-.5 1.1-1.1 0-.7-.5-1.1-1.1-1.1z" fill="#ffecf1"/><path d="m27.022 43.279c.516 1.773 2.269 2.659 3.919 2.105.928-.332 1.65-1.108 1.959-2.105v-.111z" fill="#fff"/><path d="m37.8 26.3c0-4.3-3.5-7.8-7.8-7.8s-7.8 3.5-7.8 7.8c0 2.6 1.3 5 3.4 6.4.2.2.4.4.4.7v.6h1.2v-3.6l-1.2-1.2c-.2-.2-.3-.4-.2-.6 0-.2.1-.4.2-.6.2-.2.4-.2.6-.2.2 0 .4.1.6.2l1.5 1.5c.2.2.2.4.2.6v3.9h2.1v-4c0-.2.1-.4.2-.6l1.5-1.5c.2-.2.4-.2.6-.2.2 0 .4.1.6.2.2.2.2.4.2.6s-.1.4-.2.6l-1.3 1.3v3.6h1.2v-.6c0-.3.1-.5.4-.7 2.3-1.4 3.6-3.8 3.6-6.4z" fill="#fff"/><g fill="#0d1c3a"><path d="m35.6 33.9c4.2-3.1 5.1-9 1.9-13.2-3.1-4.2-9-5.1-13.2-1.9s-5.1 9-1.9 13.2c.5.7 1.2 1.4 1.9 1.9v.8c-1.1 1-1.3 2.7-.3 3.9 0 0 0 0 .1.1-1 1.1-1 2.8.1 3.9.3.3.7.5 1.1.6.4 2.5 2.8 4.3 5.3 3.9 2-.3 3.5-1.9 3.9-3.9 1.2-.4 1.9-1.4 1.9-2.6 0-.7-.3-1.4-.7-1.9 1-1.1 1-2.8-.1-3.9 0 0 0 0-.1-.1zm-2.8 9.5c-.5 1.6-2.2 2.4-3.8 1.9-.9-.3-1.6-1-1.9-1.9v-.1zm1-1.7h-7.7c-.6 0-1.1-.5-1.1-1.1s.5-1.1 1.1-1.1h7.7c.6 0 1.1.5 1.1 1.1s-.5 1.1-1.1 1.1zm0-3.8h-7.7c-.6 0-1.1-.5-1.1-1.1s.5-1.1 1.1-1.1h7.7c.6 0 1.1.5 1.1 1.1s-.5 1.1-1.1 1.1zm.5-5.2c-.2.2-.4.4-.4.7v.6h-1.2v-3.6l1.3-1.3c.2-.2.3-.4.2-.6 0-.2-.1-.4-.2-.6-.2-.2-.4-.2-.6-.2-.2 0-.4.1-.6.2l-1.5 1.5c-.2.2-.2.4-.2.6v4h-2.1v-3.9c0-.2-.1-.4-.2-.6l-1.7-1.5c-.2-.2-.4-.2-.6-.2-.2 0-.4.1-.5.2-.2.2-.2.4-.2.6s.1.4.2.6l1.3 1.3v3.6h-1.2v-.6c0-.3-.1-.5-.4-.7-3.6-2.4-4.5-7.2-2.1-10.8s7.2-4.5 10.8-2.1 4.5 7.2 2.1 10.8c-.6.8-1.3 1.5-2.2 2z"/><path d="m18.4 26.3c0-.5-.4-.8-.8-.8h-1.9c-.5 0-.8.4-.8.8s.4.8.8.8h1.9c.4 0 .8-.3.8-.8z"/><path d="m44.3 25.5h-1.9c-.5 0-.8.4-.8.8s.4.8.8.8h1.9c.5 0 .8-.4.8-.8s-.3-.8-.8-.8z"/><path d="m18.8 31.8-1.6 1c-.4.2-.5.7-.3 1.1.1.3.4.4.7.4.1 0 .3 0 .4-.1l1.7-1c.2-.1.3-.3.4-.5s0-.4-.1-.6c-.3-.4-.8-.6-1.2-.3z"/><path d="m40.8 20.9c.1 0 .3 0 .4-.1l1.7-1c.2-.1.3-.3.4-.5s0-.4-.1-.6c-.2-.3-.4-.4-.7-.4-.1 0-.3 0-.4.1l-1.7 1c-.2.1-.3.3-.4.5s0 .4.1.6c.1.3.4.4.7.4z"/><path d="m42.8 32.7-1.7-1c-.1-.1-.3-.1-.4-.1s-.1 0-.2 0c-.5.1-.7.6-.6 1 .1.2.2.4.4.5l1.7 1c.1.1.3.1.4.1.3 0 .6-.2.7-.4s.1-.4.1-.6-.2-.4-.4-.5z"/><path d="m19.7 19.3-1.7-1c-.1-.1-.3-.1-.4-.1s-.1 0-.2 0c-.2.1-.4.2-.5.4-.2.4-.1.9.3 1.1l1.6 1c.1.1.3.1.4.1.5 0 .8-.4.8-.9.1-.2-.1-.4-.3-.6z"/></g></g></svg>